<svg xmlns="http://www.w3.org/2000/svg" width="482" height="517" viewBox="0 0 482 517" version="1.1"><path d="M 315.780 87.052 C 313.735 88.133, 310.922 90.692, 309.530 92.740 C 307.178 96.203, 307 97.290, 307 108.232 C 307 114.704, 306.699 120, 306.332 120 C 305.964 120, 300.377 114.825, 293.917 108.501 C 285.867 100.621, 280.648 96.344, 277.335 94.911 C 274.676 93.761, 269.350 92.142, 265.500 91.314 C 260.926 90.330, 256.024 90.007, 251.355 90.382 C 247.425 90.698, 241.350 91.997, 237.855 93.267 C 234.360 94.538, 229.765 96.760, 227.643 98.204 C 225.522 99.648, 213.151 111.105, 200.152 123.665 C 187.153 136.224, 167.513 155.330, 156.508 166.122 C 145.504 176.914, 132 190.127, 126.500 195.483 C 121 200.840, 111.496 209.898, 105.381 215.612 C 95.039 225.277, 94.042 225.958, 91.112 225.372 C 89.138 224.978, 86.285 225.383, 83.464 226.461 C 80.940 227.425, 77.887 229.592, 76.509 231.399 C 75.158 233.171, 73.515 236.947, 72.859 239.792 C 71.725 244.703, 71.813 245.255, 74.588 250.732 C 76.917 255.327, 78.417 256.957, 81.967 258.750 C 84.418 259.988, 88.143 261, 90.244 261 C 92.345 261, 95.699 260.317, 97.698 259.482 C 99.696 258.647, 103.536 255.901, 106.231 253.380 C 108.926 250.860, 111.385 249.051, 111.695 249.362 C 112.005 249.672, 112.427 274.130, 112.633 303.713 C 112.839 333.296, 113.196 360.426, 113.425 364.001 C 113.654 367.577, 114.821 373.120, 116.018 376.318 C 117.215 379.517, 120.846 385.653, 124.087 389.954 C 127.328 394.256, 131.578 399.179, 133.533 400.895 C 135.487 402.611, 139.825 405.397, 143.171 407.086 C 146.518 408.776, 152.236 410.792, 155.878 411.567 C 161.309 412.722, 179.494 412.973, 257 412.963 C 339.263 412.953, 352.277 412.749, 357.500 411.394 C 360.800 410.538, 366.200 408.479, 369.500 406.819 C 372.800 405.158, 377.369 402.275, 379.654 400.412 C 381.938 398.549, 385.916 394.069, 388.494 390.457 C 391.071 386.844, 394.602 380.202, 396.340 375.695 L 399.500 367.500 399.500 307.877 C 399.500 265.943, 399.817 248.376, 400.570 248.665 C 401.158 248.891, 403.262 251.016, 405.245 253.388 C 407.227 255.760, 410.414 258.443, 412.326 259.350 C 414.238 260.258, 418.141 261, 421 261 C 423.859 261, 427.664 260.304, 429.456 259.454 C 431.248 258.603, 433.968 256.599, 435.500 255 C 437.032 253.401, 438.820 249.987, 439.474 247.413 C 440.325 244.062, 440.373 241.473, 439.644 238.288 C 438.889 234.987, 437.516 232.864, 434.315 230.046 C 431.943 227.959, 428.606 225.971, 426.899 225.630 C 425.192 225.288, 422.154 225.249, 420.148 225.543 C 416.672 226.051, 416.086 225.675, 407.737 217.568 L 398.973 209.059 399.017 152.886 L 399.061 96.712 396.821 93.444 C 395.589 91.646, 392.786 89.011, 390.591 87.588 L 386.600 85 353.050 85.044 C 321.682 85.086, 319.258 85.216, 315.780 87.052 M 334.035 114.934 C 333.466 115.999, 333 123.054, 333 130.624 L 333 144.380 351.715 163.190 C 362.009 173.536, 370.784 182, 371.215 182 C 371.647 182, 372 167.345, 372 149.434 C 372 128.898, 371.618 116.154, 370.965 114.934 C 370.002 113.135, 368.709 113, 352.500 113 C 336.291 113, 334.998 113.135, 334.035 114.934 M 245.167 119.618 C 243.334 120.419, 235.684 127.033, 228.167 134.316 C 220.650 141.599, 201.225 160.342, 185 175.967 C 168.775 191.592, 149.768 210.020, 142.763 216.920 L 130.026 229.464 134.983 234.483 L 139.940 239.502 140.220 301.001 L 140.500 362.500 143.306 368.214 C 144.850 371.357, 148.089 375.669, 150.506 377.796 C 152.922 379.923, 157.224 382.414, 160.065 383.332 C 163.970 384.593, 168.981 385, 180.615 385 C 189.077 385, 196.053 384.887, 196.118 384.750 C 196.182 384.613, 196.387 368.356, 196.573 348.624 C 196.777 326.959, 197.365 310.520, 198.058 307.124 C 198.690 304.031, 200.972 298.086, 203.130 293.913 C 205.635 289.068, 209.684 283.573, 214.330 278.711 C 220.233 272.533, 223.213 270.326, 230.123 267.010 C 235.340 264.507, 241.324 262.503, 245.570 261.838 C 249.381 261.240, 256.192 261.009, 260.704 261.324 C 266.493 261.728, 271.146 262.793, 276.516 264.943 C 280.700 266.618, 286.024 269.296, 288.346 270.894 C 290.668 272.492, 295.572 276.983, 299.244 280.876 C 303.855 285.764, 307.154 290.511, 309.911 296.226 C 312.106 300.777, 314.434 306.525, 315.085 309 C 315.855 311.926, 316.385 325.917, 316.602 349 L 316.935 384.500 333.718 384.481 C 349.041 384.465, 350.859 384.273, 354.628 382.273 C 356.899 381.069, 360.656 377.927, 362.979 375.292 C 365.301 372.656, 367.905 369.150, 368.766 367.500 C 369.858 365.408, 370.612 359.507, 371.257 348 C 371.766 338.925, 371.916 310.729, 371.591 285.343 L 370.999 239.186 375.991 234.698 L 380.983 230.210 369.309 218.855 C 362.888 212.610, 356.029 205.907, 354.067 203.959 C 352.105 202.012, 341.511 191.887, 330.525 181.459 C 319.539 171.032, 304.914 156.919, 298.025 150.099 C 291.136 143.278, 281.029 133.714, 275.565 128.845 C 269.436 123.383, 264.265 119.613, 262.065 119.002 C 260.104 118.457, 256.250 118.045, 253.500 118.087 C 250.750 118.129, 247 118.818, 245.167 119.618 M 246.329 176.518 C 242.934 180.060, 242 181.779, 242 184.484 C 242 186.380, 242.712 189.410, 243.582 191.216 C 244.452 193.022, 246.264 195.318, 247.609 196.317 C 248.954 197.317, 251.588 198.384, 253.463 198.688 C 255.816 199.070, 258.251 198.573, 261.330 197.082 C 264.377 195.607, 266.210 193.907, 267.120 191.712 C 267.852 189.945, 268.408 186.822, 268.354 184.771 C 268.301 182.720, 267.500 179.886, 266.574 178.473 C 265.649 177.060, 263.453 175.028, 261.696 173.956 C 259.938 172.884, 256.735 172.006, 254.579 172.004 C 251.232 172.001, 250.023 172.662, 246.329 176.518 M 249.418 215.969 C 248.274 216.432, 246.154 218.217, 244.708 219.935 C 243.262 221.653, 241.785 224.628, 241.425 226.546 C 241.044 228.579, 241.287 231.280, 242.009 233.021 C 242.690 234.665, 244.782 237.357, 246.658 239.005 C 249.370 241.386, 250.995 242, 254.584 242 C 257.068 242, 260.447 241.303, 262.094 240.451 C 263.741 239.600, 265.967 237.462, 267.040 235.701 C 268.136 233.905, 268.994 230.700, 268.996 228.398 C 268.999 225.779, 268.176 223.073, 266.720 220.912 C 265.466 219.052, 263.328 216.967, 261.970 216.279 C 260.611 215.592, 257.700 215.051, 255.500 215.078 C 253.300 215.105, 250.563 215.506, 249.418 215.969" stroke="none" fill="#050439" fill-rule="evenodd"/><path d="M 393 89.500 C 393 89.775, 393.225 90, 393.500 90 C 393.775 90, 394 89.775, 394 89.500 C 394 89.225, 393.775 89, 393.500 89 C 393.225 89, 393 89.225, 393 89.500 M 395 91.500 C 395 91.775, 395.225 92, 395.500 92 C 395.775 92, 396 91.775, 396 91.500 C 396 91.225, 395.775 91, 395.500 91 C 395.225 91, 395 91.225, 395 91.500 M 239 92.500 C 239 92.775, 239.225 93, 239.500 93 C 239.775 93, 240 92.775, 240 92.500 C 240 92.225, 239.775 92, 239.500 92 C 239.225 92, 239 92.225, 239 92.500 M 276 94.500 C 276 94.775, 276.225 95, 276.500 95 C 276.775 95, 277 94.775, 277 94.500 C 277 94.225, 276.775 94, 276.500 94 C 276.225 94, 276 94.225, 276 94.500 M 334.035 114.934 C 333.466 115.999, 333 123.054, 333 130.624 L 333 144.380 351.715 163.190 C 362.009 173.536, 370.784 182, 371.215 182 C 371.647 182, 372 167.345, 372 149.434 C 372 128.898, 371.618 116.154, 370.965 114.934 C 370.002 113.135, 368.709 113, 352.500 113 C 336.291 113, 334.998 113.135, 334.035 114.934 M 206.872 116.750 C 205.629 118.336, 205.664 118.371, 207.250 117.128 C 208.213 116.373, 209 115.585, 209 115.378 C 209 115.170, 208.830 115, 208.622 115 C 208.415 115, 207.627 115.787, 206.872 116.750 M 245.167 119.618 C 243.334 120.419, 235.684 127.033, 228.167 134.316 C 220.650 141.599, 201.225 160.342, 185 175.967 C 168.775 191.592, 149.768 210.020, 142.763 216.920 L 130.026 229.464 134.983 234.483 L 139.940 239.502 140.220 301.001 L 140.500 362.500 143.306 368.214 C 144.850 371.357, 148.089 375.669, 150.506 377.796 C 152.922 379.923, 157.224 382.414, 160.065 383.332 C 163.970 384.593, 168.981 385, 180.615 385 C 189.077 385, 196.053 384.887, 196.118 384.750 C 196.182 384.613, 196.387 368.356, 196.573 348.624 C 196.777 326.959, 197.365 310.520, 198.058 307.124 C 198.690 304.031, 200.972 298.086, 203.130 293.913 C 205.635 289.068, 209.684 283.573, 214.330 278.711 C 220.233 272.533, 223.213 270.326, 230.123 267.010 C 235.340 264.507, 241.324 262.503, 245.570 261.838 C 249.381 261.240, 256.192 261.009, 260.704 261.324 C 266.493 261.728, 271.146 262.793, 276.516 264.943 C 280.700 266.618, 286.024 269.296, 288.346 270.894 C 290.668 272.492, 295.572 276.983, 299.244 280.876 C 303.855 285.764, 307.154 290.511, 309.911 296.226 C 312.106 300.777, 314.434 306.525, 315.085 309 C 315.855 311.926, 316.385 325.917, 316.602 349 L 316.935 384.500 333.718 384.481 C 349.041 384.465, 350.859 384.273, 354.628 382.273 C 356.899 381.069, 360.656 377.927, 362.979 375.292 C 365.301 372.656, 367.905 369.150, 368.766 367.500 C 369.858 365.408, 370.612 359.507, 371.257 348 C 371.766 338.925, 371.916 310.729, 371.591 285.343 L 370.999 239.186 375.991 234.698 L 380.983 230.210 369.309 218.855 C 362.888 212.610, 356.029 205.907, 354.067 203.959 C 352.105 202.012, 341.511 191.887, 330.525 181.459 C 319.539 171.032, 304.914 156.919, 298.025 150.099 C 291.136 143.278, 281.029 133.714, 275.565 128.845 C 269.436 123.383, 264.265 119.613, 262.065 119.002 C 260.104 118.457, 256.250 118.045, 253.500 118.087 C 250.750 118.129, 247 118.818, 245.167 119.618 M 195.405 128.155 C 194.962 128.870, 195.130 129.038, 195.845 128.595 C 196.480 128.203, 197 127.684, 197 127.441 C 197 127.198, 196.802 127, 196.559 127 C 196.316 127, 195.797 127.520, 195.405 128.155 M 174 148.500 C 174 148.775, 174.225 149, 174.500 149 C 174.775 149, 175 148.775, 175 148.500 C 175 148.225, 174.775 148, 174.500 148 C 174.225 148, 174 148.225, 174 148.500 M 246.329 176.518 C 242.934 180.060, 242 181.779, 242 184.484 C 242 186.380, 242.712 189.410, 243.582 191.216 C 244.452 193.022, 246.264 195.318, 247.609 196.317 C 248.954 197.317, 251.588 198.384, 253.463 198.688 C 255.816 199.070, 258.251 198.573, 261.330 197.082 C 264.377 195.607, 266.210 193.907, 267.120 191.712 C 267.852 189.945, 268.408 186.822, 268.354 184.771 C 268.301 182.720, 267.500 179.886, 266.574 178.473 C 265.649 177.060, 263.453 175.028, 261.696 173.956 C 259.938 172.884, 256.735 172.006, 254.579 172.004 C 251.232 172.001, 250.023 172.662, 246.329 176.518 M 135.405 186.155 C 134.962 186.870, 135.130 187.038, 135.845 186.595 C 136.480 186.203, 137 185.684, 137 185.441 C 137 185.198, 136.802 185, 136.559 185 C 136.316 185, 135.797 185.520, 135.405 186.155 M 129 192.500 C 129 192.775, 129.225 193, 129.500 193 C 129.775 193, 130 192.775, 130 192.500 C 130 192.225, 129.775 192, 129.500 192 C 129.225 192, 129 192.225, 129 192.500 M 124.405 197.155 C 123.962 197.870, 124.130 198.038, 124.845 197.595 C 125.480 197.203, 126 196.684, 126 196.441 C 126 196.198, 125.802 196, 125.559 196 C 125.316 196, 124.797 196.520, 124.405 197.155 M 112 208.500 C 112 208.775, 112.225 209, 112.500 209 C 112.775 209, 113 208.775, 113 208.500 C 113 208.225, 112.775 208, 112.500 208 C 112.225 208, 112 208.225, 112 208.500 M 249.418 215.969 C 248.274 216.432, 246.154 218.217, 244.708 219.935 C 243.262 221.653, 241.785 224.628, 241.425 226.546 C 241.044 228.579, 241.287 231.280, 242.009 233.021 C 242.690 234.665, 244.782 237.357, 246.658 239.005 C 249.370 241.386, 250.995 242, 254.584 242 C 257.068 242, 260.447 241.303, 262.094 240.451 C 263.741 239.600, 265.967 237.462, 267.040 235.701 C 268.136 233.905, 268.994 230.700, 268.996 228.398 C 268.999 225.779, 268.176 223.073, 266.720 220.912 C 265.466 219.052, 263.328 216.967, 261.970 216.279 C 260.611 215.592, 257.700 215.051, 255.500 215.078 C 253.300 215.105, 250.563 215.506, 249.418 215.969 M 123 389.500 C 123 389.775, 123.225 390, 123.500 390 C 123.775 390, 124 389.775, 124 389.500 C 124 389.225, 123.775 389, 123.500 389 C 123.225 389, 123 389.225, 123 389.500" stroke="none" fill="#f9d7a7" fill-rule="evenodd"/></svg>