<svg xmlns="http://www.w3.org/2000/svg" width="446" height="478" viewBox="0 0 446 478" version="1.1"><path d="M 182.750 124.774 C 181.787 124.979, 181 125.590, 181 126.132 C 181 126.674, 181.413 126.863, 181.918 126.551 C 182.423 126.238, 181.569 128.600, 180.020 131.798 C 178.225 135.502, 177.353 138.681, 177.615 140.556 C 177.958 142.999, 177.867 143.160, 177.084 141.500 C 176.169 139.561, 176.138 139.567, 176.070 141.691 C 176.032 142.896, 176.416 144.139, 176.925 144.453 C 177.433 144.768, 179.881 143.267, 182.364 141.118 C 184.846 138.969, 186.568 136.896, 186.189 136.510 C 185.810 136.125, 186.175 135.943, 187 136.106 C 187.825 136.268, 190.183 135.772, 192.240 135.004 C 194.867 134.021, 195.611 133.341, 194.740 132.716 C 193.938 132.141, 194.352 132.016, 195.912 132.362 C 197.238 132.656, 199.257 132.398, 200.398 131.787 C 201.682 131.100, 208.810 130.678, 219.078 130.681 C 228.210 130.683, 236.203 131.008, 236.841 131.402 C 237.478 131.796, 238 131.667, 238 131.116 C 238 130.566, 239.012 130.350, 240.250 130.638 C 241.488 130.925, 242.950 131.161, 243.500 131.161 C 244.050 131.162, 248.550 131.063, 253.500 130.941 C 258.450 130.820, 264.975 131.051, 268 131.455 C 271.025 131.860, 274.555 132.861, 275.844 133.680 C 277.136 134.501, 279.207 134.914, 280.458 134.600 C 282.249 134.150, 282.627 133.501, 282.250 131.527 C 281.987 130.150, 281.396 129.255, 280.938 129.538 C 280.480 129.822, 280.273 129.177, 280.480 128.106 C 280.698 126.970, 280.155 125.851, 279.177 125.420 C 278.255 125.015, 277.050 124.797, 276.500 124.936 C 275.950 125.076, 274.712 125.346, 273.750 125.537 C 272.788 125.729, 272 125.513, 272 125.058 C 272 124.603, 254.113 124.237, 232.250 124.244 C 208.433 124.253, 191.748 124.649, 190.623 125.232 C 189.438 125.847, 188.516 125.855, 188.123 125.254 C 187.780 124.731, 186.825 124.325, 186 124.352 C 185.175 124.379, 183.713 124.569, 182.750 124.774 M 69.833 186.030 C 68 187.646, 66.950 188.982, 67.500 188.999 C 68.050 189.017, 67.825 189.457, 67 189.979 C 65.688 190.808, 65.500 200.602, 65.500 268.213 L 65.500 345.500 72.274 345.797 C 77.175 346.012, 79.449 345.693, 80.498 344.645 C 81.737 343.406, 81.929 333.345, 81.822 275.063 C 81.753 237.590, 81.315 206.695, 80.848 206.406 C 80.382 206.118, 80.007 205.346, 80.015 204.691 C 80.025 203.975, 80.418 204.099, 81 205 C 81.679 206.051, 82.019 206.126, 82.135 205.250 C 82.226 204.563, 82.345 203.438, 82.400 202.750 C 82.455 202.063, 82.950 201.169, 83.500 200.765 C 84.050 200.361, 97.695 200.024, 113.821 200.015 C 138.595 200.002, 143.377 199.766, 144.650 198.493 C 145.539 197.604, 146.286 194.658, 146.472 191.299 C 146.646 188.171, 146.559 185.015, 146.279 184.285 C 145.868 183.214, 138.757 182.971, 109.468 183.025 L 73.166 183.091 69.833 186.030 M 345 184 C 329.875 184.302, 317.950 184.657, 318.500 184.790 C 319.050 184.922, 318.875 185.427, 318.110 185.911 C 316.957 186.641, 317.093 187.560, 318.909 191.313 C 320.113 193.800, 322.089 196.476, 323.299 197.261 C 324.974 198.347, 331.370 198.846, 350.047 199.347 C 368.586 199.845, 374.888 199.712, 375.797 198.803 C 376.459 198.141, 377 194.979, 377 191.769 C 377 187.518, 376.595 185.782, 375.506 185.364 C 374.684 185.048, 374.260 184.388, 374.565 183.895 C 374.869 183.403, 374.529 183.102, 373.809 183.226 C 373.089 183.350, 360.125 183.698, 345 184 M 223.411 216.856 C 223.702 217.326, 222.761 217.486, 221.321 217.211 C 219.351 216.834, 218.902 217.032, 219.506 218.010 C 220.007 218.821, 219.914 219.065, 219.257 218.659 C 218.679 218.301, 216.816 218.287, 215.119 218.626 C 213.327 218.985, 212.304 219.683, 212.680 220.292 C 213.075 220.931, 212.707 221.102, 211.739 220.730 C 210.864 220.394, 208.541 220.564, 206.575 221.107 C 204.609 221.650, 203 222.492, 203 222.977 C 203 223.463, 201.988 224.015, 200.750 224.204 C 199.512 224.393, 198.612 225.099, 198.750 225.774 C 198.887 226.448, 198.662 226.929, 198.250 226.841 C 197.837 226.754, 196.600 227.056, 195.500 227.511 C 194.400 227.967, 192.503 229.104, 191.284 230.037 C 190.065 230.971, 189.311 231.978, 189.609 232.276 C 189.907 232.574, 189.216 233.114, 188.074 233.476 C 186.932 233.839, 185.533 235.005, 184.964 236.068 C 184.395 237.130, 183.244 238, 182.406 238 C 181.568 238, 181.160 238.450, 181.500 239 C 181.840 239.550, 181.641 240, 181.059 240 C 180.477 240, 180 240.642, 180 241.427 C 180 242.213, 178.936 243.692, 177.635 244.715 C 176.334 245.739, 174.932 247.684, 174.521 249.038 C 174.109 250.392, 172.923 252.903, 171.886 254.618 C 170.849 256.333, 170 258.830, 170 260.168 C 170 261.506, 169.592 263.028, 169.094 263.550 C 168.596 264.072, 167.754 267.875, 167.224 272 C 166.693 276.125, 166.339 282.425, 166.436 286 C 166.534 289.575, 167.226 293.624, 167.975 294.999 C 168.724 296.373, 169.377 298.623, 169.426 299.999 C 169.475 301.374, 171.438 305.087, 173.789 308.250 C 176.140 311.413, 178.444 314, 178.910 314 C 179.376 314, 180.326 315.373, 181.021 317.050 C 181.716 318.728, 183.908 321.628, 185.892 323.495 C 187.876 325.361, 191.203 328.036, 193.285 329.438 C 195.367 330.840, 198.026 332.878, 199.194 333.966 C 200.362 335.054, 203.491 336.667, 206.147 337.549 C 208.803 338.431, 211.207 339.526, 211.489 339.983 C 211.771 340.439, 214.364 341.178, 217.251 341.624 C 220.138 342.070, 222.950 342.490, 223.500 342.559 C 224.050 342.627, 225.736 343.028, 227.246 343.449 C 228.757 343.870, 232.582 343.766, 235.746 343.217 C 239.771 342.519, 242.928 342.555, 246.250 343.337 C 248.863 343.952, 251 345.025, 251 345.721 C 251 346.595, 249.879 346.844, 247.386 346.525 C 245.398 346.271, 242.923 345.793, 241.886 345.464 C 240.849 345.135, 240 345.331, 240 345.900 C 240 346.508, 237.876 346.846, 234.857 346.718 C 231.900 346.593, 229.552 346.957, 229.332 347.575 C 229.122 348.166, 230.537 349.136, 232.477 349.731 C 234.416 350.327, 235.771 350.438, 235.487 349.979 C 235.203 349.520, 235.896 348.850, 237.028 348.491 C 238.159 348.132, 240.819 348.132, 242.940 348.490 C 245.123 348.859, 247.057 348.718, 247.398 348.164 C 247.730 347.627, 248.894 347.421, 249.985 347.706 C 251.076 347.992, 253.140 347.931, 254.572 347.571 C 256.719 347.033, 256.964 346.661, 255.966 345.459 C 255.300 344.656, 254.204 344, 253.531 344 C 252.857 344, 251.315 343.140, 250.103 342.090 C 248.754 340.919, 248.307 339.928, 248.950 339.531 C 249.528 339.174, 250 339.414, 250 340.063 C 250 340.944, 250.382 340.928, 251.500 340 C 252.325 339.315, 253 339.013, 253 339.329 C 253 339.645, 254.238 339.353, 255.750 338.680 C 257.262 338.007, 261.121 335.743, 264.325 333.650 C 267.528 331.556, 270.783 330.086, 271.558 330.384 C 272.382 330.700, 272.731 331.666, 272.399 332.712 C 271.935 334.176, 272.178 334.112, 273.739 332.358 C 275.460 330.425, 275.747 330.375, 276.678 331.851 C 277.559 333.248, 277.949 333.287, 279.355 332.121 C 280.260 331.370, 281 330.360, 281 329.878 C 281 329.395, 280.155 329, 279.122 329 C 278.090 329, 276.666 328.302, 275.958 327.450 C 274.896 326.170, 274.958 325.614, 276.309 324.263 C 277.825 322.747, 278.117 322.826, 280.270 325.330 L 282.593 328.035 282.547 325.600 C 282.521 324.261, 282.090 322.791, 281.590 322.333 C 281.052 321.841, 281.007 322.065, 281.479 322.880 C 282.026 323.823, 281.839 324.113, 280.889 323.796 C 280.125 323.542, 279.500 322.696, 279.500 321.917 C 279.500 321.137, 280.252 320.557, 281.171 320.626 C 282.205 320.703, 282.641 320.227, 282.314 319.376 C 281.996 318.547, 282.449 318, 283.452 318 C 284.368 318, 284.840 317.551, 284.501 317.002 C 284.162 316.453, 284.513 315.106, 285.282 314.008 C 286.050 312.911, 286.914 312.247, 287.200 312.534 C 287.487 312.820, 288.499 310.281, 289.451 306.891 C 291.058 301.161, 291.261 300.890, 292.340 303.035 C 292.978 304.304, 294.074 305.456, 294.775 305.596 C 295.476 305.736, 295.589 305.621, 295.025 305.342 C 294.461 305.062, 294 302.171, 294 298.917 C 294 294.459, 294.352 293, 295.427 293 C 296.211 293, 297.561 291.581, 298.427 289.846 C 299.292 288.112, 300 284.211, 300 281.178 C 300 278.145, 299.500 272.791, 298.888 269.279 C 298.188 265.257, 295.934 259.307, 292.795 253.197 C 289.874 247.511, 285.681 241.225, 282.657 238 C 279.821 234.975, 276.712 232.356, 275.750 232.180 C 274.788 232.005, 274 231.265, 274 230.537 C 274 229.810, 273.212 228.912, 272.250 228.542 C 271.288 228.173, 270.275 227.850, 270 227.826 C 269.725 227.801, 268.306 226.930, 266.846 225.890 C 265.386 224.851, 263.521 224, 262.703 224 C 261.884 224, 260.937 223.278, 260.599 222.396 C 260.236 221.451, 259.349 221.036, 258.440 221.385 C 257.582 221.714, 257.160 221.551, 257.489 221.018 C 257.815 220.490, 257.051 219.825, 255.791 219.540 C 254.531 219.254, 252.302 218.828, 250.838 218.593 C 249.373 218.357, 247.266 217.677, 246.153 217.082 C 245.041 216.487, 239.350 216, 233.507 216 C 227.663 216, 223.120 216.385, 223.411 216.856 M 224.754 244.020 C 222.694 244.541, 218.269 246.350, 214.922 248.039 C 211.574 249.729, 206.910 253.037, 204.557 255.390 C 202.204 257.744, 199.040 261.783, 197.526 264.366 C 196.012 266.949, 194.416 270.736, 193.980 272.781 C 193.543 274.827, 192.912 278.898, 192.578 281.830 C 192.134 285.714, 192.506 288.900, 193.950 293.575 C 195.040 297.103, 197.449 302.354, 199.303 305.245 C 201.157 308.135, 204.521 312.162, 206.777 314.193 C 209.034 316.225, 212.222 318.581, 213.862 319.429 C 215.503 320.277, 219.017 321.734, 221.672 322.666 C 224.842 323.779, 229.590 324.359, 235.500 324.355 C 243.520 324.350, 245.215 324.007, 251.069 321.210 C 254.682 319.483, 259.632 316.305, 262.069 314.147 C 264.506 311.990, 267.992 307.740, 269.816 304.704 C 271.640 301.668, 273.772 296.780, 274.554 293.842 C 275.336 290.904, 275.982 286.765, 275.988 284.644 C 275.995 282.524, 275.288 278.041, 274.418 274.682 C 273.547 271.323, 271.702 266.641, 270.317 264.279 C 268.933 261.916, 265.488 257.719, 262.661 254.951 C 259.809 252.158, 254.625 248.548, 251.011 246.838 C 245.800 244.371, 242.903 243.688, 236.500 243.415 C 232.100 243.227, 226.814 243.500, 224.754 244.020 M 296 296.441 C 296 297.784, 296.450 299.160, 297 299.500 C 297.583 299.861, 298 298.844, 298 297.059 C 298 295.377, 297.550 294, 297 294 C 296.450 294, 296 295.098, 296 296.441 M 290.562 309.581 C 289.693 310.450, 289.242 311.582, 289.560 312.097 C 289.878 312.612, 290.627 312.731, 291.224 312.362 C 291.871 311.961, 292.021 312.156, 291.595 312.845 C 291.203 313.480, 291.359 314, 291.941 314 C 292.523 314, 293 312.650, 293 311 C 293 309.350, 292.807 308, 292.571 308 C 292.336 308, 291.432 308.711, 290.562 309.581 M 289.053 314.500 C 288.932 315.050, 288.720 316.528, 288.581 317.785 C 288.428 319.177, 288.689 319.711, 289.249 319.151 C 289.755 318.645, 289.968 317.166, 289.721 315.865 C 289.474 314.564, 289.174 313.950, 289.053 314.500 M 274 334.201 C 274 334.758, 273.305 334.947, 272.455 334.621 C 271.605 334.295, 268.676 335.196, 265.946 336.623 C 263.216 338.051, 260.682 339.705, 260.314 340.300 C 259.947 340.895, 260.176 341.559, 260.823 341.774 C 261.470 341.990, 262 342.579, 262 343.083 C 262 343.587, 261.298 344, 260.441 344 C 259.584 344, 259.151 344.435, 259.479 344.966 C 259.838 345.547, 261.487 345.258, 263.618 344.242 C 265.566 343.313, 266.674 342.391, 266.080 342.193 C 265.486 341.995, 265.007 341.083, 265.015 340.167 C 265.025 339.124, 265.306 338.912, 265.765 339.598 C 266.169 340.203, 267.531 340.614, 268.791 340.513 C 270.051 340.411, 271.787 339.322, 272.648 338.092 C 273.509 336.863, 275.145 335.512, 276.283 335.091 C 278.343 334.329, 278.342 334.323, 276.176 333.756 C 274.979 333.443, 274 333.643, 274 334.201 M 220 348.383 C 220 348.594, 220.900 349.002, 222 349.290 C 223.100 349.577, 224 349.405, 224 348.906 C 224 348.408, 223.100 348, 222 348 C 220.900 348, 220 348.173, 220 348.383 M 183.943 379.374 C 183.636 379.689, 156.749 379.985, 124.193 380.030 C 69.290 380.106, 64.995 380.235, 64.934 381.806 C 64.898 382.738, 64.926 387.515, 64.998 392.422 C 65.077 397.835, 65.630 402.061, 66.404 403.166 C 67.105 404.168, 67.977 404.690, 68.340 404.327 C 68.703 403.964, 69.003 404.304, 69.006 405.083 C 69.010 405.862, 70.381 407.279, 72.053 408.230 C 73.726 409.182, 74.792 409.473, 74.424 408.877 C 74.055 408.280, 74.873 408.526, 76.242 409.423 C 78.140 410.667, 79.346 410.819, 81.330 410.065 C 83.101 409.391, 84.138 409.414, 84.584 410.136 C 85.038 410.871, 106.205 411.095, 153.620 410.866 C 199.108 410.646, 222.005 410.195, 222.015 409.518 C 222.025 408.875, 222.301 408.895, 222.765 409.572 C 223.194 410.197, 226.941 410.621, 231.750 410.588 C 237.710 410.548, 240 410.181, 240 409.266 C 240 408.570, 240.450 408, 241 408 C 241.550 408, 242 408.563, 242 409.250 C 242 410.236, 256.762 410.540, 311.977 410.691 C 351.418 410.799, 382.192 410.499, 382.498 410.003 C 382.797 409.519, 383.990 409.305, 385.148 409.529 C 386.307 409.752, 388.200 409.428, 389.357 408.809 C 390.513 408.190, 392.029 407.114, 392.725 406.417 C 393.422 405.721, 394.444 403.962, 394.996 402.510 C 395.548 401.058, 396 395.399, 396 389.935 C 396 380.235, 395.946 380, 393.700 380 C 392.435 380, 390.908 380.492, 390.307 381.093 C 389.548 381.852, 388.631 381.873, 387.301 381.161 C 386.065 380.500, 366.290 380.129, 331.444 380.113 C 301.775 380.100, 275.700 380.474, 273.500 380.944 C 271.300 381.414, 267.025 382.329, 264 382.978 C 260.975 383.627, 254.225 384.685, 249 385.329 C 243.409 386.018, 235.797 386.220, 230.500 385.820 C 225.550 385.446, 217.675 384.414, 213 383.526 C 208.325 382.639, 202.475 381.485, 200 380.962 C 197.525 380.439, 193.025 379.739, 190 379.406 C 186.975 379.073, 184.249 379.058, 183.943 379.374 M 77.822 396.616 C 77.494 398.880, 77.453 401.918, 77.730 403.366 C 78.007 404.815, 78.631 406, 79.117 406 C 79.602 406, 80.053 405.212, 80.118 404.250 C 80.184 403.288, 80.115 402.050, 79.966 401.500 C 79.817 400.950, 79.408 398.700, 79.056 396.500 L 78.418 392.500 77.822 396.616" stroke="none" fill="#ffd486" fill-rule="evenodd"/><path d="M 390 52.313 C 390 52.485, 391.462 53.948, 393.250 55.563 L 396.500 58.500 393.563 55.250 C 391.948 53.462, 390.485 52, 390.313 52 C 390.141 52, 390 52.141, 390 52.313 M 65 58.500 C 62.571 60.975, 60.809 63, 61.084 63 C 61.359 63, 63.571 60.975, 66 58.500 C 68.429 56.025, 70.191 54, 69.916 54 C 69.641 54, 67.429 56.025, 65 58.500 M 119.500 60 C 122.766 63.300, 125.662 66, 125.937 66 C 126.212 66, 123.766 63.300, 120.500 60 C 117.234 56.700, 114.338 54, 114.063 54 C 113.788 54, 116.234 56.700, 119.500 60 M 139.272 80 C 139.272 82.475, 139.467 83.487, 139.706 82.250 C 139.944 81.013, 139.944 78.987, 139.706 77.750 C 139.467 76.513, 139.272 77.525, 139.272 80 M 98.924 85.750 L 96.500 88.500 99.250 86.076 C 100.763 84.742, 102 83.505, 102 83.326 C 102 83.147, 101.853 83, 101.674 83 C 101.495 83, 100.258 84.237, 98.924 85.750 M 180.762 89.707 C 182.006 89.946, 183.806 89.937, 184.762 89.687 C 185.718 89.437, 184.700 89.241, 182.500 89.252 C 180.300 89.263, 179.518 89.468, 180.762 89.707 M 229.264 89.718 C 230.784 89.947, 233.034 89.941, 234.264 89.704 C 235.494 89.467, 234.250 89.279, 231.500 89.286 C 228.750 89.294, 227.744 89.488, 229.264 89.718 M 247.302 89.746 C 252.693 89.926, 261.243 89.925, 266.302 89.744 C 271.361 89.563, 266.950 89.416, 256.500 89.417 C 246.050 89.418, 241.911 89.566, 247.302 89.746 M 335.958 98.250 C 338.410 100.862, 340.548 103, 340.708 103 C 340.869 103, 341 102.869, 341 102.708 C 341 102.548, 338.863 100.410, 336.250 97.958 L 331.500 93.500 335.958 98.250 M 223.269 123.693 C 224.242 123.947, 225.592 123.930, 226.269 123.656 C 226.946 123.382, 226.150 123.175, 224.500 123.195 C 222.850 123.215, 222.296 123.439, 223.269 123.693 M 229 134.500 C 229 135.325, 229.730 136, 230.622 136 C 231.951 136, 232.020 135.729, 231 134.500 C 230.315 133.675, 229.585 133, 229.378 133 C 229.170 133, 229 133.675, 229 134.500 M 250.729 133.604 C 250.328 134.005, 250 134.613, 250 134.954 C 250 135.295, 250.900 135.642, 252 135.725 C 253.100 135.808, 254 135.427, 254 134.879 C 254 134.331, 253.588 134.136, 253.085 134.447 C 252.582 134.758, 252.011 134.532, 251.815 133.944 C 251.619 133.356, 251.130 133.203, 250.729 133.604 M 234.397 135.167 C 234.114 135.625, 234.809 136, 235.941 136 C 237.073 136, 238 135.625, 238 135.167 C 238 134.708, 237.305 134.333, 236.456 134.333 C 235.607 134.333, 234.680 134.708, 234.397 135.167 M 256.500 135 C 256.840 135.550, 257.766 136, 258.559 136 C 259.352 136, 260 135.550, 260 135 C 260 134.450, 259.073 134, 257.941 134 C 256.809 134, 256.160 134.450, 256.500 135 M 283.165 136.877 C 282.151 137.520, 282.331 137.853, 283.915 138.268 C 285.062 138.567, 286 139.305, 286 139.906 C 286 140.508, 285.100 141, 284 141 C 282.900 141, 282 141.450, 282 142 C 282 142.550, 282.563 143.053, 283.250 143.118 C 283.938 143.184, 284.909 143.160, 285.408 143.066 C 285.908 142.971, 286.689 143.481, 287.143 144.197 C 287.598 144.914, 287.976 146.343, 287.985 147.372 C 287.997 148.924, 287.743 149.031, 286.500 148 C 285.264 146.975, 285 147.062, 285 148.494 C 285 149.719, 285.570 150.084, 286.927 149.729 C 288.530 149.310, 289.045 150.020, 289.985 153.939 C 290.607 156.531, 291.037 159.068, 290.940 159.576 C 290.843 160.084, 290.816 161.287, 290.882 162.250 C 290.947 163.213, 291.578 164, 292.284 164 C 292.991 164, 294.385 165.381, 295.382 167.069 C 296.379 168.757, 296.943 170.390, 296.635 170.698 C 296.327 171.006, 295.536 170.075, 294.877 168.629 C 294.218 167.183, 293.076 166, 292.339 166 C 291.603 166, 291.010 166.338, 291.022 166.750 C 291.034 167.162, 291.877 168.583, 292.894 169.906 C 294.217 171.626, 295.279 172.108, 296.622 171.597 C 298.128 171.023, 298.253 171.131, 297.250 172.141 C 296.563 172.833, 296 173.815, 296 174.322 C 296 174.830, 296.631 174.721, 297.403 174.081 C 298.174 173.440, 298.962 173.278, 299.153 173.719 C 299.344 174.161, 301.290 175.980, 303.478 177.761 C 305.666 179.543, 307.838 181, 308.306 181 C 308.773 181, 307.248 179.537, 304.917 177.750 C 302.521 175.913, 299.229 171.891, 297.345 168.500 C 295.512 165.200, 292.113 156.537, 289.792 149.250 C 287.471 141.963, 285.331 136.007, 285.036 136.015 C 284.741 136.024, 283.899 136.411, 283.165 136.877 M 224.625 140.798 C 224.354 141.237, 224.545 142.249, 225.051 143.048 C 225.768 144.182, 225.973 144.007, 225.985 142.250 C 225.993 141.012, 225.802 140, 225.559 140 C 225.316 140, 224.896 140.359, 224.625 140.798 M 250 141.214 C 250 141.646, 250.900 142, 252 142 C 253.100 142, 254 141.646, 254 141.214 C 254 140.782, 253.100 140.429, 252 140.429 C 250.900 140.429, 250 140.782, 250 141.214 M 276 140.941 C 276 141.459, 276.450 142.160, 277 142.500 C 277.550 142.840, 278 142.416, 278 141.559 C 278 140.702, 277.550 140, 277 140 C 276.450 140, 276 140.423, 276 140.941 M 173.160 148.264 C 173.072 149.784, 172.574 151.809, 172.054 152.764 C 171.533 153.719, 169.943 157.540, 168.519 161.256 C 167.096 164.972, 164.825 169.642, 163.473 171.636 C 162.120 173.629, 159.960 176.313, 158.672 177.601 C 157.384 178.889, 155.244 180.377, 153.915 180.908 C 152.037 181.659, 151.908 181.887, 153.338 181.937 C 154.349 181.971, 157.618 179.637, 160.603 176.750 C 164.342 173.132, 166.616 169.879, 167.916 166.284 C 168.953 163.416, 170.634 159.265, 171.651 157.060 C 172.668 154.855, 173.795 153.040, 174.156 153.026 C 174.517 153.012, 174.559 153.970, 174.249 155.156 C 173.862 156.634, 174.049 157.088, 174.842 156.597 C 175.479 156.204, 176 155.009, 176 153.941 C 176 152.873, 175.579 152, 175.063 152 C 174.548 152, 173.945 150.537, 173.723 148.750 C 173.358 145.808, 173.305 145.762, 173.160 148.264 M 100.728 149.722 C 102.503 149.943, 105.653 149.946, 107.728 149.730 C 109.802 149.513, 108.350 149.333, 104.500 149.328 C 100.650 149.324, 98.952 149.501, 100.728 149.722 M 117.750 149.740 C 121.188 149.936, 126.813 149.936, 130.250 149.740 C 133.688 149.545, 130.875 149.385, 124 149.385 C 117.125 149.385, 114.313 149.545, 117.750 149.740 M 284 155 C 284 155.550, 284.648 156, 285.441 156 C 286.234 156, 287.160 155.550, 287.500 155 C 287.840 154.450, 287.191 154, 286.059 154 C 284.927 154, 284 154.450, 284 155 M 172.809 159.056 C 172.502 159.856, 172.821 161.044, 173.519 161.695 C 174.216 162.347, 175.060 162.607, 175.393 162.273 C 175.727 161.940, 176 161.040, 176 160.274 C 176 159.509, 175.588 159.136, 175.085 159.447 C 174.582 159.758, 173.990 159.470, 173.769 158.807 C 173.491 157.972, 173.195 158.049, 172.809 159.056 M 266 162.559 C 266 163.416, 266.450 163.840, 267 163.500 C 267.550 163.160, 268 162.459, 268 161.941 C 268 161.423, 267.550 161, 267 161 C 266.450 161, 266 161.702, 266 162.559 M 265 167.333 C 265 168.260, 265.777 168.993, 266.750 168.985 C 267.749 168.976, 268.071 168.649, 267.500 168.223 C 266.950 167.813, 266.163 167.069, 265.750 166.572 C 265.337 166.074, 265 166.417, 265 167.333 M 270 166.893 C 270 167.384, 270.712 168.059, 271.582 168.393 C 272.452 168.727, 273.384 169, 273.653 169 C 273.923 169, 273.468 168.325, 272.643 167.500 C 271.818 166.675, 270.886 166, 270.571 166 C 270.257 166, 270 166.402, 270 166.893 M 174.274 167.831 C 173.598 168.249, 173.446 169.104, 173.914 169.860 C 174.541 170.875, 174.870 170.781, 175.384 169.441 C 175.749 168.491, 175.911 167.578, 175.745 167.411 C 175.578 167.245, 174.916 167.434, 174.274 167.831 M 238 176.941 C 238 177.459, 238.450 178.160, 239 178.500 C 239.550 178.840, 240 178.416, 240 177.559 C 240 176.702, 239.550 176, 239 176 C 238.450 176, 238 176.423, 238 176.941 M 254.250 179.662 C 253.563 179.940, 253 180.579, 253 181.083 C 253 181.588, 253.402 182, 253.893 182 C 254.384 182, 255.045 181.325, 255.362 180.500 C 255.678 179.675, 255.839 179.036, 255.719 179.079 C 255.598 179.122, 254.938 179.385, 254.250 179.662 M 202.496 182.007 C 202.153 182.561, 202.577 183.284, 203.437 183.614 C 204.296 183.944, 205 184.646, 205 185.173 C 205 185.701, 203.762 185.990, 202.250 185.816 C 200.178 185.578, 199.554 185.007, 199.721 183.500 C 199.842 182.400, 199.692 182.063, 199.388 182.750 C 199.083 183.438, 198.196 184, 197.417 184 C 196.637 184, 196 184.498, 196 185.107 C 196 185.716, 196.600 185.984, 197.333 185.702 C 198.067 185.421, 198.667 185.805, 198.667 186.556 C 198.667 187.306, 197.504 188.342, 196.083 188.858 C 194.662 189.374, 192.639 190.143, 191.586 190.568 C 190.139 191.152, 189.872 191.017, 190.490 190.015 C 191.039 189.128, 190.923 188.930, 190.138 189.415 C 189.494 189.813, 189.194 190.505, 189.471 190.953 C 189.748 191.401, 188.621 192.329, 186.966 193.014 C 185.311 193.700, 183.697 194.681, 183.380 195.194 C 183.062 195.708, 185.435 194.817, 188.651 193.213 C 191.868 191.610, 197.650 189.140, 201.500 187.724 C 205.350 186.309, 210.975 184.647, 214 184.032 C 217.025 183.417, 223.550 182.649, 228.500 182.326 C 233.517 181.998, 241.483 182.264, 246.500 182.927 C 251.450 183.580, 256.625 184.342, 258 184.621 C 259.835 184.992, 260.101 184.875, 259 184.183 C 258.175 183.664, 252.791 182.674, 247.035 181.981 C 240.440 181.188, 232.859 180.981, 226.535 181.423 C 221.016 181.808, 215.497 182.237, 214.270 182.375 C 213.044 182.513, 211.732 182.935, 211.354 183.313 C 210.976 183.691, 209.665 184, 208.440 184 C 207.216 184, 205.955 183.325, 205.638 182.500 C 205.322 181.675, 204.625 181, 204.090 181 C 203.556 181, 202.838 181.453, 202.496 182.007 M 261 182.531 C 261 183.339, 261.423 184, 261.941 184 C 262.459 184, 263.131 183.597, 263.435 183.105 C 263.740 182.612, 263.316 181.952, 262.494 181.636 C 261.587 181.288, 261 181.639, 261 182.531 M 151 185 C 151 185.550, 151.423 186, 151.941 186 C 152.459 186, 153.160 185.550, 153.500 185 C 153.840 184.450, 153.416 184, 152.559 184 C 151.702 184, 151 184.450, 151 185 M 394.080 186 C 394.735 187.375, 395.435 188.688, 395.635 188.917 C 395.836 189.146, 396 188.894, 396 188.358 C 396 187.821, 395.300 186.509, 394.445 185.441 C 392.978 183.611, 392.958 183.643, 394.080 186 M 269 188.382 C 272.025 189.646, 276.525 191.716, 279 192.981 C 281.475 194.246, 286.200 197.102, 289.500 199.328 C 292.800 201.553, 294.882 202.615, 294.128 201.687 C 293.373 200.759, 293.148 199.947, 293.628 199.882 C 294.107 199.816, 294.837 199.816, 295.250 199.882 C 295.663 199.947, 296 199.743, 296 199.429 C 296 199.114, 295.325 198.182, 294.500 197.357 C 293.332 196.189, 292.974 196.150, 292.882 197.179 C 292.816 197.905, 292.816 198.838, 292.882 199.250 C 292.947 199.662, 292.744 200, 292.430 200 C 292.117 200, 289.979 198.725, 287.680 197.167 C 285.381 195.608, 281.700 193.366, 279.500 192.184 C 277.300 191.001, 273.325 189.126, 270.667 188.017 C 268.009 186.908, 265.309 186.019, 264.667 186.042 C 264.025 186.066, 265.975 187.119, 269 188.382 M 396.844 195.610 L 397.187 201.034 388.167 200.913 C 383.206 200.846, 378.664 201.090, 378.073 201.455 C 377.325 201.917, 377 223.905, 377 274.059 L 377 346 362.500 346 L 348 346 348 314.934 C 348 293.460, 347.645 283.194, 346.850 281.684 C 346.218 280.483, 345.205 279.169, 344.600 278.765 C 343.995 278.361, 342.332 278.024, 340.905 278.015 C 339.478 278.007, 337.481 277.084, 336.467 275.964 C 335.454 274.844, 334.280 272.032, 333.857 269.714 C 333.319 266.759, 333.230 267.741, 333.559 273 C 333.817 277.125, 333.560 286.233, 332.988 293.239 C 332.226 302.568, 331.139 308.456, 328.924 315.233 C 327.261 320.323, 324.277 327.415, 322.295 330.993 C 320.312 334.572, 317.409 339.140, 315.845 341.144 C 314.280 343.148, 313 345.286, 313 345.894 C 313 346.685, 325.116 347, 355.500 347 L 398 347 398 269.059 C 398 226.191, 397.663 190.908, 397.250 190.652 C 396.837 190.396, 396.655 192.627, 396.844 195.610 M 180.334 193.645 C 180.694 194.275, 180.288 195.059, 179.431 195.388 C 178.574 195.717, 178.154 196.440, 178.497 196.995 C 178.840 197.550, 177.968 198.442, 176.560 198.977 C 175.152 199.512, 174 200.418, 174 200.989 C 174 201.561, 175.756 200.867, 177.902 199.446 C 180.047 198.026, 181.710 196.233, 181.597 195.461 C 181.484 194.689, 181.006 193.707, 180.535 193.279 C 180.065 192.851, 179.974 193.015, 180.334 193.645 M 297.241 200.441 C 297.649 200.922, 297.553 201.833, 297.028 202.466 C 296.367 203.263, 298.880 206.357, 305.226 212.558 C 310.259 217.476, 313.804 220.732, 313.103 219.794 C 312.402 218.855, 312.029 217.730, 312.275 217.294 C 312.521 216.857, 312.090 215.150, 311.318 213.500 L 309.914 210.500 310.489 213.302 C 311.019 215.883, 310.901 216.017, 309 215 C 307.865 214.393, 307.063 213.132, 307.218 212.198 C 307.397 211.121, 306.921 210.594, 305.916 210.756 C 305.045 210.896, 302.693 209.240, 300.689 207.075 C 297.838 203.993, 297.401 203.068, 298.679 202.819 C 300.109 202.540, 300.075 202.318, 298.406 201.033 C 297.358 200.226, 296.834 199.960, 297.241 200.441 M 170.122 201.904 C 169.364 202.384, 169.053 203.277, 169.431 203.888 C 169.809 204.500, 169.703 205, 169.195 205 C 168.688 205, 167.108 206.165, 165.684 207.589 C 164.115 209.158, 162.585 209.888, 161.798 209.442 C 160.793 208.873, 160.765 208.994, 161.674 209.977 C 162.607 210.988, 163.882 210.376, 167.899 206.988 C 170.677 204.645, 172.710 202.340, 172.416 201.864 C 172.122 201.389, 171.796 201.007, 171.691 201.015 C 171.586 201.024, 170.880 201.423, 170.122 201.904 M 157.116 209.668 C 157.052 210.311, 156.709 211.661, 156.353 212.668 C 155.851 214.089, 155.984 214.244, 156.947 213.356 C 157.629 212.727, 157.973 211.377, 157.710 210.356 C 157.447 209.335, 157.180 209.026, 157.116 209.668 M 156.500 216.564 C 154.300 219.044, 151.222 222.519, 149.659 224.287 C 148.097 226.054, 147.070 226.713, 147.378 225.750 C 147.685 224.787, 147.528 224, 147.028 224 C 146.527 224, 145.859 224.419, 145.543 224.931 C 145.226 225.443, 145.455 226.163, 146.052 226.532 C 146.648 226.901, 146.880 227.944, 146.566 228.851 C 146.252 229.758, 146.994 229.150, 148.215 227.500 C 149.436 225.850, 153.108 221.688, 156.376 218.250 C 159.644 214.813, 161.908 212.012, 161.409 212.027 C 160.909 212.042, 158.700 214.084, 156.500 216.564 M 233.264 214.718 C 234.784 214.947, 237.034 214.941, 238.264 214.704 C 239.494 214.467, 238.250 214.279, 235.500 214.286 C 232.750 214.294, 231.744 214.488, 233.264 214.718 M 316.215 225.250 C 317.563 227.037, 320.286 231.425, 322.266 235 C 324.245 238.575, 327.008 244.875, 328.407 249 C 329.805 253.125, 330.960 255.698, 330.974 254.718 C 330.988 253.737, 329.591 249.237, 327.869 244.718 C 326.147 240.198, 324.122 235.790, 323.369 234.921 C 322.616 234.053, 322 232.997, 322 232.576 C 322 232.154, 321.127 230.583, 320.060 229.084 C 318.993 227.586, 317.980 225.716, 317.810 224.930 C 317.639 224.143, 317.050 223.169, 316.500 222.765 C 315.950 222.361, 315.109 222.024, 314.631 222.015 C 314.154 222.007, 314.866 223.463, 316.215 225.250 M 142.250 228.559 C 141.563 229.305, 141 230.160, 141 230.458 C 141 230.756, 141.402 231, 141.893 231 C 142.384 231, 143.070 230.261, 143.417 229.357 C 143.763 228.453, 143.924 227.599, 143.774 227.458 C 143.623 227.317, 142.938 227.812, 142.250 228.559 M 275 229.500 C 276.292 230.875, 277.574 232, 277.849 232 C 278.124 232, 277.292 230.875, 276 229.500 C 274.708 228.125, 273.426 227, 273.151 227 C 272.876 227, 273.708 228.125, 275 229.500 M 183.462 235.250 L 178.500 240.500 183.750 235.538 C 186.637 232.808, 189 230.446, 189 230.288 C 189 230.129, 188.871 230, 188.712 230 C 188.554 230, 186.192 232.363, 183.462 235.250 M 143.914 233.160 C 142.873 235.107, 142.666 235.154, 141.818 233.639 C 141.300 232.714, 140.428 232.236, 139.879 232.575 C 139.291 232.938, 139.574 233.699, 140.567 234.425 C 141.948 235.435, 142.043 236.051, 141.091 237.829 C 140.452 239.023, 139.270 240, 138.465 240 C 137.659 240, 137 240.257, 137 240.571 C 137 240.886, 137.563 241.677, 138.250 242.329 C 139.234 243.263, 140.176 242.182, 142.672 237.258 C 144.417 233.816, 145.670 231, 145.457 231 C 145.245 231, 144.550 231.972, 143.914 233.160 M 286.249 241 C 287.608 242.925, 290.139 247.313, 291.874 250.750 C 293.609 254.188, 295.253 257, 295.527 257 C 295.801 257, 294.471 253.963, 292.571 250.250 C 290.671 246.537, 287.916 242.150, 286.448 240.500 L 283.779 237.500 286.249 241 M 84 241.500 C 84 242.325, 84.450 243, 85 243 C 85.550 243, 86 242.325, 86 241.500 C 86 240.675, 85.550 240, 85 240 C 84.450 240, 84 240.675, 84 241.500 M 134 243.941 C 134 244.459, 134.450 245.160, 135 245.500 C 135.550 245.840, 136 245.416, 136 244.559 C 136 243.702, 135.550 243, 135 243 C 134.450 243, 134 243.423, 134 243.941 M 231.264 243.718 C 232.784 243.947, 235.034 243.941, 236.264 243.704 C 237.494 243.467, 236.250 243.279, 233.500 243.286 C 230.750 243.294, 229.744 243.488, 231.264 243.718 M 241.269 244.693 C 242.242 244.947, 243.592 244.930, 244.269 244.656 C 244.946 244.382, 244.150 244.175, 242.500 244.195 C 240.850 244.215, 240.296 244.439, 241.269 244.693 M 136.912 246.282 C 136.039 246.952, 135.519 248.077, 135.757 248.783 C 135.994 249.489, 135.897 250.826, 135.541 251.755 C 134.992 253.183, 134.755 253.221, 134.001 252.001 C 133.510 251.207, 132.795 250.872, 132.412 251.255 C 132.029 251.638, 132.281 252.633, 132.972 253.467 C 133.664 254.300, 134.017 256.223, 133.756 257.741 C 133.496 259.258, 132.946 261.288, 132.534 262.250 C 132.102 263.261, 132.216 264, 132.805 264 C 133.366 264, 134.124 262.087, 134.491 259.750 C 134.857 257.413, 136.016 253.137, 137.065 250.250 C 138.114 247.363, 138.866 245.014, 138.736 245.032 C 138.606 245.049, 137.786 245.612, 136.912 246.282 M 129 248.559 C 129 249.416, 129.450 249.840, 130 249.500 C 130.550 249.160, 131 248.459, 131 247.941 C 131 247.423, 130.550 247, 130 247 C 129.450 247, 129 247.702, 129 248.559 M 255 249.166 C 255.275 249.406, 258.425 252.266, 262 255.521 L 268.500 261.440 263.500 256.145 C 260.750 253.232, 257.600 250.373, 256.500 249.789 C 255.400 249.206, 254.725 248.926, 255 249.166 M 129.543 257.345 C 127.784 258.631, 127.797 258.714, 129.852 259.251 C 131.495 259.681, 132 259.364, 132 257.906 C 132 256.858, 131.861 256, 131.691 256 C 131.521 256, 130.555 256.605, 129.543 257.345 M 86 259 C 85.207 259.490, 84.890 260.223, 85.296 260.629 C 85.701 261.035, 86.558 260.842, 87.200 260.200 C 87.842 259.558, 88.159 258.825, 87.904 258.571 C 87.650 258.317, 86.793 258.510, 86 259 M 332.195 262.500 C 332.215 264.150, 332.439 264.704, 332.693 263.731 C 332.947 262.758, 332.930 261.408, 332.656 260.731 C 332.382 260.054, 332.175 260.850, 332.195 262.500 M 197.388 264.531 C 196.475 265.923, 195.911 267.244, 196.133 267.467 C 196.356 267.689, 197.296 266.550, 198.222 264.935 C 199.149 263.321, 199.713 262, 199.477 262 C 199.240 262, 198.300 263.139, 197.388 264.531 M 131.479 271.351 C 130.832 277.393, 130.676 277.689, 128.282 277.427 C 126.897 277.275, 124.717 277.627, 123.437 278.211 C 122.157 278.794, 120.803 279.997, 120.427 280.885 C 120.052 281.773, 119.607 288.125, 119.439 295 C 119.271 301.875, 119.104 316.190, 119.067 326.812 L 119 346.123 101.477 345.918 C 91.840 345.805, 83.665 346.002, 83.310 346.356 C 82.956 346.710, 98.942 347, 118.833 347 C 138.725 347, 155 346.811, 155 346.580 C 155 346.349, 152.582 342.636, 149.627 338.330 C 146.672 334.023, 143.033 327.815, 141.542 324.534 C 140.050 321.253, 138.217 316.753, 137.468 314.534 C 136.719 312.315, 135.321 306.900, 134.361 302.500 C 133.164 297.014, 132.598 289.865, 132.558 279.750 C 132.526 271.637, 132.423 265, 132.330 265 C 132.236 265, 131.853 267.858, 131.479 271.351 M 165.252 274.500 C 165.263 276.700, 165.468 277.482, 165.707 276.238 C 165.946 274.994, 165.937 273.194, 165.687 272.238 C 165.437 271.282, 165.241 272.300, 165.252 274.500 M 300.355 282.500 C 300.352 287.450, 300.521 289.601, 300.731 287.280 C 300.940 284.959, 300.943 280.909, 300.736 278.280 C 300.530 275.651, 300.358 277.550, 300.355 282.500 M 193.232 279 C 193.232 280.925, 193.438 281.712, 193.689 280.750 C 193.941 279.788, 193.941 278.212, 193.689 277.250 C 193.438 276.288, 193.232 277.075, 193.232 279 M 275.272 285 C 275.272 287.475, 275.467 288.488, 275.706 287.250 C 275.944 286.012, 275.944 283.988, 275.706 282.750 C 275.467 281.512, 275.272 282.525, 275.272 285 M 299.195 295.500 C 299.215 297.150, 299.439 297.704, 299.693 296.731 C 299.947 295.758, 299.930 294.408, 299.656 293.731 C 299.382 293.054, 299.175 293.850, 299.195 295.500 M 297.079 303.668 C 297.036 304.311, 296.741 305.661, 296.424 306.668 C 295.877 308.409, 295.906 308.412, 296.995 306.712 C 297.626 305.729, 297.920 304.379, 297.650 303.712 C 297.295 302.837, 297.136 302.825, 297.079 303.668 M 170 306.367 C 170 306.752, 171.133 309.302, 172.517 312.033 C 173.901 314.765, 175.259 317, 175.534 317 C 175.809 317, 174.847 314.637, 173.397 311.750 C 171.946 308.863, 170.589 306.313, 170.380 306.083 C 170.171 305.854, 170 305.982, 170 306.367 M 205 312.500 C 206.292 313.875, 207.574 315, 207.849 315 C 208.124 315, 207.292 313.875, 206 312.500 C 204.708 311.125, 203.426 310, 203.151 310 C 202.876 310, 203.708 311.125, 205 312.500 M 291.695 317.513 C 290.781 319.431, 290.239 321, 290.490 321 C 290.742 321, 291.668 319.608, 292.548 317.907 C 293.428 316.206, 293.970 314.637, 293.753 314.420 C 293.536 314.203, 292.610 315.594, 291.695 317.513 M 181 325.500 C 182.292 326.875, 183.574 328, 183.849 328 C 184.124 328, 183.292 326.875, 182 325.500 C 180.708 324.125, 179.426 323, 179.151 323 C 178.876 323, 179.708 324.125, 181 325.500 M 282.552 330.821 L 276.604 337.500 281.877 332.500 C 284.777 329.750, 287.582 326.712, 288.110 325.750 C 288.638 324.788, 288.942 324.032, 288.785 324.071 C 288.628 324.111, 285.823 327.148, 282.552 330.821 M 32.310 331.500 C 32.315 334.800, 32.502 336.029, 32.725 334.232 C 32.947 332.435, 32.943 329.735, 32.715 328.232 C 32.486 326.729, 32.304 328.200, 32.310 331.500 M 191 335.500 C 192.292 336.875, 193.574 338, 193.849 338 C 194.124 338, 193.292 336.875, 192 335.500 C 190.708 334.125, 189.426 333, 189.151 333 C 188.876 333, 189.708 334.125, 191 335.500 M 32.232 343 C 32.232 344.925, 32.438 345.712, 32.689 344.750 C 32.941 343.788, 32.941 342.212, 32.689 341.250 C 32.438 340.288, 32.232 341.075, 32.232 343 M 231.250 351.728 C 233.313 351.944, 236.688 351.944, 238.750 351.728 C 240.813 351.513, 239.125 351.336, 235 351.336 C 230.875 351.336, 229.188 351.513, 231.250 351.728 M 169.750 378.706 C 170.988 378.944, 173.012 378.944, 174.250 378.706 C 175.488 378.467, 174.475 378.272, 172 378.272 C 169.525 378.272, 168.512 378.467, 169.750 378.706 M 96.250 379.748 C 104.362 379.916, 117.637 379.916, 125.750 379.748 C 133.862 379.580, 127.225 379.442, 111 379.442 C 94.775 379.442, 88.137 379.580, 96.250 379.748 M 270 380.014 C 268.945 380.706, 269.538 380.807, 272 380.355 C 273.925 380.002, 275.688 379.552, 275.917 379.356 C 276.146 379.160, 275.246 379.007, 273.917 379.015 C 272.587 379.024, 270.825 379.473, 270 380.014 M 316.179 379.749 C 330.853 379.905, 355.153 379.905, 370.179 379.749 C 385.206 379.594, 373.200 379.466, 343.500 379.466 C 313.800 379.466, 301.506 379.593, 316.179 379.749 M 263.250 381.689 C 264.212 381.941, 265.788 381.941, 266.750 381.689 C 267.712 381.438, 266.925 381.232, 265 381.232 C 263.075 381.232, 262.288 381.438, 263.250 381.689 M 217.269 383.693 C 218.242 383.947, 219.592 383.930, 220.269 383.656 C 220.946 383.382, 220.150 383.175, 218.500 383.195 C 216.850 383.215, 216.296 383.439, 217.269 383.693 M 226.762 384.707 C 228.006 384.946, 229.806 384.937, 230.762 384.687 C 231.718 384.437, 230.700 384.241, 228.500 384.252 C 226.300 384.263, 225.518 384.468, 226.762 384.707 M 243.250 384.689 C 244.213 384.941, 245.787 384.941, 246.750 384.689 C 247.713 384.438, 246.925 384.232, 245 384.232 C 243.075 384.232, 242.287 384.438, 243.250 384.689 M 396.286 396.500 C 396.294 399.250, 396.488 400.256, 396.718 398.736 C 396.947 397.216, 396.941 394.966, 396.704 393.736 C 396.467 392.506, 396.279 393.750, 396.286 396.500 M 150.328 411.750 C 190.934 411.895, 257.084 411.895, 297.328 411.750 C 337.573 411.605, 304.350 411.487, 223.500 411.487 C 142.650 411.487, 109.723 411.605, 150.328 411.750 M 373.264 411.718 C 374.784 411.947, 377.034 411.941, 378.264 411.704 C 379.494 411.467, 378.250 411.279, 375.500 411.286 C 372.750 411.294, 371.744 411.488, 373.264 411.718" stroke="none" fill="#bf8bd5" fill-rule="evenodd"/><path d="M 362 27.652 C 361.175 27.924, 359.433 28.669, 358.128 29.307 C 356.824 29.946, 353.956 33.120, 351.755 36.361 C 349.554 39.602, 344.609 45.564, 340.766 49.610 C 336.923 53.655, 329.905 59.561, 325.170 62.733 C 318.259 67.363, 316.372 69.166, 315.600 71.877 C 314.805 74.666, 315.028 75.971, 316.880 79.377 C 318.188 81.784, 322.470 86.206, 327.166 90 C 331.590 93.575, 337.564 99.200, 340.442 102.500 C 343.320 105.800, 347.622 111.114, 350.002 114.310 C 352.383 117.505, 355.584 120.768, 357.116 121.560 C 358.647 122.352, 361.611 122.984, 363.700 122.964 C 366.141 122.941, 368.421 122.136, 370.075 120.714 C 371.492 119.496, 376.965 113.527, 382.238 107.450 C 388.223 100.552, 395.370 93.689, 401.258 89.185 C 408.811 83.408, 410.944 81.200, 411.967 78.101 C 412.844 75.443, 412.950 73.334, 412.304 71.366 C 411.648 69.362, 408.829 66.793, 402.933 62.824 C 398.295 59.703, 391.971 54.465, 388.880 51.186 C 385.789 47.906, 380.461 41.546, 377.040 37.053 C 373.619 32.559, 369.707 28.459, 368.345 27.941 C 366.984 27.424, 365.337 27.036, 364.685 27.079 C 364.033 27.122, 362.825 27.380, 362 27.652 M 86.984 34.847 C 85.038 35.878, 80.866 40.182, 77.533 44.597 C 74.251 48.943, 69.076 54.975, 66.033 58 C 62.990 61.025, 56.788 66.110, 52.250 69.301 C 44.138 75.004, 44 75.171, 44.015 79.301 C 44.026 82.576, 44.742 84.332, 47.265 87.281 C 49.044 89.360, 54.550 94.331, 59.500 98.326 C 65.519 103.185, 70.711 108.553, 75.175 114.532 C 78.846 119.450, 83.033 124.492, 84.480 125.737 C 86.264 127.271, 88.398 128, 91.105 128 C 93.302 128, 96.422 127.316, 98.038 126.480 C 99.655 125.644, 103.864 121.032, 107.391 116.230 C 110.919 111.429, 116.887 104.531, 120.653 100.902 C 124.419 97.273, 128.909 93.577, 130.631 92.688 C 132.353 91.799, 134.940 89.671, 136.381 87.959 C 138.395 85.566, 139 83.759, 139 80.138 L 139 75.430 131.532 70.089 C 127.425 67.151, 121.666 62.217, 118.734 59.124 C 115.802 56.031, 111.178 50.350, 108.457 46.500 C 105.736 42.650, 102.060 38.038, 100.288 36.250 C 97.950 33.891, 96.162 33, 93.768 33 C 91.953 33, 88.901 33.831, 86.984 34.847 M 360.515 64.602 C 359.448 66.583, 356.594 69.948, 354.173 72.079 L 349.770 75.955 355.253 81.227 C 358.269 84.127, 361.217 87.400, 361.805 88.500 C 362.791 90.346, 363.415 89.924, 369.894 83.030 L 376.915 75.561 373.533 72.030 C 371.673 70.089, 368.720 66.813, 366.972 64.750 C 365.223 62.688, 363.492 61, 363.124 61 C 362.756 61, 361.582 62.621, 360.515 64.602 M 85.251 74.696 C 80.886 79.145, 79.427 81.226, 80.410 81.604 C 81.184 81.901, 83.740 84.784, 86.090 88.010 C 89.522 92.724, 90.693 93.699, 92.047 92.975 C 92.975 92.478, 96.043 89.545, 98.867 86.456 C 101.690 83.366, 104 80.456, 104 79.988 C 104 79.519, 101.612 76.631, 98.692 73.568 C 95.773 70.506, 92.961 68.074, 92.442 68.164 C 91.924 68.254, 88.688 71.194, 85.251 74.696 M 179.075 90.094 C 174.991 90.581, 169.819 91.935, 167.581 93.101 C 165.343 94.268, 161.461 96.939, 158.955 99.038 C 156.449 101.136, 153.218 105.024, 151.776 107.677 C 150.334 110.329, 147.284 118.350, 144.998 125.500 C 142.713 132.650, 139.841 140.975, 138.616 144 L 136.388 149.500 102.444 149.500 C 69.435 149.500, 68.321 149.564, 62 151.828 C 58.425 153.108, 53.295 155.561, 50.601 157.278 C 47.906 158.995, 43.772 163.022, 41.413 166.225 C 39.055 169.429, 36.084 174.627, 34.812 177.775 L 32.500 183.500 32.302 292.500 C 32.183 358.089, 32.484 403.676, 33.058 406.963 C 33.582 409.968, 35.292 415.164, 36.858 418.510 C 38.424 421.857, 41.234 426.338, 43.103 428.468 C 44.971 430.598, 48.784 433.802, 51.575 435.589 C 54.366 437.375, 59.541 439.790, 63.075 440.955 L 69.500 443.074 230.500 443.014 C 361.717 442.966, 392.425 442.707, 396.500 441.615 C 399.250 440.879, 403.183 439.564, 405.240 438.693 C 407.297 437.823, 410.798 435.650, 413.020 433.864 C 415.241 432.078, 418.664 428.200, 420.626 425.244 C 422.588 422.289, 425.329 417.088, 426.719 413.686 L 429.245 407.500 429.062 295.628 L 428.878 183.755 426.565 177.384 C 425.293 173.879, 422.350 168.546, 420.024 165.531 C 417.527 162.295, 413.145 158.376, 409.323 155.963 C 404.626 152.996, 400.791 151.481, 395.338 150.438 C 389.817 149.381, 379.658 149, 357.034 149 C 333.612 149, 326.001 148.701, 325.228 147.750 C 324.668 147.063, 321.884 138.850, 319.041 129.500 C 316.198 120.150, 312.791 110.847, 311.472 108.826 C 310.152 106.805, 307.612 103.489, 305.828 101.457 C 304.044 99.425, 300.932 96.719, 298.911 95.444 C 296.891 94.169, 292.822 92.456, 289.869 91.638 C 285.578 90.450, 274.664 90.057, 235.500 89.679 C 208.550 89.419, 183.159 89.606, 179.075 90.094 M 183.661 122.825 C 181.416 123.082, 180.438 124.025, 178.993 127.325 C 177.987 129.621, 176.170 135.775, 174.955 141 C 173.740 146.225, 172.385 151.400, 171.945 152.500 C 171.504 153.600, 169.971 157.540, 168.538 161.256 C 167.104 164.972, 164.825 169.642, 163.473 171.636 C 162.120 173.629, 159.966 176.306, 158.687 177.586 C 157.407 178.866, 155.125 180.382, 153.615 180.956 C 151.881 181.616, 136.682 182, 112.339 182 C 78.866 182, 73.454 182.209, 71.109 183.595 C 69.624 184.472, 67.417 186.637, 66.204 188.407 L 64 191.624 64 269.312 L 64 347 109.500 347 C 134.525 347, 155 346.811, 155 346.580 C 155 346.349, 152.582 342.636, 149.627 338.330 C 146.672 334.023, 143.033 327.815, 141.542 324.534 C 140.050 321.253, 138.217 316.753, 137.468 314.534 C 136.719 312.315, 135.334 306.900, 134.391 302.500 C 133.312 297.466, 132.643 289.680, 132.588 281.500 C 132.538 274.120, 133.082 265.690, 133.846 262 C 134.587 258.425, 136.723 251.431, 138.593 246.459 C 140.463 241.486, 144.213 234.061, 146.925 229.959 C 149.638 225.856, 155.377 219.008, 159.678 214.741 C 163.980 210.473, 170.200 204.962, 173.500 202.493 C 176.800 200.024, 182.875 196.263, 187 194.136 C 191.125 192.008, 197.650 189.116, 201.500 187.709 C 205.350 186.302, 210.930 184.657, 213.900 184.054 C 216.869 183.450, 223.222 182.679, 228.016 182.338 C 232.985 181.985, 240.982 182.245, 246.617 182.942 C 252.052 183.615, 259.782 185.256, 263.793 186.590 C 267.805 187.924, 273.880 190.423, 277.293 192.144 C 280.707 193.865, 286.200 197.070, 289.500 199.266 C 292.800 201.461, 299.031 206.687, 303.347 210.879 C 307.663 215.070, 312.873 220.750, 314.924 223.500 C 316.976 226.250, 320.285 231.428, 322.278 235.007 C 324.270 238.585, 327.245 245.630, 328.889 250.661 C 330.535 255.697, 332.371 264.287, 332.975 269.772 C 333.759 276.899, 333.770 283.470, 333.012 292.850 C 332.225 302.593, 331.175 308.345, 328.926 315.225 C 327.262 320.319, 324.277 327.415, 322.295 330.993 C 320.312 334.572, 317.409 339.140, 315.845 341.144 C 314.280 343.148, 313 345.286, 313 345.894 C 313 346.685, 325.116 347, 355.500 347 L 398 347 398 269.688 C 398 194.879, 397.936 192.244, 396.035 188.308 C 394.954 186.071, 393.266 183.910, 392.285 183.505 C 391.303 183.100, 374.227 182.845, 354.337 182.938 C 324.167 183.079, 317.285 182.848, 312.806 181.546 C 309.854 180.688, 305.845 178.672, 303.898 177.068 C 301.951 175.463, 298.927 171.464, 297.177 168.181 C 295.427 164.898, 291.776 155.455, 289.064 147.196 C 286.352 138.938, 283.197 130.003, 282.051 127.341 L 279.969 122.500 233.235 122.500 C 207.531 122.500, 185.222 122.646, 183.661 122.825 M 225 215.090 C 221.425 215.551, 214.817 217.074, 210.316 218.475 C 205.175 220.076, 199.334 222.895, 194.603 226.060 C 190.461 228.830, 184.338 234.112, 180.995 237.798 C 177.653 241.484, 173.589 247.200, 171.965 250.500 C 170.341 253.800, 168.109 260.059, 167.006 264.410 C 165.755 269.342, 165.006 275.554, 165.017 280.910 C 165.028 286.106, 165.800 292.463, 166.972 297 C 168.037 301.125, 170.740 308.120, 172.977 312.545 C 175.214 316.970, 178.723 322.622, 180.776 325.106 C 182.828 327.590, 186.891 331.739, 189.805 334.327 C 192.718 336.914, 199.016 340.990, 203.801 343.385 C 208.585 345.780, 215.110 348.492, 218.299 349.412 C 221.489 350.332, 226.988 351.354, 230.520 351.684 C 234.078 352.016, 240.411 351.725, 244.721 351.031 C 248.999 350.343, 254.948 348.864, 257.941 347.746 C 260.933 346.628, 266.013 344.171, 269.230 342.286 C 272.447 340.401, 277.895 336.223, 281.339 333.002 C 286.017 328.626, 288.641 325.043, 291.724 318.823 C 293.993 314.245, 296.545 308.388, 297.394 305.806 C 298.243 303.224, 299.399 298.274, 299.962 294.806 C 300.524 291.338, 300.980 285.575, 300.975 282 C 300.970 278.425, 300.299 272.350, 299.485 268.500 C 298.670 264.650, 296.177 257.689, 293.943 253.031 C 291.709 248.373, 288.348 242.690, 286.473 240.401 C 284.597 238.113, 281.136 234.413, 278.782 232.180 C 276.427 229.947, 272.925 227.058, 271 225.762 C 269.075 224.465, 265.700 222.435, 263.500 221.250 C 261.300 220.064, 257.388 218.412, 254.806 217.578 C 252.224 216.744, 247.274 215.601, 243.806 215.038 C 240.338 214.476, 236.150 214.069, 234.500 214.134 C 232.850 214.200, 228.575 214.630, 225 215.090 M 224 245.293 C 221.525 246.004, 217.332 247.674, 214.681 249.004 C 212.031 250.335, 207.724 253.562, 205.109 256.176 C 202.495 258.791, 199.189 263.083, 197.762 265.715 C 196.178 268.635, 194.710 273.643, 193.995 278.566 C 193.099 284.734, 193.100 287.675, 193.997 291.066 C 194.642 293.505, 196.540 298.305, 198.214 301.734 C 199.979 305.348, 203.320 309.896, 206.162 312.554 C 208.858 315.076, 213.555 318.281, 216.601 319.675 C 219.646 321.069, 225.255 322.692, 229.065 323.282 C 234.084 324.059, 237.657 324.045, 242.027 323.232 C 245.345 322.615, 250.158 321.073, 252.722 319.805 C 255.287 318.537, 259.783 315.167, 262.714 312.315 C 266.080 309.041, 269.186 304.691, 271.142 300.511 C 273.167 296.183, 274.415 291.701, 274.747 287.562 C 275.031 284.019, 274.698 278.870, 273.991 275.866 C 273.295 272.915, 271.711 268.475, 270.470 266 C 269.229 263.525, 265.480 258.894, 262.138 255.709 C 258.797 252.524, 253.602 248.792, 250.595 247.415 C 246.635 245.602, 242.834 244.786, 236.814 244.456 C 231.643 244.173, 226.799 244.489, 224 245.293 M 116.041 378.759 C 85.310 378.917, 65.204 379.396, 64.616 379.984 C 64.085 380.515, 63.694 385.484, 63.746 391.026 C 63.833 400.211, 64.067 401.399, 66.393 404.449 C 67.797 406.289, 70.927 408.754, 73.349 409.927 L 77.752 412.058 232.126 411.779 C 367.014 411.535, 386.867 411.311, 389.410 410 C 391.011 409.175, 393.261 407.231, 394.410 405.681 C 396.199 403.267, 396.548 401.145, 396.834 390.931 L 397.167 379 334.905 379 C 299.729 379, 271.306 379.402, 269.571 379.923 C 267.882 380.431, 264.250 381.330, 261.500 381.921 C 258.750 382.511, 252.150 383.466, 246.833 384.043 C 240.068 384.777, 234.065 384.774, 226.833 384.034 C 221.150 383.452, 211.627 382.058, 205.672 380.935 C 198.575 379.598, 189.960 378.827, 180.672 378.697 C 172.877 378.589, 143.793 378.617, 116.041 378.759" stroke="none" fill="#110424" fill-rule="evenodd"/><path d="M 180.601 125.250 C 179.807 126.487, 178.435 130.017, 177.553 133.094 C 176.356 137.268, 176.215 139.298, 176.996 141.094 C 177.999 143.400, 178.025 143.378, 177.623 140.556 C 177.354 138.671, 178.216 135.521, 180.020 131.798 C 181.569 128.600, 182.423 126.238, 181.918 126.551 C 181.413 126.863, 181 126.641, 181 126.059 C 181 125.477, 181.675 125, 182.500 125 C 183.325 125, 184 124.550, 184 124 C 184 123.450, 183.560 123, 183.023 123 C 182.486 123, 181.396 124.013, 180.601 125.250 M 185.405 124.155 C 184.940 124.906, 185.133 125.036, 185.957 124.526 C 186.676 124.082, 187.553 124.277, 187.985 124.975 C 188.514 125.832, 189.317 125.914, 190.623 125.247 C 191.655 124.719, 197.603 124.257, 203.840 124.220 C 210.077 124.183, 215.439 123.894, 215.757 123.577 C 216.074 123.260, 209.535 123, 201.226 123 C 190.885 123, 185.893 123.364, 185.405 124.155 M 231.629 123.791 C 231.360 124.226, 232.417 124.565, 233.977 124.545 C 235.537 124.524, 236.604 124.168, 236.348 123.753 C 236.092 123.339, 235.035 123, 234 123 C 232.965 123, 231.898 123.356, 231.629 123.791 M 240 124.151 C 240 124.549, 240.900 124.808, 242 124.725 C 243.100 124.642, 244 124.248, 244 123.849 C 244 123.451, 243.100 123.192, 242 123.275 C 240.900 123.358, 240 123.752, 240 124.151 M 245.328 123.662 C 245.692 124.026, 251.842 124.256, 258.995 124.173 C 266.465 124.087, 272 124.419, 272 124.954 C 272 125.466, 272.902 125.712, 274.004 125.499 C 275.106 125.287, 276.425 124.856, 276.935 124.540 C 277.445 124.225, 278.144 124.425, 278.490 124.984 C 278.835 125.543, 279.527 126, 280.028 126 C 280.528 126, 280.678 125.325, 280.362 124.500 C 279.880 123.245, 276.912 123, 262.226 123 C 252.569 123, 244.964 123.298, 245.328 123.662 M 200.684 131.689 C 199.483 132.344, 197.375 132.645, 196 132.359 C 194.397 132.025, 193.945 132.155, 194.740 132.722 C 195.609 133.341, 194.860 134.024, 192.240 135.004 C 190.183 135.772, 187.825 136.268, 187 136.106 C 186.175 135.943, 185.810 136.125, 186.189 136.510 C 186.568 136.896, 184.846 138.969, 182.364 141.118 C 179.881 143.267, 177.433 144.768, 176.925 144.453 C 176.416 144.139, 175.968 143.121, 175.930 142.191 C 175.872 140.812, 175.701 140.870, 175 142.500 C 174.527 143.600, 174.109 146.188, 174.070 148.250 C 174.032 150.313, 174.450 152, 175 152 C 175.550 152, 176 152.873, 176 153.941 C 176 155.009, 175.479 156.204, 174.842 156.597 C 174.049 157.088, 173.862 156.634, 174.249 155.156 C 174.559 153.970, 174.517 153.012, 174.156 153.026 C 173.795 153.040, 172.668 154.855, 171.651 157.060 C 170.634 159.265, 168.953 163.416, 167.916 166.284 C 166.616 169.879, 164.342 173.132, 160.603 176.750 L 155.176 182 114.421 182 C 92.006 182, 73.914 182.247, 74.216 182.549 C 74.517 182.851, 90.740 183.065, 110.266 183.026 C 138.925 182.967, 145.866 183.210, 146.278 184.283 C 146.559 185.014, 146.646 188.171, 146.472 191.299 C 146.286 194.658, 145.539 197.604, 144.650 198.493 C 143.377 199.766, 138.595 200.002, 113.821 200.015 C 97.695 200.024, 84.050 200.361, 83.500 200.765 C 82.950 201.169, 82.455 202.063, 82.400 202.750 C 82.345 203.438, 82.226 204.563, 82.135 205.250 C 82.019 206.126, 81.679 206.051, 81 205 C 80.418 204.099, 80.025 203.975, 80.015 204.691 C 80.007 205.346, 80.382 206.118, 80.848 206.406 C 81.315 206.695, 81.753 237.590, 81.822 275.063 C 81.929 333.453, 81.739 343.404, 80.493 344.650 C 79.507 345.636, 77.263 346.033, 73.524 345.881 C 70.490 345.758, 67.707 345.960, 67.338 346.329 C 66.969 346.698, 70.267 347, 74.667 347 C 79.067 347, 82.956 346.710, 83.310 346.356 C 83.665 346.002, 91.840 345.805, 101.477 345.918 L 119 346.123 119.067 326.812 C 119.104 316.190, 119.271 301.875, 119.439 295 C 119.607 288.125, 120.052 281.773, 120.427 280.885 C 120.803 279.997, 122.157 278.794, 123.437 278.211 C 124.717 277.627, 126.897 277.275, 128.282 277.427 C 130.681 277.690, 130.834 277.393, 131.555 271.101 C 131.970 267.471, 132.454 263.825, 132.630 263 C 132.805 262.175, 133.237 260.033, 133.589 258.241 C 133.989 256.206, 133.757 254.412, 132.972 253.467 C 132.281 252.633, 132.029 251.638, 132.412 251.255 C 132.795 250.872, 133.510 251.207, 134.001 252.001 C 134.752 253.217, 134.996 253.173, 135.553 251.722 C 135.917 250.775, 135.986 249.405, 135.707 248.678 C 135.428 247.951, 136.055 246.822, 137.100 246.170 C 138.145 245.517, 139 244.312, 139 243.492 C 139 242.671, 138.550 242, 138 242 C 137.450 242, 137 241.550, 137 241 C 137 240.450, 137.611 240, 138.358 240 C 139.105 240, 141.425 237.188, 143.514 233.750 C 145.603 230.313, 148.758 225.700, 150.524 223.500 C 152.290 221.300, 155.611 217.570, 157.903 215.212 C 160.219 212.830, 161.765 210.428, 161.381 209.808 C 160.956 209.120, 161.145 208.972, 161.875 209.422 C 162.532 209.829, 164.045 209.246, 165.279 208.110 C 166.501 206.985, 168.421 205.263, 169.547 204.283 C 170.673 203.302, 171.011 202.893, 170.297 203.372 C 169.487 203.918, 169 203.824, 169 203.122 C 169 202.505, 169.563 201.947, 170.250 201.882 C 170.938 201.816, 172.063 201.836, 172.750 201.925 C 173.438 202.015, 174 201.607, 174 201.019 C 174 200.431, 175.152 199.512, 176.560 198.977 C 177.968 198.442, 178.840 197.550, 178.497 196.995 C 178.154 196.440, 178.574 195.717, 179.431 195.388 C 180.288 195.059, 180.697 194.318, 180.340 193.741 C 179.952 193.113, 180.174 192.990, 180.894 193.435 C 181.823 194.009, 181.807 194.528, 180.821 195.716 C 180.119 196.562, 181.856 195.963, 184.682 194.385 C 187.508 192.808, 189.628 191.207, 189.393 190.828 C 189.159 190.448, 189.494 189.813, 190.138 189.415 C 190.923 188.930, 191.039 189.128, 190.490 190.015 C 189.872 191.017, 190.139 191.152, 191.586 190.568 C 192.639 190.143, 194.662 189.374, 196.083 188.858 C 197.504 188.342, 198.667 187.306, 198.667 186.556 C 198.667 185.805, 198.067 185.421, 197.333 185.702 C 196.600 185.984, 196 185.716, 196 185.107 C 196 184.498, 196.637 184, 197.417 184 C 198.196 184, 199.083 183.438, 199.388 182.750 C 199.692 182.063, 199.842 182.400, 199.721 183.500 C 199.554 185.007, 200.178 185.578, 202.250 185.816 C 203.762 185.990, 205 185.701, 205 185.173 C 205 184.646, 204.250 183.926, 203.333 183.574 C 202.013 183.068, 201.922 182.681, 202.900 181.717 C 203.872 180.759, 204.410 180.873, 205.428 182.250 C 206.139 183.213, 207.608 184, 208.694 184 C 209.779 184, 210.976 183.691, 211.354 183.313 C 211.732 182.935, 213.044 182.513, 214.270 182.375 C 215.497 182.237, 221.044 181.807, 226.598 181.419 C 232.920 180.978, 240.398 181.173, 246.598 181.939 C 252.044 182.613, 259.875 184.300, 264 185.689 C 268.125 187.078, 274.197 189.565, 277.494 191.216 C 280.790 192.867, 286.854 196.531, 290.969 199.359 C 295.083 202.186, 299.752 205.970, 301.343 207.767 C 302.934 209.563, 304.971 210.913, 305.868 210.767 C 306.921 210.595, 307.400 211.102, 307.218 212.198 C 307.063 213.132, 307.865 214.393, 309 215 C 310.901 216.017, 311.019 215.883, 310.489 213.302 L 309.914 210.500 311.306 213.500 C 312.071 215.150, 312.529 216.966, 312.324 217.535 C 312.119 218.104, 312.880 219.567, 314.014 220.785 C 315.149 222.003, 316.537 223, 317.098 223 C 317.659 223, 317.886 223.375, 317.603 223.833 C 317.320 224.291, 318.194 226.292, 319.544 228.280 C 320.895 230.268, 322 232.220, 322 232.618 C 322 233.017, 322.606 234.053, 323.346 234.921 C 324.087 235.790, 325.836 239.425, 327.233 243 C 328.630 246.575, 330.500 252.351, 331.388 255.836 C 332.276 259.321, 333.292 264.630, 333.645 267.633 C 334 270.655, 335.148 274.190, 336.216 275.547 C 337.396 277.048, 339.184 278.006, 340.823 278.015 C 342.295 278.024, 343.995 278.361, 344.600 278.765 C 345.205 279.169, 346.218 280.483, 346.850 281.684 C 347.645 283.194, 348 293.460, 348 314.934 L 348 346 362.500 346 L 377 346 377 274.059 C 377 223.905, 377.325 201.917, 378.073 201.455 C 378.664 201.090, 383.164 200.845, 388.073 200.912 L 397 201.032 397 196.476 C 397 193.929, 396.138 190.231, 395.045 188.089 C 393.931 185.905, 392.103 183.992, 390.795 183.642 C 389.533 183.304, 385.489 183.021, 381.809 183.014 C 378.129 183.006, 374.869 183.403, 374.565 183.895 C 374.260 184.388, 374.684 185.048, 375.506 185.364 C 376.595 185.782, 377 187.518, 377 191.769 C 377 194.979, 376.459 198.141, 375.797 198.803 C 374.888 199.712, 368.586 199.845, 350.047 199.347 C 331.370 198.846, 324.974 198.347, 323.299 197.261 C 322.089 196.476, 320.113 193.800, 318.909 191.313 C 317.093 187.560, 316.957 186.641, 318.110 185.911 C 318.875 185.427, 319.050 184.922, 318.500 184.790 C 317.950 184.657, 329.875 184.295, 345 183.985 L 372.500 183.422 344.143 183.271 C 328.547 183.188, 315.534 182.868, 315.227 182.560 C 314.919 182.252, 313.722 182, 312.568 182 C 311.413 182, 309.037 181.213, 307.288 180.250 C 305.538 179.287, 302.782 177.303, 301.163 175.840 C 299.007 173.891, 297.923 173.477, 297.110 174.290 C 296.297 175.103, 296 175.095, 296 174.259 C 296 173.631, 296.460 172.834, 297.023 172.486 C 297.663 172.090, 297.220 170.384, 295.839 167.927 C 294.625 165.767, 293.040 164, 292.316 164 C 291.592 164, 290.973 163.438, 290.941 162.750 C 290.909 162.063, 290.745 159.925, 290.577 158 C 290.410 156.075, 289.501 151.901, 288.558 148.724 C 287.615 145.547, 286.316 143.013, 285.672 143.093 C 285.027 143.172, 283.938 143.184, 283.250 143.118 C 282.563 143.053, 282 142.550, 282 142 C 282 141.450, 282.900 141, 284 141 C 285.100 141, 286 140.508, 286 139.906 C 286 139.305, 285.090 138.575, 283.977 138.284 C 282.260 137.835, 282.175 137.584, 283.413 136.627 C 284.688 135.642, 284.689 135.122, 283.425 132.500 C 282.349 130.269, 282.085 130.078, 282.397 131.754 C 282.713 133.457, 282.250 134.150, 280.502 134.589 C 279.203 134.915, 277.160 134.516, 275.844 133.680 C 274.555 132.861, 271.114 131.877, 268.198 131.494 C 265.281 131.111, 258.461 130.731, 253.043 130.649 C 247.382 130.563, 243.428 130.885, 243.750 131.405 C 244.057 131.902, 243.791 131.989, 243.158 131.598 C 242.525 131.207, 241.106 130.713, 240.004 130.501 C 238.902 130.288, 238 130.566, 238 131.116 C 238 131.667, 237.487 131.801, 236.861 131.414 C 236.234 131.027, 228.329 130.663, 219.294 130.605 C 208.303 130.535, 202.145 130.894, 200.684 131.689 M 229 134.500 C 229 135.325, 229.730 136, 230.622 136 C 231.951 136, 232.020 135.729, 231 134.500 C 230.315 133.675, 229.585 133, 229.378 133 C 229.170 133, 229 133.675, 229 134.500 M 250.729 133.604 C 250.328 134.005, 250 134.613, 250 134.954 C 250 135.295, 250.900 135.642, 252 135.725 C 253.100 135.808, 254 135.427, 254 134.879 C 254 134.331, 253.588 134.136, 253.085 134.447 C 252.582 134.758, 252.011 134.532, 251.815 133.944 C 251.619 133.356, 251.130 133.203, 250.729 133.604 M 234.397 135.167 C 234.114 135.625, 234.809 136, 235.941 136 C 237.073 136, 238 135.625, 238 135.167 C 238 134.708, 237.305 134.333, 236.456 134.333 C 235.607 134.333, 234.680 134.708, 234.397 135.167 M 256.500 135 C 256.840 135.550, 257.766 136, 258.559 136 C 259.352 136, 260 135.550, 260 135 C 260 134.450, 259.073 134, 257.941 134 C 256.809 134, 256.160 134.450, 256.500 135 M 224.625 140.798 C 224.354 141.237, 224.545 142.249, 225.051 143.048 C 225.768 144.182, 225.973 144.007, 225.985 142.250 C 225.993 141.012, 225.802 140, 225.559 140 C 225.316 140, 224.896 140.359, 224.625 140.798 M 250 141.214 C 250 141.646, 250.900 142, 252 142 C 253.100 142, 254 141.646, 254 141.214 C 254 140.782, 253.100 140.429, 252 140.429 C 250.900 140.429, 250 140.782, 250 141.214 M 276 140.941 C 276 141.459, 276.450 142.160, 277 142.500 C 277.550 142.840, 278 142.416, 278 141.559 C 278 140.702, 277.550 140, 277 140 C 276.450 140, 276 140.423, 276 140.941 M 285 148.500 C 285 149.325, 285.730 150, 286.622 150 C 287.951 150, 288.020 149.729, 287 148.500 C 286.315 147.675, 285.585 147, 285.378 147 C 285.170 147, 285 147.675, 285 148.500 M 284 155 C 284 155.550, 284.648 156, 285.441 156 C 286.234 156, 287.160 155.550, 287.500 155 C 287.840 154.450, 287.191 154, 286.059 154 C 284.927 154, 284 154.450, 284 155 M 172.809 159.056 C 172.502 159.856, 172.821 161.044, 173.519 161.695 C 174.216 162.347, 175.060 162.607, 175.393 162.273 C 175.727 161.940, 176 161.040, 176 160.274 C 176 159.509, 175.588 159.136, 175.085 159.447 C 174.582 159.758, 173.990 159.470, 173.769 158.807 C 173.491 157.972, 173.195 158.049, 172.809 159.056 M 266 162.559 C 266 163.416, 266.450 163.840, 267 163.500 C 267.550 163.160, 268 162.459, 268 161.941 C 268 161.423, 267.550 161, 267 161 C 266.450 161, 266 161.702, 266 162.559 M 265 167.333 C 265 168.260, 265.777 168.993, 266.750 168.985 C 267.749 168.976, 268.071 168.649, 267.500 168.223 C 266.950 167.813, 266.163 167.069, 265.750 166.572 C 265.337 166.074, 265 166.417, 265 167.333 M 270 166.893 C 270 167.384, 270.712 168.059, 271.582 168.393 C 272.452 168.727, 273.384 169, 273.653 169 C 273.923 169, 273.468 168.325, 272.643 167.500 C 271.818 166.675, 270.886 166, 270.571 166 C 270.257 166, 270 166.402, 270 166.893 M 291 166.535 C 291 166.830, 291.727 168.180, 292.615 169.535 C 293.503 170.891, 294.832 172, 295.568 172 C 296.605 172, 296.523 171.325, 295.203 169.006 C 294.267 167.360, 292.938 166.010, 292.250 166.006 C 291.563 166.003, 291 166.241, 291 166.535 M 174.274 167.831 C 173.598 168.249, 173.446 169.104, 173.914 169.860 C 174.541 170.875, 174.870 170.781, 175.384 169.441 C 175.749 168.491, 175.911 167.578, 175.745 167.411 C 175.578 167.245, 174.916 167.434, 174.274 167.831 M 238 176.941 C 238 177.459, 238.450 178.160, 239 178.500 C 239.550 178.840, 240 178.416, 240 177.559 C 240 176.702, 239.550 176, 239 176 C 238.450 176, 238 176.423, 238 176.941 M 254.250 179.662 C 253.563 179.940, 253 180.579, 253 181.083 C 253 181.588, 253.402 182, 253.893 182 C 254.384 182, 255.045 181.325, 255.362 180.500 C 255.678 179.675, 255.839 179.036, 255.719 179.079 C 255.598 179.122, 254.938 179.385, 254.250 179.662 M 261 182.531 C 261 183.339, 261.423 184, 261.941 184 C 262.459 184, 263.131 183.597, 263.435 183.105 C 263.740 182.612, 263.316 181.952, 262.494 181.636 C 261.587 181.288, 261 181.639, 261 182.531 M 68.237 186.254 C 67.080 187.489, 65.653 189.767, 65.067 191.315 C 64.345 193.219, 64 218.706, 64 270.065 C 64 311.829, 64.338 346, 64.750 346 C 65.162 346, 65.500 311.108, 65.500 268.463 C 65.500 204.868, 65.740 190.779, 66.835 190.102 C 67.570 189.648, 68.245 188.877, 68.335 188.388 C 68.426 187.900, 68.871 187.624, 69.324 187.775 C 69.778 187.926, 69.887 187.627, 69.568 187.110 C 69.249 186.594, 69.553 185.969, 70.244 185.722 C 70.935 185.476, 71.239 184.989, 70.921 184.641 C 70.602 184.293, 69.394 185.019, 68.237 186.254 M 151 185 C 151 185.550, 151.423 186, 151.941 186 C 152.459 186, 153.160 185.550, 153.500 185 C 153.840 184.450, 153.416 184, 152.559 184 C 151.702 184, 151 184.450, 151 185 M 293 196.929 C 293 197.518, 292.887 198.295, 292.750 198.655 C 292.613 199.015, 293.288 199.425, 294.250 199.566 C 295.212 199.707, 296 199.606, 296 199.340 C 296 199.074, 295.325 198.182, 294.500 197.357 C 293.675 196.532, 293 196.339, 293 196.929 M 297.333 201.500 C 297.333 202.325, 297.988 203, 298.789 203 C 299.970 203, 300.010 202.717, 299 201.500 C 298.315 200.675, 297.660 200, 297.544 200 C 297.428 200, 297.333 200.675, 297.333 201.500 M 157.116 209.668 C 157.052 210.311, 156.709 211.661, 156.353 212.668 C 155.851 214.089, 155.984 214.244, 156.947 213.356 C 157.629 212.727, 157.973 211.377, 157.710 210.356 C 157.447 209.335, 157.180 209.026, 157.116 209.668 M 230.250 215.735 C 232.863 215.941, 237.137 215.941, 239.750 215.735 C 242.363 215.529, 240.225 215.360, 235 215.360 C 229.775 215.360, 227.637 215.529, 230.250 215.735 M 213.127 218.032 C 209.622 219.066, 206.554 220.113, 206.308 220.359 C 206.062 220.605, 207.439 220.761, 209.368 220.707 C 211.297 220.652, 212.686 220.300, 212.454 219.925 C 212.222 219.550, 213.421 218.966, 215.119 218.626 C 216.816 218.287, 218.679 218.301, 219.257 218.659 C 219.914 219.065, 220.007 218.821, 219.506 218.010 C 218.902 217.032, 219.351 216.834, 221.321 217.211 C 222.761 217.486, 223.702 217.326, 223.411 216.856 C 223.120 216.385, 222.121 216.034, 221.191 216.076 C 220.261 216.118, 216.632 216.999, 213.127 218.032 M 246.294 217.017 C 247.280 217.639, 249.305 218.345, 250.794 218.585 C 252.282 218.824, 254.531 219.254, 255.791 219.540 C 257.051 219.825, 257.815 220.490, 257.489 221.018 C 257.160 221.551, 257.582 221.714, 258.440 221.385 C 259.349 221.036, 260.236 221.451, 260.599 222.396 C 260.937 223.278, 261.884 224, 262.703 224 C 263.521 224, 265.386 224.851, 266.846 225.890 C 268.306 226.930, 269.950 227.887, 270.500 228.017 C 271.050 228.148, 272.063 228.470, 272.750 228.734 C 273.438 228.998, 274 229.841, 274 230.607 C 274 231.373, 274.730 232, 275.622 232 C 277.001 232, 277.044 231.758, 275.907 230.388 C 275.171 229.501, 271.872 227.024, 268.576 224.882 C 265.281 222.740, 260.278 220.125, 257.460 219.071 C 254.641 218.016, 250.572 216.868, 248.418 216.519 C 245.272 216.010, 244.853 216.108, 246.294 217.017 M 198.224 224.120 C 195.322 225.812, 190.468 229.461, 187.439 232.230 C 184.409 234.999, 182.208 237.541, 182.547 237.880 C 182.886 238.219, 183.734 237.717, 184.431 236.764 C 185.128 235.811, 186.063 235.362, 186.509 235.766 C 186.955 236.169, 187.017 235.970, 186.646 235.322 C 186.252 234.634, 186.816 233.876, 188 233.500 C 189.116 233.146, 189.800 232.486, 189.520 232.033 C 189.240 231.580, 189.629 230.973, 190.384 230.683 C 191.139 230.393, 192.352 230.684, 193.080 231.328 C 194.176 232.299, 194.179 232.202, 193.093 230.767 C 191.945 229.248, 192.137 228.887, 194.641 227.855 C 196.214 227.207, 197.838 226.750, 198.250 226.839 C 198.662 226.927, 198.887 226.464, 198.750 225.809 C 198.613 225.155, 199.368 224.431, 200.429 224.202 C 201.490 223.972, 202.985 223.158, 203.751 222.392 C 204.516 221.626, 204.773 221.010, 204.321 221.022 C 203.870 221.034, 201.126 222.428, 198.224 224.120 M 145.543 224.931 C 145.226 225.443, 145.378 226.115, 145.879 226.425 C 146.380 226.735, 147.048 226.316, 147.364 225.494 C 147.679 224.672, 147.528 224, 147.028 224 C 146.527 224, 145.859 224.419, 145.543 224.931 M 142.250 228.559 C 141.563 229.305, 141 230.160, 141 230.458 C 141 230.756, 141.402 231, 141.893 231 C 142.384 231, 143.070 230.261, 143.417 229.357 C 143.763 228.453, 143.924 227.599, 143.774 227.458 C 143.623 227.317, 142.938 227.812, 142.250 228.559 M 139.575 232.879 C 139.265 233.380, 139.684 234.048, 140.506 234.364 C 141.328 234.679, 142 234.528, 142 234.028 C 142 233.527, 141.581 232.859, 141.069 232.543 C 140.557 232.226, 139.885 232.378, 139.575 232.879 M 276.977 233.127 C 275.820 233.930, 275.803 234.071, 276.900 233.776 C 277.671 233.569, 280.080 235.222, 282.255 237.450 C 285.427 240.700, 285.814 240.907, 284.212 238.500 C 283.114 236.850, 281.370 234.735, 280.335 233.801 C 278.966 232.564, 278.052 232.380, 276.977 233.127 M 177.221 242.750 C 175.600 244.813, 173.594 247.850, 172.764 249.500 C 171.933 251.150, 170.930 253.625, 170.534 255 L 169.815 257.500 171.455 255.263 C 172.357 254.033, 173.606 251.558, 174.232 249.763 C 174.857 247.968, 176.411 245.680, 177.684 244.677 C 178.958 243.675, 180 242.250, 180 241.511 C 180 240.772, 180.563 239.940, 181.250 239.662 C 182.107 239.317, 182.133 239.133, 181.334 239.079 C 180.693 239.036, 178.842 240.688, 177.221 242.750 M 84 241.500 C 84 242.325, 84.450 243, 85 243 C 85.550 243, 86 242.325, 86 241.500 C 86 240.675, 85.550 240, 85 240 C 84.450 240, 84 240.675, 84 241.500 M 134 243.941 C 134 244.459, 134.450 245.160, 135 245.500 C 135.550 245.840, 136 245.416, 136 244.559 C 136 243.702, 135.550 243, 135 243 C 134.450 243, 134 243.423, 134 243.941 M 129 248.559 C 129 249.416, 129.450 249.840, 130 249.500 C 130.550 249.160, 131 248.459, 131 247.941 C 131 247.423, 130.550 247, 130 247 C 129.450 247, 129 247.702, 129 248.559 M 203.924 255.750 L 201.500 258.500 204.250 256.076 C 205.762 254.742, 207 253.505, 207 253.326 C 207 253.147, 206.853 253, 206.674 253 C 206.495 253, 205.258 254.238, 203.924 255.750 M 129.543 257.345 C 127.784 258.631, 127.797 258.714, 129.852 259.251 C 131.495 259.681, 132 259.364, 132 257.906 C 132 256.858, 131.861 256, 131.691 256 C 131.521 256, 130.555 256.605, 129.543 257.345 M 86 259 C 85.207 259.490, 84.890 260.223, 85.296 260.629 C 85.701 261.035, 86.558 260.842, 87.200 260.200 C 87.842 259.558, 88.159 258.825, 87.904 258.571 C 87.650 258.317, 86.793 258.510, 86 259 M 168.232 261.677 C 167.534 263.974, 166.536 269.149, 166.013 273.177 C 165.490 277.205, 165.048 282.037, 165.031 283.917 C 165.014 285.796, 165.207 287.127, 165.459 286.874 C 165.712 286.621, 166.167 283.509, 166.470 279.957 C 166.773 276.406, 167.298 271.475, 167.637 269 C 167.975 266.525, 168.680 263.962, 169.203 263.305 C 169.726 262.648, 170.006 261.073, 169.827 259.805 C 169.567 257.974, 169.239 258.359, 168.232 261.677 M 298.182 290.250 C 297.559 291.762, 296.363 293, 295.525 293 C 294.330 293, 294 294.281, 294 298.917 C 294 302.171, 294.461 305.062, 295.025 305.342 C 295.589 305.621, 295.476 305.736, 294.775 305.596 C 294.074 305.456, 292.978 304.304, 292.340 303.035 C 291.261 300.890, 291.058 301.161, 289.451 306.891 C 288.499 310.281, 287.487 312.820, 287.200 312.534 C 286.914 312.247, 286.050 312.911, 285.282 314.008 C 284.513 315.106, 284.162 316.453, 284.501 317.002 C 284.840 317.551, 284.368 318, 283.452 318 C 282.449 318, 281.996 318.547, 282.314 319.376 C 282.641 320.227, 282.205 320.703, 281.171 320.626 C 280.252 320.557, 279.500 321.137, 279.500 321.917 C 279.500 322.696, 280.125 323.542, 280.889 323.796 C 281.839 324.113, 282.026 323.823, 281.479 322.880 C 281.007 322.065, 281.052 321.841, 281.590 322.333 C 282.090 322.791, 282.521 324.261, 282.547 325.600 L 282.593 328.035 280.270 325.330 C 278.117 322.826, 277.825 322.747, 276.309 324.263 C 274.958 325.614, 274.896 326.170, 275.958 327.450 C 276.666 328.302, 278.090 329, 279.122 329 C 280.155 329, 281 329.395, 281 329.878 C 281 330.360, 280.260 331.370, 279.355 332.121 C 277.949 333.287, 277.559 333.248, 276.678 331.851 C 275.747 330.375, 275.460 330.425, 273.739 332.358 C 272.178 334.112, 271.935 334.176, 272.399 332.712 C 272.731 331.666, 272.382 330.700, 271.558 330.384 C 270.783 330.086, 267.528 331.556, 264.325 333.650 C 261.121 335.743, 257.262 338.007, 255.750 338.680 C 254.238 339.353, 253 339.645, 253 339.329 C 253 339.013, 252.325 339.315, 251.500 340 C 250.382 340.928, 250 340.944, 250 340.063 C 250 339.414, 249.528 339.174, 248.950 339.531 C 248.307 339.928, 248.754 340.919, 250.103 342.090 C 251.315 343.140, 252.857 344, 253.531 344 C 254.204 344, 255.315 344.675, 256 345.500 C 256.997 346.701, 256.988 347, 255.956 347 C 255.247 347, 254.874 347.207, 255.127 347.460 C 255.380 347.714, 256.606 347.654, 257.850 347.329 C 259.230 346.968, 259.908 346.203, 259.588 345.369 C 259.290 344.593, 259.699 344, 260.531 344 C 261.339 344, 262 343.587, 262 343.083 C 262 342.579, 261.470 341.990, 260.823 341.774 C 260.176 341.559, 259.947 340.895, 260.314 340.300 C 260.682 339.705, 263.256 338.030, 266.035 336.577 C 268.813 335.124, 271.567 334.233, 272.155 334.596 C 272.743 334.959, 273.511 334.810, 273.862 334.265 C 274.228 333.696, 275.353 333.611, 276.500 334.066 C 277.964 334.647, 278.072 334.878, 276.905 334.930 C 276.028 334.968, 274.493 335.903, 273.494 337.006 C 272.496 338.110, 271.933 339.267, 272.245 339.578 C 272.556 339.889, 275.960 337.172, 279.810 333.540 C 284.899 328.740, 287.894 324.830, 290.781 319.219 C 292.965 314.973, 295.532 309.097, 296.486 306.160 C 297.757 302.247, 297.924 300.524, 297.110 299.710 C 296.500 299.100, 296 297.565, 296 296.300 C 296 295.035, 296.450 294, 297 294 C 297.550 294, 298.049 295.238, 298.110 296.750 C 298.188 298.710, 298.477 298.208, 299.117 295 C 299.611 292.525, 299.858 289.825, 299.665 289 C 299.438 288.026, 298.917 288.465, 298.182 290.250 M 167.100 295.059 C 167.155 295.851, 167.517 297.625, 167.906 299 C 168.571 301.352, 168.646 301.377, 169.168 299.421 C 169.473 298.278, 169.111 296.504, 168.362 295.480 C 167.406 294.173, 167.030 294.047, 167.100 295.059 M 170.056 304.341 C 170.025 304.804, 172.080 309.210, 174.623 314.134 C 178.077 320.821, 181.147 324.986, 186.760 330.599 C 191.823 335.662, 196.432 339.177, 200.887 341.376 C 204.524 343.170, 208.287 344.462, 209.250 344.246 C 210.299 344.011, 211 344.440, 211 345.318 C 211 346.124, 212.195 347.083, 213.655 347.450 C 215.381 347.883, 216.601 347.658, 217.140 346.808 C 217.760 345.830, 217.973 345.946, 217.985 347.269 C 217.997 348.649, 218.543 348.902, 220.470 348.418 C 222.064 348.018, 223.492 348.350, 224.494 349.351 C 225.679 350.536, 228.157 350.887, 234.937 350.829 C 239.826 350.787, 246.228 350.206, 249.163 349.539 C 254.269 348.377, 254.358 348.303, 251.206 347.829 C 249.394 347.556, 247.667 347.730, 247.367 348.215 C 247.068 348.699, 244.889 348.806, 242.526 348.452 C 239.988 348.071, 237.372 348.266, 236.135 348.928 C 234.983 349.544, 232.887 349.759, 231.477 349.405 C 230.067 349.051, 229.093 348.253, 229.314 347.631 C 229.556 346.948, 231.750 346.586, 234.857 346.718 C 237.876 346.846, 240 346.508, 240 345.900 C 240 345.331, 240.849 345.135, 241.886 345.464 C 242.923 345.793, 245.398 346.271, 247.386 346.525 C 249.879 346.844, 251 346.595, 251 345.721 C 251 345.025, 248.863 343.952, 246.250 343.337 C 242.928 342.555, 239.771 342.519, 235.746 343.217 C 232.582 343.766, 228.757 343.870, 227.246 343.449 C 225.736 343.028, 224.050 342.627, 223.500 342.559 C 222.950 342.490, 220.138 342.070, 217.251 341.624 C 214.364 341.178, 211.771 340.439, 211.489 339.983 C 211.207 339.526, 208.803 338.431, 206.147 337.549 C 203.491 336.667, 200.362 335.054, 199.194 333.966 C 198.026 332.878, 195.367 330.833, 193.285 329.422 C 191.203 328.012, 188.049 325.539, 186.275 323.927 C 184.501 322.315, 182.377 319.695, 181.554 318.104 C 180.731 316.514, 178.808 313.914, 177.279 312.327 C 175.751 310.740, 173.513 308.105, 172.306 306.471 C 171.099 304.837, 170.086 303.879, 170.056 304.341 M 290.562 309.581 C 289.693 310.450, 289.242 311.582, 289.560 312.097 C 289.878 312.612, 290.627 312.731, 291.224 312.362 C 291.871 311.961, 292.021 312.156, 291.595 312.845 C 291.203 313.480, 291.359 314, 291.941 314 C 292.523 314, 293 312.650, 293 311 C 293 309.350, 292.807 308, 292.571 308 C 292.336 308, 291.432 308.711, 290.562 309.581 M 289.053 314.500 C 288.932 315.050, 288.720 316.528, 288.581 317.785 C 288.428 319.177, 288.689 319.711, 289.249 319.151 C 289.755 318.645, 289.968 317.166, 289.721 315.865 C 289.474 314.564, 289.174 313.950, 289.053 314.500 M 232.750 324.706 C 233.988 324.944, 236.012 324.944, 237.250 324.706 C 238.488 324.467, 237.475 324.272, 235 324.272 C 232.525 324.272, 231.512 324.467, 232.750 324.706 M 265.015 340.143 C 265.007 341.047, 265.631 342.028, 266.403 342.324 C 267.174 342.620, 268.590 342.289, 269.549 341.588 C 271.132 340.430, 271.072 340.330, 268.896 340.505 C 267.578 340.610, 266.169 340.203, 265.765 339.598 C 265.304 338.908, 265.025 339.111, 265.015 340.143 M 66.390 379.723 C 66.787 380.121, 70.340 380.318, 74.284 380.162 C 78.229 380.005, 81.653 379.680, 81.895 379.439 C 82.136 379.197, 78.583 379, 74 379 C 69.417 379, 65.992 379.325, 66.390 379.723 M 150.750 379.747 C 156.938 379.922, 167.063 379.922, 173.250 379.747 C 179.438 379.571, 174.375 379.428, 162 379.428 C 149.625 379.428, 144.563 379.571, 150.750 379.747 M 192.269 379.693 C 193.242 379.947, 194.592 379.930, 195.269 379.656 C 195.946 379.382, 195.150 379.175, 193.500 379.195 C 191.850 379.215, 191.296 379.439, 192.269 379.693 M 273.500 379.975 C 271.850 380.381, 274.775 380.491, 280 380.220 C 285.225 379.948, 289.688 379.562, 289.917 379.363 C 290.146 379.163, 287.221 379.053, 283.417 379.118 C 279.613 379.183, 275.150 379.569, 273.500 379.975 M 387.346 381.134 C 388.670 381.903, 389.505 381.895, 390.296 381.104 C 391.101 380.299, 390.601 380.008, 388.450 380.030 C 385.864 380.057, 385.728 380.193, 387.346 381.134 M 396.320 386 C 396.320 389.575, 396.502 391.038, 396.723 389.250 C 396.945 387.462, 396.945 384.538, 396.723 382.750 C 396.502 380.962, 396.320 382.425, 396.320 386 M 202.269 381.693 C 203.242 381.947, 204.592 381.930, 205.269 381.656 C 205.946 381.382, 205.150 381.175, 203.500 381.195 C 201.850 381.215, 201.296 381.439, 202.269 381.693 M 258 383.123 C 256.075 383.629, 247.975 384.370, 240 384.771 C 227.497 385.400, 226.464 385.569, 232.500 386 C 236.350 386.275, 243.775 385.966, 249 385.314 C 254.225 384.661, 260.525 383.698, 263 383.173 C 266.449 382.442, 266.799 382.217, 264.500 382.212 C 262.850 382.208, 259.925 382.618, 258 383.123 M 64.355 392.500 C 64.352 397.450, 64.521 399.601, 64.731 397.280 C 64.940 394.959, 64.943 390.909, 64.736 388.280 C 64.530 385.651, 64.358 387.550, 64.355 392.500 M 219.762 384.707 C 221.006 384.946, 222.806 384.937, 223.762 384.687 C 224.718 384.437, 223.700 384.241, 221.500 384.252 C 219.300 384.263, 218.518 384.468, 219.762 384.707 M 77.822 396.616 C 77.494 398.880, 77.453 401.918, 77.730 403.366 C 78.007 404.815, 78.631 406, 79.117 406 C 79.602 406, 80.053 405.212, 80.118 404.250 C 80.184 403.288, 80.115 402.050, 79.966 401.500 C 79.817 400.950, 79.408 398.700, 79.056 396.500 L 78.418 392.500 77.822 396.616 M 71.397 408.413 C 72.441 409.251, 73.678 409.699, 74.147 409.409 C 74.616 409.119, 75 409.282, 75 409.770 C 75 410.259, 77.261 410.710, 80.024 410.773 C 82.788 410.836, 84.845 410.558, 84.596 410.155 C 84.347 409.753, 82.424 409.493, 80.322 409.578 C 78.220 409.664, 75.938 409.289, 75.250 408.744 C 74.563 408.200, 74 408.051, 74 408.413 C 74 408.774, 72.987 408.580, 71.750 407.980 C 69.617 406.947, 69.599 406.969, 71.397 408.413 M 240 409.500 C 240 410.325, 240.450 411, 241 411 C 241.550 411, 242 410.325, 242 409.500 C 242 408.675, 241.550 408, 241 408 C 240.450 408, 240 408.675, 240 409.500 M 382.397 410.167 C 382.114 410.625, 382.809 411, 383.941 411 C 385.073 411, 386 410.625, 386 410.167 C 386 409.708, 385.305 409.333, 384.456 409.333 C 383.607 409.333, 382.680 409.708, 382.397 410.167 M 209.776 410.733 C 212.128 410.945, 215.728 410.942, 217.776 410.727 C 219.824 410.512, 217.900 410.339, 213.500 410.343 C 209.100 410.346, 207.424 410.522, 209.776 410.733 M 259.269 410.693 C 260.242 410.947, 261.592 410.930, 262.269 410.656 C 262.946 410.382, 262.150 410.175, 260.500 410.195 C 258.850 410.215, 258.296 410.439, 259.269 410.693 M 370.750 410.706 C 371.988 410.944, 374.012 410.944, 375.250 410.706 C 376.488 410.467, 375.475 410.272, 373 410.272 C 370.525 410.272, 369.512 410.467, 370.750 410.706" stroke="none" fill="#e7bfcd" fill-rule="evenodd"/></svg>