<svg xmlns="http://www.w3.org/2000/svg" width="456" height="547" viewBox="0 0 456 547" version="1.1"><path d="M 94 90.500 C 95.292 91.875, 96.574 93, 96.849 93 C 97.124 93, 96.292 91.875, 95 90.500 C 93.708 89.125, 92.426 88, 92.151 88 C 91.876 88, 92.708 89.125, 94 90.500 M 312.924 94.750 L 310.500 97.500 313.250 95.076 C 314.762 93.742, 316 92.505, 316 92.326 C 316 92.147, 315.853 92, 315.674 92 C 315.495 92, 314.258 93.237, 312.924 94.750 M 332.116 99.168 C 332.052 100.086, 331.741 101.661, 331.424 102.668 C 330.879 104.404, 330.909 104.407, 331.992 102.719 C 332.620 101.739, 332.931 100.164, 332.683 99.219 C 332.277 97.670, 332.221 97.665, 332.116 99.168 M 166.252 108.500 C 166.263 110.700, 166.468 111.482, 166.707 110.238 C 166.946 108.994, 166.937 107.194, 166.687 106.238 C 166.437 105.282, 166.241 106.300, 166.252 108.500 M 326.442 109.250 C 324.257 111.588, 321.154 114.963, 319.547 116.750 C 317.940 118.537, 316.859 120, 317.144 120 C 317.429 120, 320.695 116.625, 324.402 112.500 C 328.108 108.375, 330.978 105, 330.779 105 C 330.579 105, 328.628 106.912, 326.442 109.250 M 85.977 111.204 C 87.790 113.791, 90.407 116.941, 91.792 118.204 C 93.178 119.467, 92.165 117.800, 89.540 114.500 C 86.915 111.200, 84.298 108.050, 83.724 107.500 C 83.151 106.950, 84.165 108.617, 85.977 111.204 M 210.360 136 C 210.360 141.225, 210.529 143.363, 210.735 140.750 C 210.941 138.137, 210.941 133.863, 210.735 131.250 C 210.529 128.637, 210.360 130.775, 210.360 136 M 359.924 138.750 L 357.500 141.500 360.250 139.076 C 361.762 137.742, 363 136.505, 363 136.326 C 363 136.147, 362.853 136, 362.674 136 C 362.495 136, 361.258 137.238, 359.924 138.750 M 61.500 148 C 63.648 150.200, 65.631 152, 65.906 152 C 66.181 152, 64.648 150.200, 62.500 148 C 60.352 145.800, 58.369 144, 58.094 144 C 57.819 144, 59.352 145.800, 61.500 148 M 378.957 146.421 C 378.156 147.708, 374.350 151.322, 370.500 154.451 C 366.650 157.581, 361.322 161.910, 358.660 164.071 C 355.623 166.537, 352.787 168, 351.045 168 C 349.519 168, 347.090 167.072, 345.647 165.937 C 344.205 164.802, 342.610 162.440, 342.102 160.687 C 341.336 158.039, 341.165 157.897, 341.090 159.850 C 341.036 161.273, 342.342 163.542, 344.400 165.600 C 346.767 167.967, 348.719 169, 350.822 169 C 352.733 169, 355.337 167.805, 357.902 165.750 C 360.134 163.963, 365.457 159.646, 369.730 156.158 C 374.004 152.671, 378.341 148.711, 379.368 147.360 C 380.396 146.009, 381.052 144.719, 380.826 144.492 C 380.599 144.266, 379.758 145.134, 378.957 146.421 M 35 149.500 C 36.866 151.425, 38.617 153, 38.892 153 C 39.167 153, 37.866 151.425, 36 149.500 C 34.134 147.575, 32.383 146, 32.108 146 C 31.833 146, 33.134 147.575, 35 149.500 M 43 156.500 C 44.866 158.425, 46.617 160, 46.892 160 C 47.167 160, 45.866 158.425, 44 156.500 C 42.134 154.575, 40.383 153, 40.108 153 C 39.833 153, 41.134 154.575, 43 156.500 M 69.150 159.436 C 69.067 161.050, 68 163.525, 66.778 164.936 L 64.556 167.500 67.359 164.897 C 69.504 162.904, 70.060 161.614, 69.730 159.397 L 69.300 156.500 69.150 159.436 M 48.359 160.772 C 48.745 161.396, 50.397 162.858, 52.030 164.022 C 53.664 165.185, 55 165.934, 55 165.687 C 55 165.440, 53.348 163.977, 51.329 162.437 C 49.310 160.897, 47.973 160.148, 48.359 160.772 M 57 167.013 C 57.825 167.539, 59.812 167.976, 61.417 167.985 C 63.021 167.993, 64.146 167.839, 63.917 167.642 C 63.687 167.444, 61.700 167.007, 59.500 166.670 C 56.776 166.252, 55.979 166.362, 57 167.013 M 19.629 205.791 C 19.360 206.226, 20.796 206.418, 22.820 206.219 C 24.844 206.019, 26.950 205.698, 27.500 205.506 C 28.050 205.315, 26.614 205.122, 24.309 205.079 C 22.004 205.036, 19.898 205.356, 19.629 205.791 M 387.096 205.897 C 390.174 206.229, 393.346 206.950, 394.144 207.500 C 394.941 208.050, 394.736 207.713, 393.686 206.750 C 392.329 205.505, 390.296 205.042, 386.639 205.147 L 381.500 205.294 387.096 205.897 M 46.388 212.699 C 48.881 215.460, 49.201 216.464, 48.723 220.027 C 48.419 222.297, 47.361 225.133, 46.372 226.328 L 44.574 228.500 46.897 226.362 C 48.413 224.967, 49.387 222.708, 49.700 219.862 C 50.136 215.903, 49.872 215.223, 46.840 212.500 L 43.500 209.500 46.388 212.699 M 394.997 221.250 C 393.525 223.261, 393.283 223.960, 394.363 223.082 C 395.324 222.302, 396.550 220.840, 397.090 219.832 C 397.629 218.825, 397.914 218, 397.723 218 C 397.532 218, 396.305 219.463, 394.997 221.250 M 16.861 222.941 C 18.159 224.073, 19.697 225, 20.277 225 C 20.858 225, 21.146 224.864, 20.917 224.697 C 20.688 224.531, 19.150 223.604, 17.500 222.638 L 14.500 220.881 16.861 222.941 M 291.232 228 C 291.232 229.925, 291.438 230.713, 291.689 229.750 C 291.941 228.787, 291.941 227.213, 291.689 226.250 C 291.438 225.287, 291.232 226.075, 291.232 228 M 26.083 226.359 C 26.313 226.557, 27.850 227.021, 29.500 227.390 C 31.691 227.880, 32.095 227.787, 31 227.046 C 30.175 226.487, 28.637 226.024, 27.583 226.015 C 26.529 226.007, 25.854 226.162, 26.083 226.359 M 378 227.049 C 376.314 227.622, 377.128 227.711, 380.500 227.321 C 383.250 227.004, 385.688 226.576, 385.917 226.372 C 386.146 226.167, 385.021 226.045, 383.417 226.100 C 381.813 226.155, 379.375 226.582, 378 227.049 M 332.320 253 C 332.320 256.575, 332.502 258.038, 332.723 256.250 C 332.945 254.463, 332.945 251.537, 332.723 249.750 C 332.502 247.963, 332.320 249.425, 332.320 253 M 39.250 271.689 C 40.212 271.941, 41.788 271.941, 42.750 271.689 C 43.712 271.438, 42.925 271.232, 41 271.232 C 39.075 271.232, 38.288 271.438, 39.250 271.689 M 47 274 C 48.100 275.100, 49 276.525, 49 277.167 C 49 277.808, 49.286 278.047, 49.635 277.698 C 49.985 277.348, 49.525 275.923, 48.612 274.531 C 47.700 273.139, 46.514 272, 45.977 272 C 45.440 272, 45.900 272.900, 47 274 M 375.269 272.693 C 376.242 272.947, 377.592 272.930, 378.269 272.656 C 378.946 272.382, 378.150 272.175, 376.500 272.195 C 374.850 272.215, 374.296 272.439, 375.269 272.693 M 20.441 277.555 C 18.611 279.022, 18.643 279.042, 21 277.920 C 22.375 277.265, 23.688 276.565, 23.917 276.365 C 24.146 276.164, 23.894 276, 23.358 276 C 22.821 276, 21.509 276.700, 20.441 277.555 M 390.083 276.324 C 390.313 276.502, 392.075 277.664, 394 278.906 L 397.500 281.165 394.500 278.588 C 392.850 277.170, 391.087 276.008, 390.583 276.005 C 390.079 276.002, 389.854 276.146, 390.083 276.324 M 50.195 281.500 C 50.215 283.150, 50.439 283.704, 50.693 282.731 C 50.947 281.758, 50.930 280.408, 50.656 279.731 C 50.382 279.054, 50.175 279.850, 50.195 281.500 M 287.055 283.092 C 285.161 284.108, 281.836 285.649, 279.668 286.516 L 275.725 288.094 276.392 294.297 C 276.758 297.709, 277.489 304.940, 278.017 310.366 C 278.544 315.792, 278.729 320.630, 278.428 321.116 C 278.120 321.615, 246.434 322, 205.691 322.001 L 133.500 322.002 133.833 305.070 L 134.166 288.137 130.969 286.484 C 129.211 285.575, 126.024 284.214, 123.886 283.460 L 120 282.089 119.991 294.294 C 119.987 301.007, 119.544 311.456, 119.008 317.514 C 118.345 325, 117.075 331.360, 115.045 337.367 C 113.402 342.228, 110.503 348.985, 108.603 352.382 C 106.703 355.779, 102.851 361.434, 100.042 364.947 C 96.380 369.529, 95.242 371.642, 96.017 372.418 C 96.776 373.177, 130.162 373.597, 207.914 373.824 C 304.337 374.107, 318.802 373.959, 319.289 372.689 C 319.619 371.829, 318.561 370.053, 316.713 368.365 C 314.988 366.789, 314.234 366.400, 315.038 367.500 C 316.388 369.346, 316.366 369.395, 314.761 368.137 C 313.805 367.387, 313.281 366.355, 313.597 365.843 C 313.913 365.331, 313.632 364.262, 312.973 363.467 C 312.313 362.672, 311.363 362.276, 310.862 362.585 C 310.361 362.895, 310.071 362.778, 310.219 362.324 C 310.367 361.871, 309.441 359.813, 308.162 357.750 C 306.883 355.688, 305.622 354, 305.359 354 C 305.097 354, 305.203 354.520, 305.595 355.155 C 306.041 355.876, 305.869 356.037, 305.138 355.585 C 304.494 355.187, 304.207 354.474, 304.500 354 C 304.793 353.525, 304.277 351.551, 303.352 349.612 C 302.427 347.672, 301.391 346.258, 301.049 346.469 C 300.708 346.680, 300.376 346.099, 300.311 345.177 C 300.247 344.254, 299.112 340.676, 297.789 337.224 C 296.467 333.773, 295.186 331.148, 294.942 331.391 C 294.699 331.634, 294.411 330.633, 294.303 329.167 C 294.195 327.700, 293.685 316.375, 293.172 304 C 292.658 291.625, 292.184 281.387, 292.119 281.250 C 292.053 281.113, 291.663 281.055, 291.250 281.123 C 290.837 281.190, 288.950 282.076, 287.055 283.092 M 47.606 287.848 L 45.712 290.500 48.050 288.278 C 49.337 287.056, 50.189 285.862, 49.944 285.626 C 49.700 285.389, 48.648 286.389, 47.606 287.848 M 362.799 286.582 C 363.400 287.727, 364.601 289.254, 365.470 289.975 C 366.338 290.695, 367.159 291.108, 367.294 290.893 C 367.429 290.677, 366.227 289.150, 364.624 287.500 C 362.641 285.461, 362.057 285.167, 362.799 286.582 M 398 289.365 C 398 290.116, 397.056 292.028, 395.902 293.615 L 393.805 296.500 396.402 293.694 C 397.831 292.151, 399 290.239, 399 289.444 C 399 288.650, 398.775 288, 398.500 288 C 398.225 288, 398 288.614, 398 289.365 M 332.195 294.500 C 332.215 296.150, 332.439 296.704, 332.693 295.731 C 332.947 294.758, 332.930 293.408, 332.656 292.731 C 332.382 292.054, 332.175 292.850, 332.195 294.500 M 378 295 C 378.825 295.533, 380.175 295.945, 381 295.914 C 381.989 295.878, 381.819 295.567, 380.500 295 C 379.400 294.527, 378.050 294.116, 377.500 294.086 C 376.950 294.055, 377.175 294.467, 378 295 M 134.856 410.478 C 134.593 410.740, 117.868 410.986, 97.689 411.024 L 61 411.093 61 420.047 L 61 429 97.750 428.985 C 121.846 428.975, 133.984 428.636, 133 428 C 131.730 427.179, 131.778 427.028, 133.317 427.015 C 134.631 427.004, 134.971 426.485, 134.545 425.141 C 134.220 424.118, 134.237 422.546, 134.582 421.647 C 134.927 420.747, 135.612 420.260, 136.105 420.565 C 136.597 420.869, 137.071 420.304, 137.158 419.309 C 137.246 418.314, 137.246 416.686, 137.160 415.692 C 137.065 414.602, 137.442 414.155, 138.109 414.567 C 138.861 415.032, 138.986 414.532, 138.500 413 C 137.969 411.326, 138.109 410.949, 139.047 411.529 C 139.867 412.036, 140.059 411.905, 139.595 411.155 C 139.203 410.520, 138.084 410, 137.108 410 C 136.132 410, 135.118 410.215, 134.856 410.478 M 272 411.811 C 272 412.258, 272.822 413.505, 273.826 414.583 C 274.831 415.661, 275.447 417.159, 275.196 417.911 C 274.937 418.690, 275.196 418.997, 275.798 418.625 C 276.380 418.265, 277.132 418.839, 277.468 419.900 C 277.805 420.962, 277.789 422.993, 277.432 424.415 C 276.909 426.498, 277.144 427.003, 278.642 427.015 C 280.207 427.028, 280.264 427.183, 279 428 C 278.016 428.636, 289.976 428.975, 313.750 428.985 L 350 429 350 420 L 350 411 311 411 C 289.550 411, 272 411.365, 272 411.811 M 281.218 422.154 C 281.465 422.895, 282.192 423.500, 282.833 423.500 C 283.475 423.500, 284.024 423.050, 284.053 422.500 C 284.082 421.950, 283.355 421.345, 282.438 421.154 C 281.395 420.939, 280.938 421.313, 281.218 422.154 M 341.570 421.886 C 341.269 422.374, 341.917 423.007, 343.011 423.293 C 344.300 423.630, 345 423.318, 345 422.406 C 345 421.633, 344.352 421, 343.559 421 C 342.766 421, 341.872 421.399, 341.570 421.886 M 287.620 422.805 C 287.346 423.248, 295.757 423.694, 306.311 423.795 C 316.865 423.897, 327.975 423.590, 331 423.115 C 334.994 422.486, 329.877 422.215, 312.309 422.125 C 299.004 422.056, 287.894 422.362, 287.620 422.805 M 233.120 431.545 C 232.387 433.571, 230.257 436.924, 228.385 438.995 C 226.514 441.066, 222.754 443.720, 220.030 444.892 C 217.306 446.064, 212.443 447.298, 209.225 447.634 C 206.007 447.971, 200.993 447.735, 198.084 447.112 C 195.175 446.488, 190.827 444.564, 188.422 442.837 C 185.432 440.689, 183.519 438.307, 182.371 435.301 C 181.448 432.884, 179.915 430.490, 178.965 429.981 C 177.542 429.220, 177.130 429.601, 176.619 432.154 C 176.279 433.857, 176 436.689, 176 438.447 C 176 440.205, 176.717 443.748, 177.594 446.321 C 178.470 448.893, 179.640 451.277, 180.193 451.620 C 180.747 451.962, 180.650 451.175, 179.977 449.871 C 178.983 447.942, 178.995 447.726, 180.042 448.715 C 180.750 449.382, 181.396 450.839, 181.478 451.952 C 181.560 453.064, 182.676 455.091, 183.959 456.456 C 185.241 457.821, 186.675 458.701, 187.145 458.410 C 187.615 458.120, 188 458.343, 188 458.906 C 188 459.469, 188.954 460.440, 190.121 461.065 C 191.580 461.846, 192.032 461.860, 191.569 461.111 C 191.150 460.434, 191.480 460.247, 192.442 460.616 C 193.293 460.943, 193.760 461.580, 193.480 462.033 C 193.200 462.486, 193.873 463.142, 194.977 463.493 C 196.080 463.843, 197.506 463.806, 198.146 463.410 C 198.919 462.932, 199.038 463.130, 198.499 464.002 C 197.871 465.017, 198.384 465.173, 200.774 464.695 C 202.527 464.345, 204.005 464.514, 204.196 465.088 C 204.400 465.701, 206.191 465.833, 208.748 465.424 C 211.117 465.046, 212.698 464.320, 212.357 463.768 C 211.994 463.181, 212.549 463.039, 213.734 463.416 C 214.825 463.762, 216.454 463.763, 217.353 463.418 C 218.253 463.073, 218.743 462.393, 218.442 461.907 C 218.142 461.421, 218.668 461.319, 219.612 461.681 C 220.868 462.164, 221.109 461.985, 220.510 461.015 C 219.960 460.127, 220.077 459.930, 220.863 460.415 C 221.525 460.825, 223.746 459.785, 225.965 458.028 C 228.163 456.287, 230.993 452.622, 232.388 449.708 C 233.760 446.844, 235.149 442.025, 235.475 439 C 235.801 435.975, 235.704 432.231, 235.260 430.680 L 234.452 427.860 233.120 431.545" stroke="none" fill="#ff8192" fill-rule="evenodd"/><path d="M 195.500 68.424 C 192.750 69.114, 188.808 70.405, 186.739 71.292 C 184.671 72.180, 180.555 75.199, 177.592 78.002 C 174.350 81.067, 171.294 85.168, 169.919 88.298 C 168.206 92.194, 167.523 95.981, 167.195 103.383 L 166.757 113.266 163.628 114.365 C 161.908 114.970, 155.325 118.060, 149 121.233 C 142.675 124.405, 134.970 128.913, 131.878 131.251 C 128.786 133.588, 124.511 137.102, 122.378 139.060 C 120.245 141.018, 115.621 145.718, 112.102 149.505 C 108.582 153.292, 103.248 160.196, 100.248 164.847 C 97.247 169.498, 93.246 176.651, 91.357 180.741 C 89.468 184.831, 86.857 191.439, 85.556 195.425 C 84.255 199.411, 82.481 207.134, 81.615 212.586 C 80.392 220.282, 80.026 231.052, 79.976 260.716 C 79.928 288.849, 79.525 301.513, 78.448 308.716 C 77.643 314.097, 76.038 321.353, 74.881 324.841 C 73.723 328.328, 70.747 334.790, 68.267 339.201 C 65.787 343.611, 60.895 350.254, 57.396 353.963 C 53.897 357.672, 44.892 365.362, 37.383 371.052 C 27.725 378.371, 23.332 382.354, 22.366 384.666 C 21.318 387.174, 21 394.662, 21 416.789 L 21 445.641 23.750 451.064 C 25.413 454.344, 28.189 457.757, 30.775 459.703 C 33.127 461.472, 36.727 463.385, 38.775 463.954 C 41.110 464.603, 61.023 464.991, 92.118 464.994 L 141.736 465 145.470 471.384 C 147.524 474.896, 152.848 481.418, 157.303 485.879 C 163.528 492.113, 167.263 494.901, 173.451 497.936 C 177.878 500.107, 184.309 502.596, 187.743 503.467 C 191.272 504.363, 198.263 505.066, 203.827 505.086 C 209.277 505.105, 216.629 504.434, 220.305 503.581 C 223.956 502.735, 231.132 500.084, 236.252 497.692 C 242.984 494.546, 247.404 491.618, 252.213 487.120 C 255.871 483.698, 261.208 477.336, 264.073 472.983 L 269.282 465.067 321.891 464.783 L 374.500 464.500 379.094 461.800 C 381.620 460.314, 384.905 457.502, 386.395 455.549 C 387.884 453.597, 389.799 450.332, 390.650 448.295 C 391.957 445.168, 392.140 440.141, 391.827 416.045 C 391.534 393.430, 391.150 386.884, 389.978 384.534 C 389.110 382.791, 382.932 377.396, 375 371.452 C 367.575 365.888, 358.849 358.467, 355.610 354.960 C 352.370 351.453, 347.736 345.489, 345.312 341.706 C 342.887 337.923, 339.984 332.505, 338.860 329.664 C 337.737 326.824, 335.916 320.675, 334.815 316 C 333.038 308.453, 332.724 302.232, 332.011 260.500 C 331.357 222.143, 330.907 212.305, 329.564 207 C 328.659 203.425, 326.984 197.575, 325.843 194 C 324.701 190.425, 321.533 183.057, 318.804 177.626 C 316.075 172.195, 311.531 164.545, 308.708 160.626 C 305.885 156.707, 300.633 150.193, 297.037 146.152 C 293.442 142.111, 287.831 136.795, 284.569 134.340 C 281.307 131.885, 275.457 128.016, 271.569 125.743 C 267.681 123.469, 260.743 119.943, 256.151 117.905 C 251.559 115.868, 247.295 113.695, 246.675 113.075 C 246.056 112.456, 245.251 108.112, 244.886 103.422 C 244.373 96.827, 243.531 93.492, 241.165 88.698 C 239.483 85.289, 236.171 80.627, 233.804 78.339 C 231.437 76.050, 227.773 73.223, 225.663 72.057 C 223.552 70.890, 219.052 69.282, 215.663 68.483 C 212.273 67.684, 207.475 67.061, 205 67.100 C 202.525 67.138, 198.250 67.734, 195.500 68.424 M 202.703 106.250 C 201.248 107.333, 200.989 110.096, 200.762 126.937 L 200.500 146.374 197.500 147.042 C 195.850 147.410, 192.025 148.274, 189 148.964 C 185.975 149.653, 180.824 151.072, 177.554 152.118 C 174.284 153.164, 168.252 155.678, 164.151 157.705 C 160.049 159.732, 154.052 163.835, 150.825 166.823 C 147.597 169.811, 142.267 175.600, 138.978 179.687 C 135.690 183.775, 131.226 190.805, 129.059 195.310 C 126.891 199.814, 124.121 207.100, 122.903 211.500 C 120.806 219.077, 120.648 222.221, 119.917 271 C 119.492 299.325, 118.849 323.850, 118.487 325.500 C 118.125 327.150, 116.511 332.570, 114.900 337.545 C 113.289 342.520, 109.963 349.945, 107.509 354.045 C 105.054 358.145, 100.744 364.313, 97.929 367.750 L 92.812 374 206.906 374 C 269.658 374, 321 373.824, 321 373.609 C 321 373.393, 317.860 369.500, 314.023 364.956 C 310.185 360.413, 305.056 352.827, 302.624 348.098 C 300.192 343.369, 297.210 336.350, 295.997 332.500 C 294.119 326.540, 293.667 321.935, 292.957 301.500 C 292.499 288.300, 292.094 266.250, 292.058 252.500 C 292.015 236.079, 291.512 224.583, 290.592 219 C 289.821 214.325, 288.420 208.250, 287.477 205.500 C 286.534 202.750, 284.413 197.800, 282.763 194.500 C 281.113 191.200, 277.532 185.473, 274.804 181.773 C 272.076 178.073, 267.517 172.939, 264.672 170.365 C 261.827 167.790, 256.470 163.713, 252.768 161.305 C 249.065 158.896, 242.990 155.631, 239.268 154.048 C 235.545 152.465, 229.350 150.469, 225.500 149.614 C 221.650 148.758, 216.864 147.809, 214.865 147.505 L 211.230 146.953 210.498 126.949 C 209.844 109.080, 209.572 106.841, 207.949 105.973 C 206.949 105.438, 205.738 105, 205.257 105 C 204.776 105, 203.627 105.563, 202.703 106.250 M 98.250 410.750 L 61 411.024 61 420.012 L 61 429 97.411 429 L 133.821 429 136.816 420.072 C 138.463 415.161, 139.553 410.886, 139.238 410.572 C 138.924 410.257, 137.954 410.107, 137.083 410.237 C 136.213 410.368, 118.738 410.599, 98.250 410.750 M 192.692 412.428 C 189.876 413.185, 186.485 415.076, 184.508 416.992 C 182.652 418.791, 180.164 422.515, 178.980 425.268 C 177.796 428.020, 176.585 432.624, 176.288 435.499 C 175.927 438.992, 176.299 442.384, 177.408 445.723 C 178.321 448.470, 180.578 452.484, 182.425 454.641 C 184.271 456.799, 188.035 459.790, 190.788 461.288 C 193.541 462.787, 198.107 464.451, 200.935 464.988 C 204.448 465.654, 207.726 465.613, 211.288 464.860 C 214.155 464.253, 217.850 463.075, 219.500 462.241 C 221.150 461.408, 224.164 459.419, 226.197 457.821 C 228.230 456.223, 231.110 452.431, 232.596 449.394 C 234.718 445.056, 235.319 442.328, 235.399 436.669 C 235.486 430.473, 235.054 428.559, 232.310 422.983 C 230.284 418.866, 228.026 415.854, 226.122 414.730 C 224.474 413.757, 219.835 412.534, 215.813 412.011 C 211.791 411.489, 206.025 411.078, 203 411.098 C 199.975 411.119, 195.336 411.717, 192.692 412.428 M 272 411.941 C 272 412.459, 272.417 413.140, 272.927 413.455 C 273.437 413.770, 274.312 415.484, 274.871 417.264 C 275.430 419.044, 276.380 422.413, 276.982 424.750 L 278.077 429 314.039 429 L 350 429 350 420 L 350 411 311 411 C 287.297 411, 272 411.369, 272 411.941" stroke="none" fill="#06213b" fill-rule="evenodd"/><path d="M 83.244 87.998 C 81.604 88.995, 79.763 91.242, 79.153 92.991 C 78.278 95.500, 78.364 96.935, 79.559 99.795 C 80.392 101.788, 83.537 106.693, 86.549 110.695 C 89.561 114.696, 93.126 118.692, 94.472 119.574 C 96.112 120.648, 97.909 120.959, 99.922 120.517 C 101.821 120.100, 103.674 118.646, 104.962 116.561 C 106.083 114.748, 107 112.108, 107 110.695 C 107 109.282, 104.924 105.060, 102.387 101.313 C 99.849 97.566, 96.405 93.058, 94.733 91.294 C 93.062 89.531, 90.464 87.660, 88.961 87.136 C 86.853 86.401, 85.545 86.598, 83.244 87.998 M 321.410 88.077 C 319.478 88.638, 316.674 91.036, 313.933 94.471 C 311.521 97.494, 308.524 101.880, 307.274 104.218 C 306.023 106.556, 305 109.511, 305 110.784 C 305 112.058, 305.699 114.450, 306.552 116.101 C 307.406 117.752, 309.053 119.454, 310.211 119.883 C 311.370 120.311, 313.325 120.469, 314.556 120.234 C 315.787 119.999, 319.953 116.325, 323.814 112.070 C 328.707 106.676, 331.183 103.035, 331.988 100.046 C 332.842 96.875, 332.852 95.058, 332.029 93.069 C 331.416 91.591, 329.627 89.620, 328.053 88.691 C 326.479 87.761, 325.036 87.041, 324.846 87.090 C 324.656 87.140, 323.109 87.584, 321.410 88.077 M 203.500 105.986 C 201.615 106.658, 201.471 107.839, 201 126.599 L 200.500 146.500 196.500 147.359 C 194.300 147.831, 188.450 149.309, 183.500 150.644 C 178.550 151.978, 171.125 154.654, 167 156.590 C 162.875 158.526, 157.734 161.323, 155.576 162.805 C 153.418 164.287, 148.018 169.600, 143.576 174.610 C 139.134 179.621, 133.960 186.297, 132.077 189.445 C 130.194 192.593, 127.354 198.842, 125.765 203.330 C 124.177 207.819, 122.233 215.769, 121.445 220.996 C 120.485 227.359, 120.010 239.020, 120.006 256.281 C 120 279.946, 120.144 282.111, 121.750 282.656 C 122.713 282.982, 125.901 284.310, 128.835 285.608 L 134.169 287.967 133.835 304.984 L 133.500 322.002 205.691 322.001 C 246.434 322, 278.120 321.615, 278.428 321.116 C 278.729 320.630, 278.544 315.792, 278.017 310.366 C 277.489 304.940, 276.757 297.700, 276.390 294.278 C 275.735 288.190, 275.779 288.035, 278.409 287.034 C 279.888 286.472, 283.551 284.852, 286.549 283.434 L 292 280.855 291.969 257.177 C 291.951 243.536, 291.355 228.625, 290.562 222 C 289.726 215.011, 288.153 207.754, 286.551 203.500 C 285.101 199.650, 282.112 193.460, 279.909 189.744 C 277.706 186.028, 273.639 180.267, 270.872 176.942 C 268.105 173.617, 262.403 168.354, 258.201 165.247 C 253.999 162.139, 247.593 158.134, 243.966 156.348 C 240.339 154.561, 233.413 151.952, 228.574 150.550 C 223.735 149.147, 218.364 147.993, 216.638 147.985 C 214.912 147.976, 212.825 147.544, 212 147.023 C 210.779 146.253, 210.407 142.417, 210 126.401 C 209.529 107.872, 209.383 106.683, 207.500 106 C 206.400 105.601, 204.600 105.595, 203.500 105.986 M 37.500 133.167 C 36.400 133.775, 34.487 135.190, 33.250 136.311 C 31.849 137.580, 31 139.506, 31 141.415 C 31 143.903, 32.272 145.682, 37.750 150.860 C 41.462 154.369, 47.114 159.257, 50.308 161.723 C 54.164 164.700, 57.453 166.385, 60.098 166.740 C 63.332 167.174, 64.541 166.840, 66.540 164.963 C 68.125 163.473, 69 161.551, 69 159.559 C 69 157.316, 67.748 155.034, 64.448 151.262 C 61.944 148.400, 56.769 143.733, 52.948 140.891 C 49.126 138.050, 46 135.381, 46 134.960 C 46 134.540, 44.583 133.702, 42.851 133.098 C 41.119 132.494, 39.656 132.014, 39.601 132.030 C 39.545 132.047, 38.600 132.559, 37.500 133.167 M 367.436 133.285 C 366.300 133.953, 361.018 138.248, 355.698 142.828 C 350.378 147.408, 345.120 152.428, 344.013 153.982 C 342.906 155.537, 342 158.011, 342 159.481 C 342 161.102, 343.151 163.304, 344.923 165.077 C 346.849 167.003, 348.865 168, 350.833 168 C 352.821 168, 355.439 166.686, 358.660 164.071 C 361.322 161.910, 366.650 157.588, 370.500 154.466 C 374.350 151.345, 378.372 147.334, 379.437 145.553 C 381.166 142.662, 381.228 141.965, 380.016 139.040 C 379.270 137.238, 377.274 134.918, 375.580 133.885 C 373.886 132.853, 371.825 132.022, 371 132.039 C 370.175 132.057, 368.571 132.617, 367.436 133.285 M 18.252 207.536 C 17.046 208.381, 15.561 210.744, 14.952 212.786 C 14.178 215.386, 14.156 217.311, 14.880 219.202 C 15.449 220.688, 17.290 222.616, 18.971 223.485 C 20.652 224.354, 24.159 225.523, 26.764 226.083 C 29.369 226.642, 33.644 227.549, 36.264 228.098 C 39.838 228.846, 41.704 228.772, 43.735 227.798 C 45.223 227.084, 47.011 225.375, 47.706 224 C 48.401 222.625, 48.977 220.122, 48.985 218.437 C 48.995 216.369, 48.107 214.544, 46.250 212.819 C 44.511 211.204, 40.535 209.481, 35.432 208.132 C 30.994 206.960, 25.807 206, 23.904 206 C 22.002 206, 19.458 206.691, 18.252 207.536 M 377.734 207.088 C 375.663 207.576, 372.185 208.885, 370.005 209.997 C 367.825 211.110, 365.357 213.343, 364.521 214.960 C 363.684 216.577, 363 219.041, 363 220.435 C 363 221.828, 364.307 224.431, 365.904 226.219 L 368.808 229.469 375.318 227.735 C 378.899 226.781, 383.239 226, 384.964 226 C 386.688 226, 389.391 225.332, 390.971 224.515 C 392.550 223.698, 394.837 221.633, 396.053 219.926 C 398.028 217.152, 398.139 216.409, 397.102 212.947 C 396.464 210.816, 394.954 208.381, 393.748 207.536 C 392.417 206.604, 389.578 206.039, 386.527 206.100 C 383.762 206.156, 379.806 206.600, 377.734 207.088 M 33.773 273.080 C 31.723 273.564, 27.223 275.242, 23.773 276.811 C 20.323 278.379, 16.916 280.373, 16.202 281.242 C 15.487 282.111, 14.651 284.375, 14.343 286.273 C 13.881 289.120, 14.293 290.297, 16.694 292.983 C 19.146 295.728, 20.278 296.232, 23.884 296.182 C 26.237 296.150, 29.550 295.818, 31.246 295.446 C 32.941 295.074, 37.123 293.515, 40.539 291.983 C 43.955 290.450, 47.481 288.152, 48.375 286.876 C 49.269 285.599, 50 283.283, 50 281.728 C 50 280.173, 49.342 277.628, 48.537 276.072 C 47.732 274.515, 46.346 272.963, 45.455 272.621 C 44.565 272.280, 42.411 272.045, 40.668 272.100 C 38.926 272.156, 35.823 272.597, 33.773 273.080 M 366.229 272.613 C 365.530 272.925, 364.292 274.468, 363.479 276.041 C 362.666 277.614, 362 280.225, 362 281.845 C 362 283.679, 363.036 285.892, 364.750 287.717 C 366.706 289.801, 370.375 291.583, 377.464 293.894 C 384.248 296.105, 388.434 296.954, 390.577 296.552 C 392.309 296.227, 394.431 295.181, 395.293 294.229 C 396.155 293.276, 397.273 291.372, 397.776 289.998 C 398.317 288.521, 398.329 286.152, 397.805 284.202 C 397.174 281.856, 395.602 280.070, 392.361 278.014 C 389.854 276.424, 385.589 274.649, 382.883 274.068 C 380.177 273.488, 375.608 272.795, 372.731 272.529 C 369.854 272.263, 366.928 272.301, 366.229 272.613 M 93.502 372.996 C 93.130 373.599, 94.369 374, 96.608 374 C 98.657 374, 100.146 373.838, 99.917 373.641 C 99.688 373.443, 98.290 372.991, 96.811 372.637 C 95.332 372.283, 93.843 372.444, 93.502 372.996 M 103.762 373.707 C 105.006 373.946, 106.806 373.937, 107.762 373.687 C 108.718 373.437, 107.700 373.241, 105.500 373.252 C 103.300 373.263, 102.518 373.468, 103.762 373.707 M 195.326 411.994 C 193.031 412.476, 189.881 413.531, 188.326 414.340 C 186.772 415.148, 184.503 416.878, 183.284 418.183 C 182.065 419.489, 180.366 422.545, 179.509 424.975 C 178.197 428.693, 178.168 429.515, 179.326 430.163 C 180.083 430.586, 181.456 432.905, 182.376 435.315 C 183.519 438.307, 185.436 440.693, 188.422 442.837 C 190.827 444.564, 195.175 446.488, 198.084 447.112 C 200.993 447.735, 206.031 447.968, 209.280 447.629 C 212.528 447.289, 217.282 446.086, 219.843 444.954 C 222.404 443.823, 225.912 441.531, 227.637 439.862 C 229.363 438.192, 231.570 435.061, 232.543 432.904 C 234.062 429.537, 234.139 428.407, 233.090 424.905 C 232.418 422.661, 230.435 419.267, 228.684 417.360 C 226.723 415.226, 224.029 413.564, 221.670 413.034 C 219.564 412.562, 213.714 411.937, 208.670 411.647 C 203.627 411.356, 197.622 411.512, 195.326 411.994 M 276.610 420.500 C 276.979 422.150, 277.443 423.688, 277.641 423.917 C 277.838 424.146, 277.993 423.471, 277.985 422.417 C 277.976 421.363, 277.513 419.825, 276.954 419 C 276.213 417.905, 276.120 418.309, 276.610 420.500 M 134.624 421.539 C 134.281 422.432, 134.029 423.689, 134.063 424.332 C 134.098 424.974, 134.558 424.422, 135.085 423.105 C 135.612 421.787, 135.864 420.531, 135.645 420.312 C 135.426 420.093, 134.966 420.645, 134.624 421.539 M 281.218 422.154 C 281.465 422.895, 282.192 423.500, 282.833 423.500 C 283.475 423.500, 284.024 423.050, 284.053 422.500 C 284.082 421.950, 283.355 421.345, 282.438 421.154 C 281.395 420.939, 280.938 421.313, 281.218 422.154 M 341.570 421.886 C 341.269 422.374, 341.917 423.007, 343.011 423.293 C 344.300 423.630, 345 423.318, 345 422.406 C 345 421.633, 344.352 421, 343.559 421 C 342.766 421, 341.872 421.399, 341.570 421.886 M 287.620 422.805 C 287.346 423.248, 295.757 423.694, 306.311 423.795 C 316.865 423.897, 327.975 423.590, 331 423.115 C 334.994 422.486, 329.877 422.215, 312.309 422.125 C 299.004 422.056, 287.894 422.362, 287.620 422.805 M 180.080 450 C 180.735 451.375, 181.435 452.688, 181.635 452.917 C 181.836 453.146, 182 452.894, 182 452.358 C 182 451.821, 181.300 450.509, 180.445 449.441 C 178.978 447.611, 178.958 447.643, 180.080 450" stroke="none" fill="#f9ae93" fill-rule="evenodd"/></svg>