<svg xmlns="http://www.w3.org/2000/svg" width="500" height="499" viewBox="0 0 500 499" version="1.1"><path d="M 234.264 94.718 C 235.784 94.947, 238.034 94.941, 239.264 94.704 C 240.494 94.467, 239.250 94.279, 236.500 94.286 C 233.750 94.294, 232.744 94.488, 234.264 94.718 M 233.250 126.728 C 235.313 126.944, 238.688 126.944, 240.750 126.728 C 242.813 126.513, 241.125 126.336, 237 126.336 C 232.875 126.336, 231.188 126.513, 233.250 126.728 M 187.144 258.500 C 187.298 262.625, 187.778 266, 188.212 266 C 188.645 266, 189 266.675, 189 267.500 C 189 268.362, 189.902 269, 191.122 269 C 192.930 269, 193.053 269.231, 191.953 270.556 C 191.243 271.412, 191.075 272.034, 191.581 271.938 C 192.086 271.842, 193.042 271.816, 193.705 271.882 C 194.367 271.947, 195.204 273.571, 195.564 275.491 C 195.925 277.411, 196.573 278.764, 197.005 278.497 C 197.437 278.230, 198.048 278.684, 198.364 279.506 C 198.679 280.328, 199.401 281, 199.969 281 C 200.536 281, 201 280.352, 201 279.559 C 201 278.766, 201.445 277.843, 201.989 277.507 C 202.562 277.153, 202.719 277.568, 202.363 278.496 C 201.997 279.450, 202.506 280.669, 203.625 281.516 C 204.656 282.297, 205.769 282.951, 206.097 282.968 C 206.426 282.986, 207.208 281.988, 207.835 280.750 L 208.976 278.500 208.738 281 C 208.589 282.560, 208.970 283.406, 209.750 283.250 C 210.438 283.113, 211.036 284.013, 211.079 285.250 C 211.122 286.488, 211.385 286.938, 211.662 286.250 C 211.940 285.563, 212.627 285, 213.190 285 C 213.753 285, 213.972 285.631, 213.676 286.401 C 213.328 287.309, 213.731 287.707, 214.819 287.530 C 215.744 287.380, 217.063 287.704, 217.750 288.251 C 218.438 288.798, 219 288.932, 219 288.550 C 219 288.168, 220.227 288.820, 221.726 289.999 C 223.403 291.318, 224.595 291.715, 224.823 291.030 C 225.092 290.223, 225.578 290.235, 226.588 291.073 C 227.355 291.709, 229.448 292.014, 231.241 291.751 C 233.033 291.487, 235.471 291.714, 236.659 292.255 C 238.224 292.968, 239.667 292.814, 241.909 291.695 C 244.069 290.618, 245.005 290.507, 245.015 291.327 C 245.024 292.007, 245.438 291.870, 246 291 C 246.533 290.175, 246.976 290, 246.985 290.611 C 246.994 291.256, 248.051 291.522, 249.500 291.245 C 250.875 290.982, 252 290.317, 252 289.767 C 252 289.217, 253.125 288.982, 254.500 289.245 C 256.249 289.579, 257 289.281, 257 288.254 C 257 287.350, 257.585 287.011, 258.523 287.370 C 259.360 287.692, 260.905 287.095, 261.956 286.044 C 263.564 284.436, 264.049 284.354, 265.020 285.525 C 265.991 286.694, 266.513 286.600, 268.304 284.931 C 269.475 283.840, 271.348 283.072, 272.467 283.224 C 273.666 283.387, 274.397 282.987, 274.250 282.250 C 274.113 281.563, 274.525 281, 275.167 281 C 275.808 281, 276.049 280.715, 275.701 280.367 C 275.353 280.019, 276.191 278.851, 277.565 277.770 C 279.421 276.311, 280.398 276.086, 281.373 276.894 C 282.094 277.493, 282.980 277.687, 283.342 277.325 C 283.704 276.963, 284 275.842, 284 274.833 C 284 273.825, 284.675 273, 285.500 273 C 286.325 273, 287 272.523, 287 271.941 C 287 271.359, 286.438 271.200, 285.750 271.588 C 285.063 271.976, 285.512 271.310, 286.750 270.108 C 288.734 268.181, 289 266.921, 289 259.461 C 289 254.807, 288.650 251, 288.222 251 C 287.794 251, 286.757 251.787, 285.916 252.750 C 285.076 253.713, 283.219 255.362, 281.789 256.416 C 280.227 257.567, 279.417 258.923, 279.759 259.814 C 280.202 260.969, 279.721 261.180, 277.579 260.770 C 275.264 260.328, 274.908 260.541, 275.322 262.123 C 275.592 263.155, 275.442 264, 274.990 264 C 274.537 264, 273.904 263.438, 273.583 262.750 C 273.118 261.752, 272.882 261.753, 272.415 262.756 C 272.093 263.447, 271.348 263.715, 270.760 263.352 C 270.128 262.961, 269.983 263.163, 270.405 263.845 C 270.838 264.547, 270.445 265, 269.404 265 C 267.797 265, 267.795 265.116, 269.370 266.857 C 270.946 268.598, 270.940 268.800, 269.275 270.107 C 267.699 271.344, 267.639 271.322, 268.741 269.908 C 269.424 269.032, 269.724 268.057, 269.408 267.741 C 269.092 267.425, 267.981 268.019, 266.939 269.061 C 265.798 270.202, 265.288 271.659, 265.657 272.727 C 266.166 274.201, 265.999 274.162, 264.666 272.500 C 263.785 271.400, 263.049 270.136, 263.032 269.691 C 263.014 269.246, 263.450 269.160, 264 269.500 C 264.550 269.840, 265 269.615, 265 269 C 265 268.385, 265.423 268.143, 265.939 268.463 C 266.456 268.782, 266.814 268.183, 266.735 267.131 C 266.651 266.015, 266.055 265.426, 265.301 265.715 C 264.592 265.987, 264.304 266.683, 264.662 267.262 C 265.072 267.925, 264.542 268.113, 263.231 267.771 C 261.734 267.379, 261.299 267.616, 261.682 268.613 C 261.975 269.376, 261.806 270, 261.307 270 C 260.808 270, 259.860 269.460, 259.200 268.800 C 258.267 267.867, 257.967 267.867, 257.850 268.800 C 257.767 269.460, 257.655 270.563, 257.600 271.250 C 257.545 271.938, 257.050 272.831, 256.500 273.235 C 255.950 273.639, 255.162 273.976, 254.750 273.985 C 254.338 273.993, 253.971 273.212, 253.937 272.250 C 253.891 270.991, 253.567 271.201, 252.781 273 C 252.181 274.375, 251.779 276.063, 251.889 276.750 C 251.998 277.438, 251.618 278, 251.044 278 C 250.470 278, 250.053 277.663, 250.118 277.250 C 250.184 276.837, 250.184 275.657, 250.118 274.628 C 250.019 273.054, 249.753 272.960, 248.453 274.039 C 247.217 275.065, 247.166 275.489, 248.203 276.146 C 249.215 276.789, 249.171 276.976, 248 277 C 246.796 277.025, 246.763 277.198, 247.834 277.876 C 248.919 278.564, 248.888 278.829, 247.667 279.298 C 246.841 279.615, 245.917 279.227, 245.614 278.437 C 245.311 277.647, 245.554 277, 246.154 277 C 246.831 277, 246.724 276.358, 245.872 275.308 C 244.704 273.867, 244.708 273.742, 245.905 274.463 C 246.858 275.037, 247.080 274.938, 246.595 274.155 C 246.203 273.520, 245.410 273, 244.834 273 C 244.258 273, 244.052 273.692, 244.376 274.538 C 244.720 275.433, 244.311 276.327, 243.399 276.677 C 242.135 277.162, 242.090 277.442, 243.166 278.124 C 244.056 278.688, 244.108 278.974, 243.321 278.985 C 242.673 278.993, 241.436 278.293, 240.571 277.429 C 239.707 276.564, 239 275.678, 239 275.460 C 239 275.242, 239.629 275.304, 240.399 275.600 C 241.168 275.895, 242.076 275.687, 242.415 275.137 C 242.755 274.588, 242.606 273.875, 242.085 273.553 C 241.564 273.231, 239.969 274.051, 238.540 275.376 C 236.307 277.445, 235.594 277.623, 233.478 276.642 C 232.124 276.014, 231.012 275.114, 231.008 274.643 C 231.004 274.172, 231.638 274.031, 232.417 274.330 C 233.197 274.629, 234.053 274.305, 234.319 273.610 C 234.690 272.644, 233.710 272.514, 230.152 273.058 C 227.055 273.532, 225.254 273.391, 224.765 272.635 C 224.361 272.011, 224.024 271.853, 224.015 272.285 C 224.007 272.717, 224.722 274.292, 225.605 275.785 C 226.735 277.696, 226.777 277.982, 225.745 276.750 C 224.939 275.788, 223.718 275, 223.033 275 C 222.347 275, 222.016 274.400, 222.298 273.667 C 222.579 272.933, 222.177 272.333, 221.405 272.333 C 220.632 272.333, 220 272.933, 220 273.667 C 220 274.400, 219.530 275, 218.956 275 C 218.382 275, 218.002 274.438, 218.111 273.750 C 218.221 273.063, 217.819 271.375, 217.219 270 C 216.618 268.625, 216.098 268.048, 216.063 268.718 C 216.020 269.555, 215.300 269.677, 213.759 269.106 C 212.153 268.512, 211.194 268.721, 210.374 269.841 C 209.426 271.138, 209.281 270.944, 209.527 268.703 C 209.690 267.216, 209.351 266, 208.772 266 C 208.194 266, 207.080 266.788, 206.297 267.750 C 205.246 269.042, 204.737 269.169, 204.348 268.232 C 204.058 267.535, 203.154 266.297, 202.339 265.482 C 201.524 264.667, 201.325 264, 201.897 264 C 202.469 264, 202.657 263.270, 202.315 262.378 C 201.779 260.982, 201.457 261.069, 200 263 C 198.551 264.920, 198.218 265.012, 197.690 263.634 C 197.339 262.719, 197.542 262.127, 198.161 262.262 C 198.760 262.393, 199.477 261.875, 199.755 261.111 C 200.064 260.260, 199.822 259.992, 199.130 260.420 C 198.475 260.825, 198 260.463, 198 259.559 C 198 258.702, 197.438 257.947, 196.750 257.882 C 196.063 257.816, 195.162 257.816, 194.750 257.882 C 194.338 257.947, 194.113 257.622, 194.250 257.161 C 194.387 256.700, 193.085 255.125, 191.356 253.661 C 189.626 252.197, 187.908 251, 187.538 251 C 187.168 251, 186.990 254.375, 187.144 258.500 M 205.008 264.974 C 203.917 265.664, 203.814 266.214, 204.624 267.024 C 205.435 267.835, 205.877 267.577, 206.272 266.066 C 206.570 264.930, 206.742 264.007, 206.656 264.015 C 206.570 264.024, 205.829 264.455, 205.008 264.974 M 214.710 273 C 214.423 274.100, 214.595 275, 215.094 275 C 215.592 275, 216 274.812, 216 274.582 C 216 274.352, 216.273 273.452, 216.607 272.582 C 216.941 271.712, 216.768 271, 216.224 271 C 215.679 271, 214.998 271.900, 214.710 273 M 235 289.771 C 235 290.329, 235.712 291.059, 236.582 291.393 C 237.452 291.727, 238.577 292, 239.082 292 C 239.587 292, 240 291.523, 240 290.941 C 240 290.359, 239.530 290.172, 238.956 290.527 C 238.382 290.882, 237.257 290.628, 236.456 289.964 C 235.597 289.251, 235 289.172, 235 289.771 M 370.208 366.725 L 370 376.949 354.250 377.252 L 338.500 377.555 354.281 377.777 C 366.620 377.951, 370.174 377.711, 370.571 376.675 C 370.851 375.946, 370.930 371.109, 370.747 365.925 L 370.415 356.500 370.208 366.725 M 107.750 377.723 C 109.537 377.945, 112.463 377.945, 114.250 377.723 C 116.037 377.502, 114.575 377.320, 111 377.320 C 107.425 377.320, 105.963 377.502, 107.750 377.723" stroke="none" fill="#e0531f" fill-rule="evenodd"/><path d="M 349.286 92.301 C 350.504 93.566, 351.685 94.469, 351.911 94.307 C 352.136 94.145, 351.504 93.110, 350.506 92.006 C 349.507 90.903, 348.326 90, 347.881 90 C 347.436 90, 348.068 91.035, 349.286 92.301 M 234.750 109.723 C 236.537 109.945, 239.463 109.945, 241.250 109.723 C 243.037 109.502, 241.575 109.320, 238 109.320 C 234.425 109.320, 232.963 109.502, 234.750 109.723 M 373.252 120.500 C 373.263 122.700, 373.468 123.482, 373.707 122.238 C 373.946 120.994, 373.937 119.194, 373.687 118.238 C 373.437 117.282, 373.241 118.300, 373.252 120.500 M 361.272 122 C 361.272 124.475, 361.467 125.487, 361.706 124.250 C 361.944 123.013, 361.944 120.987, 361.706 119.750 C 361.467 118.513, 361.272 119.525, 361.272 122 M 96.762 128.707 C 98.006 128.946, 99.806 128.937, 100.762 128.687 C 101.718 128.437, 100.700 128.241, 98.500 128.252 C 96.300 128.263, 95.518 128.468, 96.762 128.707 M 352.250 128.716 C 353.762 128.945, 356.238 128.945, 357.750 128.716 C 359.262 128.487, 358.025 128.300, 355 128.300 C 351.975 128.300, 350.738 128.487, 352.250 128.716 M 95.250 141.716 C 96.763 141.945, 99.237 141.945, 100.750 141.716 C 102.263 141.487, 101.025 141.300, 98 141.300 C 94.975 141.300, 93.737 141.487, 95.250 141.716 M 119.750 141.706 C 120.987 141.944, 123.013 141.944, 124.250 141.706 C 125.487 141.467, 124.475 141.272, 122 141.272 C 119.525 141.272, 118.513 141.467, 119.750 141.706 M 351.750 141.723 C 353.538 141.945, 356.462 141.945, 358.250 141.723 C 360.038 141.502, 358.575 141.320, 355 141.320 C 351.425 141.320, 349.962 141.502, 351.750 141.723 M 377.762 141.707 C 379.006 141.946, 380.806 141.937, 381.762 141.687 C 382.718 141.437, 381.700 141.241, 379.500 141.252 C 377.300 141.263, 376.518 141.468, 377.762 141.707 M 373.286 146.500 C 373.294 149.250, 373.488 150.256, 373.718 148.736 C 373.947 147.216, 373.941 144.966, 373.704 143.736 C 373.467 142.506, 373.279 143.750, 373.286 146.500 M 116.232 149 C 116.232 150.925, 116.438 151.713, 116.689 150.750 C 116.941 149.787, 116.941 148.213, 116.689 147.250 C 116.438 146.287, 116.232 147.075, 116.232 149 M 84.987 204.796 L 85.475 211.500 85.792 205.604 C 85.966 202.362, 85.747 199.345, 85.304 198.900 C 84.862 198.455, 84.719 201.108, 84.987 204.796 M 370.264 198.718 C 371.784 198.947, 374.034 198.941, 375.264 198.704 C 376.494 198.467, 375.250 198.279, 372.500 198.286 C 369.750 198.294, 368.744 198.488, 370.264 198.718 M 97.286 204.500 C 97.294 207.250, 97.488 208.256, 97.718 206.736 C 97.947 205.216, 97.941 202.966, 97.704 201.736 C 97.467 200.506, 97.279 201.750, 97.286 204.500 M 390.300 205 C 390.300 208.025, 390.487 209.262, 390.716 207.750 C 390.945 206.238, 390.945 203.762, 390.716 202.250 C 390.487 200.738, 390.300 201.975, 390.300 205 M 289.349 261 C 289.349 265.675, 289.522 267.587, 289.732 265.250 C 289.943 262.913, 289.943 259.087, 289.732 256.750 C 289.522 254.412, 289.349 256.325, 289.349 261 M 186.310 261.500 C 186.315 264.800, 186.502 266.029, 186.725 264.232 C 186.947 262.435, 186.943 259.735, 186.715 258.232 C 186.486 256.729, 186.304 258.200, 186.310 261.500 M 278.250 257.731 C 277.012 258.563, 276 259.639, 276 260.122 C 276 260.605, 276.948 261, 278.107 261 C 279.527 261, 280.034 260.532, 279.663 259.565 C 279.360 258.775, 279.650 257.937, 280.306 257.702 C 280.963 257.466, 281.275 257.036, 281 256.746 C 280.725 256.456, 279.488 256.899, 278.250 257.731 M 198 260.059 C 198 260.641, 198.508 260.804, 199.130 260.420 C 199.822 259.992, 200.064 260.260, 199.755 261.111 C 199.477 261.875, 198.760 262.393, 198.161 262.262 C 197.542 262.127, 197.339 262.719, 197.690 263.634 C 198.218 265.012, 198.551 264.920, 200 263 C 201.457 261.069, 201.779 260.982, 202.315 262.378 C 202.657 263.270, 202.469 264, 201.897 264 C 201.325 264, 201.524 264.667, 202.339 265.482 C 203.154 266.297, 204.058 267.535, 204.348 268.232 C 204.737 269.169, 205.246 269.042, 206.297 267.750 C 207.080 266.788, 208.194 266, 208.772 266 C 209.351 266, 209.690 267.216, 209.527 268.703 C 209.281 270.944, 209.426 271.138, 210.374 269.841 C 211.194 268.721, 212.153 268.512, 213.759 269.106 C 215.439 269.728, 216 269.568, 216 268.468 C 216 267.582, 215.041 267, 213.583 267 C 212.254 267, 211.010 266.530, 210.819 265.956 C 210.627 265.381, 209.465 264.835, 208.235 264.743 C 207.006 264.650, 206 264.257, 206 263.869 C 206 263.481, 204.484 262.226, 202.632 261.082 C 200.780 259.937, 198.980 259, 198.632 259 C 198.284 259, 198 259.477, 198 260.059 M 273.738 260.614 C 273.405 261.154, 273.528 262.236, 274.012 263.019 C 274.495 263.802, 275.084 264.230, 275.320 263.971 C 275.556 263.712, 275.433 262.630, 275.047 261.566 C 274.661 260.503, 274.072 260.074, 273.738 260.614 M 269.250 263.706 C 268.012 263.944, 266.947 264.670, 266.882 265.320 C 266.816 265.969, 266.861 267.173, 266.982 267.996 C 267.156 269.185, 266.790 269.120, 265.200 267.681 C 263.898 266.503, 262.968 266.242, 262.540 266.935 C 262.178 267.521, 262.584 268, 263.441 268 C 264.298 268, 265 268.477, 265 269.059 C 265 269.641, 264.550 269.840, 264 269.500 C 263.450 269.160, 263.014 269.246, 263.032 269.691 C 263.049 270.136, 263.785 271.400, 264.666 272.500 C 265.999 274.162, 266.166 274.201, 265.657 272.727 C 265.288 271.659, 265.798 270.202, 266.939 269.061 C 267.981 268.019, 269.092 267.425, 269.408 267.741 C 269.724 268.057, 269.424 269.032, 268.741 269.908 C 267.639 271.322, 267.699 271.344, 269.275 270.107 C 270.940 268.800, 270.946 268.598, 269.370 266.857 C 267.864 265.192, 267.855 265, 269.286 265 C 270.164 265, 271.160 264.550, 271.500 264 C 271.840 263.450, 271.979 263.061, 271.809 263.136 C 271.639 263.211, 270.488 263.467, 269.250 263.706 M 259.597 267.844 C 259.251 268.404, 259.455 269.163, 260.050 269.531 C 260.646 269.899, 261.411 269.923, 261.750 269.583 C 262.089 269.244, 261.885 268.485, 261.296 267.896 C 260.578 267.178, 260.019 267.161, 259.597 267.844 M 217 269.441 C 217 270.234, 217.430 271.148, 217.956 271.473 C 218.482 271.798, 218.659 272.725, 218.349 273.532 C 218.040 274.339, 218.284 275, 218.893 275 C 219.502 275, 220 274.400, 220 273.667 C 220 272.933, 220.632 272.333, 221.405 272.333 C 222.177 272.333, 222.579 272.933, 222.298 273.667 C 222.016 274.400, 222.347 275, 223.033 275 C 223.718 275, 224.939 275.788, 225.745 276.750 C 226.777 277.982, 226.735 277.696, 225.605 275.785 C 224.722 274.292, 224.007 272.717, 224.015 272.285 C 224.024 271.853, 224.361 272.001, 224.765 272.612 C 225.244 273.336, 227.071 273.481, 230 273.026 C 232.475 272.643, 233.825 272.086, 233 271.789 C 232.175 271.493, 229.162 270.827, 226.305 270.310 C 222.666 269.651, 221.295 269.688, 221.727 270.435 C 222.066 271.021, 221.444 270.712, 220.343 269.750 C 219.243 268.788, 218.040 268, 217.671 268 C 217.302 268, 217 268.648, 217 269.441 M 256.122 269.675 C 255.538 270.679, 255.047 270.985, 255.030 270.355 C 255.009 269.545, 253.903 269.465, 251.250 270.081 C 249.188 270.560, 245.717 270.963, 243.538 270.976 C 240.682 270.993, 239.006 271.642, 237.538 273.297 C 236.417 274.561, 235.902 275, 236.393 274.273 C 236.883 273.546, 236.959 272.626, 236.561 272.227 C 236.162 271.829, 235.311 272.217, 234.668 273.089 C 234.026 273.962, 232.938 274.486, 232.250 274.254 C 231.563 274.023, 231.004 274.208, 231.008 274.667 C 231.012 275.125, 232.124 276.014, 233.478 276.642 C 235.594 277.623, 236.307 277.445, 238.540 275.376 C 239.969 274.051, 241.564 273.231, 242.085 273.553 C 242.606 273.875, 242.755 274.588, 242.415 275.137 C 242.076 275.687, 241.168 275.895, 240.399 275.600 C 239.629 275.304, 239 275.242, 239 275.460 C 239 275.678, 239.707 276.564, 240.571 277.429 C 241.436 278.293, 242.673 278.993, 243.321 278.985 C 244.108 278.974, 244.056 278.688, 243.166 278.124 C 242.090 277.442, 242.135 277.162, 243.399 276.677 C 244.311 276.327, 244.720 275.433, 244.376 274.538 C 244.052 273.692, 244.258 273, 244.834 273 C 245.410 273, 246.203 273.520, 246.595 274.155 C 247.080 274.938, 246.858 275.037, 245.905 274.463 C 244.708 273.742, 244.704 273.867, 245.872 275.308 C 246.724 276.358, 246.831 277, 246.154 277 C 245.554 277, 245.311 277.647, 245.614 278.437 C 245.917 279.227, 246.841 279.615, 247.667 279.298 C 248.888 278.829, 248.919 278.564, 247.834 277.876 C 246.763 277.198, 246.796 277.025, 248 277 C 249.171 276.976, 249.215 276.789, 248.203 276.146 C 247.166 275.489, 247.217 275.065, 248.453 274.039 C 249.753 272.960, 250.019 273.054, 250.118 274.628 C 250.184 275.657, 250.184 276.837, 250.118 277.250 C 250.053 277.663, 250.470 278, 251.044 278 C 251.618 278, 251.998 277.438, 251.889 276.750 C 251.779 276.063, 252.181 274.375, 252.781 273 C 253.638 271.038, 253.887 270.899, 253.937 272.357 C 253.980 273.629, 254.499 274.023, 255.582 273.607 C 256.452 273.273, 257.338 273, 257.550 273 C 257.763 273, 257.642 272.212, 257.281 271.250 C 256.685 269.659, 256.802 269.636, 258.563 271 C 260.397 272.420, 260.422 272.394, 259.033 270.500 C 258.226 269.400, 257.480 268.354, 257.375 268.175 C 257.269 267.996, 256.706 268.671, 256.122 269.675 M 214.710 273 C 214.423 274.100, 214.595 275, 215.094 275 C 215.592 275, 216 274.812, 216 274.582 C 216 274.352, 216.273 273.452, 216.607 272.582 C 216.941 271.712, 216.768 271, 216.224 271 C 215.679 271, 214.998 271.900, 214.710 273 M 273.437 299.250 L 270.500 302.500 273.750 299.563 C 275.538 297.948, 277 296.485, 277 296.313 C 277 296.141, 276.859 296, 276.687 296 C 276.515 296, 275.052 297.462, 273.437 299.250 M 235.750 329.706 C 236.988 329.944, 239.012 329.944, 240.250 329.706 C 241.488 329.467, 240.475 329.272, 238 329.272 C 235.525 329.272, 234.512 329.467, 235.750 329.706 M 338.310 354.500 C 338.315 357.800, 338.502 359.029, 338.725 357.232 C 338.947 355.435, 338.943 352.735, 338.715 351.232 C 338.486 349.729, 338.304 351.200, 338.310 354.500 M 370.272 353 C 370.272 355.475, 370.467 356.488, 370.706 355.250 C 370.944 354.012, 370.944 351.988, 370.706 350.750 C 370.467 349.512, 370.272 350.525, 370.272 353 M 122.287 377.740 C 125.469 377.939, 130.419 377.937, 133.287 377.736 C 136.154 377.535, 133.550 377.372, 127.500 377.374 C 121.450 377.376, 119.104 377.541, 122.287 377.740 M 195.825 377.750 C 219.654 377.899, 258.354 377.899, 281.825 377.750 C 305.296 377.600, 285.800 377.478, 238.500 377.478 C 191.200 377.478, 171.996 377.600, 195.825 377.750" stroke="none" fill="#b23119" fill-rule="evenodd"/><path d="M 221.500 61.636 C 217.650 62.446, 210.348 65.114, 205.273 67.566 C 197.796 71.177, 194.453 73.586, 187.656 80.261 C 183.042 84.793, 178.712 89.567, 178.034 90.871 C 177.356 92.175, 177.183 93.037, 177.650 92.786 C 178.118 92.536, 180.564 91.389, 183.086 90.238 C 185.608 89.086, 191.908 86.793, 197.086 85.141 C 202.264 83.489, 209.200 81.550, 212.500 80.832 C 216.336 79.997, 225.534 79.540, 238 79.566 C 252.097 79.595, 259.717 80.064, 265.500 81.257 C 269.900 82.166, 277.482 84.266, 282.350 85.925 C 287.217 87.584, 293.217 90.068, 295.683 91.446 L 300.166 93.952 298.151 90.770 C 297.043 89.020, 293.539 84.935, 290.364 81.692 C 287.188 78.450, 282.095 74.111, 279.045 72.051 C 275.995 69.991, 270.414 67.078, 266.643 65.578 C 262.871 64.078, 256.796 62.217, 253.143 61.443 C 249.489 60.668, 242.450 60.064, 237.500 60.099 C 232.550 60.134, 225.350 60.826, 221.500 61.636 M 106.750 115.080 C 105.435 115.846, 105 117.404, 105 121.350 C 105 124.237, 104.460 127.140, 103.800 127.800 C 103.140 128.460, 100.247 129, 97.371 129 C 93.952 129, 91.599 129.544, 90.571 130.571 C 89.707 131.436, 89 132.455, 89 132.836 C 89 133.217, 91.653 133.661, 94.896 133.821 C 98.457 133.998, 102.182 133.533, 104.300 132.648 C 106.229 131.842, 108.119 130.199, 108.501 128.997 C 109.190 126.827, 109.215 126.832, 112.158 129.651 C 114.812 132.194, 115.951 132.528, 123.061 132.851 C 127.842 133.068, 131 132.821, 131 132.228 C 131 131.687, 130.307 130.670, 129.460 129.967 C 128.613 129.264, 125.125 128.421, 121.710 128.094 L 115.500 127.500 115.832 122.364 C 116.118 117.930, 115.848 117.007, 113.859 115.614 C 112.592 114.726, 110.868 114.014, 110.027 114.030 C 109.187 114.047, 107.713 114.519, 106.750 115.080 M 364.272 115.522 C 362.549 116.729, 362.036 118.231, 361.799 122.772 L 361.500 128.500 355.038 128.803 C 351.484 128.970, 347.997 129.588, 347.288 130.176 C 346.580 130.764, 346 131.865, 346 132.622 C 346 133.627, 347.500 134, 351.532 134 C 354.575 134, 358.579 133.367, 360.430 132.594 C 362.281 131.820, 364.254 130.369, 364.813 129.370 C 365.439 128.251, 365.483 126.902, 364.927 125.863 C 364.349 124.783, 364.483 123.080, 365.301 121.135 C 366.423 118.467, 366.707 118.304, 367.628 119.798 C 368.205 120.734, 368.495 123.075, 368.273 125 C 368.031 127.096, 368.458 129.293, 369.337 130.477 C 370.513 132.061, 372.467 132.582, 379.153 133.093 C 383.744 133.445, 387.700 133.555, 387.944 133.338 C 388.189 133.122, 387.394 131.950, 386.179 130.734 C 384.466 129.021, 382.791 128.521, 378.734 128.512 L 373.500 128.500 373.201 122.772 C 372.964 118.231, 372.451 116.729, 370.728 115.522 C 369.533 114.685, 368.080 114, 367.500 114 C 366.920 114, 365.467 114.685, 364.272 115.522 M 203.150 144.673 C 198.557 147.207, 190.007 151.230, 184.150 153.614 C 177.042 156.506, 173.378 158.532, 173.132 159.706 C 172.930 160.673, 173.291 166.197, 173.935 171.982 C 174.579 177.767, 175.343 183.738, 175.633 185.250 C 176.100 187.690, 176.599 188, 180.056 188 C 183.047 188, 184.313 188.548, 185.498 190.356 C 186.347 191.652, 188.382 197, 190.020 202.241 C 191.800 207.937, 194.624 214.204, 197.040 217.822 C 199.262 221.150, 203.461 226.039, 206.371 228.687 C 209.280 231.334, 214.608 234.955, 218.210 236.732 C 221.811 238.510, 227.959 240.514, 231.870 241.184 C 237.500 242.150, 240.286 242.145, 245.241 241.159 C 248.683 240.474, 254.425 238.507, 258 236.786 C 262.212 234.759, 266.817 231.343, 271.084 227.079 C 275.608 222.558, 278.821 218.154, 281.355 213 C 284.289 207.032, 285.547 202.538, 287.514 191 C 288.874 183.025, 290.130 175.600, 290.307 174.500 C 290.615 172.573, 290.060 172.499, 275.064 172.474 C 260.661 172.451, 258.903 172.241, 251.500 169.667 C 247.100 168.136, 240.540 165.136, 236.922 163 C 233.305 160.864, 228.065 157.066, 225.278 154.560 C 222.492 152.055, 218.767 147.754, 217.002 145.002 C 215.236 142.251, 213.276 140.015, 212.646 140.033 C 212.016 140.051, 207.742 142.139, 203.150 144.673 M 87.200 171.200 C 86.540 171.860, 86 174.753, 86 177.629 C 86 181.168, 85.463 183.394, 84.339 184.518 C 83.052 185.805, 81.681 186.029, 78.250 185.515 C 74.795 184.997, 73.403 185.231, 71.911 186.580 C 70.860 187.532, 69.999 188.803, 69.998 189.405 C 69.996 190.133, 72.595 190.389, 77.748 190.168 C 83.031 189.942, 86.061 189.332, 87.261 188.253 C 88.744 186.920, 88.918 185.654, 88.363 180.236 C 87.871 175.440, 88.036 173.595, 89.011 172.993 C 89.730 172.549, 90.935 172.422, 91.689 172.711 C 92.687 173.094, 92.996 174.960, 92.826 179.565 C 92.642 184.567, 92.984 186.325, 94.464 187.960 C 96.040 189.701, 97.422 190.005, 103.214 189.886 C 108.877 189.770, 110.344 190.077, 111.515 191.623 C 112.421 192.819, 112.948 193.023, 112.968 192.184 C 112.986 191.461, 112.567 190.060, 112.038 189.071 C 111.509 188.083, 109.718 186.712, 108.058 186.024 C 106.397 185.336, 103.941 185.049, 102.599 185.386 C 101.257 185.723, 99.448 185.725, 98.579 185.392 C 97.511 184.982, 97 183.515, 97 180.861 C 97 178.702, 96.348 175.375, 95.551 173.468 C 94.378 170.660, 93.559 170, 91.251 170 C 89.683 170, 87.860 170.540, 87.200 171.200 M 380.557 172.223 C 379.682 173.472, 379 176.511, 379 179.163 C 379 181.759, 378.464 184.213, 377.809 184.618 C 377.154 185.023, 374.621 185.251, 372.180 185.124 C 368.760 184.947, 367.197 185.406, 365.371 187.122 C 364.067 188.346, 363.036 190.058, 363.079 190.924 C 363.131 191.956, 363.332 192.069, 363.662 191.250 C 363.993 190.430, 366.399 190, 370.649 190 C 374.214 190, 377.992 189.540, 379.043 188.977 C 380.094 188.414, 381.431 187.063, 382.015 185.973 C 382.763 184.574, 382.759 182.817, 381.999 179.995 C 381.060 176.509, 381.173 175.731, 382.885 173.893 C 383.964 172.735, 385.331 172.087, 385.923 172.453 C 386.516 172.819, 387 173.568, 387 174.118 C 387 174.668, 386.438 174.800, 385.750 174.412 C 384.780 173.865, 384.766 173.994, 385.687 174.990 C 386.440 175.805, 386.668 178.004, 386.312 181.012 C 385.844 184.966, 386.103 186.103, 387.875 187.875 C 389.563 189.563, 391.218 190, 395.918 190 C 399.173 190, 402.568 189.719, 403.461 189.376 C 404.949 188.805, 404.943 188.595, 403.388 186.876 C 402.096 185.449, 400.292 185, 395.845 185 L 390 185 390 178.700 C 390 175.133, 389.479 171.879, 388.800 171.200 C 388.140 170.540, 386.366 170, 384.857 170 C 383.155 170, 381.522 170.844, 380.557 172.223 M 153.751 179.750 C 152.308 181.262, 150.630 183.815, 150.023 185.422 C 149.415 187.030, 149.148 188.942, 149.428 189.672 C 149.760 190.538, 151.729 191, 155.084 191 L 160.230 191 159.524 185.343 C 159.135 182.232, 158.585 179.082, 158.301 178.343 C 158.018 177.604, 157.468 177, 157.080 177 C 156.692 177, 155.194 178.238, 153.751 179.750 M 318.690 177.750 C 318.455 178.162, 317.963 180.300, 317.597 182.500 C 317.231 184.700, 316.710 187.625, 316.439 189 C 315.949 191.487, 315.980 191.498, 322.471 191.165 C 328.971 190.831, 328.993 190.819, 328.369 188.165 C 328.025 186.699, 326.861 184.032, 325.782 182.237 C 324.704 180.443, 322.991 178.530, 321.976 177.987 C 320.962 177.444, 319.903 177, 319.625 177 C 319.346 177, 318.926 177.338, 318.690 177.750 M 161.807 274.974 C 157.054 277.091, 149.415 281.294, 144.832 284.315 C 140.250 287.336, 133.244 293.016, 129.265 296.937 C 125.286 300.858, 120.182 306.788, 117.922 310.114 C 115.663 313.441, 112.772 318.489, 111.498 321.332 C 110.224 324.174, 108.870 328.075, 108.488 330 C 107.836 333.284, 108.039 333.130, 111.775 327.500 C 113.964 324.200, 118.173 319.182, 121.128 316.349 C 124.083 313.516, 128.975 309.638, 132 307.732 C 135.025 305.826, 141.100 302.485, 145.500 300.307 C 149.900 298.129, 158.353 294.384, 164.285 291.986 C 172.839 288.528, 174.931 287.302, 174.398 286.063 C 174.028 285.203, 172.989 281.491, 172.088 277.813 L 170.450 271.126 161.807 274.974 M 302.683 277.750 C 301.840 281.462, 300.843 285.288, 300.468 286.250 C 299.988 287.482, 300.271 288, 301.424 288 C 302.325 288, 308.260 290.311, 314.613 293.135 C 320.966 295.960, 329.467 300.066, 333.504 302.259 C 337.541 304.453, 343.916 308.585, 347.672 311.441 C 351.427 314.297, 356.975 319.598, 360 323.221 C 363.025 326.844, 365.654 329.389, 365.842 328.877 C 366.031 328.365, 364.281 324.155, 361.954 319.523 C 359.627 314.891, 355.366 308.266, 352.486 304.800 C 349.606 301.335, 344.499 296.112, 341.138 293.193 C 337.777 290.274, 330.700 285.167, 325.413 281.843 C 320.125 278.520, 313.357 274.721, 310.371 273.401 C 307.386 272.080, 304.780 271, 304.580 271 C 304.380 271, 303.527 274.038, 302.683 277.750" stroke="none" fill="#efd4b1" fill-rule="evenodd"/><path d="M 219.500 46.466 C 215.650 47.173, 208.889 49.151, 204.475 50.862 C 200.062 52.572, 192.979 56.251, 188.735 59.037 C 184.492 61.822, 178.032 67.116, 174.381 70.801 C 170.730 74.485, 166.063 79.975, 164.010 83 C 161.957 86.025, 159.133 90.761, 157.735 93.525 C 156.338 96.289, 154.260 101.689, 153.119 105.525 C 151.978 109.361, 150.594 116.233, 150.044 120.796 C 149.282 127.126, 149.416 132.815, 150.613 144.796 L 152.182 160.500 149.406 162.500 C 147.879 163.600, 145 165.937, 143.008 167.692 C 141.016 169.448, 138.104 173.417, 136.538 176.512 C 134.445 180.648, 133.567 184.064, 133.225 189.399 C 132.905 194.377, 133.271 198.421, 134.388 202.263 C 135.284 205.345, 137.496 209.806, 139.303 212.175 C 141.110 214.545, 144.819 218.180, 147.545 220.253 C 150.270 222.326, 154.750 224.676, 157.500 225.475 C 160.250 226.274, 163.718 227.173, 165.208 227.472 C 166.911 227.815, 169.008 229.590, 170.861 232.258 C 172.481 234.591, 176.325 239.190, 179.403 242.477 C 182.481 245.765, 185 248.803, 185 249.227 C 185 249.652, 184.213 250.010, 183.250 250.022 C 182.287 250.034, 177.100 251.587, 171.723 253.473 C 166.345 255.359, 157.120 259.453, 151.223 262.571 C 145.325 265.689, 137.125 270.533, 133 273.335 C 128.875 276.138, 122.087 281.844, 117.915 286.016 C 113.744 290.187, 108.070 296.953, 105.306 301.050 C 102.543 305.148, 99.146 310.750, 97.758 313.500 C 96.369 316.250, 94.035 322.300, 92.571 326.945 C 90.448 333.682, 89.699 338.801, 88.868 352.272 C 88.296 361.558, 87.979 374.107, 88.164 380.160 C 88.441 389.227, 88.808 391.389, 90.247 392.441 C 91.290 393.202, 96.735 393.963, 103.747 394.328 C 110.211 394.665, 173.775 394.924, 245 394.905 C 316.225 394.885, 376.478 394.561, 378.895 394.185 C 381.995 393.702, 383.788 392.763, 384.977 391 C 386.497 388.748, 386.598 385.921, 386.001 362.500 C 385.348 336.872, 385.293 336.364, 382.197 327 C 380.469 321.775, 376.614 313.225, 373.630 308 C 370.171 301.943, 365.178 295.262, 359.852 289.565 C 355.259 284.651, 347.900 277.975, 343.500 274.731 C 339.100 271.487, 329.385 265.796, 321.911 262.085 C 314.436 258.374, 304.311 254.074, 299.411 252.530 C 294.510 250.987, 290.325 249.573, 290.110 249.389 C 289.896 249.204, 292.414 246.174, 295.706 242.655 C 298.998 239.136, 303.147 234.230, 304.925 231.753 C 307.674 227.926, 308.802 227.162, 312.440 226.663 C 314.794 226.341, 319.212 225.144, 322.257 224.005 C 325.303 222.866, 329.823 220.147, 332.304 217.964 C 334.784 215.781, 337.960 212.038, 339.361 209.648 C 340.762 207.257, 342.681 202.521, 343.625 199.123 C 345.065 193.945, 345.162 191.974, 344.226 186.940 C 343.612 183.637, 341.685 178.445, 339.945 175.404 C 338.195 172.345, 334.654 168.225, 332.024 166.187 C 329.408 164.159, 326.555 162.050, 325.684 161.500 C 324.255 160.598, 324.238 159.378, 325.507 149 C 326.281 142.675, 326.933 133.769, 326.957 129.208 C 326.981 124.647, 326.287 117.447, 325.416 113.208 C 324.545 108.969, 322.470 102.219, 320.806 98.210 C 319.141 94.200, 315.646 87.675, 313.037 83.710 C 310.429 79.744, 305.396 73.739, 301.852 70.363 C 298.309 66.988, 291.924 61.951, 287.663 59.170 C 283.403 56.389, 276.373 52.747, 272.042 51.076 C 267.710 49.406, 260.245 47.355, 255.452 46.520 C 250.659 45.684, 242.184 45.041, 236.619 45.090 C 231.054 45.140, 223.350 45.759, 219.500 46.466 M 219.500 61.951 C 215.650 62.964, 209.800 64.989, 206.500 66.451 C 203.200 67.913, 197.243 71.603, 193.262 74.651 C 189.282 77.699, 184.308 82.287, 182.210 84.846 C 180.111 87.406, 176.996 91.750, 175.287 94.500 C 173.578 97.250, 171.458 101.257, 170.577 103.404 C 169.695 105.550, 169.173 107.506, 169.417 107.750 C 169.661 107.994, 172.704 107.059, 176.180 105.674 C 179.656 104.288, 186.100 102.255, 190.500 101.156 C 194.900 100.057, 203 98.342, 208.500 97.344 C 215.994 95.984, 223.261 95.545, 237.500 95.592 C 251.978 95.640, 259.685 96.172, 269.883 97.826 C 277.550 99.069, 288.400 101.713, 295.284 104.014 C 301.894 106.224, 307.463 107.870, 307.661 107.672 C 307.859 107.474, 306.456 104.204, 304.542 100.406 C 302.628 96.608, 299.026 90.925, 296.538 87.778 C 294.050 84.631, 288.974 79.538, 285.257 76.461 C 281.541 73.384, 275.295 69.317, 271.378 67.425 C 267.461 65.532, 260.752 63.087, 256.468 61.992 C 250.883 60.563, 245.543 60.016, 237.590 60.055 C 230.179 60.092, 224.178 60.721, 219.500 61.951 M 222.500 109.991 C 217 110.434, 208.900 111.542, 204.500 112.453 C 200.100 113.364, 192.675 115.255, 188 116.654 C 183.325 118.054, 176.463 120.376, 172.750 121.815 L 166 124.432 166 133.216 C 166 138.047, 166.411 142, 166.914 142 C 167.417 142, 171.923 140.438, 176.927 138.528 C 181.932 136.618, 190.183 133.937, 195.263 132.569 C 200.343 131.201, 209.900 129.338, 216.500 128.427 C 225.340 127.209, 232.319 126.923, 243 127.342 C 250.975 127.655, 261.521 128.598, 266.435 129.437 C 271.349 130.277, 279.305 132.096, 284.116 133.480 C 288.926 134.863, 296.370 137.347, 300.658 138.998 C 304.946 140.649, 309.027 142, 309.727 142 C 310.655 142, 311 139.760, 311 133.741 C 311 126.323, 310.777 125.342, 308.808 124.112 C 307.603 123.359, 302.765 121.436, 298.058 119.838 C 293.351 118.240, 285.225 115.868, 280 114.566 C 274.775 113.265, 266.900 111.724, 262.500 111.142 C 258.100 110.560, 249.550 109.881, 243.500 109.634 C 237.450 109.387, 228 109.547, 222.500 109.991 M 201.527 145.023 C 195.491 148.251, 186.382 152.542, 181.283 154.560 L 172.013 158.228 172.517 161.864 C 172.795 163.864, 173.709 171.125, 174.548 178 C 175.388 184.875, 176.991 195.417, 178.109 201.427 C 179.228 207.437, 180.963 214.513, 181.966 217.152 C 182.969 219.791, 185.889 224.893, 188.455 228.489 C 191.021 232.085, 195.784 237.244, 199.039 239.953 C 202.295 242.662, 207.795 246.465, 211.263 248.405 C 214.731 250.344, 220.451 252.669, 223.974 253.572 C 228.607 254.759, 233.163 255.092, 240.440 254.776 C 247.306 254.477, 252.370 253.658, 256.389 252.196 C 259.628 251.018, 265.122 248.201, 268.598 245.936 C 272.074 243.671, 278.037 238.535, 281.848 234.523 C 286.478 229.649, 289.954 224.783, 292.321 219.864 C 295.162 213.959, 296.696 208.182, 300.062 190.713 C 302.371 178.730, 304.047 168.713, 303.786 168.453 C 303.525 168.192, 301.464 168.631, 299.206 169.427 C 296.948 170.224, 291.402 171.417, 286.881 172.078 C 282.010 172.790, 274.963 173.023, 269.581 172.650 C 264.587 172.304, 258.094 171.370, 255.153 170.575 C 252.212 169.780, 246.587 167.590, 242.653 165.708 C 238.719 163.827, 233.202 160.535, 230.393 158.394 C 227.584 156.252, 223.451 152.369, 221.208 149.764 C 218.965 147.159, 216.329 143.672, 215.349 142.014 C 214.370 140.356, 213.328 139.035, 213.034 139.077 C 212.740 139.119, 207.562 141.795, 201.527 145.023 M 318.659 176.747 C 318.405 177.161, 317.019 184.025, 315.578 192 C 314.137 199.975, 312.700 207.766, 312.385 209.314 L 311.813 212.129 316.776 209.613 C 319.506 208.230, 322.884 205.738, 324.284 204.075 C 325.683 202.411, 327.369 199.411, 328.031 197.407 C 328.692 195.403, 329.011 191.794, 328.740 189.388 C 328.448 186.792, 327.164 183.593, 325.583 181.520 C 324.118 179.599, 322.064 177.570, 321.020 177.011 C 319.976 176.452, 318.914 176.333, 318.659 176.747 M 153.809 178.713 C 152.947 179.696, 151.512 181.940, 150.621 183.700 C 149.729 185.461, 149 188.962, 149 191.482 C 149 194.002, 149.612 197.512, 150.360 199.282 C 151.108 201.052, 153.011 203.779, 154.589 205.343 C 156.167 206.906, 158.747 208.852, 160.322 209.667 C 161.897 210.481, 163.339 210.994, 163.527 210.807 C 163.714 210.619, 162.994 204.755, 161.927 197.774 C 160.859 190.794, 159.632 183.379, 159.199 181.297 C 158.757 179.169, 157.748 177.383, 156.895 177.218 C 156.060 177.057, 154.671 177.730, 153.809 178.713 M 186.503 255.972 C 186.097 259.476, 186.307 265.619, 187.002 270.511 C 187.789 276.061, 189.324 281.319, 191.453 285.761 C 193.647 290.340, 196.778 294.574, 201.101 298.811 C 204.693 302.333, 210.151 306.397, 213.545 308.078 C 216.870 309.725, 222.045 311.726, 225.045 312.525 C 228.045 313.323, 233.668 313.982, 237.540 313.988 C 241.412 313.995, 247.225 313.311, 250.458 312.469 C 253.692 311.627, 259.074 309.489, 262.419 307.719 C 265.763 305.948, 271.286 301.684, 274.691 298.243 C 278.380 294.515, 282.109 289.464, 283.919 285.743 C 285.590 282.309, 287.641 276.818, 288.478 273.540 C 289.315 270.262, 289.994 264.637, 289.986 261.040 C 289.979 257.443, 289.713 253.532, 289.396 252.349 C 288.857 250.341, 288.235 250.618, 280.080 256.496 C 275.274 259.960, 269.353 263.683, 266.921 264.769 C 264.489 265.856, 260.213 267.488, 257.418 268.397 C 254.622 269.306, 248.556 270.480, 243.938 271.007 C 238.434 271.635, 233.364 271.617, 229.228 270.956 C 225.756 270.402, 219.409 268.668, 215.123 267.104 C 210.837 265.540, 204.219 262.168, 200.415 259.612 C 196.612 257.055, 192.084 253.825, 190.354 252.433 L 187.208 249.904 186.503 255.972 M 157.357 276.990 C 150.851 280.342, 142.274 285.577, 138.297 288.623 C 134.320 291.669, 128.625 296.798, 125.642 300.020 C 122.658 303.243, 118.058 309.344, 115.418 313.579 C 112.726 317.899, 109.536 324.839, 108.151 329.390 C 105.970 336.557, 105.632 339.855, 105.239 357.750 L 104.795 378 121.397 378 L 138 378 138 363.073 L 138 348.145 140.635 346.073 C 142.084 344.933, 144.284 344, 145.524 344 C 146.764 344, 148.841 344.859, 150.139 345.909 C 152.402 347.740, 152.513 348.444, 152.822 362.909 L 153.144 378 238.572 378 L 324 378 324 363.073 L 324 348.145 326.635 346.073 C 328.084 344.933, 330.284 344, 331.524 344 C 332.764 344, 334.715 344.788, 335.859 345.750 C 337.736 347.329, 338.007 348.993, 338.618 362.750 L 339.297 378 355.283 378 L 371.269 378 370.733 360.250 C 370.328 346.837, 369.692 340.601, 368.133 334.726 C 366.998 330.451, 363.933 322.815, 361.321 317.759 C 357.491 310.343, 354.728 306.701, 347.036 298.927 C 341.791 293.626, 334.762 287.458, 331.417 285.220 C 328.071 282.983, 321.058 278.868, 315.833 276.076 C 310.608 273.284, 305.584 271, 304.667 271 C 303.505 271, 303 271.854, 303 273.818 C 303 275.369, 302.281 279.081, 301.402 282.068 C 300.524 285.056, 298.022 290.943, 295.843 295.150 C 293.278 300.103, 289.492 305.228, 285.104 309.686 C 280.061 314.810, 276.017 317.752, 269.293 321.188 C 264.147 323.819, 256.929 326.547, 252.523 327.527 C 246.754 328.811, 242.081 329.120, 234.144 328.742 C 227.334 328.419, 221.159 327.483, 217 326.145 C 213.425 324.994, 207.614 322.354, 204.087 320.276 C 200.559 318.199, 195.235 314.284, 192.255 311.575 C 189.275 308.867, 185.035 303.997, 182.832 300.753 C 180.629 297.509, 177.528 292.075, 175.939 288.678 C 174.351 285.280, 172.701 280.062, 172.274 277.083 C 171.846 274.103, 170.976 271.492, 170.341 271.280 C 169.705 271.068, 163.862 273.638, 157.357 276.990" stroke="none" fill="#110528" fill-rule="evenodd"/><path d="M 221.500 79.587 C 219.850 79.821, 215.800 80.485, 212.500 81.063 C 209.200 81.641, 202.413 83.422, 197.418 85.021 C 192.422 86.620, 185.582 89.151, 182.216 90.645 C 176.547 93.161, 175.872 93.817, 173.048 99.553 C 171.372 102.959, 170 106.264, 170 106.898 C 170 107.706, 170.823 107.629, 172.750 106.639 C 174.262 105.863, 179.325 104.021, 184 102.546 C 188.675 101.071, 199.025 98.728, 207 97.339 C 218.292 95.373, 224.930 94.814, 237 94.812 C 247.567 94.810, 256.956 95.472, 266.500 96.891 C 274.200 98.037, 284.401 100.105, 289.168 101.487 C 293.936 102.870, 299.898 104.885, 302.418 105.965 C 305.133 107.128, 307 107.491, 307 106.854 C 307 106.263, 305.587 103.129, 303.861 99.890 C 302.134 96.650, 300.307 94, 299.802 94 C 299.296 94, 299.206 93.437, 299.601 92.750 C 299.997 92.063, 299.968 91.818, 299.537 92.207 C 299.105 92.596, 296.896 91.967, 294.626 90.809 C 292.357 89.651, 286.675 87.401, 282 85.808 C 277.325 84.216, 270.125 82.228, 266 81.392 C 261.686 80.517, 251.278 79.720, 241.500 79.516 C 232.150 79.321, 223.150 79.353, 221.500 79.587 M 342.219 91.559 C 340.703 92.621, 340 94.140, 340 96.357 C 340 98.141, 340.540 100.140, 341.200 100.800 C 341.860 101.460, 343.627 102, 345.127 102 C 346.849 102, 348.583 101.074, 349.831 99.488 C 350.947 98.069, 351.584 96.126, 351.295 95.021 C 351.014 93.945, 350.270 92.656, 349.642 92.155 C 349.014 91.654, 347.586 90.966, 346.469 90.625 C 345.310 90.271, 343.486 90.672, 342.219 91.559 M 125.333 93.615 C 123.798 95.957, 123.773 96.505, 125.090 98.852 C 125.900 100.294, 127.772 101.899, 129.251 102.419 C 131.370 103.164, 132.370 102.975, 133.970 101.527 C 135.086 100.517, 136 98.442, 136 96.916 C 136 95.391, 135.293 93.436, 134.429 92.571 C 133.564 91.707, 131.550 91, 129.952 91 C 127.922 91, 126.530 91.788, 125.333 93.615 M 212.870 111.539 C 208.123 112.278, 201.373 113.615, 197.870 114.510 C 194.366 115.404, 187.450 117.410, 182.500 118.968 C 177.550 120.525, 171.813 122.526, 169.750 123.413 L 166 125.027 166 133.513 C 166 138.181, 166.180 142, 166.400 142 C 166.619 142, 170.847 140.437, 175.794 138.526 C 180.741 136.616, 188.576 133.955, 193.205 132.614 C 197.833 131.272, 206.543 129.479, 212.560 128.630 C 218.577 127.780, 226.464 126.796, 230.088 126.443 C 233.711 126.090, 242.486 126.319, 249.588 126.951 C 256.689 127.583, 266.889 128.987, 272.252 130.070 C 277.616 131.153, 288.258 134.225, 295.902 136.896 L 309.799 141.754 310.400 138.752 C 310.730 137.101, 310.995 133.444, 310.989 130.625 L 310.978 125.500 304.612 122.782 C 301.110 121.286, 293.353 118.675, 287.373 116.979 C 281.393 115.282, 270.650 113.020, 263.500 111.952 C 254.829 110.656, 245.672 110.040, 236 110.101 C 228.025 110.152, 217.616 110.799, 212.870 111.539 M 365.224 121.217 C 364.516 123.094, 364.408 124.906, 364.947 125.870 C 365.474 126.812, 365.429 128.198, 364.835 129.309 C 364.287 130.332, 362.315 131.806, 360.452 132.585 C 358.589 133.363, 354.575 134, 351.532 134 C 346.426 134, 346 134.177, 346 136.300 C 346 137.565, 346.540 139.140, 347.200 139.800 C 347.874 140.474, 351.105 141, 354.571 141 L 360.742 141 361.448 147.240 C 361.836 150.672, 362.624 154.047, 363.199 154.740 C 363.774 155.433, 365.470 156, 366.967 156 C 368.465 156, 370.435 155.177, 371.345 154.171 C 372.426 152.976, 373 150.587, 373 147.278 C 373 143.583, 373.428 142.050, 374.582 141.607 C 375.452 141.273, 377.827 141, 379.859 141 C 381.892 141, 384.555 140.299, 385.777 139.443 C 387 138.587, 388 137.065, 388 136.060 C 388 135.011, 387.042 133.977, 385.750 133.630 C 384.512 133.299, 380.913 133.021, 377.750 133.014 C 373.240 133.003, 371.544 132.544, 369.884 130.884 C 368.246 129.246, 367.880 127.935, 368.263 125.078 C 368.540 123.009, 368.236 120.676, 367.571 119.766 C 366.532 118.345, 366.240 118.526, 365.224 121.217 M 108.501 128.997 C 108.119 130.201, 106.205 131.852, 104.240 132.673 C 102.063 133.583, 98.496 134.034, 95.086 133.832 C 90.122 133.537, 89.472 133.723, 89.244 135.500 C 89.104 136.600, 89.425 138.175, 89.957 138.999 C 90.581 139.964, 93.169 140.677, 97.213 140.999 L 103.500 141.500 104.082 147 C 104.402 150.025, 105.013 153.287, 105.439 154.250 C 105.901 155.294, 107.304 156, 108.916 156 C 110.402 156, 112.482 155.368, 113.539 154.595 C 114.919 153.586, 115.607 151.542, 115.980 147.345 L 116.500 141.500 122.701 141 C 126.111 140.725, 129.361 140.040, 129.922 139.479 C 130.483 138.917, 131.068 137.342, 131.221 135.979 C 131.494 133.556, 131.315 133.488, 123.279 132.965 C 116.009 132.492, 114.719 132.105, 112.126 129.621 C 109.211 126.828, 109.190 126.825, 108.501 128.997 M 296.079 170.871 L 290.659 172.546 287.886 188.966 C 285.591 202.557, 284.471 206.689, 281.390 212.943 C 278.828 218.144, 275.615 222.551, 271.084 227.079 C 266.817 231.343, 262.212 234.759, 258 236.786 C 254.425 238.507, 248.683 240.474, 245.241 241.159 C 240.286 242.145, 237.500 242.150, 231.870 241.184 C 227.959 240.514, 221.811 238.510, 218.210 236.732 C 214.608 234.955, 209.280 231.334, 206.371 228.687 C 203.461 226.039, 199.262 221.150, 197.040 217.822 C 194.624 214.204, 191.800 207.937, 190.020 202.241 C 188.382 197, 186.347 191.652, 185.498 190.356 C 184.324 188.565, 183.042 188, 180.148 188 L 176.343 188 177.620 196.023 C 178.322 200.436, 179.606 206.849, 180.474 210.273 C 181.341 213.698, 183.249 218.967, 184.713 221.983 C 186.378 225.413, 190.394 230.472, 195.438 235.496 C 199.872 239.912, 206.425 245.221, 210 247.294 C 213.575 249.366, 218.975 251.815, 222 252.735 C 225.631 253.840, 231.069 254.412, 238 254.419 C 246.319 254.428, 249.889 253.957, 255.190 252.153 C 258.870 250.901, 264.565 248.142, 267.845 246.021 C 271.126 243.901, 275.721 240.441, 278.056 238.333 C 280.391 236.225, 284.076 232.099, 286.245 229.165 C 288.414 226.231, 291.274 221.459, 292.601 218.560 C 293.941 215.634, 296.783 204.443, 298.992 193.395 C 301.179 182.453, 303.210 172.488, 303.504 171.250 C 303.849 169.795, 303.590 169.035, 302.769 169.098 C 302.071 169.152, 299.061 169.950, 296.079 170.871 M 89.011 172.993 C 88.036 173.595, 87.871 175.440, 88.363 180.236 C 88.920 185.680, 88.747 186.919, 87.236 188.287 C 86.006 189.399, 83.119 189.996, 77.975 190.202 C 71.271 190.469, 70.469 190.715, 70.202 192.588 C 70.038 193.736, 70.668 195.311, 71.603 196.088 C 72.538 196.864, 76.047 197.725, 79.401 198 L 85.500 198.500 85.806 204.465 C 85.975 207.746, 86.592 211.009, 87.179 211.715 C 87.765 212.422, 89.738 213, 91.563 213 C 93.389 213, 95.244 212.438, 95.687 211.750 C 96.130 211.063, 96.719 207.800, 96.996 204.500 L 97.500 198.500 103.233 197.989 C 107.133 197.642, 109.592 196.843, 110.925 195.489 C 112.641 193.747, 112.711 193.267, 111.489 191.623 C 110.338 190.075, 108.885 189.770, 103.214 189.886 C 97.422 190.005, 96.040 189.701, 94.464 187.960 C 92.984 186.325, 92.642 184.567, 92.826 179.565 C 92.996 174.960, 92.687 173.094, 91.689 172.711 C 90.935 172.422, 89.730 172.549, 89.011 172.993 M 382.701 174.036 C 381.220 175.766, 381.112 176.702, 382.010 180.039 C 382.761 182.825, 382.762 184.576, 382.015 185.973 C 381.431 187.063, 380.094 188.414, 379.043 188.977 C 377.992 189.540, 374.177 190, 370.566 190 C 366.955 190, 363.966 190.338, 363.923 190.750 C 363.881 191.162, 363.699 192.268, 363.518 193.206 C 363.338 194.145, 363.891 195.495, 364.748 196.206 C 365.606 196.918, 368.825 197.725, 371.903 198 L 377.499 198.500 378.229 204.373 C 378.630 207.603, 379.473 210.865, 380.102 211.623 C 380.731 212.380, 382.675 213, 384.422 213 C 386.170 213, 388.140 212.460, 388.800 211.800 C 389.475 211.125, 390 207.893, 390 204.416 L 390 198.233 396.621 197.811 C 401.627 197.493, 403.578 196.930, 404.621 195.504 C 405.379 194.466, 406 192.653, 406 191.474 C 406 189.426, 405.651 189.351, 398.121 189.787 C 390.960 190.201, 390.039 190.039, 387.997 187.997 C 386.093 186.093, 385.836 185.030, 386.312 181.012 C 386.668 178.004, 386.440 175.805, 385.687 174.990 C 384.756 173.984, 384.798 173.876, 385.880 174.492 C 386.802 175.018, 387.113 174.839, 386.817 173.952 C 386.574 173.222, 385.943 172.481, 385.416 172.305 C 384.888 172.129, 383.667 172.908, 382.701 174.036 M 148.998 192.101 C 148.999 192.981, 149.525 195.231, 150.166 197.101 C 150.808 198.970, 152.418 201.939, 153.745 203.698 C 155.072 205.456, 157.697 207.804, 159.579 208.914 L 163 210.933 162.913 208.716 C 162.864 207.497, 162.302 202.900, 161.663 198.500 L 160.500 190.500 154.748 190.500 C 150.140 190.500, 148.997 190.818, 148.998 192.101 M 316.516 191.975 C 316.184 192.511, 315.258 196.375, 314.457 200.563 C 313.656 204.750, 313 208.586, 313 209.088 C 313 209.590, 313.699 210, 314.553 210 C 315.407 210, 317.640 208.958, 319.514 207.684 C 321.389 206.410, 323.812 204.237, 324.899 202.855 C 325.987 201.473, 327.171 199.028, 327.531 197.421 C 327.891 195.814, 328.399 193.713, 328.660 192.750 C 329.074 191.225, 328.363 191, 323.126 191 C 319.822 191, 316.847 191.439, 316.516 191.975 M 91.592 237.107 C 89.430 238.807, 89.008 239.815, 89.405 242.332 C 89.675 244.048, 90.681 246.025, 91.639 246.726 C 92.598 247.427, 94.389 248, 95.619 248 C 96.849 248, 98.795 246.804, 99.945 245.343 C 101.279 243.647, 101.816 241.929, 101.431 240.593 C 101.098 239.442, 99.915 237.713, 98.802 236.750 C 97.689 235.787, 96.214 235, 95.524 235 C 94.834 235, 93.065 235.948, 91.592 237.107 M 378.035 236.315 C 376.749 236.967, 375.248 238.218, 374.701 239.095 C 374.153 239.973, 374.009 241.901, 374.381 243.381 C 374.783 244.983, 376.093 246.465, 377.620 247.046 C 379.426 247.732, 380.971 247.645, 382.842 246.753 C 384.612 245.909, 385.608 244.548, 385.822 242.682 C 385.999 241.140, 385.587 239.207, 384.905 238.385 C 384.222 237.563, 382.924 236.494, 382.019 236.010 C 380.998 235.464, 379.485 235.579, 378.035 236.315 M 187 268.290 C 187 269.549, 187.671 273.157, 188.492 276.307 C 189.312 279.456, 191.170 284.376, 192.621 287.239 C 194.072 290.101, 198.013 295.175, 201.379 298.513 C 205.046 302.150, 210.109 305.867, 214.008 307.787 C 217.587 309.550, 224.034 311.755, 228.334 312.688 C 235.043 314.144, 237.310 314.216, 244.300 313.198 C 249.630 312.421, 255.015 310.790, 259.877 308.482 C 265.303 305.904, 269.118 303.110, 274.021 298.117 C 278.239 293.824, 281.945 288.825, 283.988 284.676 C 285.777 281.042, 286.967 277.355, 286.632 276.483 C 286.297 275.610, 286.418 275.141, 286.902 275.439 C 287.385 275.738, 288.084 274.365, 288.455 272.389 C 288.826 270.413, 288.987 268.675, 288.814 268.527 C 288.642 268.379, 287.600 269.169, 286.500 270.283 C 285.400 271.396, 285.063 271.987, 285.750 271.595 C 286.438 271.203, 287 271.359, 287 271.941 C 287 272.523, 286.325 273, 285.500 273 C 284.675 273, 284 273.825, 284 274.833 C 284 275.842, 283.704 276.963, 283.342 277.325 C 282.980 277.687, 282.094 277.493, 281.373 276.894 C 280.398 276.086, 279.421 276.311, 277.565 277.770 C 276.191 278.851, 275.353 280.019, 275.701 280.367 C 276.049 280.715, 275.808 281, 275.167 281 C 274.525 281, 274.113 281.563, 274.250 282.250 C 274.397 282.987, 273.666 283.387, 272.467 283.224 C 271.348 283.072, 269.475 283.840, 268.304 284.931 C 266.513 286.600, 265.991 286.694, 265.020 285.525 C 264.049 284.354, 263.564 284.436, 261.956 286.044 C 260.905 287.095, 259.360 287.692, 258.523 287.370 C 257.585 287.011, 257 287.350, 257 288.254 C 257 289.281, 256.249 289.579, 254.500 289.245 C 253.125 288.982, 252 289.217, 252 289.767 C 252 290.317, 250.875 290.982, 249.500 291.245 C 248.051 291.522, 246.994 291.256, 246.985 290.611 C 246.976 290, 246.533 290.175, 246 291 C 245.438 291.870, 245.024 292.007, 245.015 291.327 C 245.005 290.507, 244.069 290.618, 241.909 291.695 C 239.667 292.814, 238.224 292.968, 236.659 292.255 C 235.471 291.714, 233.033 291.487, 231.241 291.751 C 229.448 292.014, 227.355 291.709, 226.588 291.073 C 225.578 290.235, 225.092 290.223, 224.823 291.030 C 224.595 291.715, 223.403 291.318, 221.726 289.999 C 220.227 288.820, 219 288.168, 219 288.550 C 219 288.932, 218.438 288.798, 217.750 288.251 C 217.063 287.704, 215.744 287.380, 214.819 287.530 C 213.731 287.707, 213.328 287.309, 213.676 286.401 C 213.972 285.631, 213.753 285, 213.190 285 C 212.627 285, 211.940 285.563, 211.662 286.250 C 211.385 286.938, 211.122 286.488, 211.079 285.250 C 211.036 284.013, 210.438 283.113, 209.750 283.250 C 208.970 283.406, 208.589 282.560, 208.738 281 L 208.976 278.500 207.835 280.750 C 207.208 281.988, 206.426 282.986, 206.097 282.968 C 205.769 282.951, 204.656 282.297, 203.625 281.516 C 202.506 280.669, 201.997 279.450, 202.363 278.496 C 202.719 277.568, 202.562 277.153, 201.989 277.507 C 201.445 277.843, 201 278.766, 201 279.559 C 201 280.352, 200.536 281, 199.969 281 C 199.401 281, 198.679 280.328, 198.364 279.506 C 198.048 278.684, 197.437 278.230, 197.005 278.497 C 196.573 278.764, 195.925 277.411, 195.564 275.491 C 195.204 273.571, 194.367 271.947, 193.705 271.882 C 193.042 271.816, 192.086 271.842, 191.581 271.938 C 191.075 272.034, 191.243 271.412, 191.953 270.556 C 193.053 269.231, 192.930 269, 191.122 269 C 189.902 269, 189 268.362, 189 267.500 C 189 266.675, 188.550 266, 188 266 C 187.450 266, 187 267.030, 187 268.290 M 102.073 269.635 C 100.933 271.084, 100 272.784, 100 273.412 C 100 274.041, 100.701 275.555, 101.557 276.777 C 102.649 278.338, 104.133 279, 106.534 279 C 109.050 279, 110.374 278.359, 111.542 276.576 C 112.974 274.391, 112.980 273.861, 111.602 271.197 C 110.762 269.572, 109.346 267.963, 108.455 267.621 C 107.565 267.280, 106.231 267, 105.491 267 C 104.751 267, 103.212 268.186, 102.073 269.635 M 365.634 269.074 C 363.476 270.770, 363.098 271.720, 363.552 274.298 C 363.858 276.031, 364.646 277.791, 365.304 278.209 C 365.962 278.627, 367.668 278.976, 369.095 278.985 C 370.522 278.993, 372.435 278.177, 373.345 277.171 C 374.255 276.165, 375 274.306, 375 273.039 C 375 271.771, 374.031 269.894, 372.847 268.867 C 371.663 267.840, 370.149 267, 369.482 267 C 368.815 267, 367.083 267.933, 365.634 269.074 M 161 293.367 C 154.125 296.268, 146.025 299.908, 143 301.457 C 139.975 303.006, 135.025 305.831, 132 307.735 C 128.975 309.639, 123.892 313.740, 120.704 316.848 C 117.516 319.957, 113.481 324.750, 111.737 327.500 C 109.993 330.250, 108.279 332.725, 107.928 333 C 107.577 333.275, 106.774 337.006, 106.145 341.291 C 105.515 345.576, 105 355.363, 105 363.041 L 105 377 121.500 377 L 138 377 138 362.057 C 138 347.748, 138.094 347.047, 140.223 345.557 C 141.445 344.701, 143.920 344, 145.723 344 C 147.667 344, 149.814 344.814, 151 346 C 152.816 347.816, 153 349.333, 153 362.500 L 153 377 238.500 377 L 324 377 324 362.057 C 324 347.748, 324.094 347.047, 326.223 345.557 C 327.445 344.701, 329.920 344, 331.723 344 C 333.667 344, 335.814 344.814, 337 346 C 338.816 347.816, 339 349.333, 339 362.500 L 339 377 354.500 377 L 370 377 370 361.684 C 370 353.260, 369.508 343.697, 368.908 340.434 C 368.307 337.170, 367.343 333.927, 366.765 333.226 C 366.188 332.525, 365.949 331.718, 366.234 331.433 C 366.519 331.147, 365.350 329.246, 363.636 327.207 C 361.922 325.168, 358.039 321.005, 355.008 317.956 C 351.978 314.907, 346.772 310.562, 343.441 308.300 C 340.110 306.037, 333.318 302.132, 328.348 299.622 C 323.378 297.111, 315.601 293.469, 311.067 291.529 C 306.533 289.588, 302.192 288, 301.422 288 C 300.651 288, 298.553 291.038, 296.760 294.750 C 294.473 299.485, 291.112 303.921, 285.500 309.610 C 278.895 316.306, 275.843 318.533, 268 322.382 C 261.941 325.356, 255.661 327.580, 250.662 328.522 C 246.351 329.335, 240.501 329.984, 237.662 329.965 C 234.823 329.946, 228.900 329.289, 224.501 328.505 C 219.348 327.587, 213.531 325.608, 208.151 322.942 C 202.312 320.049, 197.534 316.652, 192.268 311.652 C 188.126 307.718, 183.091 302.025, 181.079 299 C 179.067 295.975, 176.885 292.262, 176.232 290.750 C 175.578 289.238, 174.696 288.021, 174.271 288.047 C 173.847 288.072, 167.875 290.466, 161 293.367 M 235 289.771 C 235 290.329, 235.712 291.059, 236.582 291.393 C 237.452 291.727, 238.577 292, 239.082 292 C 239.587 292, 240 291.523, 240 290.941 C 240 290.359, 239.530 290.172, 238.956 290.527 C 238.382 290.882, 237.257 290.628, 236.456 289.964 C 235.597 289.251, 235 289.172, 235 289.771" stroke="none" fill="#f8c351" fill-rule="evenodd"/></svg>