<svg xmlns="http://www.w3.org/2000/svg" width="483" height="516" viewBox="0 0 483 516" version="1.1"><path d="M 141.622 82.251 C 138.540 83.869, 137.155 85.587, 134.872 90.621 C 132.167 96.588, 132 97.736, 132 110.362 L 132 123.767 136.003 127.384 C 138.204 129.373, 140.837 131, 141.853 131 C 143.468 131, 143.782 129.847, 144.350 121.846 C 144.708 116.812, 145 108.639, 145 103.684 C 145 95.984, 145.348 94.082, 147.396 90.588 C 148.713 88.339, 149.951 85.150, 150.146 83.500 C 150.453 80.901, 150.166 80.481, 148 80.358 C 146.625 80.280, 143.755 81.132, 141.622 82.251 M 105.231 94.948 C 102.961 96.592, 100.605 98.870, 99.994 100.011 C 99.384 101.151, 99.023 103.753, 99.192 105.792 C 99.418 108.513, 99.899 109.393, 101 109.097 C 101.825 108.876, 104.300 108.426, 106.500 108.097 L 110.500 107.500 110.799 100.599 C 110.964 96.804, 110.707 93.307, 110.228 92.828 C 109.735 92.335, 107.572 93.252, 105.231 94.948 M 105.163 120.468 C 102.777 121.676, 100.421 123.303, 99.928 124.082 C 99.413 124.896, 99.024 171.592, 99.015 233.750 C 99.007 295.192, 99.379 342, 99.878 342 C 100.360 342, 101.279 341.369, 101.919 340.598 C 102.558 339.827, 104.299 338.891, 105.785 338.518 C 107.272 338.145, 109.022 337.397, 109.674 336.856 C 110.573 336.109, 110.858 309.669, 110.858 226.936 C 110.857 167.021, 110.552 118.061, 110.179 118.136 C 109.805 118.210, 107.548 119.260, 105.163 120.468 M 263.232 136.038 C 261.985 136.539, 257.485 137.597, 253.232 138.390 C 248.980 139.183, 243.603 140.537, 241.284 141.399 C 238.964 142.262, 234.014 144.584, 230.284 146.560 C 226.553 148.536, 221.768 151.188, 219.651 152.454 C 217.533 153.720, 212.871 157.623, 209.290 161.128 C 205.709 164.632, 200.897 170.425, 198.596 174 C 196.295 177.575, 193.016 183.425, 191.310 187 C 189.604 190.575, 187.517 195.750, 186.674 198.500 C 185.830 201.250, 184.615 206.425, 183.972 210 C 183.330 213.575, 182.589 220.550, 182.325 225.500 C 182.061 230.450, 182.294 236.075, 182.842 238 C 183.391 239.925, 184.576 244.425, 185.477 248 C 186.377 251.575, 189.001 258.325, 191.307 263 C 194.327 269.122, 197.565 273.668, 202.883 279.250 C 206.943 283.512, 210.850 287, 211.565 287 C 212.280 287, 213.153 286.093, 213.505 284.985 C 213.856 283.877, 214.529 283.209, 215 283.500 C 215.470 283.791, 217.008 283.010, 218.417 281.764 L 220.978 279.500 214.420 272 C 210.812 267.875, 206.579 262.250, 205.012 259.500 C 203.444 256.750, 201.163 252.025, 199.942 249 C 198.076 244.377, 197.648 240.993, 197.257 227.773 C 196.838 213.628, 197.013 211.317, 198.990 204.808 C 200.199 200.827, 202.471 195.080, 204.039 192.035 C 205.607 188.991, 208.152 184.644, 209.695 182.375 C 211.238 180.106, 214.444 176.144, 216.820 173.571 C 219.196 170.998, 223.724 167.004, 226.883 164.696 C 230.041 162.388, 236.197 158.741, 240.563 156.590 C 244.928 154.440, 249.400 152.339, 250.500 151.920 C 251.600 151.502, 254.718 150.448, 257.428 149.580 C 260.139 148.711, 264.076 148, 266.178 148 C 268.280 148, 270 148.473, 270 149.051 C 270 149.629, 271.575 148.900, 273.500 147.432 C 275.425 145.964, 276.998 144.029, 276.995 143.131 C 276.993 142.234, 275.620 140.037, 273.945 138.250 C 271.906 136.075, 270.006 135.021, 268.199 135.063 C 266.715 135.098, 264.480 135.537, 263.232 136.038 M 325.805 149.750 C 325.501 154.478, 325.481 154.502, 321.500 155 C 319.300 155.275, 316.488 156.171, 315.250 156.991 C 313.874 157.902, 313 159.493, 313 161.086 C 313 162.518, 313.823 164.435, 314.829 165.345 C 315.912 166.326, 318.349 167, 320.810 167 C 324.434 167, 325.028 167.318, 325.481 169.500 C 325.766 170.875, 326.234 173.125, 326.519 174.500 C 326.951 176.579, 327.615 177, 330.464 177 C 333.842 177, 333.895 176.933, 334.195 172.250 L 334.500 167.500 340.172 166.994 C 343.292 166.716, 346.148 166.185, 346.519 165.814 C 346.890 165.443, 347.239 163.535, 347.295 161.575 C 347.364 159.129, 346.785 157.548, 345.448 156.537 C 344.377 155.727, 341.640 155.049, 339.367 155.032 C 335.939 155.005, 335.130 154.616, 334.630 152.750 C 334.299 151.512, 334.021 149.262, 334.014 147.750 C 334.001 145.217, 333.689 145, 330.055 145 L 326.110 145 325.805 149.750 M 296.192 188.438 C 294.434 190.371, 293 193.042, 293 194.385 C 293 196.479, 292.398 196.923, 288.750 197.521 C 286.413 197.904, 283.712 198.913, 282.750 199.764 C 281.788 200.614, 281 202.130, 281 203.132 C 281 204.134, 282.126 205.692, 283.502 206.593 C 284.986 207.565, 287.096 208.024, 288.688 207.719 C 290.165 207.437, 291.964 207.433, 292.687 207.710 C 293.444 208.001, 294 209.782, 294 211.918 C 294 214.287, 294.749 216.427, 296.079 217.854 C 297.556 219.439, 298.785 219.893, 300.329 219.420 C 301.523 219.054, 303.039 218.324, 303.698 217.798 C 304.358 217.271, 305.033 214.739, 305.198 212.170 C 305.465 208.037, 305.788 207.464, 308 207.183 C 309.375 207.009, 312.188 206.430, 314.250 205.895 C 316.878 205.214, 318 204.371, 318 203.076 C 318 202.061, 316.938 200.534, 315.640 199.684 C 314.342 198.833, 311.535 197.994, 309.402 197.819 C 305.755 197.519, 305.486 197.271, 304.905 193.667 C 304.566 191.558, 303.185 188.730, 301.836 187.382 L 299.385 184.930 296.192 188.438 M 134.073 328.635 C 132.138 331.094, 132 332.558, 132 350.585 C 132 367.680, 132.194 370.009, 133.690 370.846 C 135.020 371.591, 136.300 370.846, 139.690 367.358 L 144 362.923 144 344.462 L 144 326 140.073 326 C 137.021 326, 135.683 326.587, 134.073 328.635 M 365 330.432 C 360.875 332.850, 355.847 336.554, 353.826 338.664 C 351.805 340.774, 348.506 345.798, 346.495 349.829 C 344.251 354.328, 342.623 359.252, 342.280 362.579 C 341.972 365.561, 342.040 368, 342.432 368 C 342.823 368, 343.763 367.380, 344.521 366.621 C 345.280 365.863, 348.397 364.931, 351.450 364.550 C 354.502 364.168, 357.051 363.551, 357.114 363.178 C 357.177 362.805, 357.372 361.297, 357.548 359.828 C 357.724 358.358, 358.535 355.883, 359.349 354.328 C 360.163 352.772, 362.491 349.572, 364.522 347.216 C 366.553 344.859, 369.925 342.058, 372.016 340.992 C 374.106 339.926, 377.658 338.759, 379.908 338.399 C 382.159 338.039, 384 337.190, 384 336.512 C 384 335.834, 384.286 333.191, 384.636 330.640 L 385.272 326 378.886 326.018 C 373.160 326.034, 371.725 326.491, 365 330.432 M 104.496 352.904 L 99.500 354.629 99.221 368.986 C 99.068 376.882, 99.299 383.699, 99.734 384.134 C 100.170 384.570, 102.856 383.732, 105.704 382.274 L 110.882 379.621 110.922 366.561 C 110.944 359.377, 110.631 352.978, 110.227 352.339 C 109.684 351.481, 108.190 351.628, 104.496 352.904 M 140.500 418.390 C 138.850 419.125, 136.730 420.592, 135.788 421.650 C 134.847 422.708, 133.384 425.230, 132.538 427.254 C 131.658 429.362, 131 433.890, 131 437.846 C 131 441.678, 131.658 446.330, 132.477 448.290 C 133.289 450.235, 136.601 454.564, 139.837 457.913 C 143.073 461.261, 146.345 464.045, 147.110 464.100 C 147.874 464.155, 147.375 464.566, 146 465.014 C 144.625 465.463, 197.972 465.838, 264.549 465.848 C 331.126 465.858, 386.026 465.552, 386.549 465.167 C 387.072 464.783, 388.761 463.076, 390.303 461.374 L 393.106 458.280 390.738 455.390 C 389.435 453.800, 387.386 450.574, 386.184 448.219 C 384.477 444.874, 384 442.190, 384 435.937 C 384 431.087, 384.591 426.522, 385.500 424.346 C 386.325 422.371, 387 420.023, 387 419.128 C 386.999 417.634, 376.964 417.482, 265.250 417.277 C 165.454 417.094, 142.959 417.295, 140.500 418.390 M 151.578 431.180 C 149.610 433.479, 148 436.094, 148 436.992 C 148 437.890, 148.859 440.402, 149.908 442.574 C 150.958 444.747, 152.805 447.419, 154.013 448.512 C 156.164 450.459, 157.980 450.506, 241.502 450.766 L 326.795 451.033 331.386 446.266 C 334.429 443.107, 335.980 440.621, 335.988 438.894 C 335.995 437.434, 334.440 434.244, 332.454 431.644 L 328.908 427 242.032 427 L 155.156 427 151.578 431.180 M 134.250 465.689 C 135.213 465.941, 136.787 465.941, 137.750 465.689 C 138.713 465.438, 137.925 465.232, 136 465.232 C 134.075 465.232, 133.287 465.438, 134.250 465.689" stroke="none" fill="#ffe6c8" fill-rule="evenodd"/><path d="M 352.287 79.740 C 355.469 79.939, 360.419 79.937, 363.287 79.736 C 366.154 79.535, 363.550 79.372, 357.500 79.374 C 351.450 79.376, 349.104 79.541, 352.287 79.740 M 185.020 81.524 C 185.716 82.362, 186.491 82.842, 186.743 82.591 C 186.994 82.339, 186.904 81.653, 186.541 81.067 C 186.179 80.480, 185.403 80, 184.819 80 C 184.155 80, 184.231 80.574, 185.020 81.524 M 372 80.387 C 372 80.599, 373.326 80.968, 374.947 81.206 C 376.568 81.443, 377.667 81.270, 377.388 80.819 C 377.110 80.369, 375.784 80, 374.441 80 C 373.098 80, 372 80.174, 372 80.387 M 386.414 85.313 C 387.401 86.036, 389.102 87.723, 390.192 89.063 C 391.282 90.403, 391.843 90.825, 391.438 90 C 391.033 89.175, 389.791 87.487, 388.677 86.250 C 387.563 85.013, 386.194 84, 385.635 84 C 385.075 84, 385.426 84.591, 386.414 85.313 M 188.115 86 C 188.161 86.825, 188.560 88.625, 189 90 L 189.801 92.500 189.885 90 C 189.931 88.625, 189.533 86.825, 189 86 C 188.138 84.667, 188.040 84.667, 188.115 86 M 393.030 96.191 C 393.014 97.121, 393.457 98.165, 394.016 98.510 C 394.575 98.856, 394.830 99.466, 394.582 99.867 C 394.335 100.268, 394.562 101.249, 395.088 102.048 C 395.782 103.103, 395.921 102.760, 395.596 100.794 C 395.350 99.305, 394.679 97.280, 394.105 96.294 C 393.163 94.676, 393.058 94.666, 393.030 96.191 M 396.185 115.936 C 396.048 119.967, 395.438 121.969, 393.826 123.686 C 392.630 124.958, 392.169 126, 392.803 126 C 393.436 126, 394.664 124.916, 395.532 123.591 C 396.626 121.922, 396.997 119.541, 396.740 115.841 L 396.370 110.500 396.185 115.936 M 161.500 125.536 C 159.850 126.292, 159.201 126.930, 160.059 126.955 C 160.916 126.980, 162.491 126.339, 163.559 125.532 C 164.626 124.724, 165.275 124.086, 165 124.113 C 164.725 124.140, 163.150 124.781, 161.500 125.536 M 388 129 C 385.219 130.522, 384.930 130.925, 386.595 130.958 C 387.747 130.981, 389.505 130.100, 390.500 129 C 391.495 127.900, 392.128 127.019, 391.905 127.042 C 391.682 127.065, 389.925 127.946, 388 129 M 151.185 128.864 C 150.462 129.323, 148.775 129.488, 147.435 129.232 C 146.031 128.964, 145 129.240, 145 129.883 C 145 130.498, 146.012 130.980, 147.250 130.955 C 148.488 130.930, 150.850 130.292, 152.500 129.536 C 154.150 128.781, 154.825 128.133, 154 128.097 C 153.175 128.060, 151.908 128.406, 151.185 128.864 M 235.365 204.500 C 235.368 210, 235.536 212.122, 235.738 209.216 C 235.941 206.311, 235.939 201.811, 235.734 199.216 C 235.528 196.622, 235.363 199, 235.365 204.500 M 337.500 238 C 337.160 238.550, 337.246 238.968, 337.691 238.930 C 338.136 238.891, 339.400 238.473, 340.500 238 C 342.428 237.171, 342.421 237.138, 340.309 237.070 C 339.104 237.032, 337.840 237.450, 337.500 238 M 346.710 244 C 346.423 245.100, 346.595 246, 347.094 246 C 347.592 246, 348 245.100, 348 244 C 348 242.900, 347.827 242, 347.617 242 C 347.406 242, 346.998 242.900, 346.710 244 M 323.861 251.059 L 321.500 253.119 324.500 251.362 C 326.150 250.396, 327.688 249.469, 327.917 249.303 C 328.146 249.136, 327.858 249, 327.277 249 C 326.697 249, 325.159 249.927, 323.861 251.059 M 318 255 C 316.707 255.835, 316.734 255.971, 318.191 255.985 C 319.121 255.993, 320.160 255.550, 320.500 255 C 320.840 254.450, 320.754 254.007, 320.309 254.015 C 319.864 254.024, 318.825 254.467, 318 255 M 273.996 257.742 C 275.919 257.974, 278.169 258.689, 278.996 259.332 C 280.306 260.349, 280.323 260.274, 279.128 258.750 C 278.216 257.587, 276.538 257.054, 274.128 257.160 L 270.500 257.320 273.996 257.742 M 310.269 257.693 C 311.242 257.947, 312.592 257.930, 313.269 257.656 C 313.946 257.382, 313.150 257.175, 311.500 257.195 C 309.850 257.215, 309.296 257.439, 310.269 257.693 M 289.750 260.706 C 290.988 260.944, 293.012 260.944, 294.250 260.706 C 295.488 260.467, 294.475 260.272, 292 260.272 C 289.525 260.272, 288.512 260.467, 289.750 260.706 M 330.437 277.250 L 327.500 280.500 330.750 277.563 C 332.538 275.948, 334 274.485, 334 274.313 C 334 274.141, 333.859 274, 333.687 274 C 333.515 274, 332.052 275.462, 330.437 277.250 M 247.865 306.539 C 249.715 307.343, 251.740 307.982, 252.365 307.961 C 252.989 307.939, 251.986 307.264, 250.135 306.461 C 248.285 305.657, 246.260 305.018, 245.635 305.039 C 245.011 305.061, 246.014 305.736, 247.865 306.539 M 281.500 307 L 279.500 307.859 281.500 307.914 C 282.600 307.945, 284.175 307.533, 285 307 C 286.333 306.138, 286.333 306.037, 285 306.086 C 284.175 306.116, 282.600 306.527, 281.500 307 M 396.385 344 C 396.385 350.875, 396.545 353.688, 396.740 350.250 C 396.936 346.813, 396.936 341.188, 396.740 337.750 C 396.545 334.313, 396.385 337.125, 396.385 344 M 186.670 374.125 C 185.664 374.710, 182.739 375.581, 180.170 376.061 L 175.500 376.933 180.940 376.491 C 183.942 376.247, 187.062 375.366, 187.904 374.525 C 188.742 373.686, 189.220 373.014, 188.964 373.030 C 188.709 373.047, 187.677 373.540, 186.670 374.125 M 344.405 374.863 C 346.213 376.892, 347.197 377, 363.822 377 C 373.453 377, 381.129 376.796, 380.879 376.546 C 380.629 376.296, 373.248 376.027, 364.475 375.949 C 352.307 375.840, 347.811 375.441, 345.513 374.266 L 342.500 372.726 344.405 374.863 M 138.642 376.229 C 138.904 376.653, 143.216 377, 148.226 377 C 153.235 377, 157.146 376.813, 156.917 376.584 C 156.688 376.356, 152.375 376.009, 147.333 375.813 C 142.290 375.618, 138.379 375.805, 138.642 376.229 M 117.858 409.937 C 116.070 410.896, 114.436 412.315, 114.227 413.090 C 113.932 414.187, 114.083 414.167, 114.909 413 C 115.804 411.734, 115.972 411.725, 115.985 412.939 C 115.995 413.945, 116.618 413.714, 118.060 412.166 C 119.192 410.950, 120.533 410.211, 121.039 410.524 C 121.581 410.859, 121.510 411.813, 120.866 412.843 C 120.264 413.806, 118.455 415.350, 116.845 416.274 C 115.234 417.199, 113.218 419.652, 112.363 421.727 C 111.509 423.802, 110.201 426.850, 109.458 428.500 C 108.715 430.150, 108.246 433.525, 108.416 436 C 108.586 438.475, 109.048 442.300, 109.442 444.500 C 109.837 446.700, 110.686 449.597, 111.330 450.938 C 111.973 452.279, 113.533 454.417, 114.795 455.688 C 116.058 456.960, 117.830 458, 118.733 458 C 120.040 458, 119.859 457.440, 117.846 455.250 C 116.456 453.738, 114.299 450.795, 113.054 448.711 C 111.542 446.183, 110.680 442.915, 110.462 438.887 C 110.227 434.561, 110.682 431.575, 112.066 428.345 C 113.129 425.867, 115.539 421.963, 117.422 419.670 C 119.306 417.376, 122.119 414.775, 123.674 413.889 C 125.244 412.993, 128.500 412.327, 131 412.389 C 135.003 412.488, 135.475 412.742, 135.273 414.688 C 135.088 416.470, 135.459 416.788, 137.273 416.399 C 138.498 416.136, 188.325 415.937, 248 415.956 C 307.675 415.976, 362.800 416.094, 370.500 416.220 C 378.200 416.345, 385.568 416.198, 386.874 415.893 C 388.180 415.588, 389.825 414.261, 390.531 412.943 C 391.770 410.626, 391.659 410.506, 387.156 409.318 C 383.605 408.380, 354.858 408.079, 266 408.050 C 201.925 408.029, 145.801 408.300, 141.281 408.652 C 136.761 409.004, 133.301 409.678, 133.593 410.150 C 133.885 410.622, 132.564 410.894, 130.659 410.754 C 128.754 410.614, 127.403 410.163, 127.656 409.750 C 127.910 409.337, 127.304 408.966, 126.309 408.923 C 125.314 408.881, 123.737 408.700, 122.804 408.520 C 121.872 408.340, 119.646 408.978, 117.858 409.937 M 109.924 415.720 C 108.591 417.216, 108.216 417.894, 109.092 417.228 C 109.968 416.562, 110.980 416.238, 111.342 416.509 C 111.704 416.779, 111.779 416.704, 111.509 416.342 C 111.238 415.980, 111.519 415.080, 112.131 414.342 C 112.744 413.604, 113.043 413, 112.797 413 C 112.550 413, 111.258 414.224, 109.924 415.720 M 273.750 413.706 C 274.988 413.944, 277.012 413.944, 278.250 413.706 C 279.488 413.467, 278.475 413.272, 276 413.272 C 273.525 413.272, 272.512 413.467, 273.750 413.706 M 284.269 413.693 C 285.242 413.947, 286.592 413.930, 287.269 413.656 C 287.946 413.382, 287.150 413.175, 285.500 413.195 C 283.850 413.215, 283.296 413.439, 284.269 413.693 M 106.232 421 C 105.545 422.100, 105.337 423, 105.769 423 C 106.202 423, 107.326 422.100, 108.268 421 C 109.426 419.647, 109.576 419, 108.731 419 C 108.043 419, 106.919 419.900, 106.232 421 M 102 433.441 C 102 435.398, 102.174 437, 102.387 437 C 102.599 437, 102.974 435.630, 103.220 433.956 C 103.465 432.282, 103.292 430.680, 102.833 430.397 C 102.375 430.114, 102 431.484, 102 433.441 M 118.614 461.437 C 118.917 462.227, 119.803 462.629, 120.583 462.330 C 121.362 462.031, 122 462.311, 122 462.952 C 122 463.593, 122.472 463.826, 123.049 463.470 C 123.765 463.027, 123.727 462.376, 122.926 461.411 C 122.282 460.635, 120.924 460, 119.909 460 C 118.715 460, 118.258 460.507, 118.614 461.437" stroke="none" fill="#f8a37c" fill-rule="evenodd"/><path d="M 202.250 49.750 C 234.563 49.896, 287.438 49.896, 319.750 49.750 C 352.063 49.603, 325.625 49.484, 261 49.484 C 196.375 49.484, 169.938 49.603, 202.250 49.750 M 409 64.313 C 409 64.485, 410.462 65.948, 412.250 67.563 L 415.500 70.500 412.563 67.250 C 410.948 65.463, 409.485 64, 409.313 64 C 409.141 64, 409 64.141, 409 64.313 M 242.264 78.718 C 243.784 78.947, 246.034 78.941, 247.264 78.704 C 248.494 78.467, 247.250 78.279, 244.500 78.286 C 241.750 78.294, 240.744 78.488, 242.264 78.718 M 353.250 78.739 C 356.413 78.937, 361.587 78.937, 364.750 78.739 C 367.913 78.541, 365.325 78.378, 359 78.378 C 352.675 78.378, 350.087 78.541, 353.250 78.739 M 183.500 79.719 C 184.600 79.987, 186.400 80.948, 187.500 81.853 C 189.484 83.486, 189.484 83.482, 187.595 81.250 C 186.547 80.013, 184.747 79.052, 183.595 79.116 C 181.580 79.228, 181.576 79.251, 183.500 79.719 M 212.757 81.250 C 211.462 82.487, 211.258 82.825, 212.305 82 C 213.351 81.175, 216.973 80.231, 220.354 79.902 L 226.500 79.305 220.806 79.152 C 216.138 79.027, 214.687 79.406, 212.757 81.250 M 282.195 79.746 C 288.077 79.922, 297.977 79.923, 304.195 79.747 C 310.413 79.571, 305.600 79.427, 293.500 79.426 C 281.400 79.425, 276.313 79.569, 282.195 79.746 M 316.006 80.682 C 316.010 81.132, 317.360 82.267, 319.006 83.203 C 320.653 84.140, 322 84.734, 322 84.522 C 322 84.310, 320.650 83.175, 319 82 C 317.350 80.825, 316.003 80.232, 316.006 80.682 M 209.692 89 C 209.918 90.925, 210.917 93.625, 211.910 95 L 213.715 97.500 265.695 97.759 C 314.922 98.004, 317.761 97.921, 319.325 96.193 C 320.233 95.190, 321.241 93.048, 321.564 91.434 L 322.151 88.500 266.155 88.824 C 212.644 89.133, 210.139 89.066, 209.719 87.324 C 209.477 86.321, 209.465 87.075, 209.692 89 M 427.343 100.500 C 427.346 104.900, 427.522 106.576, 427.733 104.224 C 427.945 101.872, 427.942 98.272, 427.727 96.224 C 427.512 94.176, 427.339 96.100, 427.343 100.500 M 131.252 99.500 C 131.263 101.700, 131.468 102.482, 131.707 101.238 C 131.946 99.994, 131.937 98.194, 131.687 97.238 C 131.437 96.282, 131.241 97.300, 131.252 99.500 M 98.370 111 C 98.370 116.775, 98.535 119.138, 98.737 116.250 C 98.939 113.362, 98.939 108.638, 98.737 105.750 C 98.535 102.862, 98.370 105.225, 98.370 111 M 111.328 112.500 C 111.333 116.350, 111.513 117.802, 111.730 115.728 C 111.946 113.653, 111.943 110.503, 111.722 108.728 C 111.501 106.952, 111.324 108.650, 111.328 112.500 M 397.343 113.500 C 397.346 117.900, 397.522 119.576, 397.733 117.224 C 397.945 114.872, 397.942 111.272, 397.727 109.224 C 397.512 107.176, 397.339 109.100, 397.343 113.500 M 69.488 270 C 69.488 357.725, 69.606 393.612, 69.750 349.750 C 69.894 305.887, 69.894 234.112, 69.750 190.250 C 69.606 146.387, 69.488 182.275, 69.488 270 M 354.500 117 C 357.766 120.300, 360.662 123, 360.937 123 C 361.212 123, 358.766 120.300, 355.500 117 C 352.234 113.700, 349.338 111, 349.063 111 C 348.788 111, 351.234 113.700, 354.500 117 M 111.385 134 C 111.385 140.875, 111.545 143.688, 111.740 140.250 C 111.936 136.813, 111.936 131.188, 111.740 127.750 C 111.545 124.313, 111.385 127.125, 111.385 134 M 98.451 159 C 98.451 178.525, 98.585 186.513, 98.748 176.750 C 98.912 166.988, 98.912 151.013, 98.748 141.250 C 98.585 131.488, 98.451 139.475, 98.451 159 M 391.048 128.449 C 389.518 130.078, 387.368 131.023, 384.624 131.274 L 380.500 131.651 384.563 131.825 C 387.897 131.969, 389.142 131.462, 391.500 129 C 393.081 127.350, 394.143 126, 393.861 126 C 393.579 126, 392.313 127.102, 391.048 128.449 M 145.250 131.689 C 146.213 131.941, 147.787 131.941, 148.750 131.689 C 149.713 131.438, 148.925 131.232, 147 131.232 C 145.075 131.232, 144.287 131.438, 145.250 131.689 M 427.483 249.500 C 427.483 312.200, 427.603 337.997, 427.750 306.827 C 427.896 275.657, 427.896 224.357, 427.750 192.827 C 427.603 161.297, 427.483 186.800, 427.483 249.500 M 139.467 148.401 C 137.655 149.726, 137.700 149.780, 140.215 149.299 C 142.356 148.890, 142.876 149.159, 142.813 150.644 C 142.770 151.665, 143.007 177.700, 143.341 208.500 C 143.675 239.300, 143.603 273.116, 143.182 283.647 C 142.642 297.150, 142.024 303.266, 141.086 304.397 C 139.907 305.817, 140.164 306, 143.339 306 C 145.688 306, 147.594 305.279, 148.874 303.905 C 150.142 302.544, 151.005 299.830, 151.338 296.155 C 151.620 293.045, 151.871 260.800, 151.895 224.500 C 151.922 184.210, 151.557 157.137, 150.957 155 C 150.417 153.075, 148.968 150.778, 147.738 149.895 C 146.507 149.012, 144.576 147.997, 143.448 147.640 C 142.276 147.269, 140.568 147.596, 139.467 148.401 M 380.669 149.045 C 379.239 150.171, 377.613 152.741, 377.056 154.759 C 376.453 156.943, 375.768 185.728, 375.362 225.963 C 374.837 277.876, 374.961 294.353, 375.897 297.188 C 376.566 299.216, 378.021 302.028, 379.130 303.438 C 380.238 304.847, 381.900 305.971, 382.823 305.937 C 383.997 305.892, 383.810 305.596, 382.200 304.950 C 380.882 304.422, 379.129 302.206, 378.097 299.764 C 376.479 295.938, 376.320 292.575, 376.548 267 C 376.688 251.325, 377.114 219.379, 377.496 196.008 C 377.877 172.637, 378.607 152.735, 379.117 151.781 C 379.628 150.827, 380.977 149.547, 382.116 148.938 C 383.255 148.329, 385.157 148.073, 386.343 148.371 L 388.500 148.912 388.232 226.658 C 388.024 286.881, 387.686 304.592, 386.732 305.234 C 385.993 305.732, 386.891 305.951, 388.975 305.782 C 391.860 305.548, 392.835 304.820, 394.709 301.500 L 396.967 297.500 396.984 227.562 L 397 157.624 394.840 154.472 C 393.652 152.738, 391.262 150.348, 389.528 149.160 C 387.795 147.972, 385.677 147, 384.823 147 C 383.969 147, 382.100 147.920, 380.669 149.045 M 266.872 151.750 C 265.680 153.271, 265.697 153.354, 267 152.384 C 267.825 151.771, 269.175 151.019, 270 150.713 C 271.255 150.249, 271.234 150.145, 269.872 150.079 C 268.977 150.036, 267.627 150.787, 266.872 151.750 M 132.785 155.250 C 131.773 157.021, 131.486 172.500, 131.435 228 L 131.371 298.500 131.971 228.500 C 132.406 177.787, 132.899 157.742, 133.761 155.750 C 134.415 154.238, 134.752 153, 134.510 153 C 134.268 153, 133.492 154.012, 132.785 155.250 M 251.437 163.250 L 248.500 166.500 251.750 163.563 C 253.537 161.948, 255 160.485, 255 160.313 C 255 160.141, 254.859 160, 254.687 160 C 254.515 160, 253.052 161.463, 251.437 163.250 M 328.762 177.707 C 330.006 177.946, 331.806 177.937, 332.762 177.687 C 333.718 177.437, 332.700 177.241, 330.500 177.252 C 328.300 177.263, 327.518 177.468, 328.762 177.707 M 236.378 203 C 236.378 209.325, 236.541 211.912, 236.739 208.750 C 236.937 205.588, 236.937 200.412, 236.739 197.250 C 236.541 194.088, 236.378 196.675, 236.378 203 M 287.250 196.689 C 288.212 196.941, 289.788 196.941, 290.750 196.689 C 291.712 196.438, 290.925 196.232, 289 196.232 C 287.075 196.232, 286.288 196.438, 287.250 196.689 M 292.232 212 C 292.232 213.925, 292.438 214.713, 292.689 213.750 C 292.941 212.787, 292.941 211.213, 292.689 210.250 C 292.438 209.287, 292.232 210.075, 292.232 212 M 334.080 241.250 L 329.847 246.500 334.173 241.853 C 336.553 239.297, 339.400 236.987, 340.500 236.719 C 342.425 236.250, 342.421 236.228, 340.407 236.116 C 339.008 236.039, 336.907 237.744, 334.080 241.250 M 252.958 245.250 C 255.410 247.863, 257.548 250, 257.708 250 C 257.869 250, 258 249.869, 258 249.708 C 258 249.548, 255.863 247.410, 253.250 244.958 L 248.500 240.500 252.958 245.250 M 325.500 248.588 L 322.500 251.165 325.750 249.015 C 327.538 247.832, 329 246.669, 329 246.432 C 329 246.194, 328.887 246.002, 328.750 246.005 C 328.613 246.008, 327.150 247.170, 325.500 248.588 M 261 251.337 C 261 251.593, 262.632 252.765, 264.626 253.942 C 266.620 255.119, 268.415 255.918, 268.615 255.718 C 268.814 255.519, 267.183 254.347, 264.989 253.114 C 262.795 251.881, 261 251.081, 261 251.337 M 288.287 259.740 C 291.469 259.939, 296.419 259.937, 299.287 259.736 C 302.154 259.535, 299.550 259.372, 293.500 259.374 C 287.450 259.376, 285.104 259.541, 288.287 259.740 M 98.445 298.500 C 98.444 315.550, 98.581 322.666, 98.748 314.312 C 98.915 305.959, 98.915 292.009, 98.748 283.312 C 98.582 274.616, 98.445 281.450, 98.445 298.500 M 206 284.500 C 207.292 285.875, 208.574 287, 208.849 287 C 209.124 287, 208.292 285.875, 207 284.500 C 205.708 283.125, 204.426 282, 204.151 282 C 203.876 282, 204.708 283.125, 206 284.500 M 320 288.500 C 317.571 290.975, 315.809 293, 316.084 293 C 316.359 293, 318.571 290.975, 321 288.500 C 323.429 286.025, 325.191 284, 324.916 284 C 324.641 284, 322.429 286.025, 320 288.500 M 132.766 300.500 C 133.365 301.600, 134.098 303.288, 134.396 304.250 C 134.694 305.212, 135.514 305.964, 136.219 305.921 C 137.222 305.859, 137.229 305.733, 136.250 305.338 C 135.563 305.060, 135 304.026, 135 303.039 C 135 302.052, 134.253 300.627, 133.339 299.872 C 131.852 298.643, 131.792 298.709, 132.766 300.500 M 111.365 326.500 C 111.368 332, 111.536 334.122, 111.738 331.216 C 111.941 328.311, 111.939 323.811, 111.734 321.216 C 111.528 318.622, 111.363 321, 111.365 326.500 M 394.286 328.301 C 395.504 329.566, 396.685 330.469, 396.911 330.307 C 397.136 330.145, 396.504 329.110, 395.506 328.006 C 394.507 326.903, 393.326 326, 392.881 326 C 392.436 326, 393.068 327.035, 394.286 328.301 M 131.272 335 C 131.272 337.475, 131.467 338.488, 131.706 337.250 C 131.944 336.012, 131.944 333.988, 131.706 332.750 C 131.467 331.512, 131.272 332.525, 131.272 335 M 397.370 343 C 397.370 348.775, 397.535 351.137, 397.737 348.250 C 397.939 345.363, 397.939 340.637, 397.737 337.750 C 397.535 334.863, 397.370 337.225, 397.370 343 M 111.426 359.500 C 111.427 371.600, 111.571 376.413, 111.747 370.195 C 111.923 363.977, 111.922 354.077, 111.746 348.195 C 111.569 342.313, 111.425 347.400, 111.426 359.500 M 98.425 363 C 98.425 374.825, 98.569 379.663, 98.746 373.750 C 98.923 367.837, 98.923 358.163, 98.746 352.250 C 98.569 346.337, 98.425 351.175, 98.425 363 M 211.924 360.750 L 209.500 363.500 212.064 361.250 L 214.629 359 264.880 359 C 298.086 359, 315.872 359.358, 317.316 360.055 C 319.426 361.074, 319.434 361.057, 317.559 359.555 C 315.860 358.194, 309.291 358, 264.983 358 L 214.349 358 211.924 360.750 M 190.252 367.500 C 190.263 369.700, 190.468 370.482, 190.707 369.238 C 190.946 367.994, 190.937 366.194, 190.687 365.238 C 190.437 364.282, 190.241 365.300, 190.252 367.500 M 209.612 368.500 C 209.906 370.700, 210.788 373.158, 211.572 373.963 C 212.356 374.768, 215.811 375.717, 219.249 376.072 C 222.687 376.427, 246.088 376.801, 271.250 376.904 L 317.001 377.090 319.500 374.590 C 320.875 373.216, 322 371.207, 322 370.127 C 322 369.047, 322.259 367.339, 322.576 366.332 C 323.101 364.661, 323.055 364.649, 322.052 366.203 C 321.040 367.772, 316.590 367.911, 265.554 367.975 C 213.369 368.040, 210.124 367.941, 209.616 366.272 C 209.320 365.297, 209.318 366.300, 209.612 368.500 M 187.606 374.848 L 185.712 377.500 188.050 375.278 C 189.337 374.056, 190.189 372.862, 189.944 372.626 C 189.700 372.389, 188.648 373.389, 187.606 374.848 M 150.304 377.747 C 156.247 377.924, 165.697 377.923, 171.304 377.745 C 176.912 377.567, 172.050 377.422, 160.500 377.423 C 148.950 377.424, 144.362 377.570, 150.304 377.747 M 349.750 377.723 C 351.538 377.945, 354.462 377.945, 356.250 377.723 C 358.038 377.502, 356.575 377.320, 353 377.320 C 349.425 377.320, 347.962 377.502, 349.750 377.723 M 361.250 377.689 C 362.212 377.941, 363.788 377.941, 364.750 377.689 C 365.712 377.438, 364.925 377.232, 363 377.232 C 361.075 377.232, 360.288 377.438, 361.250 377.689 M 412.437 394.250 L 409.500 397.500 412.750 394.563 C 414.538 392.948, 416 391.485, 416 391.313 C 416 391.141, 415.859 391, 415.687 391 C 415.515 391, 414.052 392.462, 412.437 394.250 M 153.250 407.689 C 154.213 407.941, 155.787 407.941, 156.750 407.689 C 157.713 407.438, 156.925 407.232, 155 407.232 C 153.075 407.232, 152.287 407.438, 153.250 407.689 M 175.314 407.749 C 184.561 407.914, 199.411 407.913, 208.314 407.748 C 217.216 407.582, 209.650 407.447, 191.500 407.448 C 173.350 407.448, 166.066 407.583, 175.314 407.749 M 376.728 407.722 C 378.503 407.943, 381.653 407.946, 383.728 407.730 C 385.802 407.513, 384.350 407.333, 380.500 407.328 C 376.650 407.324, 374.952 407.501, 376.728 407.722 M 198.825 427.750 C 222.654 427.899, 261.354 427.899, 284.825 427.750 C 308.296 427.600, 288.800 427.478, 241.500 427.478 C 194.200 427.478, 174.996 427.600, 198.825 427.750 M 111.500 459 C 113.648 461.200, 115.631 463, 115.906 463 C 116.181 463, 114.648 461.200, 112.500 459 C 110.352 456.800, 108.369 455, 108.094 455 C 107.819 455, 109.352 456.800, 111.500 459 M 72.079 457.128 C 72.036 458.023, 72.787 459.373, 73.750 460.128 C 75.271 461.320, 75.354 461.303, 74.384 460 C 73.771 459.175, 73.019 457.825, 72.713 457 C 72.249 455.745, 72.145 455.766, 72.079 457.128 M 372.250 466.735 C 374.863 466.941, 379.137 466.941, 381.750 466.735 C 384.363 466.529, 382.225 466.360, 377 466.360 C 371.775 466.360, 369.637 466.529, 372.250 466.735 M 87 479.500 C 88.866 481.425, 90.617 483, 90.892 483 C 91.167 483, 89.866 481.425, 88 479.500 C 86.134 477.575, 84.383 476, 84.108 476 C 83.833 476, 85.134 477.575, 87 479.500 M 103.424 491.916 C 104.465 493.067, 107.046 494.474, 109.159 495.043 C 111.271 495.612, 113 496.315, 113 496.606 C 113 496.897, 111.987 496.817, 110.750 496.429 C 108.942 495.861, 109.278 496.527, 112.460 499.817 C 114.638 502.070, 116.633 503.700, 116.894 503.440 C 117.154 503.180, 116.834 502.434, 116.183 501.783 C 115.532 501.133, 115 500.282, 115 499.894 C 115 499.506, 116.080 499.698, 117.399 500.320 C 118.888 501.023, 119.668 502.126, 119.456 503.226 C 119.228 504.413, 119.732 505, 120.981 505 C 122.007 505, 124.119 503.942, 125.673 502.649 C 127.228 501.355, 129.625 499.668, 131 498.899 C 133.001 497.779, 142.779 497.395, 180 496.971 L 226.500 496.443 170.784 496.221 C 122.315 496.029, 114.576 495.792, 111.284 494.402 C 109.203 493.523, 106.157 492.133, 104.515 491.313 L 101.530 489.823 103.424 491.916 M 287.250 496.745 C 292.063 496.928, 299.938 496.928, 304.750 496.745 C 309.563 496.561, 305.625 496.411, 296 496.411 C 286.375 496.411, 282.438 496.561, 287.250 496.745 M 322.776 496.733 C 325.128 496.945, 328.728 496.942, 330.776 496.727 C 332.824 496.512, 330.900 496.339, 326.500 496.343 C 322.100 496.346, 320.424 496.522, 322.776 496.733 M 350.299 496.745 C 355.139 496.929, 362.789 496.928, 367.299 496.743 C 371.810 496.558, 367.850 496.408, 358.500 496.409 C 349.150 496.410, 345.460 496.562, 350.299 496.745" stroke="none" fill="#6132a9" fill-rule="evenodd"/><path d="M 92.689 67.250 C 89.575 70.334, 89.563 70.373, 92.454 68.008 C 94.129 66.637, 95.927 65.175, 96.450 64.758 C 96.973 64.341, 97.078 64, 96.685 64 C 96.292 64, 94.494 65.463, 92.689 67.250 M 157.750 79.744 C 162.287 79.929, 169.713 79.929, 174.250 79.744 C 178.787 79.559, 175.075 79.407, 166 79.407 C 156.925 79.407, 153.213 79.559, 157.750 79.744 M 220.354 79.843 C 216.449 80.260, 213.440 81.195, 212.104 82.405 C 210.947 83.453, 210 85.365, 210 86.655 L 210 89 259.250 88.993 C 286.337 88.989, 311.538 88.699, 315.250 88.348 C 319.887 87.910, 322 87.294, 322 86.378 C 322 85.646, 320.762 84.259, 319.250 83.296 C 317.738 82.334, 316.275 81.251, 316 80.889 C 315.725 80.528, 295.475 79.997, 271 79.709 C 246.525 79.421, 223.734 79.481, 220.354 79.843 M 111.328 99.500 C 111.333 103.350, 111.513 104.802, 111.730 102.728 C 111.946 100.653, 111.943 97.503, 111.722 95.728 C 111.501 93.952, 111.324 95.650, 111.328 99.500 M 100.924 97.750 L 98.500 100.500 101.250 98.076 C 102.763 96.742, 104 95.505, 104 95.326 C 104 95.147, 103.853 95, 103.674 95 C 103.495 95, 102.258 96.237, 100.924 97.750 M 70.921 102.249 C 70.623 104.399, 70.776 105.624, 71.279 105.121 C 71.762 104.638, 71.995 102.951, 71.798 101.372 C 71.468 98.728, 71.399 98.798, 70.921 102.249 M 131.365 112.500 C 131.368 118, 131.536 120.122, 131.738 117.216 C 131.941 114.311, 131.939 109.811, 131.734 107.216 C 131.528 104.622, 131.363 107, 131.365 112.500 M 101.690 110.452 C 100.892 111.251, 99.960 111.626, 99.619 111.286 C 99.279 110.945, 99.014 113.779, 99.030 117.583 C 99.052 122.566, 99.334 124.032, 100.036 122.828 C 100.573 121.909, 102.359 120.860, 104.006 120.499 C 105.653 120.137, 107 119.457, 107 118.988 C 107 118.519, 107.900 117.849, 109 117.500 C 110.553 117.007, 111 115.987, 111 112.933 C 111 109.023, 110.977 109, 107.071 109 C 104.911 109, 102.489 109.654, 101.690 110.452 M 327.762 144.707 C 329.006 144.946, 330.806 144.937, 331.762 144.687 C 332.718 144.437, 331.700 144.241, 329.500 144.252 C 327.300 144.263, 326.518 144.468, 327.762 144.707 M 325.252 149.500 C 325.263 151.700, 325.468 152.482, 325.707 151.238 C 325.946 149.994, 325.937 148.194, 325.687 147.238 C 325.437 146.282, 325.241 147.300, 325.252 149.500 M 380.575 150.334 L 378.241 152.669 377.556 192.084 C 377.180 213.763, 376.764 246.048, 376.631 263.828 C 376.415 292.850, 376.571 296.559, 378.150 300.086 C 379.192 302.414, 380.942 304.408, 382.446 304.979 C 383.841 305.510, 385.656 305.685, 386.479 305.370 C 387.787 304.868, 388.009 295.003, 388.238 227.148 C 388.410 176.234, 388.156 149.247, 387.500 148.765 C 386.950 148.361, 385.692 148.024, 384.705 148.015 C 383.717 148.007, 381.859 149.050, 380.575 150.334 M 137.656 150.133 C 136.642 150.722, 135.071 152.846, 134.165 154.852 C 132.696 158.105, 132.481 166.091, 132.188 228.569 C 131.893 291.298, 132.023 298.774, 133.429 299.941 C 134.293 300.658, 135 302.059, 135 303.055 C 135 304.051, 135.950 305.167, 137.112 305.535 C 138.457 305.962, 139.801 305.628, 140.816 304.613 C 142.102 303.327, 142.556 299.318, 143.178 283.760 C 143.601 273.167, 143.675 239.300, 143.341 208.500 C 143.007 177.700, 142.766 151.713, 142.805 150.750 C 142.846 149.736, 142.166 149.013, 141.188 149.030 C 140.260 149.047, 138.670 149.543, 137.656 150.133 M 111.478 233.500 C 111.478 279.700, 111.600 298.454, 111.750 275.175 C 111.899 251.896, 111.899 214.096, 111.750 191.175 C 111.600 168.254, 111.478 187.300, 111.478 233.500 M 318.762 154.707 C 320.006 154.946, 321.806 154.937, 322.762 154.687 C 323.718 154.437, 322.700 154.241, 320.500 154.252 C 318.300 154.263, 317.518 154.468, 318.762 154.707 M 337.762 154.707 C 339.006 154.946, 340.806 154.937, 341.762 154.687 C 342.718 154.437, 341.700 154.241, 339.500 154.252 C 337.300 154.263, 336.518 154.468, 337.762 154.707 M 202.924 166.750 L 200.500 169.500 203.250 167.076 C 204.762 165.742, 206 164.505, 206 164.326 C 206 164.147, 205.853 164, 205.674 164 C 205.495 164, 204.258 165.238, 202.924 166.750 M 318.269 167.693 C 319.242 167.947, 320.592 167.930, 321.269 167.656 C 321.946 167.382, 321.150 167.175, 319.500 167.195 C 317.850 167.215, 317.296 167.439, 318.269 167.693 M 338.269 167.693 C 339.242 167.947, 340.592 167.930, 341.269 167.656 C 341.946 167.382, 341.150 167.175, 339.500 167.195 C 337.850 167.215, 337.296 167.439, 338.269 167.693 M 98.336 201 C 98.336 205.125, 98.513 206.813, 98.728 204.750 C 98.944 202.688, 98.944 199.313, 98.728 197.250 C 98.513 195.188, 98.336 196.875, 98.336 201 M 283.115 208.092 C 283.877 208.575, 286.380 208.976, 288.677 208.985 C 291.805 208.996, 292.968 209.439, 293.311 210.750 C 293.739 212.390, 293.775 212.388, 293.884 210.719 C 293.948 209.739, 293.438 208.762, 292.750 208.547 C 292.063 208.333, 289.302 207.946, 286.615 207.686 C 283.604 207.396, 282.262 207.552, 283.115 208.092 M 98.443 238.500 C 98.443 255, 98.580 261.890, 98.748 253.812 C 98.915 245.733, 98.916 232.233, 98.748 223.812 C 98.581 215.390, 98.444 222, 98.443 238.500 M 181.195 233.500 C 181.215 235.150, 181.439 235.704, 181.693 234.731 C 181.947 233.758, 181.930 232.408, 181.656 231.731 C 181.382 231.054, 181.175 231.850, 181.195 233.500 M 199 276.500 C 200.292 277.875, 201.574 279, 201.849 279 C 202.124 279, 201.292 277.875, 200 276.500 C 198.708 275.125, 197.426 274, 197.151 274 C 196.876 274, 197.708 275.125, 199 276.500 M 98.328 335.500 C 98.333 339.350, 98.513 340.802, 98.730 338.728 C 98.946 336.653, 98.943 333.503, 98.722 331.728 C 98.501 329.952, 98.324 331.650, 98.328 335.500 M 354.453 337.250 L 350.500 341.500 354.750 337.547 C 357.087 335.373, 359 333.460, 359 333.297 C 359 333.134, 358.866 333, 358.703 333 C 358.540 333, 356.627 334.913, 354.453 337.250 M 110 337 C 110 337.550, 109.415 338, 108.700 338 C 107.985 338, 105.510 339.226, 103.200 340.723 C 99.153 343.348, 99 343.637, 99 348.654 L 99 353.860 101.750 353.007 C 103.263 352.537, 105.963 351.570, 107.750 350.857 C 110.970 349.574, 111 349.498, 111 342.781 C 111 339.051, 110.775 336, 110.500 336 C 110.225 336, 110 336.450, 110 337 M 131.395 352.500 C 131.396 360.200, 131.553 363.218, 131.743 359.206 C 131.934 355.195, 131.932 348.895, 131.741 345.206 C 131.549 341.518, 131.393 344.800, 131.395 352.500 M 212.174 361.314 C 210.978 362.587, 210 364.625, 210 365.843 L 210 368.058 265.750 367.779 L 321.500 367.500 321.816 365.276 C 322.047 363.650, 321.239 362.507, 318.816 361.029 C 315.604 359.071, 313.918 359.007, 264.924 359.004 L 214.349 359 212.174 361.314 M 341.195 365.500 C 341.215 367.150, 341.439 367.704, 341.693 366.731 C 341.947 365.758, 341.930 364.408, 341.656 363.731 C 341.382 363.054, 341.175 363.850, 341.195 365.500 M 368.750 377.723 C 370.538 377.945, 373.462 377.945, 375.250 377.723 C 377.038 377.502, 375.575 377.320, 372 377.320 C 368.425 377.320, 366.962 377.502, 368.750 377.723 M 130.750 407.743 C 134.738 407.932, 141.262 407.932, 145.250 407.743 C 149.238 407.553, 145.975 407.397, 138 407.397 C 130.025 407.397, 126.763 407.553, 130.750 407.743 M 225.750 407.706 C 226.988 407.944, 229.012 407.944, 230.250 407.706 C 231.488 407.467, 230.475 407.272, 228 407.272 C 225.525 407.272, 224.512 407.467, 225.750 407.706 M 270.250 407.750 C 289.362 407.902, 320.637 407.902, 339.750 407.750 C 358.862 407.598, 343.225 407.473, 305 407.473 C 266.775 407.473, 251.137 407.598, 270.250 407.750 M 388.750 407.706 C 389.988 407.944, 392.012 407.944, 393.250 407.706 C 394.488 407.467, 393.475 407.272, 391 407.272 C 388.525 407.272, 387.512 407.467, 388.750 407.706 M 384.349 436 C 384.349 440.675, 384.522 442.587, 384.732 440.250 C 384.943 437.913, 384.943 434.087, 384.732 431.750 C 384.522 429.413, 384.349 431.325, 384.349 436 M 68.328 436.500 C 68.333 440.350, 68.513 441.802, 68.730 439.728 C 68.946 437.653, 68.943 434.503, 68.722 432.728 C 68.501 430.952, 68.324 432.650, 68.328 436.500 M 102.232 440 C 102.232 441.925, 102.438 442.712, 102.689 441.750 C 102.941 440.788, 102.941 439.212, 102.689 438.250 C 102.438 437.288, 102.232 438.075, 102.232 440 M 184.250 466.750 C 217.112 466.896, 270.887 466.896, 303.750 466.750 C 336.612 466.604, 309.725 466.484, 244 466.484 C 178.275 466.484, 151.387 466.604, 184.250 466.750 M 112.286 501.294 C 115.842 505.257, 119.402 508.630, 120.197 508.789 C 120.993 508.948, 122.132 508.006, 122.729 506.695 C 123.725 504.509, 123.620 504.350, 121.444 504.766 C 119.546 505.129, 119.145 504.843, 119.435 503.336 C 119.671 502.112, 118.958 501.056, 117.399 500.320 C 116.080 499.698, 115 499.506, 115 499.894 C 115 500.282, 115.532 501.132, 116.183 501.783 C 116.834 502.434, 117.154 503.180, 116.894 503.440 C 116.633 503.700, 114.638 502.070, 112.460 499.817 C 108.933 496.170, 108.774 495.806, 111 496.485 C 112.375 496.905, 113.224 496.954, 112.886 496.593 C 112.548 496.233, 110.820 495.522, 109.046 495.013 C 105.932 494.120, 106.043 494.336, 112.286 501.294" stroke="none" fill="#a580df" fill-rule="evenodd"/><path d="M 176.784 81.750 C 175.945 82.713, 174.952 85.925, 174.577 88.888 C 174.201 91.852, 172.635 97.027, 171.095 100.388 C 169.555 103.750, 166.991 107.625, 165.396 109 C 163.801 110.375, 158.985 113.261, 154.695 115.414 C 150.405 117.566, 146.535 120.041, 146.094 120.914 C 145.654 121.786, 145.699 123.998, 146.196 125.830 C 147.085 129.110, 147.160 129.148, 151.299 128.391 C 153.610 127.968, 156.581 127.664, 157.903 127.715 C 159.673 127.783, 159.937 127.573, 158.903 126.919 C 157.906 126.288, 157.861 126.026, 158.750 126.015 C 159.438 126.007, 160.338 125.968, 160.750 125.929 C 161.162 125.890, 162.175 125.283, 163 124.581 C 163.825 123.879, 165.400 122.939, 166.500 122.493 C 167.600 122.047, 168.821 121.749, 169.214 121.829 C 169.607 121.910, 169.635 121.194, 169.277 120.238 C 168.704 118.709, 168.831 118.667, 170.336 119.891 C 171.830 121.108, 171.966 121.076, 171.416 119.641 C 171.066 118.729, 171.277 118, 171.893 118 C 172.502 118, 173 117.298, 173 116.441 C 173 115.584, 173.427 115.146, 173.950 115.469 C 174.472 115.792, 175.893 114.711, 177.109 113.067 C 178.324 111.423, 179.691 110.309, 180.148 110.591 C 180.604 110.873, 180.738 110.480, 180.445 109.717 C 180.152 108.954, 180.881 107.243, 182.065 105.915 L 184.217 103.500 182.485 106.500 C 180.828 109.370, 180.829 109.427, 182.524 107.816 C 183.499 106.890, 184.384 104.865, 184.492 103.316 C 184.599 101.767, 184.764 99.825, 184.859 99 C 185.012 97.667, 185.138 97.667, 186 99 C 186.556 99.861, 186.976 100.002, 186.985 99.332 C 186.993 98.689, 187.267 97.339, 187.594 96.332 C 188.089 94.808, 188.007 94.752, 187.110 96 C 186.516 96.825, 186.024 97.147, 186.015 96.715 C 186.007 96.283, 186.617 94.933, 187.371 93.715 C 188.125 92.497, 188.609 89.700, 188.447 87.500 C 188.284 85.300, 188.117 83.136, 188.076 82.691 C 188.034 82.246, 187.601 82.129, 187.113 82.430 C 186.626 82.731, 185.671 82.308, 184.991 81.489 C 184.311 80.670, 182.530 80, 181.033 80 C 179.535 80, 177.623 80.787, 176.784 81.750 M 380.742 82.660 C 381.623 83.016, 381.698 83.695, 381 85 C 380.459 86.011, 380.407 86.987, 380.886 87.169 C 381.364 87.351, 382.514 95.825, 383.440 106 C 384.366 116.175, 385.370 125.513, 385.671 126.750 C 385.971 127.987, 386.731 128.984, 387.358 128.965 C 387.986 128.945, 389.625 128.286, 391 127.500 C 392.375 126.714, 393.093 126.055, 392.595 126.035 C 392.097 126.016, 392.390 125.213, 393.245 124.250 C 394.101 123.287, 395.295 119.264, 395.900 115.308 C 396.505 111.353, 397 106.939, 397 105.499 C 397 104.060, 396.617 103.119, 396.148 103.408 C 395.680 103.698, 394.759 102.140, 394.102 99.947 C 393.445 97.753, 393.180 95.518, 393.513 94.979 C 393.846 94.441, 393.604 94, 392.976 94 C 392.347 94, 392.023 93.438, 392.254 92.750 C 392.486 92.063, 392.048 91.038, 391.282 90.473 C 390.515 89.908, 389.758 88.558, 389.599 87.473 C 389.440 86.388, 388.790 85.444, 388.155 85.375 C 387.520 85.306, 386.298 85.194, 385.441 85.125 C 384.584 85.056, 384.131 84.597, 384.435 84.105 C 384.740 83.612, 384.279 82.937, 383.412 82.605 C 382.546 82.272, 381.311 82.036, 380.668 82.079 C 379.856 82.134, 379.878 82.311, 380.742 82.660 M 254.262 152.722 C 255.231 152.958, 255.814 153.492, 255.556 153.909 C 255.299 154.326, 255.723 154.667, 256.500 154.667 C 257.277 154.667, 257.704 154.330, 257.450 153.919 C 257.196 153.507, 257.553 152.981, 258.244 152.748 C 258.935 152.516, 257.925 152.318, 256 152.309 C 254.075 152.300, 253.293 152.486, 254.262 152.722 M 246.442 157.224 C 245.200 158.201, 243.765 159, 243.253 159 C 242.740 159, 241.808 160.125, 241.182 161.500 C 240.555 162.875, 239.376 164, 238.561 164 C 237.676 164, 235.053 168.126, 232.045 174.250 C 227.353 183.803, 226.963 185.180, 226.311 194.500 C 225.925 200, 225.613 205.400, 225.617 206.500 C 225.621 207.600, 225.921 212.325, 226.285 217 C 226.872 224.558, 227.504 226.608, 231.997 235.500 C 236.077 243.575, 238.336 246.696, 243.734 251.715 C 247.411 255.134, 251.787 258.481, 253.459 259.154 C 255.132 259.827, 258.075 261.338, 260 262.512 C 261.925 263.687, 265.750 265.226, 268.500 265.933 C 271.250 266.640, 275.300 267.845, 277.500 268.610 C 279.700 269.376, 285.194 270.399, 289.710 270.885 C 295.839 271.545, 299.513 271.414, 304.210 270.367 C 307.669 269.596, 311.400 268.727, 312.500 268.435 C 313.600 268.144, 316.014 267.634, 317.865 267.303 C 321.072 266.729, 321.176 266.803, 320.068 268.874 C 319.428 270.069, 316.918 272.878, 314.491 275.115 C 312.063 277.353, 307.472 280.771, 304.288 282.710 C 301.105 284.650, 295.732 287.495, 292.348 289.032 C 288.965 290.570, 282.440 292.598, 277.848 293.538 C 271.475 294.844, 267.016 295.097, 259 294.608 C 253.225 294.256, 245.480 293.205, 241.789 292.273 L 235.079 290.577 232.616 292.891 C 231.207 294.215, 230.311 296.017, 230.520 297.106 C 230.722 298.152, 231.183 299.487, 231.544 300.072 C 231.906 300.657, 232.817 300.900, 233.569 300.612 C 234.321 300.323, 235.245 300.587, 235.622 301.198 C 236.079 301.936, 235.838 302.025, 234.905 301.463 C 233.708 300.742, 233.704 300.867, 234.872 302.308 C 235.627 303.239, 236.441 304, 236.681 304 C 236.922 304, 236.840 303.550, 236.500 303 C 236.160 302.450, 236.809 302, 237.941 302 C 239.073 302, 240 302.450, 240 303 C 240 303.550, 240.927 304, 242.059 304 C 243.230 304, 243.841 304.449, 243.475 305.040 C 243.054 305.721, 243.776 305.843, 245.565 305.394 C 247.373 304.940, 248.078 305.065, 247.648 305.761 C 247.242 306.418, 247.752 306.616, 249.004 306.289 C 250.108 306, 251.751 306.379, 252.656 307.130 C 253.767 308.052, 257.993 308.612, 265.663 308.856 C 274.798 309.146, 277.721 308.886, 280.582 307.528 C 282.539 306.600, 284.783 306.087, 285.570 306.388 C 286.356 306.690, 287 306.449, 287 305.852 C 287 305.255, 287.901 305.002, 289.001 305.290 C 290.102 305.578, 290.778 305.449, 290.503 305.004 C 290.227 304.559, 291.352 303.724, 293.001 303.149 C 294.725 302.549, 296 302.494, 296 303.021 C 296 303.525, 296.672 303.679, 297.494 303.364 C 298.316 303.048, 298.749 302.404, 298.457 301.931 C 298.165 301.458, 300.210 299.914, 303 298.500 C 305.791 297.085, 308.519 296.203, 309.062 296.538 C 309.605 296.874, 309.985 296.778, 309.906 296.324 C 309.828 295.871, 309.816 294.990, 309.882 294.367 C 309.947 293.743, 310.945 292.986, 312.101 292.684 C 313.437 292.334, 313.927 291.690, 313.446 290.913 C 312.961 290.127, 313.108 289.948, 313.857 290.412 C 314.567 290.851, 318.575 287.605, 324.101 282.115 C 329.094 277.156, 332.880 272.615, 332.515 272.024 C 332.150 271.434, 332.222 271.015, 332.676 271.094 C 333.129 271.172, 334.089 271.184, 334.809 271.118 C 335.529 271.053, 335.856 270.576, 335.536 270.058 C 335.216 269.540, 336.314 267.725, 337.977 266.024 C 339.640 264.323, 341 262.695, 341 262.407 C 341 262.118, 340.555 262.157, 340.011 262.493 C 339.445 262.843, 339.277 262.442, 339.618 261.552 C 339.946 260.698, 340.561 260, 340.986 260 C 341.410 260, 342.337 258.601, 343.045 256.891 C 343.754 255.180, 344.331 253.043, 344.329 252.141 C 344.327 251.238, 345.039 249.904, 345.913 249.176 C 346.857 248.388, 346.931 248.147, 346.095 248.580 C 345.188 249.051, 344.937 248.911, 345.385 248.186 C 345.767 247.568, 346.202 245.501, 346.353 243.594 C 346.503 241.686, 346.373 240.169, 346.063 240.224 C 345.753 240.278, 344.266 239.813, 342.759 239.190 C 341.251 238.566, 339.389 238.297, 338.621 238.592 C 337.853 238.887, 335.036 241.226, 332.362 243.791 C 329.688 246.356, 327.631 248.857, 327.791 249.350 C 327.951 249.842, 327.365 249.970, 326.489 249.634 C 325.613 249.298, 325.134 249.408, 325.424 249.878 C 325.715 250.348, 325.063 251.538, 323.976 252.521 C 322.574 253.791, 322 253.926, 322 252.988 C 322 252.261, 321.663 252.004, 321.250 252.417 C 320.837 252.829, 320.500 253.692, 320.500 254.333 C 320.500 254.975, 319.171 255.651, 317.547 255.836 C 315.923 256.021, 314.123 256.812, 313.547 257.594 C 312.971 258.376, 310.633 259.125, 308.352 259.258 C 306.070 259.391, 304.390 259.806, 304.618 260.181 C 304.846 260.555, 304.575 261.144, 304.016 261.490 C 303.457 261.835, 303 261.641, 303 261.059 C 303 260.477, 301.313 260.053, 299.250 260.118 C 295.518 260.236, 295.514 260.240, 298.500 261 C 300.829 261.593, 300.009 261.790, 294.833 261.882 C 291.167 261.947, 288.017 261.620, 287.833 261.155 C 287.650 260.691, 285.700 260.029, 283.500 259.684 C 280.909 259.278, 280.017 259.379, 280.969 259.972 C 282.013 260.624, 281.435 260.850, 278.969 260.755 C 277.061 260.682, 274.712 260.981, 273.750 261.418 C 272.629 261.928, 272 261.795, 272 261.048 C 272 260.407, 272.450 260.160, 273 260.500 C 273.550 260.840, 274 260.633, 274 260.040 C 274 259.393, 273.013 259.210, 271.530 259.582 C 270.049 259.953, 268.460 259.660, 267.564 258.851 C 266.742 258.108, 265.398 256.938, 264.577 256.250 C 263.756 255.563, 262.825 255, 262.507 255 C 262.189 255, 260.794 254.256, 259.405 253.346 C 257.463 252.074, 257.183 251.481, 258.190 250.780 C 259.046 250.185, 258.668 250.105, 257.099 250.550 C 255.211 251.085, 254.821 250.908, 255.276 249.722 C 255.605 248.864, 254.915 247.358, 253.678 246.234 C 252.480 245.145, 250.866 244.484, 250.091 244.764 C 249.142 245.106, 248.874 244.771, 249.271 243.736 C 249.595 242.891, 248.767 240.717, 247.430 238.906 C 246.094 237.094, 245 236.024, 245 236.528 C 245 237.032, 244.285 236.424, 243.411 235.176 C 242.537 233.928, 242.045 232.325, 242.318 231.613 C 242.591 230.901, 242.413 229.684, 241.923 228.909 C 241.170 227.720, 241.026 227.734, 241 229 C 240.973 230.333, 240.862 230.333, 240 229 C 239.467 228.175, 239.024 227.136, 239.015 226.691 C 239.007 226.246, 239.445 226.157, 239.989 226.493 C 240.555 226.843, 240.724 226.443, 240.384 225.558 C 240.057 224.707, 239.440 224.228, 239.011 224.493 C 238.583 224.758, 237.689 223.663, 237.025 222.061 C 236.362 220.459, 236.114 218.102, 236.475 216.824 C 236.921 215.242, 236.833 214.929, 236.200 215.842 C 235.494 216.859, 235.154 216.585, 234.795 214.708 C 234.535 213.347, 234.488 208.468, 234.690 203.866 C 234.893 199.265, 235.130 194.600, 235.218 193.500 C 235.305 192.400, 235.765 191.235, 236.239 190.910 C 236.712 190.586, 237.121 189.236, 237.147 187.910 C 237.173 186.585, 237.388 184.469, 237.626 183.209 C 237.864 181.949, 238.430 181.147, 238.883 181.428 C 239.337 181.708, 240.227 180.798, 240.861 179.405 C 241.537 177.922, 241.598 177.131, 241.008 177.495 C 240.453 177.838, 240 177.746, 240 177.291 C 240 176.836, 241.125 174.809, 242.500 172.785 C 243.875 170.762, 245 168.702, 245 168.208 C 245 167.714, 245.824 166.564, 246.831 165.653 C 247.838 164.741, 248.949 164.283, 249.300 164.633 C 249.650 164.984, 249.754 164.319, 249.530 163.156 C 249.286 161.889, 249.600 161.133, 250.311 161.270 C 250.965 161.397, 251.360 160.679, 251.189 159.676 C 251.018 158.673, 251.390 157.235, 252.015 156.482 C 252.923 155.388, 252.703 155.147, 250.926 155.281 C 249.701 155.373, 247.684 156.247, 246.442 157.224 M 245 238.786 C 245 239.283, 245.965 240.547, 247.146 241.595 C 249.276 243.487, 249.283 243.485, 248.140 241.306 C 247.507 240.099, 246.542 238.835, 245.995 238.497 C 245.448 238.159, 245 238.289, 245 238.786 M 265.831 255.142 C 266.510 256.045, 267.951 257.015, 269.033 257.298 C 270.115 257.581, 271 257.405, 271 256.906 C 271 256.408, 270.190 256, 269.200 256 C 268.210 256, 266.769 255.438, 265.998 254.750 C 264.818 253.698, 264.792 253.760, 265.831 255.142 M 146.507 325.989 C 146.142 326.580, 146.621 326.712, 147.698 326.319 C 149.387 325.702, 149.396 325.781, 147.843 327.580 C 146.932 328.636, 146.092 330.400, 145.978 331.500 C 145.863 332.600, 145.822 334.267, 145.885 335.205 C 145.962 336.353, 147.225 337.132, 149.750 337.590 C 151.813 337.964, 155.119 339.084, 157.097 340.077 C 159.075 341.071, 162.900 344.302, 165.597 347.258 C 168.294 350.213, 171.748 354.931, 173.273 357.743 C 175.402 361.668, 175.750 363.042, 174.773 363.665 C 174.073 364.111, 166.637 364.642, 158.249 364.845 L 142.998 365.214 140.499 368.184 C 139.125 369.817, 138.007 371.456, 138.015 371.827 C 138.024 372.197, 138.402 373.086, 138.857 373.803 C 139.311 374.519, 141.217 375.326, 143.092 375.594 C 144.966 375.863, 154.153 376.165, 163.506 376.264 C 175.484 376.391, 181.433 376.063, 183.626 375.155 C 185.339 374.445, 187.237 372.776, 187.843 371.444 C 188.450 370.113, 188.771 368.456, 188.557 367.762 C 188.342 367.068, 187.886 365.225, 187.543 363.666 C 187.173 361.984, 187.305 361.070, 187.867 361.418 C 188.397 361.746, 188.585 361.128, 188.293 360.013 C 188.007 358.918, 187.331 358.296, 186.790 358.630 C 186.244 358.967, 185.967 358.412, 186.165 357.380 C 186.362 356.359, 185.730 354.730, 184.761 353.761 C 183.793 352.793, 183 351.523, 183 350.941 C 183 350.359, 183.483 350.181, 184.074 350.546 C 184.667 350.912, 184.578 350.298, 183.875 349.171 C 183.175 348.050, 182.129 347.215, 181.551 347.316 C 180.973 347.417, 180.562 346.717, 180.637 345.761 C 180.712 344.804, 180.444 344.226, 180.040 344.475 C 179.636 344.725, 178.028 343.595, 176.466 341.964 C 174.904 340.334, 172.960 339, 172.146 339 C 171.332 339, 170.951 338.715, 171.299 338.367 C 171.647 338.019, 170.935 336.953, 169.716 335.998 C 168.497 335.042, 166.037 333.941, 164.250 333.551 C 162.463 333.160, 161 332.400, 161 331.862 C 161 331.323, 160.581 331.141, 160.069 331.457 C 159.557 331.774, 158.844 331.557, 158.485 330.976 C 158.126 330.394, 156.970 330.192, 155.916 330.527 C 154.802 330.880, 154 330.663, 154 330.008 C 154 329.389, 153.438 329.206, 152.750 329.601 C 152.063 329.997, 151.838 329.948, 152.252 329.491 C 152.666 329.035, 152.259 327.838, 151.347 326.831 C 150.436 325.824, 149.111 325, 148.404 325 C 147.697 325, 146.843 325.445, 146.507 325.989 M 387.178 326.207 C 387.092 326.918, 386.600 329.975, 386.084 333 C 385.568 336.025, 385.113 342.831, 385.073 348.125 C 385.033 353.419, 384.724 359.132, 384.386 360.821 C 383.926 363.122, 383.111 364.017, 381.136 364.391 C 379.686 364.666, 374.225 365.152, 369 365.470 C 363.775 365.789, 357.383 366.110, 354.795 366.185 C 351.891 366.269, 349.894 366.834, 349.577 367.660 C 349.294 368.397, 348.426 369, 347.648 369 C 346.870 369, 346.024 369.801, 345.768 370.780 C 345.512 371.758, 346.011 373.221, 346.876 374.030 C 348.121 375.194, 351.704 375.500, 364.070 375.500 C 375.780 375.500, 380.101 375.159, 381.332 374.138 C 382.235 373.389, 383.679 373.046, 384.539 373.377 C 385.402 373.708, 385.841 373.552, 385.518 373.029 C 385.196 372.508, 386.293 370.782, 387.955 369.193 C 389.617 367.605, 391.881 364.264, 392.984 361.769 C 394.632 358.044, 395.005 354.956, 395.069 344.509 C 395.140 332.933, 394.960 331.586, 393.065 329.569 C 391.919 328.349, 391.286 327.048, 391.658 326.676 C 392.029 326.304, 391.845 326, 391.248 326 C 390.652 326, 389.527 325.756, 388.748 325.457 C 387.970 325.158, 387.263 325.496, 387.178 326.207 M 118.190 412.560 C 117.470 413.376, 116.446 413.776, 115.915 413.448 C 115.385 413.120, 115.063 413.222, 115.201 413.676 C 115.338 414.129, 114.213 415.815, 112.701 417.422 C 111.189 419.029, 109.668 421.504, 109.322 422.922 C 108.975 424.340, 108.381 425.725, 108 426 C 107.619 426.275, 106.991 427.792, 106.605 429.371 C 105.995 431.858, 106.092 432.051, 107.329 430.814 C 108.114 430.029, 109.072 427.950, 109.458 426.193 C 109.843 424.437, 110.600 423, 111.138 423 C 111.677 423, 111.858 422.579, 111.540 422.065 C 111.222 421.550, 112.081 420.010, 113.449 418.642 C 114.817 417.274, 116.739 415.900, 117.720 415.589 C 118.702 415.277, 120.070 414.117, 120.761 413.011 C 121.769 411.396, 121.769 411.007, 120.758 411.038 C 120.066 411.059, 118.911 411.744, 118.190 412.560" stroke="none" fill="#fb9317" fill-rule="evenodd"/><path d="M 151.957 81.443 C 151.431 81.969, 151 83.830, 151 85.578 C 151 87.325, 150.350 89.295, 149.555 89.954 C 148.760 90.614, 147.664 93.482, 147.120 96.327 C 146.575 99.172, 145.948 106.041, 145.725 111.590 C 145.342 121.125, 145.414 121.586, 147.036 119.964 C 147.981 119.019, 151.846 116.732, 155.627 114.882 C 159.407 113.031, 163.804 110.388, 165.398 109.008 C 166.992 107.629, 169.555 103.750, 171.095 100.388 C 172.635 97.027, 174.203 91.852, 174.580 88.888 C 174.957 85.925, 175.711 82.938, 176.256 82.250 C 176.943 81.381, 176.827 80.947, 175.872 80.827 C 175.118 80.731, 169.643 80.616, 163.707 80.570 C 157.771 80.524, 152.483 80.917, 151.957 81.443 M 345.642 82.630 C 344.165 84.223, 343 86.650, 343 88.134 C 343 89.595, 343.884 93.649, 344.964 97.145 C 346.044 100.640, 348.223 105.541, 349.806 108.035 C 351.388 110.529, 354.442 114.390, 356.592 116.614 C 358.741 118.837, 362.075 121.784, 364 123.161 C 365.925 124.538, 370.425 126.458, 374 127.427 C 377.575 128.395, 381.970 129.421, 383.768 129.705 C 386.863 130.196, 386.988 130.098, 386.133 127.849 C 385.636 126.543, 384.450 116.930, 383.497 106.487 C 382.545 96.044, 381.371 87.351, 380.890 87.169 C 380.409 86.987, 380.456 86.017, 380.994 85.012 C 381.810 83.487, 381.437 82.982, 378.736 81.952 C 376.956 81.273, 369.376 80.507, 361.892 80.249 L 348.284 79.781 345.642 82.630 M 185.079 98.668 C 185.036 99.311, 184.741 100.661, 184.424 101.668 C 183.877 103.409, 183.906 103.412, 184.995 101.712 C 185.626 100.729, 185.920 99.379, 185.650 98.712 C 185.295 97.837, 185.136 97.825, 185.079 98.668 M 177.138 113.028 C 175.906 114.693, 174.472 115.792, 173.950 115.469 C 173.427 115.146, 173 115.546, 173 116.358 C 173 117.169, 172.438 118.034, 171.750 118.280 C 171.063 118.525, 170.746 118.997, 171.047 119.327 C 171.348 119.658, 173.486 118.092, 175.797 115.849 C 178.109 113.605, 180 111.372, 180 110.885 C 180 110.398, 179.860 110, 179.688 110 C 179.516 110, 178.369 111.363, 177.138 113.028 M 145 127.441 C 145 128.298, 145.450 129, 146 129 C 146.550 129, 147 128.577, 147 128.059 C 147 127.541, 146.550 126.840, 146 126.500 C 145.450 126.160, 145 126.584, 145 127.441 M 260.060 149.395 C 258.169 150.079, 256.443 151.170, 256.227 151.820 C 256.010 152.470, 256.433 152.850, 257.166 152.665 C 257.900 152.479, 258.160 152.517, 257.744 152.749 C 257.328 152.981, 257.196 153.507, 257.450 153.919 C 257.704 154.330, 257.277 154.667, 256.500 154.667 C 255.723 154.667, 255.288 154.343, 255.533 153.947 C 255.777 153.551, 254.984 152.967, 253.769 152.650 C 252.360 152.281, 248.996 153.305, 244.486 155.474 C 240.596 157.346, 234.282 160.990, 230.456 163.573 C 226.630 166.156, 221.996 169.671, 220.159 171.385 C 218.321 173.098, 214.882 177.029, 212.516 180.120 C 210.150 183.212, 206.652 189.062, 204.743 193.120 C 202.834 197.179, 200.472 202.945, 199.494 205.934 C 198.137 210.085, 197.725 214.571, 197.750 224.934 C 197.773 234.651, 198.268 240.202, 199.494 244.500 C 200.435 247.800, 203.181 253.909, 205.596 258.076 C 208.010 262.243, 211.834 267.643, 214.093 270.076 C 216.352 272.509, 218.830 275.388, 219.600 276.473 C 220.370 277.557, 221 279.216, 221 280.159 C 221 281.119, 219.226 282.869, 216.966 284.139 C 214.601 285.468, 213.051 287.027, 213.220 287.906 C 213.379 288.731, 215.532 290.895, 218.005 292.715 C 220.477 294.536, 222.953 296.357, 223.506 296.763 C 224.059 297.168, 226.451 298.558, 228.821 299.851 C 231.192 301.144, 233.398 301.935, 233.724 301.610 C 234.049 301.284, 234.807 301.394, 235.408 301.853 C 236.009 302.313, 237.287 302.970, 238.250 303.313 C 239.213 303.656, 240 303.501, 240 302.969 C 240 302.436, 239.127 302, 238.059 302 C 236.991 302, 235.852 301.570, 235.527 301.044 C 235.202 300.518, 234.321 300.323, 233.569 300.612 C 232.817 300.900, 231.906 300.657, 231.544 300.072 C 231.183 299.487, 230.722 298.152, 230.520 297.106 C 230.311 296.017, 231.207 294.215, 232.616 292.891 L 235.079 290.577 241.789 292.273 C 245.480 293.205, 253.225 294.256, 259 294.608 C 267.016 295.097, 271.475 294.844, 277.848 293.538 C 282.440 292.598, 288.965 290.570, 292.348 289.032 C 295.732 287.495, 301.105 284.650, 304.288 282.710 C 307.472 280.771, 312.063 277.353, 314.491 275.115 C 316.918 272.878, 319.428 270.069, 320.068 268.874 C 321.176 266.803, 321.072 266.729, 317.865 267.303 C 316.014 267.634, 313.600 268.144, 312.500 268.435 C 311.400 268.727, 307.669 269.596, 304.210 270.367 C 299.513 271.414, 295.839 271.545, 289.710 270.885 C 285.194 270.399, 279.700 269.376, 277.500 268.610 C 275.300 267.845, 271.250 266.640, 268.500 265.933 C 265.750 265.226, 261.925 263.687, 260 262.512 C 258.075 261.338, 255.132 259.827, 253.459 259.154 C 251.787 258.481, 247.411 255.134, 243.734 251.715 C 238.336 246.696, 236.077 243.575, 231.997 235.500 C 227.504 226.608, 226.872 224.558, 226.285 217 C 225.921 212.325, 225.621 207.600, 225.617 206.500 C 225.613 205.400, 225.925 200, 226.311 194.500 C 226.963 185.180, 227.353 183.803, 232.045 174.250 C 235.053 168.126, 237.676 164, 238.561 164 C 239.376 164, 240.555 162.875, 241.182 161.500 C 241.808 160.125, 242.776 159, 243.332 159 C 243.888 159, 245.110 158.305, 246.049 157.456 C 246.987 156.607, 249.008 155.685, 250.541 155.407 C 252.908 154.978, 253.143 155.123, 252.102 156.377 C 251.429 157.188, 251.018 158.673, 251.189 159.676 C 251.376 160.771, 250.970 161.390, 250.176 161.225 C 249.447 161.074, 249.096 161.346, 249.395 161.830 C 249.694 162.314, 248.827 163.753, 247.469 165.029 C 246.111 166.305, 245 167.730, 245 168.196 C 245 168.662, 243.809 170.842, 242.354 173.042 C 240.898 175.241, 239.911 177.244, 240.159 177.493 C 240.408 177.741, 242.131 175.369, 243.988 172.222 C 245.845 169.075, 250.095 163.882, 253.432 160.682 C 256.769 157.483, 261.413 153.727, 263.750 152.337 C 266.088 150.947, 267.749 149.403, 267.441 148.905 C 267.134 148.407, 266.121 148.034, 265.191 148.076 C 264.261 148.118, 261.952 148.711, 260.060 149.395 M 234.195 205.500 C 234.215 207.150, 234.439 207.704, 234.693 206.731 C 234.947 205.758, 234.930 204.408, 234.656 203.731 C 234.382 203.054, 234.175 203.850, 234.195 205.500 M 236.071 219 C 236.071 219.825, 236.714 221.625, 237.500 223 C 238.326 224.445, 238.929 224.867, 238.929 224 C 238.929 223.175, 238.286 221.375, 237.500 220 C 236.674 218.555, 236.071 218.133, 236.071 219 M 245 238.684 C 245 239.139, 246.799 241.421, 248.998 243.755 C 251.197 246.090, 253.310 248, 253.694 248 C 254.078 248, 252.842 246.339, 250.946 244.309 C 249.051 242.280, 246.938 239.997, 246.250 239.238 C 245.563 238.479, 245 238.229, 245 238.684 M 255.012 249.682 C 255.019 250.132, 256.588 251.512, 258.498 252.750 C 260.409 253.988, 262.235 255, 262.557 255 C 262.879 255, 263.770 255.563, 264.537 256.250 C 265.303 256.938, 266.647 258.105, 267.524 258.844 C 268.459 259.633, 270.125 259.935, 271.558 259.575 C 273.016 259.209, 274 259.396, 274 260.040 C 274 260.633, 273.550 260.840, 273 260.500 C 272.450 260.160, 272 260.407, 272 261.048 C 272 261.795, 272.629 261.928, 273.750 261.418 C 274.712 260.981, 277.075 260.677, 279 260.743 L 282.500 260.864 279.135 259.432 C 277.285 258.644, 274.585 257.993, 273.135 257.985 C 271.686 257.977, 269.375 257.321, 268 256.528 C 266.625 255.735, 264.429 254.605, 263.119 254.018 C 261.810 253.431, 259.448 252.031, 257.869 250.907 C 256.291 249.783, 255.006 249.232, 255.012 249.682 M 307 259.014 C 305.945 259.706, 306.538 259.807, 309 259.355 C 310.925 259.002, 312.688 258.552, 312.917 258.356 C 313.146 258.160, 312.246 258.007, 310.917 258.015 C 309.587 258.024, 307.825 258.473, 307 259.014 M 290.728 261.722 C 292.503 261.943, 295.653 261.946, 297.728 261.730 C 299.802 261.513, 298.350 261.333, 294.500 261.328 C 290.650 261.324, 288.952 261.501, 290.728 261.722 M 332.650 272.243 C 332.959 272.743, 329.565 276.718, 325.106 281.076 C 320.647 285.434, 316.662 289.112, 316.250 289.250 C 315.837 289.387, 315.631 289.893, 315.791 290.373 C 315.951 290.853, 315.365 290.970, 314.489 290.634 C 313.511 290.259, 313.148 290.431, 313.549 291.079 C 313.908 291.659, 313.287 292.374, 312.170 292.666 C 311.052 292.958, 309.888 293.850, 309.582 294.648 C 309.143 295.791, 309.710 295.719, 312.263 294.306 C 314.043 293.320, 319.450 288.520, 324.277 283.640 C 329.105 278.759, 333.468 273.994, 333.973 273.050 C 334.638 271.807, 334.505 271.333, 333.490 271.333 C 332.719 271.333, 332.341 271.743, 332.650 272.243 M 302.750 298.566 C 300.137 299.926, 298 301.262, 298 301.536 C 298 301.810, 300.250 300.894, 303 299.500 C 305.750 298.106, 308 296.749, 308 296.483 C 308 296.217, 307.887 296.021, 307.750 296.047 C 307.613 296.072, 305.363 297.206, 302.750 298.566 M 292.500 303.535 C 289.988 304.745, 289.906 304.882, 292 304.378 C 293.375 304.046, 294.928 303.376, 295.450 302.888 C 295.972 302.399, 296.197 302.020, 295.950 302.045 C 295.702 302.070, 294.150 302.740, 292.500 303.535 M 146.250 326.662 C 145.563 326.940, 145.052 328.592, 145.116 330.333 C 145.194 332.450, 145.393 332.837, 145.719 331.500 C 145.987 330.400, 146.905 328.712, 147.758 327.750 C 148.612 326.788, 148.903 326.036, 148.405 326.079 C 147.907 326.122, 146.938 326.385, 146.250 326.662 M 151.749 327.198 C 152.428 328.015, 152.649 329.052, 152.241 329.502 C 151.834 329.952, 152.063 329.997, 152.750 329.601 C 153.438 329.206, 154 329.389, 154 330.008 C 154 330.663, 154.802 330.880, 155.916 330.527 C 156.970 330.192, 158.126 330.394, 158.485 330.976 C 158.844 331.557, 159.557 331.774, 160.069 331.457 C 160.581 331.141, 161 331.323, 161 331.862 C 161 332.400, 162.463 333.160, 164.250 333.551 C 166.037 333.941, 168.497 335.042, 169.716 335.998 C 170.935 336.953, 171.647 338.019, 171.299 338.367 C 170.951 338.715, 171.378 339, 172.248 339 C 173.118 339, 175.731 341.137, 178.053 343.750 C 180.376 346.363, 181.704 347.404, 181.004 346.065 C 180.304 344.726, 177.577 341.564, 174.943 339.038 C 172.309 336.513, 166.857 332.828, 162.827 330.849 C 158.797 328.869, 154.379 326.904, 153.008 326.481 C 150.876 325.823, 150.694 325.927, 151.749 327.198 M 385.390 327.427 C 385.088 328.212, 384.990 329.825, 385.171 331.011 C 385.433 332.731, 385.723 332.442, 386.601 329.584 C 387.206 327.613, 387.305 326, 386.819 326 C 386.334 326, 385.691 326.642, 385.390 327.427 M 392.756 329.250 C 393.926 330.502, 395.038 333.275, 395.262 335.500 L 395.664 339.500 395.832 335.473 C 395.927 333.190, 395.326 330.482, 394.443 329.223 C 393.587 328, 392.384 327, 391.769 327 C 391.154 327, 391.598 328.012, 392.756 329.250 M 144.800 350.764 L 144.500 365.209 159 364.839 C 166.975 364.635, 174.073 364.105, 174.773 363.661 C 175.750 363.041, 175.401 361.666, 173.273 357.743 C 171.748 354.931, 168.297 350.217, 165.604 347.266 C 162.912 344.315, 159.370 341.209, 157.735 340.363 C 156.099 339.517, 152.587 338.261, 149.930 337.572 L 145.099 336.319 144.800 350.764 M 383.964 337.350 C 383.159 338.092, 379.743 339.701, 376.372 340.926 C 372.833 342.212, 368.984 344.493, 367.260 346.326 C 365.618 348.072, 363.088 351.292, 361.637 353.482 C 360.187 355.672, 358.993 358.372, 358.985 359.482 C 358.976 360.592, 358.575 362.122, 358.094 362.882 C 357.613 363.642, 354.833 364.641, 351.917 365.102 C 348.974 365.567, 345.764 366.791, 344.703 367.853 C 343.454 369.101, 343.014 370.468, 343.433 371.790 C 343.787 372.904, 344.734 374.068, 345.538 374.376 C 346.342 374.685, 347 374.501, 347 373.969 C 347 373.436, 346.592 373, 346.094 373 C 345.595 373, 345.423 372.100, 345.710 371 C 345.998 369.900, 346.870 369, 347.648 369 C 348.426 369, 349.294 368.397, 349.577 367.660 C 349.894 366.834, 351.891 366.269, 354.795 366.185 C 357.383 366.110, 363.775 365.789, 369 365.470 C 374.225 365.152, 379.738 364.655, 381.250 364.366 C 382.762 364.077, 384.049 363.764, 384.109 363.671 C 384.168 363.577, 384.506 357.312, 384.859 349.748 C 385.211 342.185, 385.484 335.998, 385.464 335.998 C 385.445 335.999, 384.770 336.607, 383.964 337.350 M 395.355 348.500 C 395.352 353.450, 395.521 355.601, 395.731 353.280 C 395.940 350.959, 395.943 346.909, 395.736 344.280 C 395.530 341.651, 395.358 343.550, 395.355 348.500 M 183 350.642 C 183 351.179, 183.700 352.491, 184.555 353.559 C 186.022 355.389, 186.042 355.357, 184.920 353 C 184.265 351.625, 183.565 350.313, 183.365 350.083 C 183.164 349.854, 183 350.106, 183 350.642 M 393.112 361.567 C 392.413 363.501, 390.189 366.763, 388.170 368.816 C 386.152 370.869, 383.375 373.067, 382 373.701 C 380.625 374.335, 378.825 375.076, 378 375.348 C 377.053 375.660, 377.309 375.871, 378.693 375.921 C 379.899 375.964, 382.374 375.114, 384.193 374.032 C 386.012 372.949, 388.764 370.465, 390.309 368.511 C 391.854 366.557, 393.594 363.595, 394.175 361.928 C 394.756 360.261, 395.041 358.707, 394.807 358.474 C 394.574 358.241, 393.811 359.633, 393.112 361.567 M 187.353 362.332 C 187.709 363.339, 188 365.027, 188 366.082 C 188 367.137, 188.499 368, 189.108 368 C 189.816 368, 189.971 367.004, 189.538 365.250 C 189.164 363.738, 188.374 362.050, 187.782 361.500 C 187.030 360.801, 186.901 361.052, 187.353 362.332 M 137.297 370.896 C 136.332 372.442, 136.440 373.089, 137.885 374.396 C 138.860 375.278, 139.992 376, 140.400 376 C 140.809 376, 140.420 375.278, 139.537 374.395 C 138.600 373.457, 138.182 372.001, 138.533 370.895 C 138.864 369.853, 138.988 369, 138.808 369 C 138.628 369, 137.948 369.853, 137.297 370.896 M 111.333 416.510 C 110.141 417.871, 109.556 419.225, 110.033 419.520 C 110.509 419.815, 111.407 419.109, 112.027 417.950 C 112.646 416.792, 113.719 416.062, 114.410 416.327 C 115.101 416.592, 115.667 416.177, 115.667 415.405 C 115.667 414.632, 115.179 414.008, 114.583 414.018 C 113.987 414.028, 112.525 415.149, 111.333 416.510 M 106.066 424.096 C 104.032 427.716, 103.815 429.196, 104.196 436.846 C 104.457 442.088, 105.291 446.880, 106.312 449 C 107.239 450.925, 109.010 453.650, 110.249 455.056 C 111.487 456.461, 113.564 458.340, 114.865 459.230 C 116.165 460.121, 117.853 460.610, 118.615 460.318 C 119.377 460.025, 120 459.384, 120 458.893 C 120 458.402, 119.345 458, 118.545 458 C 117.745 458, 116.058 456.936, 114.795 455.636 C 113.533 454.337, 111.938 452.318, 111.250 451.150 C 110.563 449.982, 110 448.143, 110 447.062 C 110 445.982, 109.358 442.634, 108.574 439.623 C 107.790 436.612, 107.379 433.103, 107.661 431.825 C 108.077 429.937, 107.964 429.782, 107.056 431 C 106.186 432.169, 106.090 431.837, 106.624 429.500 C 107 427.850, 107.619 426.275, 108 426 C 108.381 425.725, 108.995 424.262, 109.365 422.750 C 109.735 421.238, 109.662 420, 109.203 420 C 108.744 420, 107.332 421.843, 106.066 424.096 M 109.560 425.618 C 109.198 427.058, 109.057 428.391, 109.247 428.580 C 109.436 428.769, 110.093 427.591, 110.708 425.962 C 111.323 424.333, 111.464 423, 111.022 423 C 110.579 423, 109.921 424.178, 109.560 425.618" stroke="none" fill="#ffb649" fill-rule="evenodd"/><path d="M 150.188 83.114 C 150.058 84.826, 148.837 88.128, 147.475 90.452 C 145.185 94.360, 145.012 95.567, 145.156 106.588 L 145.312 118.500 146.030 107 C 146.426 100.675, 147.228 94.306, 147.813 92.847 C 148.398 91.388, 149.354 89.899, 149.938 89.538 C 150.522 89.177, 151 87.424, 151 85.641 C 151 83.858, 151.540 81.860, 152.200 81.200 C 153.133 80.267, 153.069 80, 151.913 80 C 150.966 80, 150.339 81.131, 150.188 83.114 M 344.494 82.006 C 343.496 83.110, 342.898 84.231, 343.165 84.499 C 343.433 84.766, 344.627 83.864, 345.819 82.493 C 347.011 81.122, 347.609 80, 347.148 80 C 346.687 80, 345.493 80.903, 344.494 82.006 M 342.419 91 C 342.686 92.925, 343.122 95.493, 343.387 96.707 C 343.652 97.922, 344.782 100.979, 345.898 103.501 C 347.013 106.024, 348.874 109.419, 350.033 111.046 C 351.191 112.673, 353.120 114.509, 354.320 115.125 L 356.500 116.247 354.293 114.124 C 353.078 112.957, 350.847 109.888, 349.333 107.306 C 347.820 104.723, 345.535 99.210, 344.257 95.055 C 342.979 90.900, 342.151 89.075, 342.419 91 M 106 108.135 C 103.525 108.622, 100.938 109.090, 100.250 109.177 C 99.563 109.263, 99 109.633, 99 110 C 99 110.367, 99.279 110.945, 99.619 111.286 C 99.960 111.626, 100.892 111.251, 101.690 110.452 C 102.489 109.654, 104.911 109, 107.071 109 C 109.232 109, 111 108.550, 111 108 C 111 107.450, 110.888 107.056, 110.750 107.125 C 110.612 107.194, 108.475 107.648, 106 108.135 M 108.029 117.961 C 107.220 118.473, 106.771 119.104, 107.031 119.364 C 107.290 119.624, 108.376 119.198, 109.443 118.418 C 110.509 117.638, 110.959 117.007, 110.441 117.015 C 109.924 117.024, 108.838 117.449, 108.029 117.961 M 144.320 125 C 144.320 128.575, 144.502 130.037, 144.723 128.250 C 144.945 126.463, 144.945 123.537, 144.723 121.750 C 144.502 119.963, 144.320 121.425, 144.320 125 M 334.232 149 C 334.232 150.925, 334.438 151.713, 334.689 150.750 C 334.941 149.787, 334.941 148.213, 334.689 147.250 C 334.438 146.287, 334.232 147.075, 334.232 149 M 243.750 154.572 C 242.238 155.393, 241 156.286, 241 156.558 C 241 156.829, 242.238 156.427, 243.750 155.663 C 245.262 154.899, 247.175 154.023, 248 153.716 C 249.333 153.220, 249.333 153.154, 248 153.119 C 247.175 153.098, 245.262 153.751, 243.750 154.572 M 235.485 159.106 C 233.293 160.264, 229.124 162.989, 226.220 165.161 C 223.315 167.333, 219.043 171.167, 216.727 173.681 C 214.410 176.194, 211.479 179.882, 210.215 181.875 L 207.915 185.500 210.708 182.087 C 212.243 180.209, 215.407 176.569, 217.737 173.997 C 220.068 171.425, 225.303 167.111, 229.371 164.410 C 233.440 161.710, 237.608 158.964, 238.634 158.309 C 239.660 157.654, 240.268 157.091, 239.985 157.059 C 239.702 157.026, 237.677 157.948, 235.485 159.106 M 207.924 161.750 L 205.500 164.500 208.250 162.076 C 209.762 160.742, 211 159.505, 211 159.326 C 211 159.147, 210.853 159, 210.674 159 C 210.495 159, 209.258 160.238, 207.924 161.750 M 334.398 168.405 C 334.102 169.177, 334.044 171.315, 334.270 173.155 C 334.647 176.233, 334.693 176.167, 334.840 172.333 C 334.928 170.042, 335.563 167.940, 336.250 167.662 C 337.229 167.267, 337.222 167.141, 336.219 167.079 C 335.514 167.036, 334.695 167.632, 334.398 168.405 M 204.205 191.649 C 202.595 194.867, 200.495 199.892, 199.537 202.815 C 198.580 205.738, 197.995 208.328, 198.238 208.571 C 198.481 208.814, 199.251 207.097, 199.948 204.756 C 200.646 202.415, 202.712 197.356, 204.538 193.513 C 206.364 189.670, 207.695 186.362, 207.495 186.162 C 207.295 185.961, 205.814 188.431, 204.205 191.649 M 305.899 197.299 C 306.365 197.765, 308.265 197.989, 310.123 197.798 C 313.417 197.459, 313.396 197.438, 309.276 196.951 C 306.953 196.677, 305.433 196.833, 305.899 197.299 M 281.552 199.942 C 280.586 201.010, 280.030 202.473, 280.318 203.192 C 280.722 204.199, 280.860 204.173, 280.921 203.079 C 280.964 202.297, 281.745 200.835, 282.655 199.829 C 283.565 198.823, 284.085 198, 283.810 198 C 283.535 198, 282.519 198.874, 281.552 199.942 M 184.195 207.500 C 184.215 209.150, 184.439 209.704, 184.693 208.731 C 184.947 207.758, 184.930 206.408, 184.656 205.731 C 184.382 205.054, 184.175 205.850, 184.195 207.500 M 197.310 215.500 C 197.315 218.800, 197.502 220.029, 197.725 218.232 C 197.947 216.435, 197.943 213.735, 197.715 212.232 C 197.486 210.729, 197.304 212.200, 197.310 215.500 M 110.232 214 C 110.232 215.925, 110.438 216.713, 110.689 215.750 C 110.941 214.787, 110.941 213.213, 110.689 212.250 C 110.438 211.287, 110.232 212.075, 110.232 214 M 110.370 228 C 110.370 233.775, 110.535 236.137, 110.737 233.250 C 110.939 230.363, 110.939 225.637, 110.737 222.750 C 110.535 219.863, 110.370 222.225, 110.370 228 M 181.320 225 C 181.320 228.575, 181.502 230.037, 181.723 228.250 C 181.945 226.463, 181.945 223.537, 181.723 221.750 C 181.502 219.963, 181.320 221.425, 181.320 225 M 197.320 234 C 197.320 237.575, 197.502 239.037, 197.723 237.250 C 197.945 235.463, 197.945 232.537, 197.723 230.750 C 197.502 228.963, 197.320 230.425, 197.320 234 M 198.086 242.500 C 198.055 243.600, 198.467 245.175, 199 246 C 199.862 247.333, 199.963 247.333, 199.914 246 C 199.884 245.175, 199.473 243.600, 199 242.500 L 198.141 240.500 198.086 242.500 M 201.011 251.404 C 201.005 251.901, 202.536 255.051, 204.413 258.404 C 206.290 261.757, 210.162 267.200, 213.019 270.500 C 215.875 273.800, 218.897 277.175, 219.734 278 C 221.090 279.335, 221.161 279.317, 220.379 277.828 C 219.895 276.908, 217.326 273.718, 214.669 270.737 C 212.013 267.757, 207.855 261.984, 205.431 257.909 C 203.006 253.834, 201.017 250.907, 201.011 251.404 M 205.500 283 C 207.648 285.200, 209.631 287, 209.906 287 C 210.181 287, 208.648 285.200, 206.500 283 C 204.352 280.800, 202.369 279, 202.094 279 C 201.819 279, 203.352 280.800, 205.500 283 M 218.146 282.028 C 216.851 283.107, 215.436 283.769, 215.001 283.500 C 214.566 283.231, 213.952 283.684, 213.636 284.506 C 213.321 285.328, 213.248 286, 213.474 286 C 213.701 286, 215.486 285.056, 217.443 283.901 C 219.399 282.747, 221 281.397, 221 280.901 C 221 280.406, 220.887 280.015, 220.750 280.033 C 220.613 280.052, 219.441 280.949, 218.146 282.028 M 213.563 290.086 C 215.178 291.783, 217.369 293.643, 218.431 294.218 C 219.493 294.793, 218.407 293.405, 216.018 291.132 C 213.629 288.859, 211.439 287, 211.150 287 C 210.862 287, 211.948 288.389, 213.563 290.086 M 139.269 325.693 C 140.242 325.947, 141.592 325.930, 142.269 325.656 C 142.946 325.382, 142.150 325.175, 140.500 325.195 C 138.850 325.215, 138.296 325.439, 139.269 325.693 M 376 325.563 C 376.825 325.745, 379.375 326.039, 381.666 326.216 C 383.957 326.392, 385.618 326.191, 385.357 325.768 C 385.096 325.346, 382.546 325.052, 379.691 325.116 C 376.836 325.180, 375.175 325.381, 376 325.563 M 143.998 345.202 C 143.724 356.038, 143.848 364.556, 144.273 364.129 C 144.698 363.703, 144.922 354.837, 144.771 344.427 L 144.496 325.500 143.998 345.202 M 384.195 334.500 C 384.215 336.150, 384.439 336.704, 384.693 335.731 C 384.947 334.758, 384.930 333.408, 384.656 332.731 C 384.382 332.054, 384.175 332.850, 384.195 334.500 M 375.759 339.423 C 373.702 340.157, 370.936 341.467, 369.613 342.334 C 368.290 343.201, 365.645 345.843, 363.736 348.205 C 361.827 350.567, 359.756 353.480, 359.135 354.679 C 358.514 355.877, 357.790 358.577, 357.526 360.679 C 357.190 363.356, 357.334 364.051, 358.008 363 C 358.537 362.175, 358.976 360.639, 358.985 359.588 C 358.993 358.536, 360.332 355.600, 361.959 353.064 C 363.586 350.528, 366.177 347.246, 367.716 345.772 C 369.255 344.297, 373.436 341.968, 377.007 340.594 C 380.578 339.221, 382.600 338.096, 381.500 338.093 C 380.400 338.090, 377.817 338.689, 375.759 339.423 M 101.139 341.033 C 99.841 342.115, 99.095 343, 99.481 343 C 99.868 343, 101.329 342.100, 102.727 341 C 104.126 339.900, 104.872 339.015, 104.385 339.033 C 103.898 339.052, 102.438 339.952, 101.139 341.033 M 107 351.102 C 105.789 351.967, 105.924 352.081, 107.702 351.693 C 108.913 351.429, 110.115 351.727, 110.373 352.356 C 110.631 352.985, 110.878 352.712, 110.921 351.750 C 110.964 350.788, 110.438 350.007, 109.750 350.015 C 109.063 350.024, 107.825 350.513, 107 351.102 M 344.153 366.867 C 342.969 367.894, 342 369.443, 342 370.308 C 342 371.174, 342.445 372.157, 342.989 372.493 C 343.557 372.844, 343.722 372.439, 343.377 371.539 C 343.046 370.679, 343.373 369.255, 344.103 368.375 C 344.833 367.496, 346.346 366.405, 347.465 365.952 C 348.935 365.356, 349.056 365.109, 347.903 365.063 C 347.025 365.029, 345.337 365.840, 344.153 366.867 M 125.765 408.708 C 127.010 408.947, 127.842 409.448, 127.612 409.821 C 127.383 410.195, 128.754 410.614, 130.659 410.754 C 132.660 410.901, 133.874 410.606, 133.534 410.055 C 133.195 409.506, 135.396 408.948, 138.722 408.740 C 141.900 408.541, 139.775 408.354, 134 408.325 C 128.225 408.296, 124.519 408.468, 125.765 408.708 M 385.500 409 C 386.600 409.473, 388.711 409.891, 390.191 409.930 C 391.671 409.968, 393.160 409.550, 393.500 409 C 393.884 408.378, 392.110 408.027, 388.809 408.070 C 384.920 408.122, 384.035 408.370, 385.500 409 M 123.280 414.120 C 121.674 415.137, 118.904 417.780, 117.125 419.994 C 115.345 422.209, 113.165 425.703, 112.279 427.760 C 111.366 429.882, 110.655 434.312, 110.636 438 C 110.609 443.303, 111.101 445.347, 113.310 449.103 C 114.799 451.635, 116.914 454.517, 118.009 455.508 C 119.104 456.499, 120 457.807, 120 458.414 C 120 459.022, 120.876 460.066, 121.947 460.735 C 123.133 461.476, 123.742 462.743, 123.505 463.976 C 123.290 465.089, 123.539 466, 124.057 466 C 124.576 466, 125 465.550, 125 465 C 125 464.450, 125.787 464.007, 126.750 464.015 C 128.243 464.028, 128.279 464.171, 127 464.984 C 126.018 465.607, 129.258 465.789, 136.376 465.509 C 142.358 465.273, 147.496 464.837, 147.793 464.540 C 148.090 464.243, 147.745 464, 147.027 464 C 146.308 464, 143.073 461.261, 139.837 457.913 C 136.601 454.564, 133.289 450.235, 132.477 448.290 C 131.641 446.289, 131 441.647, 131 437.590 C 131 432.130, 131.536 429.376, 133.250 426.020 C 134.488 423.599, 136.771 420.691, 138.326 419.559 C 141.141 417.507, 141.570 417.500, 263.826 417.500 C 371.901 417.500, 386.581 417.679, 387.180 419 C 387.629 419.991, 387.883 419.575, 387.930 417.775 C 387.995 415.257, 387.805 415.124, 385.442 416.022 C 383.908 416.605, 376 416.751, 365.692 416.387 C 356.236 416.053, 301.475 415.814, 244 415.856 C 186.525 415.898, 138.498 416.145, 137.273 416.405 C 135.461 416.788, 135.088 416.468, 135.273 414.688 C 135.476 412.732, 135.006 412.488, 130.850 412.386 C 127.879 412.313, 125.144 412.939, 123.280 414.120 M 110.437 416.250 L 107.500 419.500 110.750 416.563 C 112.537 414.948, 114 413.485, 114 413.313 C 114 413.141, 113.859 413, 113.687 413 C 113.515 413, 112.052 414.462, 110.437 416.250 M 273.750 413.706 C 274.988 413.944, 277.012 413.944, 278.250 413.706 C 279.488 413.467, 278.475 413.272, 276 413.272 C 273.525 413.272, 272.512 413.467, 273.750 413.706 M 284.269 413.693 C 285.242 413.947, 286.592 413.930, 287.269 413.656 C 287.946 413.382, 287.150 413.175, 285.500 413.195 C 283.850 413.215, 283.296 413.439, 284.269 413.693 M 104.081 424.849 C 103.486 425.960, 103.020 427.911, 103.044 429.184 C 103.076 430.881, 103.465 430.441, 104.499 427.538 C 105.275 425.359, 105.742 423.408, 105.536 423.203 C 105.330 422.997, 104.676 423.738, 104.081 424.849 M 103.248 438.500 C 103.277 443.139, 103.892 446.703, 105.072 449.067 C 106.052 451.029, 107.657 453.279, 108.638 454.067 C 110.082 455.227, 110.026 454.929, 108.342 452.500 C 107.198 450.850, 105.902 448.375, 105.462 447 C 105.021 445.625, 104.334 441.575, 103.934 438 L 103.206 431.500 103.248 438.500 M 160.250 450.716 C 161.762 450.945, 164.238 450.945, 165.750 450.716 C 167.262 450.487, 166.025 450.300, 163 450.300 C 159.975 450.300, 158.738 450.487, 160.250 450.716 M 208.250 450.750 C 230.112 450.900, 265.887 450.900, 287.750 450.750 C 309.612 450.599, 291.725 450.476, 248 450.476 C 204.275 450.476, 186.387 450.599, 208.250 450.750 M 111.015 456.693 C 111.007 457.350, 112.350 458.684, 114 459.659 C 115.650 460.634, 117 461.811, 117 462.275 C 117 462.738, 117.487 462.817, 118.083 462.449 C 118.720 462.055, 117.793 460.949, 115.833 459.764 C 114 458.655, 112.169 457.242, 111.765 456.624 C 111.235 455.812, 111.026 455.831, 111.015 456.693 M 363.250 465.689 C 364.212 465.941, 365.788 465.941, 366.750 465.689 C 367.712 465.438, 366.925 465.232, 365 465.232 C 363.075 465.232, 362.288 465.438, 363.250 465.689" stroke="none" fill="#ebbf94" fill-rule="evenodd"/><path d="M 127.425 49.818 C 126.366 49.992, 122.350 51.296, 118.500 52.714 C 114.650 54.133, 109.475 56.443, 107 57.849 C 104.525 59.254, 100.251 62.225, 97.503 64.452 C 94.755 66.678, 91.943 69.251, 91.253 70.169 C 90.564 71.087, 87.815 74.399, 85.144 77.529 C 82.473 80.659, 78.423 86.807, 76.144 91.191 C 73.865 95.575, 72 100.386, 72 101.881 C 72 103.377, 71.558 105.042, 71.017 105.583 C 70.381 106.219, 69.998 167.112, 69.934 277.900 C 69.863 399.683, 70.147 449.547, 70.917 450.317 C 71.513 450.913, 72.006 452.323, 72.013 453.450 C 72.020 454.578, 73.341 458.094, 74.949 461.265 C 76.558 464.436, 78.914 468.403, 80.187 470.081 C 81.459 471.759, 84.242 475.124, 86.371 477.559 C 88.500 479.994, 91.875 482.979, 93.871 484.192 C 95.867 485.405, 99.075 487.630, 101 489.137 C 102.925 490.643, 106.525 492.688, 109 493.680 C 113.251 495.385, 121.326 495.500, 255 495.765 C 375.561 496.003, 397.092 495.834, 400.500 494.617 C 402.700 493.832, 405.654 492.934, 407.065 492.622 C 408.476 492.310, 411.912 489.868, 414.699 487.195 C 418.641 483.416, 419.925 481.405, 420.475 478.148 C 420.864 475.845, 420.883 471.832, 420.518 469.231 C 420.153 466.629, 418.874 463.324, 417.677 461.887 C 416.480 460.450, 414.375 458.561, 413 457.690 C 411.625 456.820, 408.475 456.047, 406 455.974 C 403.525 455.900, 400.150 456.152, 398.500 456.533 C 396.795 456.926, 393.518 459.334, 390.906 462.112 L 386.312 467 254.625 467 C 138.492 467, 122.869 466.823, 122.362 465.500 C 122.045 464.675, 120.622 464, 119.200 464 C 117.386 464, 115.101 462.427, 111.557 458.740 C 108.775 455.847, 105.487 451.411, 104.250 448.881 C 102.468 445.238, 102 442.558, 102 436 C 102 429.436, 102.467 426.770, 104.250 423.139 C 105.487 420.620, 108.164 416.883, 110.197 414.833 C 112.230 412.783, 115.380 410.295, 117.197 409.303 C 120.320 407.598, 127.948 407.471, 257.500 406.967 C 374.479 406.512, 395.085 406.219, 398.500 404.967 C 401.054 404.030, 405.796 400.247, 411.616 394.500 C 419.567 386.651, 421.134 384.518, 423.866 377.820 L 427 370.139 427 230.192 C 427 109.799, 426.799 90.078, 425.564 89.053 C 424.775 88.398, 423.856 86.655, 423.522 85.181 C 423.189 83.706, 420.798 79.359, 418.208 75.519 C 415.564 71.599, 410.469 66.005, 406.587 62.761 C 402.785 59.583, 398.285 56.270, 396.587 55.398 C 394.889 54.527, 391.025 52.970, 388 51.940 C 382.756 50.154, 376.600 50.054, 255.925 49.783 C 186.309 49.628, 128.484 49.643, 127.425 49.818 M 142.710 80.643 C 140.395 81.822, 137.788 83.622, 136.918 84.643 C 136.048 85.664, 134.360 88.833, 133.168 91.685 C 131.309 96.132, 131 98.785, 131 110.308 L 131 123.745 135.478 127.873 C 139.434 131.519, 140.511 131.997, 144.728 131.978 C 147.352 131.966, 151.462 131.066, 153.859 129.978 C 156.257 128.890, 158.957 127.999, 159.859 127.998 C 160.762 127.996, 164.200 126.168, 167.500 123.935 C 170.800 121.702, 175.188 118.237, 177.250 116.235 C 179.313 114.232, 181 112.251, 181 111.832 C 181 111.413, 182.350 108.941, 184 106.339 C 185.650 103.737, 187 100.997, 187 100.249 C 187 99.502, 187.915 96.882, 189.034 94.426 C 190.726 90.710, 190.895 89.322, 190.038 86.140 C 189.472 84.038, 188.219 81.606, 187.254 80.736 C 185.812 79.437, 182.066 79.097, 166.210 78.828 C 148.111 78.520, 146.660 78.632, 142.710 80.643 M 227.160 79 C 213.939 79.496, 213.798 79.526, 211.327 82.402 C 209.288 84.776, 208.950 85.959, 209.469 88.902 C 209.818 90.881, 210.917 93.625, 211.910 95 L 213.715 97.500 265.695 97.759 C 316.562 98.012, 317.713 97.975, 319.483 96.019 C 320.500 94.895, 321.499 91.867, 321.764 89.103 C 322.225 84.303, 322.144 84.125, 318.368 81.667 L 314.500 79.149 277.500 78.824 C 257.150 78.646, 234.497 78.725, 227.160 79 M 346 79.218 C 344.625 79.952, 342.963 82.115, 342.306 84.026 C 341.610 86.053, 341.363 89.583, 341.715 92.500 C 342.046 95.250, 343.593 100.349, 345.153 103.831 C 346.949 107.841, 350.223 112.488, 354.084 116.509 C 357.909 120.492, 362.481 124.001, 366.356 125.929 C 369.753 127.618, 373.262 129, 374.152 129 C 375.043 129, 377.060 129.672, 378.636 130.494 C 380.211 131.315, 383.094 131.990, 385.042 131.994 C 387.930 131.999, 389.407 131.160, 393.042 127.448 L 397.500 122.897 397.413 111.698 C 397.330 101.037, 397.154 100.129, 393.737 92.769 C 390.722 86.276, 389.576 84.795, 386.574 83.519 C 384.608 82.684, 381.313 81.268, 379.250 80.374 C 376.623 79.235, 371.456 78.618, 362 78.316 C 351.970 77.995, 347.857 78.227, 346 79.218 M 102.542 96.305 L 98.049 100.611 98.014 242.333 C 97.983 368.666, 98.145 384.118, 99.510 384.642 C 100.351 384.965, 103.492 384.165, 106.490 382.865 L 111.939 380.500 111.975 236.250 L 112.011 92 109.523 92 C 107.954 92, 105.376 93.589, 102.542 96.305 M 264.805 134.528 C 264.514 134.819, 260.052 135.906, 254.888 136.944 C 249.725 137.983, 243.925 139.386, 242 140.064 C 240.075 140.741, 236.925 142.091, 235 143.063 C 233.075 144.036, 229.475 145.966, 227 147.353 C 224.525 148.740, 220.925 150.759, 219 151.840 C 217.075 152.921, 211.902 157.455, 207.505 161.917 C 203.107 166.378, 198.261 172.159, 196.735 174.764 C 195.210 177.369, 192.595 182.200, 190.925 185.500 C 189.255 188.800, 187.054 193.975, 186.034 197 C 185.013 200.025, 183.858 205.200, 183.466 208.500 C 183.074 211.800, 182.413 214.950, 181.996 215.500 C 181.580 216.050, 180.996 218.843, 180.700 221.707 C 180.403 224.570, 180.546 229.295, 181.016 232.207 C 181.486 235.118, 182.513 240.425, 183.298 244 C 184.083 247.575, 186.195 253.875, 187.992 258 C 189.789 262.125, 192.700 267.750, 194.460 270.500 C 196.221 273.250, 201.805 279.621, 206.868 284.658 C 211.931 289.694, 219.095 295.629, 222.787 297.846 C 226.479 300.063, 230.846 302.205, 232.490 302.607 C 234.135 303.009, 236.079 303.936, 236.812 304.669 C 237.544 305.401, 239.404 306, 240.946 306 C 242.487 306, 245.662 306.675, 248 307.500 C 251.043 308.574, 256.449 309, 267.020 309 C 279.229 309, 282.978 308.633, 288.645 306.885 C 292.415 305.722, 298.200 303.410, 301.500 301.748 C 304.800 300.086, 309.975 297.027, 313 294.950 C 316.025 292.873, 321.913 287.647, 326.083 283.337 C 330.254 279.027, 335.542 272.323, 337.833 268.440 C 340.125 264.557, 342 261.079, 342 260.712 C 342 260.344, 343.584 256.661, 345.520 252.526 C 347.961 247.311, 348.849 244.245, 348.416 242.521 C 348.073 241.153, 346.323 239.127, 344.528 238.017 C 342.733 236.908, 340.552 236, 339.683 236 C 338.813 236, 336.862 237.625, 335.347 239.611 C 333.833 241.597, 329.403 245.581, 325.504 248.465 C 321.605 251.349, 317.451 254.224, 316.273 254.854 C 315.095 255.484, 312.582 256, 310.688 256 C 308.794 256, 306.685 256.675, 306 257.500 C 305.023 258.678, 302.228 259, 292.992 259 C 284.502 259, 280.432 258.584, 278.364 257.506 C 276.789 256.685, 274.278 256.010, 272.784 256.006 C 271.291 256.003, 267.183 254.414, 263.656 252.475 C 260.129 250.536, 254.986 246.563, 252.227 243.647 C 249.035 240.271, 245.447 234.737, 242.356 228.422 L 237.500 218.500 237.217 205 C 236.964 192.956, 237.186 190.791, 239.272 184.928 C 240.559 181.313, 242.936 176.147, 244.556 173.448 C 246.175 170.749, 250.425 165.579, 254 161.958 C 257.993 157.915, 262.681 154.345, 266.154 152.704 C 269.264 151.234, 273.202 148.860, 274.904 147.427 C 276.607 145.994, 278 144.050, 278 143.107 C 278 142.163, 276.477 139.728, 274.615 137.695 C 272.179 135.036, 270.404 134, 268.282 134 C 266.660 134, 265.096 134.238, 264.805 134.528 M 325.529 145.192 C 325.281 145.911, 324.947 148.075, 324.789 150 C 324.516 153.306, 324.279 153.518, 320.500 153.820 C 318.172 154.006, 315.559 155.020, 314.250 156.244 C 313.011 157.403, 312 159.541, 312 161 C 312 162.478, 313.024 164.613, 314.314 165.826 C 315.801 167.222, 317.910 168, 320.207 168 C 322.548 168, 323.996 168.547, 324.393 169.582 C 324.727 170.452, 325 172.197, 325 173.459 C 325 174.722, 325.646 176.291, 326.435 176.946 C 327.224 177.601, 329.361 177.993, 331.185 177.818 C 334.312 177.518, 334.528 177.245, 335 173 L 335.500 168.500 340.725 167.975 C 343.599 167.686, 346.502 166.898, 347.175 166.225 C 347.849 165.551, 348.400 163.367, 348.400 161.371 C 348.400 158.786, 347.735 157.204, 346.089 155.871 C 344.721 154.763, 342.200 154, 339.908 154 C 336.706 154, 335.954 153.612, 335.549 151.750 C 335.280 150.512, 334.934 148.375, 334.780 147 C 334.537 144.826, 333.945 144.460, 330.241 144.192 C 327.402 143.987, 325.831 144.320, 325.529 145.192 M 138.939 148.651 C 137.531 149.522, 135.281 151.835, 133.939 153.792 L 131.500 157.352 131.184 226.926 C 130.913 286.546, 131.078 296.929, 132.337 299.500 C 133.146 301.150, 134.061 303.288, 134.372 304.250 C 134.827 305.659, 136.105 306, 140.930 306 C 145.725 306, 147.312 305.581, 148.874 303.905 C 150.142 302.544, 151.005 299.830, 151.338 296.155 C 151.620 293.045, 151.871 260.800, 151.895 224.500 C 151.922 184.210, 151.557 157.137, 150.957 155 C 150.417 153.075, 148.968 150.778, 147.738 149.895 C 146.507 149.012, 144.600 148.015, 143.500 147.679 C 142.394 147.342, 140.355 147.777, 138.939 148.651 M 380.669 149.045 C 379.239 150.171, 377.613 152.741, 377.056 154.759 C 376.453 156.944, 375.767 185.793, 375.359 226.144 C 374.730 288.447, 374.811 294.217, 376.374 298.308 C 377.308 300.754, 378.907 303.510, 379.927 304.434 C 381.288 305.665, 383.201 306.031, 387.114 305.806 C 392.175 305.516, 392.563 305.296, 394.707 301.500 L 396.967 297.500 396.984 227.562 L 397 157.624 394.840 154.472 C 393.652 152.738, 391.262 150.348, 389.528 149.160 C 387.795 147.972, 385.677 147, 384.823 147 C 383.969 147, 382.100 147.920, 380.669 149.045 M 295.073 187.728 C 293.383 189.778, 292 192.419, 292 193.596 C 292 195.358, 291.249 195.837, 287.752 196.306 C 284.876 196.692, 282.776 197.722, 281.252 199.494 C 280.013 200.934, 279 202.476, 279 202.921 C 279 203.366, 279.933 204.916, 281.073 206.365 C 282.754 208.503, 283.981 209, 287.573 209 C 291.651 209, 292 209.201, 292 211.550 C 292 212.952, 292.657 215.370, 293.460 216.923 C 294.263 218.475, 295.886 219.998, 297.067 220.307 C 298.248 220.616, 300.197 220.495, 301.398 220.039 C 302.599 219.582, 304.093 218.593, 304.717 217.841 C 305.340 217.090, 305.997 214.707, 306.175 212.547 C 306.478 208.889, 306.736 208.594, 309.952 208.232 C 311.850 208.018, 314.662 207.192, 316.202 206.396 C 317.741 205.600, 319 204.139, 319 203.149 C 319 202.159, 317.882 200.298, 316.515 199.014 C 314.903 197.500, 312.706 196.635, 310.265 196.554 C 306.868 196.440, 306.467 196.138, 306.167 193.464 C 305.983 191.834, 304.723 189.037, 303.366 187.250 C 302.009 185.463, 300.279 184, 299.522 184 C 298.765 184, 296.763 185.678, 295.073 187.728 M 133.082 328.368 C 131.163 331.472, 131 333.232, 131 350.805 L 131 369.874 134.750 373.456 C 136.813 375.426, 139.497 377.299, 140.716 377.619 C 141.935 377.938, 152.611 378.042, 164.439 377.850 C 185.237 377.512, 186.021 377.425, 188.216 375.229 C 189.967 373.477, 190.469 371.877, 190.410 368.229 C 190.368 365.628, 189.401 360.970, 188.260 357.878 C 187.120 354.786, 184.969 350.286, 183.480 347.878 C 181.991 345.470, 178.686 341.324, 176.136 338.664 C 173.168 335.568, 168.359 332.240, 162.770 329.414 C 154.285 325.124, 153.775 325, 144.602 325 L 135.163 325 133.082 328.368 M 365.500 328.924 C 361.650 331.108, 356.395 335.056, 353.823 337.697 C 351.251 340.339, 347.437 345.875, 345.348 350 C 341.924 356.760, 341.547 358.272, 341.525 365.334 C 341.502 372.692, 341.671 373.316, 344.306 375.584 C 347.020 377.921, 347.636 378, 363.096 378 C 376.875 378, 379.591 377.736, 382.790 376.088 C 384.830 375.036, 387.939 372.673, 389.699 370.838 C 391.458 369.002, 393.921 365.250, 395.172 362.500 C 397.179 358.088, 397.450 355.886, 397.474 343.780 C 397.499 330.824, 397.373 329.934, 395.225 327.780 C 393.197 325.748, 391.836 325.470, 382.725 325.227 L 372.500 324.953 365.500 328.924 M 211.924 360.581 C 210.057 362.569, 209.522 364.192, 209.597 367.643 C 209.656 370.365, 210.343 372.771, 211.346 373.775 C 212.335 374.764, 215.505 375.685, 219.249 376.072 C 222.687 376.427, 246.013 376.801, 271.084 376.903 C 313.600 377.077, 316.818 376.968, 318.884 375.295 C 320.102 374.308, 321.482 371.802, 321.949 369.726 C 322.417 367.650, 322.569 365.068, 322.286 363.987 C 322.004 362.907, 320.308 361.118, 318.518 360.011 C 315.370 358.066, 313.613 358, 264.806 358 L 214.349 358 211.924 360.581 M 152.073 431.728 C 150.383 433.778, 149 436.169, 149 437.040 C 149 437.911, 149.927 440.543, 151.060 442.888 C 152.486 445.839, 154.170 447.591, 156.528 448.576 C 159.383 449.769, 173.400 450, 242.990 450 L 326.045 450 330.522 445.873 C 333.682 442.960, 335 440.958, 335 439.070 C 335 437.598, 333.611 434.505, 331.913 432.197 L 328.827 428 241.986 428 L 155.146 428 152.073 431.728" stroke="none" fill="#0b0843" fill-rule="evenodd"/></svg>