<svg xmlns="http://www.w3.org/2000/svg" width="484" height="516" viewBox="0 0 484 516" version="1.1"><path d="M 169 28.569 C 163.775 29.392, 153.415 31.580, 145.978 33.431 C 138.540 35.282, 127.965 38.467, 122.478 40.509 C 116.990 42.550, 107.530 46.571, 101.455 49.443 C 95.380 52.316, 86.605 57.077, 81.955 60.024 C 77.305 62.971, 69.450 68.411, 64.500 72.113 C 59.550 75.816, 51.555 82.523, 46.733 87.019 C 41.912 91.515, 33.417 100.856, 27.856 107.777 C 22.295 114.698, 16.248 122.700, 14.419 125.560 C 12.589 128.419, 8.597 135.329, 5.546 140.915 L 0 151.071 0 248.051 L 0 345.031 6.118 357.265 C 9.482 363.994, 14.579 373.100, 17.445 377.500 C 20.310 381.900, 26.424 390.225, 31.032 396 C 35.639 401.775, 43.704 410.782, 48.954 416.017 C 54.204 421.251, 63.225 429.174, 69 433.624 C 74.775 438.075, 82.875 443.974, 87 446.735 C 91.125 449.495, 99 454.008, 104.500 456.763 C 110 459.517, 118.718 463.443, 123.874 465.486 C 129.030 467.528, 138.364 470.492, 144.616 472.071 C 150.869 473.650, 162.310 475.855, 170.041 476.971 C 178.089 478.133, 189.323 479, 196.328 479 C 203.055 479, 214.108 478.313, 220.889 477.474 C 227.670 476.634, 238.580 474.815, 245.133 473.431 C 251.687 472.048, 261.601 469.331, 267.165 467.394 C 272.729 465.458, 281.792 461.888, 287.305 459.462 C 292.818 457.036, 301.596 452.504, 306.812 449.391 C 312.029 446.278, 321.726 439.629, 328.361 434.615 C 334.996 429.602, 345.438 420.550, 351.565 414.500 C 357.692 408.450, 365.215 400.300, 368.284 396.389 C 371.352 392.478, 376.441 385.503, 379.593 380.889 C 382.744 376.275, 388.203 366.580, 391.724 359.345 C 395.244 352.110, 400.015 340.860, 402.326 334.345 L 406.527 322.500 418.013 321.924 C 424.331 321.608, 431.474 320.731, 433.888 319.975 C 436.412 319.184, 440.534 316.537, 443.594 313.741 C 446.646 310.950, 450.052 306.548, 451.590 303.406 C 453.889 298.707, 454.197 297.044, 453.766 291.670 C 453.489 288.227, 452.467 283.855, 451.495 281.955 C 450.522 280.055, 447.949 276.250, 445.777 273.500 C 443.604 270.750, 432.079 258.155, 420.164 245.511 C 408.249 232.867, 393.325 217.314, 387 210.948 C 379.926 203.829, 373.743 198.533, 370.934 197.187 C 368.040 195.801, 364.459 195, 361.152 195 C 358.283 195, 354.488 195.614, 352.718 196.365 C 350.948 197.116, 347.391 199.479, 344.814 201.615 C 342.236 203.752, 332.786 213.391, 323.814 223.035 C 314.841 232.679, 300.750 247.884, 292.500 256.823 C 284.250 265.761, 275.937 275.587, 274.026 278.658 C 271.147 283.285, 270.486 285.405, 270.168 291.030 C 269.949 294.901, 270.328 299.462, 271.048 301.647 C 271.743 303.753, 274.775 308.058, 277.786 311.215 C 281.568 315.180, 284.848 317.548, 288.398 318.876 C 291.223 319.933, 296.126 321.122, 299.293 321.517 C 302.459 321.913, 310.161 321.917, 316.408 321.527 L 327.765 320.817 329.045 314.788 C 329.749 311.471, 330.351 305.550, 330.382 301.629 C 330.414 297.708, 330.090 293.938, 329.661 293.250 C 329.100 292.350, 325.105 292, 315.406 292 C 302.192 292, 301.951 291.961, 303.011 289.979 C 303.606 288.867, 312.735 279.077, 323.297 268.224 C 333.858 257.370, 346.276 244.330, 350.890 239.245 C 355.505 234.160, 360.057 230, 361.005 230 C 361.954 230, 368.292 235.962, 375.090 243.250 C 381.888 250.537, 388.650 257.625, 390.116 259 C 391.582 260.375, 398.905 267.920, 406.391 275.766 C 413.876 283.612, 420 290.464, 420 290.992 C 420 291.559, 412.937 292.065, 402.786 292.226 L 385.572 292.500 383.263 300.500 C 381.993 304.900, 378.911 314.936, 376.414 322.802 C 373.895 330.738, 369.249 342.311, 365.978 348.802 C 362.715 355.278, 356.545 365.188, 352.159 371 C 347.800 376.775, 338.894 386.757, 332.367 393.182 C 325.840 399.608, 315.410 408.666, 309.189 413.312 C 302.968 417.957, 293.037 424.274, 287.121 427.348 C 281.204 430.422, 272.344 434.489, 267.431 436.385 C 262.519 438.281, 254.450 440.962, 249.500 442.342 C 244.550 443.723, 237.125 445.534, 233 446.367 C 228.875 447.200, 220.094 448.372, 213.486 448.971 C 204.925 449.747, 197.453 449.756, 187.486 449.002 C 179.794 448.420, 167.994 446.830, 161.265 445.469 C 154.535 444.108, 144.860 441.593, 139.765 439.880 C 134.669 438.167, 125.883 434.594, 120.241 431.940 C 114.598 429.286, 106.048 424.551, 101.241 421.418 C 96.433 418.285, 90.475 414.107, 88 412.133 C 85.525 410.160, 79.562 404.999, 74.750 400.664 C 69.937 396.330, 66 392.100, 66 391.264 C 66 390.428, 68.407 387.440, 71.349 384.622 C 74.290 381.805, 78.395 377.363, 80.469 374.750 C 82.544 372.137, 84.788 370, 85.457 370 C 86.125 370, 89.443 372.223, 92.829 374.941 C 96.215 377.659, 103.376 382.803, 108.743 386.373 C 114.109 389.943, 124.532 395.798, 131.905 399.384 C 139.278 402.970, 147.361 406.342, 149.868 406.876 C 153.248 407.597, 155.243 407.508, 157.582 406.530 C 159.317 405.805, 161.871 403.702, 163.259 401.856 C 164.646 400.010, 166.083 397.075, 166.452 395.334 C 166.820 393.592, 166.634 390.356, 166.038 388.142 C 165.331 385.514, 163.596 382.954, 161.041 380.767 C 158.888 378.924, 153.494 375.917, 149.054 374.084 C 144.614 372.251, 137.094 368.522, 132.342 365.797 C 127.590 363.072, 121.181 358.992, 118.101 356.729 C 115.020 354.466, 108.922 349.714, 104.550 346.169 C 100.177 342.624, 94.777 338.895, 92.550 337.883 C 90.322 336.872, 86.676 336.034, 84.446 336.022 C 82.092 336.009, 78.297 337.044, 75.393 338.491 C 72.643 339.862, 67.042 344.071, 62.947 347.845 C 58.851 351.619, 53.481 357.479, 51.014 360.867 L 46.529 367.027 44.818 364.763 C 43.877 363.519, 41.344 359.558, 39.188 355.961 C 37.033 352.365, 34.961 348.451, 34.584 347.264 C 33.983 345.372, 34.432 344.965, 38.199 343.979 C 40.565 343.360, 46.104 341.126, 50.509 339.015 C 54.914 336.903, 60.671 333.281, 63.301 330.966 C 65.932 328.651, 69.029 324.904, 70.184 322.640 C 71.473 320.112, 72.292 316.591, 72.306 313.512 C 72.323 309.826, 71.210 305.854, 68.099 298.500 C 65.772 293, 63.018 284.956, 61.978 280.624 C 60.939 276.293, 59.544 267.467, 58.879 261.011 C 57.949 251.994, 57.936 246.402, 58.822 236.887 C 59.457 230.074, 61.112 219.836, 62.500 214.137 C 63.888 208.437, 66.743 199.662, 68.844 194.637 C 70.944 189.611, 74.652 182.246, 77.082 178.269 C 79.512 174.293, 84.875 166.913, 89 161.870 C 93.125 156.827, 100.325 149.337, 105 145.227 C 109.675 141.116, 115.975 136.069, 119 134.010 C 122.025 131.952, 128.550 128.238, 133.500 125.756 C 138.450 123.274, 146.791 119.871, 152.036 118.194 C 157.281 116.517, 165.606 114.345, 170.536 113.369 C 177.042 112.080, 184.024 111.609, 196 111.652 C 208.891 111.697, 214.729 112.181, 222.688 113.862 C 228.292 115.045, 236.842 117.388, 241.688 119.068 C 246.535 120.749, 255.450 124.544, 261.500 127.501 C 267.550 130.459, 276.550 135.927, 281.500 139.651 C 286.450 143.376, 296.613 152.549, 304.085 160.035 C 311.557 167.522, 319.207 174.792, 321.085 176.192 C 322.963 177.592, 325.754 179.034, 327.287 179.397 C 328.821 179.760, 331.941 179.554, 334.222 178.940 C 336.504 178.326, 340.874 176.121, 343.935 174.041 C 346.996 171.961, 355.483 164.013, 362.797 156.379 C 371.466 147.330, 376.992 140.665, 378.675 137.227 C 380.627 133.242, 381.127 130.987, 380.726 127.994 C 380.434 125.816, 379.180 121.889, 377.939 119.267 C 376.388 115.990, 370.653 109.476, 359.591 98.427 C 350.741 89.588, 338.775 78.598, 333 74.007 C 327.225 69.415, 319.536 63.736, 315.913 61.386 C 312.290 59.037, 304.640 54.655, 298.913 51.649 C 293.186 48.643, 283.307 44.149, 276.960 41.661 C 270.613 39.174, 260.263 35.770, 253.960 34.098 C 247.657 32.425, 238.225 30.326, 233 29.433 C 226.853 28.383, 215.560 27.680, 201 27.441 C 184.366 27.169, 176.023 27.463, 169 28.569 M 170 57.635 C 164.775 58.427, 156.320 60.202, 151.210 61.579 C 146.101 62.957, 138.001 65.456, 133.210 67.132 C 128.420 68.809, 118.565 73.021, 111.311 76.494 C 104.056 79.966, 93.965 85.654, 88.884 89.133 C 83.213 93.018, 74.216 100.871, 65.574 109.480 C 57.833 117.191, 48.905 127.160, 45.734 131.634 C 42.563 136.108, 37.660 143.758, 34.840 148.634 C 32.019 153.510, 27.811 161.775, 25.487 167 C 23.163 172.225, 20.121 179.910, 18.727 184.079 C 17.332 188.247, 15.266 196.125, 14.134 201.586 C 13.003 207.047, 11.613 215.561, 11.047 220.507 C 10.480 225.453, 10.013 236.928, 10.008 246.006 C 10.004 255.084, 10.682 268.359, 11.515 275.506 C 12.349 282.653, 14.159 293.225, 15.538 299 C 16.916 304.775, 18.770 311.750, 19.657 314.500 C 20.544 317.250, 21.389 319.642, 21.534 319.816 C 21.680 319.990, 25.894 317.824, 30.900 315.003 C 35.905 312.181, 40 309.714, 40 309.519 C 40 309.325, 38.446 304.516, 36.546 298.833 C 34.646 293.150, 32.394 284.494, 31.542 279.597 C 30.690 274.701, 29.703 264.982, 29.350 257.999 C 28.954 250.186, 29.180 240.919, 29.936 233.902 C 30.611 227.631, 32.075 218.225, 33.189 213 C 34.303 207.775, 36.963 198.596, 39.100 192.603 C 41.237 186.609, 44.827 178.284, 47.077 174.103 C 49.327 169.921, 53.708 162.675, 56.813 158 C 59.917 153.325, 65.997 145.450, 70.324 140.500 C 74.651 135.550, 81.861 128.187, 86.346 124.138 C 90.831 120.088, 98.529 114.118, 103.453 110.870 C 108.377 107.622, 116.927 102.765, 122.453 100.077 C 127.979 97.389, 137.154 93.573, 142.841 91.597 C 148.529 89.621, 157.529 87.074, 162.841 85.937 C 169.249 84.566, 178.063 83.679, 189.025 83.303 C 201.697 82.869, 208.574 83.142, 218.525 84.476 C 225.661 85.432, 236.885 87.776, 243.467 89.684 C 250.049 91.593, 260.186 95.274, 265.994 97.866 C 271.802 100.458, 281.491 105.648, 287.526 109.400 C 293.560 113.152, 302.144 119.070, 306.600 122.549 C 311.056 126.029, 318.320 132.279, 322.741 136.438 C 327.162 140.597, 331.156 144, 331.616 144 C 332.076 144, 335.726 140.749, 339.726 136.775 C 343.727 132.801, 347 129.077, 347 128.500 C 347 127.922, 341.691 122.032, 335.202 115.412 C 328.713 108.792, 319.218 100.140, 314.103 96.187 C 308.987 92.233, 300.683 86.446, 295.651 83.327 C 290.618 80.209, 282 75.510, 276.500 72.886 C 271 70.262, 263.125 67.021, 259 65.683 C 254.875 64.345, 247.675 62.305, 243 61.148 C 238.325 59.992, 229.189 58.361, 222.699 57.523 C 216.042 56.664, 204.054 56.043, 195.199 56.098 C 186.564 56.152, 175.225 56.844, 170 57.635 M 186 173.144 C 183.525 174.383, 178.945 177.985, 175.823 181.150 C 172.700 184.314, 168.386 189.962, 166.236 193.701 C 164.086 197.441, 161.295 203.322, 160.033 206.771 C 158.772 210.220, 157.314 213.306, 156.793 213.628 C 156.272 213.950, 153.107 214.852, 149.760 215.633 C 146.412 216.414, 141.486 218.243, 138.813 219.699 C 136.139 221.154, 131.979 224.453, 129.569 227.030 C 127.158 229.607, 124.135 233.692, 122.850 236.108 C 120.903 239.769, 120.513 241.998, 120.507 249.500 C 120.501 257.589, 120.796 259.035, 123.430 263.788 C 125.041 266.697, 128.263 270.831, 130.590 272.976 C 132.916 275.120, 137.055 278.008, 139.787 279.392 C 142.519 280.777, 146.948 282.445, 149.627 283.099 C 152.307 283.753, 154.994 284.672, 155.599 285.141 C 156.203 285.610, 157.970 289.033, 159.527 292.747 C 161.083 296.461, 163.887 301.928, 165.759 304.897 C 167.631 307.865, 171.585 312.715, 174.546 315.676 C 177.506 318.637, 182.307 322.166, 185.214 323.520 C 188.830 325.203, 192.266 325.984, 196.090 325.990 C 200.342 325.998, 203.151 325.265, 207.824 322.930 C 212.006 320.840, 215.865 317.758, 219.913 313.272 C 223.623 309.162, 227.962 302.638, 231.445 295.934 C 236.117 286.943, 237.542 285.007, 240.164 284.093 C 241.888 283.492, 244.244 282.996, 245.399 282.990 C 246.555 282.985, 249.857 281.883, 252.737 280.542 C 255.618 279.201, 260.172 276.048, 262.858 273.536 C 265.905 270.686, 268.812 266.625, 270.591 262.734 C 272.775 257.959, 273.449 254.979, 273.471 250 C 273.494 244.873, 272.911 242.301, 270.713 237.824 C 269.179 234.702, 265.804 229.892, 263.213 227.135 C 260.215 223.946, 256.095 220.998, 251.892 219.033 C 248.257 217.334, 243.353 215.615, 240.994 215.212 C 238.635 214.809, 236.338 213.809, 235.890 212.990 C 235.441 212.170, 233.980 208.675, 232.642 205.221 C 231.304 201.768, 228.700 196.399, 226.855 193.289 C 225.010 190.180, 220.800 184.881, 217.500 181.514 C 214.200 178.146, 209.700 174.538, 207.500 173.494 C 205.279 172.440, 200.610 171.440, 197 171.244 C 191.779 170.962, 189.615 171.335, 186 173.144 M 193.033 206.626 C 191.317 208.070, 189 211.040, 187.884 213.227 C 186.769 215.413, 185.423 219.969, 184.894 223.351 C 184.364 226.733, 183.460 230.966, 182.885 232.758 C 182.310 234.549, 180.930 236.502, 179.818 237.098 C 178.706 237.693, 174.579 238.383, 170.648 238.632 C 166.716 238.880, 162.067 239.540, 160.316 240.098 C 158.565 240.655, 155.527 242.888, 153.566 245.059 C 151.605 247.230, 150 249.420, 150 249.926 C 150 250.432, 151.105 252.160, 152.455 253.764 C 154.236 255.881, 156.913 257.253, 162.205 258.763 C 166.217 259.908, 171.922 261.389, 174.881 262.053 C 177.841 262.718, 181.047 264.047, 182.007 265.007 C 182.983 265.983, 184.269 269.779, 184.927 273.626 C 185.573 277.407, 186.548 282.193, 187.093 284.263 C 187.638 286.333, 189.462 289.595, 191.146 291.513 C 193.227 293.883, 195.074 295, 196.915 295 C 198.404 295, 200.664 294.030, 201.936 292.845 C 203.209 291.659, 205.115 288.734, 206.172 286.345 C 207.229 283.955, 208.744 278.288, 209.540 273.750 C 210.353 269.112, 211.632 265.024, 212.461 264.413 C 213.273 263.815, 217.663 262.540, 222.218 261.580 C 226.773 260.620, 232.498 258.859, 234.940 257.667 C 237.381 256.475, 240.253 254.302, 241.320 252.837 C 242.653 251.008, 243.057 249.365, 242.612 247.589 C 242.243 246.119, 240.242 243.865, 237.973 242.363 C 234.718 240.210, 232.187 239.561, 224.241 238.844 C 217.448 238.231, 213.743 237.410, 212 236.131 C 209.805 234.520, 209.432 233.332, 208.942 226.398 C 208.575 221.197, 207.661 217.112, 206.266 214.435 C 205.101 212.199, 202.809 208.937, 201.173 207.185 C 199.536 205.433, 197.738 204, 197.176 204 C 196.613 204, 194.749 205.182, 193.033 206.626" stroke="none" fill="#060527" fill-rule="evenodd"/><path d="M 194.768 26.725 C 196.565 26.947, 199.265 26.943, 200.768 26.715 C 202.271 26.486, 200.800 26.304, 197.500 26.310 C 194.200 26.315, 192.971 26.502, 194.768 26.725 M 114.500 42.385 C 110.100 44.156, 102.733 47.526, 98.128 49.873 C 93.523 52.220, 85.198 57.019, 79.628 60.537 C 74.058 64.055, 67.925 68.326, 66 70.028 C 63.158 72.540, 63.534 72.397, 68 69.268 C 71.025 67.149, 77.100 63.131, 81.500 60.340 C 85.900 57.550, 92.425 53.783, 96 51.969 C 99.575 50.156, 107.675 46.509, 114 43.865 C 120.325 41.220, 124.825 39.081, 124 39.111 C 123.175 39.140, 118.900 40.614, 114.500 42.385 M 170 57.635 C 164.775 58.427, 156.320 60.202, 151.210 61.579 C 146.101 62.957, 138.001 65.456, 133.210 67.132 C 128.420 68.809, 118.565 73.021, 111.311 76.494 C 104.056 79.966, 93.965 85.654, 88.884 89.133 C 83.213 93.018, 74.216 100.871, 65.574 109.480 C 57.833 117.191, 48.905 127.160, 45.734 131.634 C 42.563 136.108, 37.660 143.758, 34.840 148.634 C 32.019 153.510, 27.811 161.775, 25.487 167 C 23.163 172.225, 20.121 179.910, 18.727 184.079 C 17.332 188.247, 15.266 196.125, 14.134 201.586 C 13.003 207.047, 11.613 215.561, 11.047 220.507 C 10.480 225.453, 10.013 236.928, 10.008 246.006 C 10.004 255.084, 10.682 268.359, 11.515 275.506 C 12.349 282.653, 14.159 293.225, 15.538 299 C 16.916 304.775, 18.770 311.750, 19.657 314.500 C 20.544 317.250, 21.389 319.642, 21.534 319.816 C 21.680 319.990, 25.894 317.824, 30.900 315.003 C 35.905 312.181, 40 309.714, 40 309.519 C 40 309.325, 38.446 304.516, 36.546 298.833 C 34.646 293.150, 32.394 284.494, 31.542 279.597 C 30.690 274.701, 29.703 264.982, 29.350 257.999 C 28.954 250.186, 29.180 240.919, 29.936 233.902 C 30.611 227.631, 32.075 218.225, 33.189 213 C 34.303 207.775, 36.963 198.596, 39.100 192.603 C 41.237 186.609, 44.827 178.284, 47.077 174.103 C 49.327 169.921, 53.708 162.675, 56.813 158 C 59.917 153.325, 65.997 145.450, 70.324 140.500 C 74.651 135.550, 81.861 128.187, 86.346 124.138 C 90.831 120.088, 98.529 114.118, 103.453 110.870 C 108.377 107.622, 116.927 102.765, 122.453 100.077 C 127.979 97.389, 137.154 93.573, 142.841 91.597 C 148.529 89.621, 157.529 87.074, 162.841 85.937 C 169.249 84.566, 178.063 83.679, 189.025 83.303 C 201.697 82.869, 208.574 83.142, 218.525 84.476 C 225.661 85.432, 236.885 87.776, 243.467 89.684 C 250.049 91.593, 260.186 95.274, 265.994 97.866 C 271.802 100.458, 281.491 105.648, 287.526 109.400 C 293.560 113.152, 302.144 119.070, 306.600 122.549 C 311.056 126.029, 318.320 132.279, 322.741 136.438 C 327.162 140.597, 331.156 144, 331.616 144 C 332.076 144, 335.726 140.749, 339.726 136.775 C 343.727 132.801, 347 129.077, 347 128.500 C 347 127.922, 341.691 122.032, 335.202 115.412 C 328.713 108.792, 319.218 100.140, 314.103 96.187 C 308.987 92.233, 300.683 86.446, 295.651 83.327 C 290.618 80.209, 282 75.510, 276.500 72.886 C 271 70.262, 263.125 67.021, 259 65.683 C 254.875 64.345, 247.675 62.305, 243 61.148 C 238.325 59.992, 229.189 58.361, 222.699 57.523 C 216.042 56.664, 204.054 56.043, 195.199 56.098 C 186.564 56.152, 175.225 56.844, 170 57.635 M 55.179 78.500 C 51.710 81.525, 49.239 83.979, 49.686 83.954 C 50.134 83.929, 53.200 81.455, 56.500 78.456 C 59.800 75.457, 62.272 73.003, 61.993 73.002 C 61.714 73.001, 58.647 75.475, 55.179 78.500 M 43.946 88.750 L 40.500 92.500 44.250 89.054 C 46.313 87.158, 48 85.471, 48 85.304 C 48 85.137, 47.863 85, 47.696 85 C 47.529 85, 45.842 86.688, 43.946 88.750 M 193.033 206.626 C 191.317 208.070, 189 211.040, 187.884 213.227 C 186.769 215.413, 185.423 219.969, 184.894 223.351 C 184.364 226.733, 183.460 230.966, 182.885 232.758 C 182.310 234.549, 180.930 236.502, 179.818 237.098 C 178.706 237.693, 174.579 238.383, 170.648 238.632 C 166.716 238.880, 162.067 239.540, 160.316 240.098 C 158.565 240.655, 155.527 242.888, 153.566 245.059 C 151.605 247.230, 150 249.420, 150 249.926 C 150 250.432, 151.105 252.160, 152.455 253.764 C 154.236 255.881, 156.913 257.253, 162.205 258.763 C 166.217 259.908, 171.922 261.389, 174.881 262.053 C 177.841 262.718, 181.047 264.047, 182.007 265.007 C 182.983 265.983, 184.269 269.779, 184.927 273.626 C 185.573 277.407, 186.548 282.193, 187.093 284.263 C 187.638 286.333, 189.462 289.595, 191.146 291.513 C 193.227 293.883, 195.074 295, 196.915 295 C 198.404 295, 200.664 294.030, 201.936 292.845 C 203.209 291.659, 205.115 288.734, 206.172 286.345 C 207.229 283.955, 208.744 278.288, 209.540 273.750 C 210.353 269.112, 211.632 265.024, 212.461 264.413 C 213.273 263.815, 217.663 262.540, 222.218 261.580 C 226.773 260.620, 232.498 258.859, 234.940 257.667 C 237.381 256.475, 240.253 254.302, 241.320 252.837 C 242.653 251.008, 243.057 249.365, 242.612 247.589 C 242.243 246.119, 240.242 243.865, 237.973 242.363 C 234.718 240.210, 232.187 239.561, 224.241 238.844 C 217.448 238.231, 213.743 237.410, 212 236.131 C 209.805 234.520, 209.432 233.332, 208.942 226.398 C 208.575 221.197, 207.661 217.112, 206.266 214.435 C 205.101 212.199, 202.809 208.937, 201.173 207.185 C 199.536 205.433, 197.738 204, 197.176 204 C 196.613 204, 194.749 205.182, 193.033 206.626 M 318.924 227.750 L 316.500 230.500 319.250 228.076 C 320.762 226.742, 322 225.505, 322 225.326 C 322 225.147, 321.853 225, 321.674 225 C 321.495 225, 320.258 226.238, 318.924 227.750 M 350.890 239.245 C 346.276 244.330, 333.858 257.370, 323.297 268.224 C 312.735 279.077, 303.606 288.867, 303.011 289.979 C 301.951 291.961, 302.192 292, 315.406 292 C 325.105 292, 329.100 292.350, 329.661 293.250 C 330.090 293.938, 330.414 297.708, 330.382 301.629 C 330.351 305.550, 329.740 311.512, 329.026 314.879 L 327.727 321 322.613 321.005 L 317.500 321.009 312.734 330.377 C 310.112 335.529, 305.746 342.679, 303.032 346.264 C 300.318 349.850, 295.038 355.829, 291.298 359.550 C 287.559 363.272, 281.848 368.282, 278.606 370.684 C 275.365 373.085, 268.390 377.492, 263.106 380.477 C 257.823 383.462, 249.247 387.543, 244.048 389.545 C 238.849 391.547, 231.324 394.022, 227.326 395.045 C 223.327 396.067, 214.306 397.425, 207.278 398.061 C 197.357 398.960, 191.705 398.941, 182 397.975 C 175.125 397.291, 168.713 396.326, 167.750 395.830 C 166.418 395.145, 166 395.334, 166 396.620 C 166 397.550, 164.816 399.864, 163.368 401.762 C 161.921 403.659, 159.317 405.805, 157.582 406.530 C 155.243 407.508, 153.248 407.597, 149.868 406.876 C 147.361 406.342, 139.278 402.970, 131.905 399.384 C 124.532 395.798, 114.109 389.943, 108.743 386.373 C 103.376 382.803, 96.215 377.659, 92.829 374.941 C 89.443 372.223, 86.125 370, 85.457 370 C 84.788 370, 82.544 372.137, 80.469 374.750 C 78.395 377.363, 74.290 381.805, 71.349 384.622 C 68.407 387.440, 66 390.428, 66 391.264 C 66 392.100, 69.937 396.330, 74.750 400.664 C 79.562 404.999, 85.525 410.160, 88 412.133 C 90.475 414.107, 96.433 418.285, 101.241 421.418 C 106.048 424.551, 114.598 429.286, 120.241 431.940 C 125.883 434.594, 134.669 438.167, 139.765 439.880 C 144.860 441.593, 154.535 444.108, 161.265 445.469 C 167.994 446.830, 179.794 448.420, 187.486 449.002 C 197.453 449.756, 204.925 449.747, 213.486 448.971 C 220.094 448.372, 228.875 447.200, 233 446.367 C 237.125 445.534, 244.550 443.723, 249.500 442.342 C 254.450 440.962, 262.519 438.281, 267.431 436.385 C 272.344 434.489, 281.204 430.422, 287.121 427.348 C 293.037 424.274, 302.968 417.957, 309.189 413.312 C 315.410 408.666, 325.840 399.608, 332.367 393.182 C 338.894 386.757, 347.800 376.775, 352.159 371 C 356.545 365.188, 362.715 355.278, 365.978 348.802 C 369.249 342.311, 373.895 330.738, 376.414 322.802 C 378.911 314.936, 381.993 304.900, 383.263 300.500 L 385.572 292.500 402.786 292.226 C 412.937 292.065, 420 291.559, 420 290.992 C 420 290.464, 413.876 283.612, 406.391 275.766 C 398.905 267.920, 391.582 260.375, 390.116 259 C 388.650 257.625, 381.888 250.537, 375.090 243.250 C 368.292 235.963, 361.954 230, 361.005 230 C 360.057 230, 355.505 234.160, 350.890 239.245 M 411 236.313 C 411 236.485, 412.462 237.948, 414.250 239.563 L 417.500 242.500 414.563 239.250 C 412.948 237.463, 411.485 236, 411.313 236 C 411.141 236, 411 236.141, 411 236.313 M 275 309.313 C 275 309.485, 276.462 310.948, 278.250 312.563 L 281.500 315.500 278.563 312.250 C 276.948 310.462, 275.485 309, 275.313 309 C 275.141 309, 275 309.141, 275 309.313 M 443.924 313.750 L 441.500 316.500 444.250 314.076 C 445.762 312.742, 447 311.505, 447 311.326 C 447 311.147, 446.853 311, 446.674 311 C 446.495 311, 445.258 312.238, 443.924 313.750" stroke="none" fill="#eec5a4" fill-rule="evenodd"/></svg>