<svg xmlns="http://www.w3.org/2000/svg" width="484" height="516" viewBox="0 0 484 516" version="1.1"><path d="M 194.768 26.725 C 196.565 26.947, 199.265 26.943, 200.768 26.715 C 202.271 26.486, 200.800 26.304, 197.500 26.310 C 194.200 26.315, 192.971 26.502, 194.768 26.725 M 193.750 55.706 C 194.988 55.944, 197.012 55.944, 198.250 55.706 C 199.488 55.467, 198.475 55.272, 196 55.272 C 193.525 55.272, 192.512 55.467, 193.750 55.706 M 50.437 83.250 L 47.500 86.500 50.750 83.563 C 52.538 81.948, 54 80.485, 54 80.313 C 54 80.141, 53.859 80, 53.687 80 C 53.515 80, 52.052 81.463, 50.437 83.250 M 191.280 82.736 C 193.909 82.943, 197.959 82.940, 200.280 82.731 C 202.601 82.521, 200.450 82.352, 195.500 82.355 C 190.550 82.358, 188.651 82.530, 191.280 82.736 M 211.269 83.693 C 212.242 83.947, 213.592 83.930, 214.269 83.656 C 214.946 83.382, 214.150 83.175, 212.500 83.195 C 210.850 83.215, 210.296 83.439, 211.269 83.693 M 33.924 99.750 L 31.500 102.500 34.250 100.076 C 35.763 98.742, 37 97.505, 37 97.326 C 37 97.147, 36.853 97, 36.674 97 C 36.495 97, 35.258 98.237, 33.924 99.750 M 68.946 105.750 L 65.500 109.500 69.250 106.054 C 71.313 104.158, 73 102.471, 73 102.304 C 73 102.137, 72.863 102, 72.696 102 C 72.529 102, 70.842 103.688, 68.946 105.750 M 331.500 112 C 334.209 114.750, 336.650 117, 336.925 117 C 337.200 117, 335.209 114.750, 332.500 112 C 329.791 109.250, 327.350 107, 327.075 107 C 326.800 107, 328.791 109.250, 331.500 112 M 202.269 111.693 C 203.242 111.947, 204.592 111.930, 205.269 111.656 C 205.946 111.382, 205.150 111.175, 203.500 111.195 C 201.850 111.215, 201.296 111.439, 202.269 111.693 M 58.437 116.250 L 55.500 119.500 58.750 116.563 C 60.538 114.948, 62 113.485, 62 113.313 C 62 113.141, 61.859 113, 61.687 113 C 61.515 113, 60.052 114.463, 58.437 116.250 M 84.453 125.250 L 80.500 129.500 84.750 125.547 C 87.088 123.373, 89 121.460, 89 121.297 C 89 121.134, 88.866 121, 88.703 121 C 88.540 121, 86.627 122.912, 84.453 125.250 M 317 131.500 C 318.292 132.875, 319.574 134, 319.849 134 C 320.124 134, 319.292 132.875, 318 131.500 C 316.708 130.125, 315.426 129, 315.151 129 C 314.876 129, 315.708 130.125, 317 131.500 M 75 134.500 C 72.571 136.975, 70.809 139, 71.084 139 C 71.359 139, 73.571 136.975, 76 134.500 C 78.429 132.025, 80.191 130, 79.916 130 C 79.641 130, 77.429 132.025, 75 134.500 M 367.966 150.750 L 362.500 156.500 368.250 151.034 C 371.413 148.028, 374 145.440, 374 145.284 C 374 145.128, 373.872 145, 373.716 145 C 373.560 145, 370.972 147.588, 367.966 150.750 M 309 165.500 C 310.292 166.875, 311.574 168, 311.849 168 C 312.124 168, 311.292 166.875, 310 165.500 C 308.708 164.125, 307.426 163, 307.151 163 C 306.876 163, 307.708 164.125, 309 165.500 M 338.971 206.750 L 332.500 213.500 339.250 207.029 C 342.962 203.470, 346 200.432, 346 200.279 C 346 200.125, 345.875 200, 345.721 200 C 345.568 200, 342.530 203.037, 338.971 206.750 M 388.500 213 C 395.634 220.150, 401.696 226, 401.971 226 C 402.246 226, 396.634 220.150, 389.500 213 C 382.366 205.850, 376.304 200, 376.029 200 C 375.754 200, 381.366 205.850, 388.500 213 M 204.859 213.968 C 206.311 216.700, 207.657 218.478, 207.850 217.918 C 208.042 217.358, 207.024 215.123, 205.586 212.950 C 204.148 210.778, 202.802 209, 202.594 209 C 202.387 209, 203.406 211.236, 204.859 213.968 M 208 227.167 C 208 229.458, 208.161 231.146, 208.358 230.917 C 208.556 230.688, 208.977 228.813, 209.296 226.750 C 209.616 224.673, 209.456 223, 208.937 223 C 208.422 223, 208 224.875, 208 227.167 M 10.272 228 C 10.272 230.475, 10.467 231.488, 10.706 230.250 C 10.944 229.012, 10.944 226.988, 10.706 225.750 C 10.467 224.512, 10.272 225.525, 10.272 228 M 30.195 227.500 C 30.215 229.150, 30.439 229.704, 30.693 228.731 C 30.947 227.758, 30.930 226.408, 30.656 225.731 C 30.382 225.054, 30.175 225.850, 30.195 227.500 M 318.924 227.750 L 316.500 230.500 319.250 228.076 C 320.762 226.742, 322 225.505, 322 225.326 C 322 225.147, 321.853 225, 321.674 225 C 321.495 225, 320.258 226.238, 318.924 227.750 M 352.946 236.750 L 349.500 240.500 353.250 237.054 C 355.313 235.158, 357 233.471, 357 233.304 C 357 233.137, 356.863 233, 356.696 233 C 356.529 233, 354.842 234.688, 352.946 236.750 M 29.232 237 C 29.232 238.925, 29.438 239.713, 29.689 238.750 C 29.941 237.787, 29.941 236.213, 29.689 235.250 C 29.438 234.287, 29.232 235.075, 29.232 237 M 412.500 238 C 414.648 240.200, 416.631 242, 416.906 242 C 417.181 242, 415.648 240.200, 413.500 238 C 411.352 235.800, 409.369 234, 409.094 234 C 408.819 234, 410.352 235.800, 412.500 238 M 372 240.500 C 373.866 242.425, 375.617 244, 375.892 244 C 376.167 244, 374.866 242.425, 373 240.500 C 371.134 238.575, 369.383 237, 369.108 237 C 368.833 237, 370.134 238.575, 372 240.500 M 171.762 238.707 C 173.006 238.946, 174.806 238.937, 175.762 238.687 C 176.718 238.437, 175.700 238.241, 173.500 238.252 C 171.300 238.263, 170.518 238.468, 171.762 238.707 M 218.269 238.693 C 219.242 238.947, 220.592 238.930, 221.269 238.656 C 221.946 238.382, 221.150 238.175, 219.500 238.195 C 217.850 238.215, 217.296 238.439, 218.269 238.693 M 15.678 248.634 C 15.226 254.208, 15.133 261.858, 15.472 265.634 C 15.810 269.410, 16.253 279.925, 16.456 289 C 16.658 298.075, 17.145 306.962, 17.537 308.750 C 17.929 310.538, 18.594 312, 19.014 312 C 19.434 312, 19.757 312.563, 19.731 313.250 C 19.706 313.938, 19.763 315.400, 19.858 316.500 C 20.002 318.170, 20.190 318.253, 21 317 C 21.613 316.051, 21.975 315.948, 21.985 316.719 C 21.994 317.443, 22.675 317.678, 23.664 317.299 C 24.775 316.872, 25.090 317.045, 24.612 317.819 C 24.145 318.575, 24.433 318.771, 25.442 318.384 C 26.293 318.057, 26.752 317.407, 26.462 316.939 C 26.173 316.471, 27.072 315.344, 28.460 314.434 C 29.849 313.524, 31.662 313.040, 32.491 313.358 C 33.379 313.699, 35.228 312.732, 36.998 311.002 C 38.649 309.388, 40 307.801, 40 307.475 C 40 307.149, 39.581 307.141, 39.069 307.457 C 38.557 307.774, 37.856 307.575, 37.510 307.016 C 37.165 306.457, 37.359 306, 37.941 306 C 38.523 306, 39 305.600, 39 305.111 C 39 304.622, 38.272 304.285, 37.383 304.361 C 36.318 304.453, 35.658 303.563, 35.451 301.754 C 35.279 300.244, 34.852 297.994, 34.503 296.754 C 33.983 294.905, 34.077 294.769, 35.029 296 C 36.013 297.272, 36.098 297.222, 35.594 295.668 C 35.267 294.661, 34.993 293.311, 34.985 292.668 C 34.976 291.978, 34.533 292.114, 33.904 293 C 33.088 294.148, 32.984 293.836, 33.459 291.666 C 33.897 289.670, 33.741 289.042, 32.933 289.541 C 32.112 290.049, 31.976 289.292, 32.454 286.875 C 32.864 284.801, 32.778 283.994, 32.231 284.783 C 31.603 285.688, 30.938 284.841, 29.968 281.902 C 29.212 279.613, 28.657 276.898, 28.735 275.870 C 28.812 274.841, 28.454 274, 27.938 274 C 27.422 274, 27 272.348, 27 270.329 C 27 268.261, 26.236 265.784, 25.250 264.657 C 24.288 263.556, 24.061 262.984, 24.747 263.385 C 25.710 263.948, 25.766 263.514, 24.993 261.482 C 24.443 260.034, 23.302 258.159, 22.459 257.316 C 21.080 255.937, 20.751 256.224, 19.212 260.141 L 17.500 264.500 17 251.500 L 16.500 238.500 15.678 248.634 M 154.948 243.556 C 153.627 244.961, 153.221 245.852, 154.045 245.536 C 154.869 245.220, 156.100 244.070, 156.780 242.981 C 157.460 241.891, 157.867 241, 157.683 241 C 157.499 241, 156.268 242.150, 154.948 243.556 M 341.946 248.750 L 338.500 252.500 342.250 249.054 C 344.313 247.158, 346 245.471, 346 245.304 C 346 245.137, 345.863 245, 345.696 245 C 345.529 245, 343.842 246.688, 341.946 248.750 M 28.195 251.500 C 28.215 253.150, 28.439 253.704, 28.693 252.731 C 28.947 251.758, 28.930 250.408, 28.656 249.731 C 28.382 249.054, 28.175 249.850, 28.195 251.500 M 296.924 251.750 L 294.500 254.500 297.250 252.076 C 298.762 250.742, 300 249.505, 300 249.326 C 300 249.147, 299.853 249, 299.674 249 C 299.495 249, 298.258 250.238, 296.924 251.750 M 383.500 253 C 385.648 255.200, 387.631 257, 387.906 257 C 388.181 257, 386.648 255.200, 384.500 253 C 382.352 250.800, 380.369 249, 380.094 249 C 379.819 249, 381.352 250.800, 383.500 253 M 155.060 253.813 C 154.546 253.984, 155.026 255.026, 156.127 256.127 C 157.280 257.280, 161.599 258.961, 166.314 260.091 C 170.816 261.171, 176.113 262.487, 178.085 263.018 C 180.367 263.631, 182.082 264.884, 182.801 266.463 C 183.423 267.828, 184.462 271.994, 185.109 275.722 C 185.889 280.211, 186.913 282.941, 188.143 283.807 C 189.164 284.525, 189.986 285.650, 189.968 286.307 C 189.951 286.963, 189.276 286.626, 188.468 285.559 C 187.661 284.491, 187 284.136, 187 284.770 C 187 285.404, 187.985 286.840, 189.189 287.961 C 190.392 289.082, 191.797 290, 192.311 290 C 192.825 290, 192.664 290.700, 191.953 291.556 C 191.243 292.412, 191.075 293.034, 191.581 292.938 C 192.086 292.842, 193.089 292.816, 193.809 292.882 C 194.529 292.947, 194.886 293.375, 194.603 293.833 C 194.320 294.292, 195.393 294.667, 196.988 294.667 C 198.584 294.667, 199.801 294.179, 199.694 293.583 C 199.588 292.988, 200.321 292.497, 201.325 292.492 C 202.328 292.488, 203.595 291.588, 204.140 290.492 C 205.115 288.531, 205.106 288.530, 203.565 290.441 C 202.704 291.509, 202.014 291.959, 202.032 291.441 C 202.049 290.924, 202.724 289.626, 203.532 288.559 C 204.339 287.491, 205.016 287.041, 205.035 287.559 C 205.055 288.076, 205.702 287.375, 206.473 286 C 207.244 284.625, 208.634 279.324, 209.561 274.219 C 210.706 267.917, 211.769 264.670, 212.874 264.102 C 213.768 263.642, 217.537 262.705, 221.250 262.020 C 224.963 261.334, 228 260.389, 228 259.918 C 228 259.448, 228.749 259.350, 229.664 259.701 C 230.674 260.089, 231.079 259.937, 230.695 259.316 C 230.347 258.753, 231.286 257.693, 232.781 256.961 C 235.363 255.696, 235.098 255.586, 227.503 254.773 C 220.984 254.075, 218.711 254.221, 215.197 255.562 C 212.827 256.468, 209.815 258.365, 208.504 259.780 C 207.192 261.194, 204.457 266.783, 202.425 272.200 C 200.393 277.616, 198.280 282.327, 197.728 282.668 C 197.177 283.009, 195.967 282.281, 195.039 281.051 C 194.111 279.822, 192.090 274.939, 190.547 270.202 C 188.806 264.855, 186.713 260.559, 185.029 258.875 C 183.537 257.383, 180.557 255.707, 178.408 255.150 C 176.259 254.593, 170.336 253.994, 165.247 253.818 C 160.158 253.643, 155.574 253.641, 155.060 253.813 M 431 257.500 C 432.292 258.875, 433.574 260, 433.849 260 C 434.124 260, 433.292 258.875, 432 257.500 C 430.708 256.125, 429.426 255, 429.151 255 C 428.876 255, 429.708 256.125, 431 257.500 M 10.300 263 C 10.300 266.025, 10.487 267.262, 10.716 265.750 C 10.945 264.238, 10.945 261.762, 10.716 260.250 C 10.487 258.738, 10.300 259.975, 10.300 263 M 392.500 262 C 394.648 264.200, 396.631 266, 396.906 266 C 397.181 266, 395.648 264.200, 393.500 262 C 391.352 259.800, 389.369 258, 389.094 258 C 388.819 258, 390.352 259.800, 392.500 262 M 29.232 264 C 29.232 265.925, 29.438 266.712, 29.689 265.750 C 29.941 264.788, 29.941 263.212, 29.689 262.250 C 29.438 261.288, 29.232 262.075, 29.232 264 M 11.195 274.500 C 11.215 276.150, 11.439 276.704, 11.693 275.731 C 11.947 274.758, 11.930 273.408, 11.656 272.731 C 11.382 272.054, 11.175 272.850, 11.195 274.500 M 30.232 275 C 30.232 276.925, 30.438 277.712, 30.689 276.750 C 30.941 275.788, 30.941 274.212, 30.689 273.250 C 30.438 272.288, 30.232 273.075, 30.232 275 M 313.966 277.750 L 308.500 283.500 314.250 278.034 C 317.413 275.028, 320 272.440, 320 272.284 C 320 272.128, 319.872 272, 319.716 272 C 319.560 272, 316.972 274.587, 313.966 277.750 M 12.195 282.500 C 12.215 284.150, 12.439 284.704, 12.693 283.731 C 12.947 282.758, 12.930 281.408, 12.656 280.731 C 12.382 280.054, 12.175 280.850, 12.195 282.500 M 377.096 283.265 C 375.774 283.944, 373.844 285.643, 372.807 287.041 C 371.771 288.438, 368.522 296.124, 365.589 304.120 C 362.656 312.117, 357.743 323.574, 354.670 329.580 C 351.598 335.586, 346.192 344.470, 342.658 349.322 C 339.123 354.174, 332.016 362.909, 326.865 368.733 C 321.714 374.556, 313.696 382.656, 309.048 386.732 C 304.399 390.808, 296.545 396.852, 291.595 400.163 C 286.645 403.474, 278.748 408.112, 274.047 410.468 C 269.346 412.824, 262.575 415.898, 259 417.298 C 255.425 418.698, 248.900 420.955, 244.500 422.314 C 240.100 423.673, 232.225 425.532, 227 426.446 C 221.775 427.360, 210.750 428.361, 202.500 428.670 C 191.421 429.085, 184.460 428.805, 175.869 427.598 C 169.472 426.699, 160.697 425.043, 156.369 423.917 C 152.041 422.791, 144.601 420.317, 139.836 418.419 C 135.070 416.521, 126.058 412.106, 119.807 408.609 C 113.557 405.111, 105.306 400.330, 101.472 397.985 C 97.637 395.639, 92.588 392.208, 90.250 390.360 C 87.913 388.512, 83.957 385.380, 81.460 383.400 C 77.550 380.300, 77.096 379.572, 78.184 378.150 C 78.880 377.243, 76.245 379.650, 72.329 383.500 C 66.904 388.834, 65.412 390.881, 66.060 392.101 C 66.528 392.982, 69.743 396.326, 73.205 399.534 C 76.667 402.741, 82.875 408.058, 87 411.348 C 91.125 414.639, 97.541 419.306, 101.258 421.719 C 104.975 424.133, 108.532 425.789, 109.163 425.399 C 109.810 424.999, 110.038 425.129, 109.687 425.698 C 109.342 426.255, 112.874 428.567, 117.593 430.874 C 122.284 433.167, 126.614 434.739, 127.215 434.367 C 127.819 433.994, 128.027 434.147, 127.679 434.710 C 127.305 435.315, 132.214 437.420, 139.775 439.897 C 146.774 442.190, 157 444.940, 162.500 446.008 C 168 447.075, 178.639 448.477, 186.142 449.122 C 196.430 450.006, 203.001 450.016, 212.866 449.162 C 220.060 448.538, 229.446 447.306, 233.721 446.423 C 237.997 445.539, 241.757 444.393, 242.078 443.875 C 242.398 443.356, 243.485 443.249, 244.494 443.636 C 245.642 444.077, 246.091 443.956, 245.694 443.314 C 245.297 442.672, 246.038 442.476, 247.679 442.789 C 249.603 443.157, 250.092 442.958, 249.523 442.038 C 248.950 441.111, 249.334 440.971, 251 441.500 C 252.635 442.019, 253.045 441.882, 252.500 441 C 251.961 440.128, 252.349 439.976, 253.875 440.460 C 255.218 440.887, 256 440.703, 256 439.960 C 256 439.314, 256.675 439.045, 257.500 439.362 C 258.325 439.678, 259 439.515, 259 439 C 259 438.485, 259.749 438.350, 260.664 438.701 C 261.874 439.166, 262.104 438.978, 261.508 438.012 C 260.892 437.017, 261.226 436.826, 262.845 437.249 C 264.032 437.560, 264.778 437.449, 264.503 437.004 C 264.227 436.559, 265.365 435.720, 267.029 435.140 C 268.694 434.559, 270.792 434.367, 271.692 434.712 C 272.712 435.104, 273.080 434.939, 272.670 434.275 C 272.308 433.689, 272.725 432.936, 273.596 432.602 C 274.467 432.267, 275.543 432.217, 275.985 432.491 C 276.428 432.765, 277.066 432.269, 277.404 431.391 C 277.766 430.447, 278.652 430.036, 279.566 430.387 C 280.418 430.714, 282.909 430.067, 285.101 428.948 C 287.294 427.830, 290.049 425.809, 291.224 424.457 C 292.399 423.106, 293.816 422, 294.371 422 C 294.927 422, 294.509 422.661, 293.441 423.468 C 292.374 424.276, 291.859 424.951, 292.298 424.968 C 292.737 424.986, 294.273 423.762, 295.711 422.250 C 297.150 420.738, 297.989 420.175, 297.577 421 C 297.164 421.825, 297.805 421.375, 299 420 C 300.195 418.625, 300.815 418.173, 300.376 418.995 C 299.938 419.817, 302.036 418.730, 305.040 416.578 C 308.043 414.427, 311.720 411.770, 313.211 410.674 C 314.702 409.579, 315.642 408.191, 315.300 407.591 C 314.959 406.991, 315.039 406.825, 315.480 407.223 C 315.920 407.621, 318.019 406.569, 320.145 404.885 C 322.368 403.125, 323.727 401.331, 323.344 400.662 C 322.979 400.023, 323.064 399.850, 323.533 400.277 C 324.003 400.704, 326.979 398.490, 330.146 395.355 C 333.314 392.221, 335.632 389.214, 335.298 388.674 C 334.964 388.133, 335.149 387.974, 335.708 388.320 C 336.268 388.666, 338.107 387.430, 339.796 385.574 C 341.485 383.718, 342.559 381.892, 342.183 381.517 C 341.807 381.141, 342.121 380.983, 342.879 381.167 C 343.662 381.356, 347.412 377.393, 351.553 372 C 355.565 366.775, 359.622 361.196, 360.568 359.602 C 361.819 357.494, 361.908 356.921, 360.894 357.499 C 360.127 357.936, 360.512 357.310, 361.750 356.108 C 362.988 354.906, 364.053 353.377, 364.118 352.711 C 364.184 352.045, 364.184 351.163, 364.118 350.750 C 364.053 350.337, 364.477 350, 365.059 350 C 365.641 350, 365.840 349.550, 365.500 349 C 365.160 348.450, 365.434 348, 366.108 348 C 366.782 348, 367.055 347.721, 366.714 347.381 C 366.374 347.040, 366.775 346.082, 367.605 345.252 C 368.436 344.422, 368.869 343.102, 368.569 342.319 C 368.269 341.536, 368.420 341.142, 368.905 341.442 C 369.391 341.742, 370.519 340.160, 371.412 337.928 C 372.306 335.695, 372.777 333.448, 372.459 332.934 C 372.142 332.420, 372.316 332, 372.847 332 C 373.378 332, 374.521 329.919, 375.388 327.375 C 376.255 324.831, 376.744 322.395, 376.476 321.961 C 376.207 321.526, 376.453 321.016, 377.023 320.826 C 377.592 320.636, 378.157 319.135, 378.279 317.490 C 378.400 315.846, 378.783 314.275, 379.128 314 C 379.474 313.725, 380.723 309.900, 381.904 305.500 C 383.085 301.100, 384.544 296.262, 385.147 294.750 L 386.243 292 403.371 291.843 C 414.581 291.740, 418.254 291.481, 414 291.093 C 408.063 290.551, 407.118 290.132, 403.087 286.250 L 398.674 282 389.087 282.015 C 383.472 282.023, 378.504 282.541, 377.096 283.265 M 414 284.500 C 415.292 285.875, 416.574 287, 416.849 287 C 417.124 287, 416.292 285.875, 415 284.500 C 413.708 283.125, 412.426 282, 412.151 282 C 411.876 282, 412.708 283.125, 414 284.500 M 330.343 301.500 C 330.346 305.900, 330.522 307.576, 330.733 305.224 C 330.945 302.872, 330.942 299.272, 330.727 297.224 C 330.512 295.176, 330.339 297.100, 330.343 301.500 M 36.325 300.697 C 36.421 302.455, 36.851 303.544, 37.280 303.116 C 37.710 302.689, 37.631 301.250, 37.105 299.920 C 36.208 297.648, 36.160 297.696, 36.325 300.697 M 275 309.313 C 275 309.485, 276.462 310.948, 278.250 312.563 L 281.500 315.500 278.563 312.250 C 276.948 310.462, 275.485 309, 275.313 309 C 275.141 309, 275 309.141, 275 309.313 M 33.658 311.449 C 33.286 312.418, 33.582 312.714, 34.551 312.342 C 35.348 312.036, 36 311.384, 36 310.893 C 36 310.402, 35.598 310, 35.107 310 C 34.616 310, 33.964 310.652, 33.658 311.449 M 443.924 313.750 L 441.500 316.500 444.250 314.076 C 445.762 312.742, 447 311.505, 447 311.326 C 447 311.147, 446.853 311, 446.674 311 C 446.495 311, 445.258 312.238, 443.924 313.750 M 81.924 372.750 L 79.500 375.500 82.250 373.076 C 83.763 371.742, 85 370.505, 85 370.326 C 85 370.147, 84.853 370, 84.674 370 C 84.495 370, 83.258 371.238, 81.924 372.750 M 166.286 392.500 C 166.294 395.250, 166.488 396.256, 166.718 394.736 C 166.947 393.216, 166.941 390.966, 166.704 389.736 C 166.467 388.506, 166.279 389.750, 166.286 392.500 M 152.250 407.689 C 153.213 407.941, 154.787 407.941, 155.750 407.689 C 156.713 407.438, 155.925 407.232, 154 407.232 C 152.075 407.232, 151.287 407.438, 152.250 407.689 M 343.924 421.750 L 341.500 424.500 344.250 422.076 C 345.762 420.742, 347 419.505, 347 419.326 C 347 419.147, 346.853 419, 346.674 419 C 346.495 419, 345.258 420.238, 343.924 421.750 M 179.269 478.693 C 180.242 478.947, 181.592 478.930, 182.269 478.656 C 182.946 478.382, 182.150 478.175, 180.500 478.195 C 178.850 478.215, 178.296 478.439, 179.269 478.693" stroke="none" fill="#d08b7b" fill-rule="evenodd"/><path d="M 170.961 28.399 C 166.265 29.118, 158.840 30.487, 154.461 31.442 C 150.082 32.397, 142.450 34.320, 137.500 35.714 C 132.550 37.108, 122.875 40.465, 116 43.174 C 109.125 45.884, 99.234 50.377, 94.020 53.160 C 88.806 55.943, 79.356 61.748, 73.020 66.061 C 66.684 70.373, 56.550 78.366, 50.500 83.822 C 44.450 89.278, 35.978 97.997, 31.674 103.198 C 27.370 108.399, 21.200 116.358, 17.964 120.885 C 14.728 125.413, 9.362 134.054, 6.040 140.089 L 0 151.060 0 248.087 L -0 345.113 6.172 357.307 C 9.566 364.013, 14.259 372.425, 16.600 376 C 18.941 379.575, 23.251 385.722, 26.178 389.660 C 29.105 393.598, 35.516 401.363, 40.425 406.915 C 45.333 412.467, 54.248 421.170, 60.235 426.255 C 66.222 431.340, 76.156 439.036, 82.310 443.359 C 88.465 447.681, 99.800 454.289, 107.500 458.043 C 115.200 461.797, 126.225 466.427, 132 468.333 C 137.775 470.239, 147 472.724, 152.500 473.856 C 158 474.987, 167.811 476.608, 174.301 477.457 C 180.792 478.305, 190.930 479, 196.831 479 C 202.732 479, 213.079 478.317, 219.824 477.482 C 226.570 476.646, 236.907 475.035, 242.795 473.900 C 248.683 472.766, 258.805 470.066, 265.290 467.900 C 271.774 465.734, 281.512 462.011, 286.930 459.627 C 292.348 457.243, 301.494 452.484, 307.254 449.052 C 313.015 445.621, 323.295 438.479, 330.098 433.181 C 336.901 427.884, 347.208 418.813, 353.002 413.025 C 358.796 407.236, 367.933 396.650, 373.307 389.500 C 380.646 379.736, 385.048 372.517, 390.992 360.500 C 395.345 351.700, 400.598 339.495, 402.665 333.377 L 406.424 322.254 418.462 321.787 C 427.994 321.418, 431.541 320.861, 435.500 319.111 C 438.250 317.896, 442.224 315.236, 444.332 313.201 C 446.440 311.165, 449.283 307.609, 450.649 305.297 C 452.080 302.878, 453.373 298.784, 453.697 295.651 C 454.072 292.011, 453.743 288.693, 452.702 285.640 C 451.846 283.128, 449.687 278.952, 447.904 276.361 C 446.121 273.769, 437.651 264.198, 429.081 255.092 C 420.511 245.987, 404.821 229.689, 394.213 218.876 C 378.629 202.989, 373.933 198.787, 369.750 196.988 C 365.656 195.227, 363.368 194.870, 358.812 195.283 C 355.549 195.579, 351.599 196.703, 349.704 197.874 C 347.863 199.012, 340.314 206.143, 332.927 213.721 C 325.541 221.300, 312.748 234.857, 304.499 243.848 C 296.249 252.839, 286.404 263.639, 282.619 267.848 C 278.835 272.057, 274.448 278.200, 272.870 281.500 C 270.735 285.966, 270.001 288.979, 270.001 293.282 C 270 296.462, 270.654 300.630, 271.453 302.543 C 272.253 304.456, 275.231 308.479, 278.073 311.483 C 281.770 315.392, 284.840 317.547, 288.869 319.061 C 292.422 320.395, 297.821 321.352, 303.500 321.653 C 308.450 321.915, 315.856 321.763, 319.958 321.315 L 327.415 320.500 328.729 316 C 329.520 313.293, 329.935 307.715, 329.772 302 L 329.500 292.500 315.523 292 L 301.546 291.500 305.470 287 C 307.629 284.525, 316.189 275.525, 324.492 267 C 332.796 258.475, 344.013 246.663, 349.418 240.750 C 354.824 234.838, 360.015 230, 360.954 230 C 361.894 230, 365.776 233.265, 369.581 237.255 C 373.386 241.245, 385.350 253.732, 396.166 265.005 C 406.982 276.277, 416.770 286.696, 417.916 288.158 C 419.062 289.619, 420 291.082, 420 291.408 C 420 291.733, 412.405 292, 403.121 292 L 386.243 292 385.160 294.750 C 384.565 296.262, 382.516 303.125, 380.607 310 C 378.698 316.875, 375.787 326.158, 374.138 330.630 C 372.488 335.101, 368.802 343.426, 365.945 349.130 C 363.088 354.833, 358.014 363.325, 354.669 368 C 351.324 372.675, 342.943 382.284, 336.044 389.353 C 329.145 396.422, 320.125 404.935, 316 408.272 C 311.875 411.608, 304.451 417.003, 299.502 420.260 C 294.553 423.517, 286.398 428.140, 281.379 430.532 C 276.360 432.925, 267.619 436.496, 261.955 438.468 C 256.291 440.439, 247.346 443.129, 242.078 444.445 C 236.810 445.760, 229.350 447.301, 225.500 447.869 C 221.650 448.436, 213.550 449.194, 207.500 449.553 C 201.350 449.918, 191.301 449.712, 184.707 449.085 C 178.221 448.468, 168.096 447.035, 162.207 445.901 C 156.318 444.766, 146.170 442.057, 139.655 439.881 C 133.141 437.705, 123.241 433.656, 117.655 430.882 C 112.070 428.109, 103.900 423.440, 99.500 420.508 C 95.100 417.576, 87.215 411.593, 81.978 407.212 C 76.741 402.832, 70.722 397.327, 68.601 394.980 L 64.746 390.713 69.146 386.607 C 71.566 384.348, 75.965 379.688, 78.923 376.250 C 81.880 372.813, 84.866 370, 85.558 370 C 86.250 370, 89.343 372.058, 92.431 374.574 C 95.519 377.089, 102.423 382.056, 107.773 385.611 C 113.123 389.166, 122.372 394.569, 128.326 397.618 C 134.281 400.666, 141.664 404.024, 144.733 405.080 C 147.802 406.136, 152.112 407, 154.311 407 C 157.682 407, 158.913 406.366, 162.155 402.958 C 165.822 399.103, 166 398.609, 166 392.286 C 166 385.762, 165.931 385.593, 161.668 381.579 C 158.966 379.034, 154.179 376.184, 148.941 374 C 144.323 372.075, 136.710 368.305, 132.023 365.622 C 127.335 362.939, 119.324 357.539, 114.219 353.622 C 109.115 349.705, 102.326 344.605, 99.133 342.290 C 95.940 339.974, 91.324 337.544, 88.875 336.889 C 86.426 336.234, 82.817 335.999, 80.855 336.367 C 78.893 336.736, 75.085 338.479, 72.394 340.242 C 69.702 342.006, 64.015 346.953, 59.757 351.236 C 55.498 355.519, 50.802 360.854, 49.321 363.091 L 46.629 367.159 44.822 364.830 C 43.829 363.548, 41.270 359.575, 39.135 356 C 37.001 352.425, 34.960 348.543, 34.600 347.374 C 34.025 345.510, 34.594 345.040, 39.222 343.553 C 42.125 342.620, 47.757 340.264, 51.738 338.316 C 55.718 336.368, 61.025 332.970, 63.529 330.765 C 66.034 328.560, 69.002 324.956, 70.125 322.755 C 71.368 320.318, 72.181 316.749, 72.204 313.627 C 72.232 309.792, 71.210 306.092, 68.147 298.941 C 65.895 293.683, 63.158 285.583, 62.063 280.941 C 60.969 276.298, 59.553 268.225, 58.916 263 C 58.222 257.294, 58.020 248.785, 58.411 241.696 C 58.769 235.204, 59.756 226.237, 60.603 221.770 C 61.451 217.303, 63.290 210.019, 64.691 205.583 C 66.093 201.148, 68.911 193.915, 70.954 189.510 C 72.998 185.104, 76.336 178.907, 78.373 175.739 C 80.409 172.570, 85.441 165.966, 89.555 161.064 C 93.668 156.161, 100.289 149.259, 104.267 145.726 C 108.245 142.193, 114.425 137.192, 118 134.612 C 121.575 132.033, 129.044 127.708, 134.598 125.001 C 140.151 122.294, 149.536 118.720, 155.453 117.059 C 161.370 115.397, 171.226 113.296, 177.356 112.390 C 185.472 111.190, 191.897 110.903, 201 111.335 C 207.875 111.662, 217.325 112.657, 222 113.547 C 226.675 114.437, 234.550 116.529, 239.500 118.196 C 244.450 119.863, 252.550 123.064, 257.500 125.309 C 262.450 127.554, 269.875 131.620, 274 134.345 C 278.125 137.070, 285.325 142.565, 290 146.556 C 294.675 150.546, 303.159 158.571, 308.853 164.388 C 314.547 170.205, 320.736 175.910, 322.606 177.066 C 324.729 178.378, 327.680 179.167, 330.464 179.167 C 333.421 179.167, 336.705 178.224, 340.212 176.368 C 343.776 174.481, 350.486 168.504, 360.793 158.034 C 371.442 147.218, 376.872 140.898, 378.672 137.227 C 380.613 133.267, 381.127 130.980, 380.733 128.045 C 380.445 125.896, 379.165 121.969, 377.889 119.318 C 376.311 116.039, 370.450 109.377, 359.535 98.457 C 350.716 89.633, 338.550 78.456, 332.500 73.618 C 326.450 68.781, 316.233 61.693, 309.795 57.867 C 303.357 54.042, 294.637 49.316, 290.416 47.366 C 286.195 45.416, 278.413 42.252, 273.121 40.335 C 267.829 38.419, 259.675 35.741, 255 34.384 C 250.325 33.028, 241.100 30.994, 234.500 29.865 C 225.717 28.363, 216.737 27.716, 201 27.453 C 186.586 27.211, 176.686 27.523, 170.961 28.399 M 182.702 56.088 C 177.313 56.533, 169.101 57.610, 164.454 58.480 C 159.806 59.351, 152.065 61.182, 147.252 62.548 C 142.438 63.915, 134.675 66.435, 130 68.149 C 125.325 69.863, 115.303 74.392, 107.728 78.214 C 100.153 82.035, 90.417 87.785, 86.092 90.992 C 81.766 94.199, 72.834 102.150, 66.242 108.662 C 59.650 115.173, 51.604 123.885, 48.362 128.021 C 45.120 132.158, 39.806 140.003, 36.553 145.454 C 33.300 150.905, 28.252 160.646, 25.334 167.100 C 22.416 173.554, 18.681 183.709, 17.033 189.667 C 15.386 195.625, 13.319 204.325, 12.439 209 C 11.431 214.361, 10.645 225.809, 10.309 240 C 9.899 257.315, 10.150 265.567, 11.401 275.811 C 12.294 283.133, 14.154 293.933, 15.533 299.811 C 16.913 305.690, 18.743 312.637, 19.601 315.250 C 20.459 317.863, 21.371 320, 21.627 320 C 21.884 320, 25.336 318.220, 29.297 316.045 C 33.259 313.870, 37.349 311.468, 38.387 310.708 C 40.214 309.370, 40.162 308.981, 36.719 298.413 C 34.764 292.411, 32.683 285.250, 32.095 282.500 C 31.507 279.750, 30.570 272.840, 30.013 267.144 C 29.456 261.448, 29 253.796, 29 250.138 C 29 246.480, 29.674 237.726, 30.498 230.684 C 31.321 223.642, 33.142 213.356, 34.544 207.827 C 35.946 202.297, 38.594 193.783, 40.430 188.905 C 42.266 184.027, 46.282 175.641, 49.355 170.268 C 52.428 164.896, 57.207 157.350, 59.975 153.500 C 62.743 149.650, 68.489 142.675, 72.744 138 C 76.999 133.325, 83.635 126.652, 87.490 123.171 C 91.346 119.691, 97.875 114.571, 102 111.794 C 106.125 109.018, 115.243 103.931, 122.262 100.490 C 129.282 97.050, 139.857 92.635, 145.762 90.680 C 151.668 88.725, 160.775 86.320, 166 85.336 C 173.149 83.990, 180.449 83.550, 195.500 83.559 C 211.855 83.569, 217.608 83.970, 227.069 85.762 C 233.433 86.966, 244.008 89.797, 250.569 92.051 C 257.131 94.306, 266.587 98.145, 271.583 100.583 C 276.579 103.020, 286.077 108.553, 292.690 112.878 C 299.303 117.203, 308.265 123.828, 312.607 127.600 C 316.948 131.373, 322.750 136.606, 325.500 139.229 C 328.250 141.852, 330.939 143.998, 331.476 143.999 C 332.014 144, 335.726 140.749, 339.726 136.775 C 343.727 132.801, 347 129.023, 347 128.378 C 347 127.734, 341.262 121.420, 334.250 114.347 C 327.238 107.274, 317.225 98.314, 312 94.436 C 306.775 90.558, 299.050 85.265, 294.834 82.674 C 290.617 80.082, 282.067 75.514, 275.834 72.522 C 269.600 69.530, 258.980 65.496, 252.233 63.559 C 245.486 61.621, 235.586 59.357, 230.233 58.527 C 224.880 57.697, 214.697 56.564, 207.605 56.009 C 200.512 55.454, 194.212 55.063, 193.605 55.140 C 192.997 55.217, 188.091 55.644, 182.702 56.088 M 188.841 171.915 C 187.379 172.390, 184.094 174.215, 181.541 175.972 C 178.988 177.728, 174.878 181.715, 172.408 184.833 C 169.937 187.950, 166.195 194.100, 164.092 198.500 C 161.988 202.900, 159.533 208.201, 158.635 210.281 C 157.737 212.360, 156.440 214.211, 155.751 214.394 C 155.063 214.577, 152.250 215.259, 149.500 215.910 C 146.750 216.560, 142.250 218.241, 139.500 219.646 C 136.750 221.050, 132.640 223.997, 130.366 226.195 C 128.092 228.392, 124.942 232.734, 123.366 235.845 C 120.880 240.751, 120.500 242.627, 120.500 250 C 120.500 257.529, 120.835 259.104, 123.430 263.788 C 125.041 266.697, 128.263 270.831, 130.590 272.976 C 132.916 275.120, 136.998 277.957, 139.660 279.279 C 142.322 280.601, 146.750 282.273, 149.500 282.994 C 152.250 283.714, 155.287 284.980, 156.250 285.807 C 157.213 286.634, 158 287.736, 158 288.258 C 158 288.779, 159.744 292.872, 161.875 297.353 C 164.007 301.834, 168.216 308.425, 171.229 312 C 174.411 315.776, 179.162 319.967, 182.564 322 C 187.890 325.182, 189.115 325.500, 196.048 325.500 C 203.063 325.500, 204.149 325.209, 209.587 321.871 C 212.925 319.822, 217.989 315.310, 221.214 311.510 C 224.357 307.808, 229.203 300.349, 231.984 294.936 C 234.765 289.523, 237.446 284.842, 237.943 284.535 C 238.439 284.229, 241.227 283.526, 244.138 282.974 C 247.049 282.422, 251.471 280.985, 253.965 279.781 C 256.459 278.578, 260.579 275.652, 263.120 273.281 C 265.916 270.672, 268.869 266.506, 270.596 262.734 C 272.835 257.845, 273.445 255.078, 273.421 249.910 C 273.398 244.802, 272.777 242.065, 270.658 237.734 C 269.155 234.661, 265.804 229.895, 263.213 227.142 C 260.279 224.025, 256.046 220.978, 252 219.069 C 248.425 217.383, 243.421 215.727, 240.879 215.390 L 236.259 214.777 233.164 206.638 C 231.462 202.162, 227.825 195.084, 225.081 190.909 C 222.338 186.733, 218.293 181.690, 216.092 179.702 C 213.891 177.713, 210.171 175.107, 207.824 173.910 C 205.260 172.602, 201.154 171.598, 197.529 171.393 C 194.213 171.205, 190.304 171.440, 188.841 171.915 M 192.033 207.250 C 190.270 209.037, 188.217 211.665, 187.471 213.090 C 186.725 214.514, 185.603 218.789, 184.979 222.590 C 184.355 226.390, 183.393 230.966, 182.842 232.758 C 182.291 234.549, 181.088 236.407, 180.170 236.885 C 179.251 237.364, 174.900 238.081, 170.500 238.478 C 166.100 238.876, 161.143 239.764, 159.484 240.452 C 157.826 241.139, 155.013 243.360, 153.234 245.386 C 151.455 247.412, 150 249.469, 150 249.958 C 150 250.447, 151.138 252.199, 152.530 253.853 C 153.964 255.558, 157.102 257.530, 159.780 258.408 C 162.376 259.260, 167.650 260.613, 171.500 261.413 C 175.350 262.214, 179.246 263.156, 180.158 263.506 C 181.071 263.857, 182.304 265.349, 182.900 266.822 C 183.496 268.295, 184.635 272.956, 185.430 277.181 C 186.226 281.405, 187.585 286.230, 188.449 287.902 C 189.314 289.574, 191.001 291.855, 192.199 292.971 C 193.397 294.087, 195.530 294.990, 196.939 294.978 C 198.347 294.966, 200.466 294.178, 201.647 293.228 C 202.827 292.277, 204.721 289.642, 205.855 287.372 C 206.989 285.101, 208.675 279.100, 209.601 274.035 C 210.987 266.462, 211.660 264.682, 213.393 264.011 C 214.552 263.562, 219.478 262.270, 224.341 261.139 C 229.204 260.009, 235.162 257.923, 237.581 256.505 C 240.406 254.850, 242.218 252.981, 242.644 251.283 C 243.046 249.682, 242.745 247.625, 241.883 246.069 C 241.099 244.656, 238.442 242.497, 235.979 241.271 C 232.872 239.725, 228.827 238.856, 222.773 238.434 C 216.199 237.975, 213.416 237.329, 211.492 235.815 C 209.214 234.024, 208.953 233.142, 209.072 227.653 C 209.146 224.269, 208.737 220.022, 208.163 218.216 C 207.589 216.409, 205.514 212.743, 203.551 210.069 C 201.588 207.395, 199.274 204.935, 198.409 204.603 C 197.544 204.272, 196.477 204, 196.037 204 C 195.597 204, 193.795 205.463, 192.033 207.250" stroke="none" fill="#060527" fill-rule="evenodd"/><path d="M 111.207 43.672 C 107.745 45.088, 105.082 46.415, 105.288 46.622 C 105.495 46.828, 108.552 45.827, 112.082 44.398 C 115.612 42.969, 118.688 41.620, 118.917 41.400 C 119.146 41.180, 118.921 41.022, 118.417 41.049 C 117.912 41.076, 114.668 42.256, 111.207 43.672 M 91.750 53.068 C 89.688 54.157, 88 55.271, 88 55.544 C 88 55.817, 89.800 55.122, 92 54 C 94.200 52.878, 96 51.743, 96 51.480 C 96 51.216, 95.888 51.020, 95.750 51.044 C 95.612 51.069, 93.813 51.979, 91.750 53.068 M 173 57.472 C 168.325 58.161, 161.800 59.290, 158.500 59.981 C 155.200 60.672, 148.450 62.497, 143.500 64.036 C 138.550 65.575, 131.350 68.033, 127.500 69.499 C 123.650 70.964, 115.239 74.780, 108.809 77.978 C 102.380 81.177, 94.055 85.862, 90.309 88.389 C 86.564 90.917, 78.983 97.151, 73.463 102.242 C 67.942 107.334, 60.942 114.200, 57.906 117.500 C 54.870 120.800, 50.120 126.425, 47.351 130 C 44.581 133.575, 40.274 139.888, 37.781 144.029 C 35.288 148.169, 31.589 154.852, 29.561 158.878 C 27.533 162.905, 24.315 170.069, 22.408 174.797 C 20.502 179.526, 17.824 187.694, 16.458 192.948 C 15.093 198.201, 13.324 206.550, 12.529 211.500 C 11.734 216.450, 10.785 227.025, 10.420 235 C 10.034 243.423, 10.230 255.441, 10.887 263.676 C 11.510 271.472, 12.710 281.597, 13.554 286.176 C 14.399 290.754, 15.337 295.850, 15.639 297.500 C 15.941 299.150, 16.335 300.651, 16.514 300.837 C 16.693 301.022, 16.671 295.847, 16.465 289.337 C 16.259 282.826, 15.844 272.100, 15.542 265.500 C 15.241 258.900, 15.384 250.125, 15.861 246 C 16.721 238.564, 16.730 238.610, 16.935 251.500 L 17.141 264.500 19.063 260.171 C 20.774 256.319, 21.150 256.008, 22.489 257.346 C 23.316 258.173, 24.443 260.034, 24.993 261.482 C 25.766 263.514, 25.710 263.948, 24.747 263.385 C 24.061 262.984, 24.287 263.556, 25.250 264.657 C 26.236 265.784, 27 268.261, 27 270.329 C 27 272.348, 27.382 274, 27.848 274 C 28.314 274, 28.734 275.238, 28.782 276.750 C 28.829 278.262, 29.594 281.075, 30.481 283 C 32.048 286.397, 32.078 286.412, 31.520 283.500 C 31.204 281.850, 30.338 274.017, 29.597 266.094 C 28.636 255.822, 28.501 248.216, 29.129 239.594 C 29.613 232.942, 30.920 222.870, 32.033 217.211 C 33.146 211.552, 35.223 203.227, 36.647 198.711 C 38.072 194.195, 40.897 186.675, 42.925 182 C 44.954 177.325, 49.253 169.256, 52.479 164.069 C 55.706 158.882, 61.828 150.308, 66.084 145.017 C 70.340 139.725, 77.889 131.527, 82.859 126.797 C 87.829 122.068, 96.060 115.412, 101.150 112.007 C 106.241 108.602, 114.366 103.828, 119.206 101.397 C 124.046 98.966, 131.492 95.582, 135.753 93.877 C 140.014 92.172, 147.100 89.727, 151.500 88.443 C 155.900 87.159, 164.225 85.325, 170 84.367 C 176.679 83.259, 185.958 82.622, 195.500 82.617 C 205.066 82.612, 214.485 83.250, 221.500 84.378 C 227.550 85.350, 237.170 87.493, 242.878 89.140 C 248.586 90.786, 258.263 94.282, 264.384 96.908 C 270.504 99.534, 279.109 103.845, 283.506 106.486 C 287.903 109.128, 294.425 113.330, 298 115.824 C 301.575 118.317, 307.200 122.574, 310.500 125.283 C 313.800 127.991, 318.982 132.523, 322.016 135.354 C 325.050 138.184, 328.525 141.346, 329.739 142.380 C 331.944 144.259, 331.949 144.256, 339.472 136.961 C 343.613 132.947, 347 129.216, 347 128.670 C 347 128.125, 341.488 122.083, 334.750 115.243 C 328.012 108.404, 317.550 99.108, 311.500 94.584 C 305.450 90.061, 296.900 84.229, 292.500 81.623 C 288.100 79.018, 280.748 75.080, 276.162 72.873 C 271.576 70.665, 263.219 67.350, 257.591 65.507 C 251.963 63.663, 244.015 61.465, 239.929 60.622 C 235.843 59.780, 227.189 58.395, 220.699 57.545 C 214.208 56.695, 202.733 56.049, 195.199 56.110 C 187.664 56.170, 177.675 56.783, 173 57.472 M 71.732 65.536 C 69.679 66.931, 68 68.287, 68 68.550 C 68 68.813, 69.800 67.837, 72 66.381 C 74.200 64.925, 76 63.569, 76 63.367 C 76 63.165, 75.879 63, 75.732 63 C 75.585 63, 73.785 64.141, 71.732 65.536 M 43.946 88.750 L 40.500 92.500 44.250 89.054 C 46.313 87.158, 48 85.471, 48 85.304 C 48 85.137, 47.863 85, 47.696 85 C 47.529 85, 45.842 86.688, 43.946 88.750 M 191.553 208.120 C 190.109 209.836, 188.271 212.509, 187.468 214.061 C 186.666 215.613, 185.549 220.127, 184.987 224.092 C 184.425 228.058, 183.410 232.458, 182.732 233.872 C 182.054 235.285, 180.375 237.011, 179 237.706 C 177.625 238.401, 174.025 238.980, 171 238.991 C 167.975 239.002, 163.895 239.457, 161.934 240.002 C 159.972 240.547, 157.387 242.119, 156.190 243.496 C 154.993 244.873, 153.569 246, 153.026 246 C 152.483 246, 151.766 247.083, 151.434 248.407 C 151.102 249.731, 151.329 251.745, 151.938 252.884 C 152.547 254.023, 154.048 255.439, 155.273 256.032 C 157.416 257.070, 157.427 257.052, 155.559 255.555 C 154.115 254.398, 153.987 253.974, 155.059 253.898 C 155.851 253.842, 160.550 253.869, 165.500 253.958 C 170.450 254.047, 176.259 254.580, 178.408 255.141 C 180.557 255.703, 183.537 257.383, 185.029 258.875 C 186.713 260.559, 188.806 264.855, 190.547 270.202 C 192.090 274.939, 194.111 279.822, 195.039 281.051 C 195.967 282.281, 197.177 283.009, 197.728 282.668 C 198.280 282.327, 200.393 277.616, 202.425 272.200 C 204.457 266.783, 207.192 261.194, 208.504 259.780 C 209.815 258.365, 212.827 256.468, 215.197 255.562 C 218.686 254.230, 221.030 254.073, 227.503 254.740 L 235.500 255.563 232.500 257.318 C 229.810 258.892, 229.758 259.007, 232 258.432 C 233.375 258.079, 235.850 257.027, 237.500 256.095 C 239.150 255.162, 241.070 253.221, 241.766 251.781 C 242.695 249.857, 242.749 248.544, 241.967 246.831 C 241.382 245.549, 239.274 243.433, 237.282 242.130 C 234.419 240.255, 231.635 239.600, 223.988 238.999 C 218.668 238.581, 213.380 237.739, 212.238 237.127 C 211.095 236.516, 209.667 234.522, 209.065 232.697 C 208.462 230.871, 208.047 227.322, 208.142 224.809 C 208.279 221.204, 207.519 218.790, 204.545 213.370 C 202.472 209.591, 200.263 206.169, 199.638 205.765 C 199.012 205.361, 197.528 205.024, 196.339 205.015 C 195.134 205.007, 193.017 206.380, 191.553 208.120 M 347.264 243.297 C 340.534 250.559, 327.822 264.039, 319.014 273.254 C 310.206 282.468, 303 290.456, 303 291.004 C 303 291.616, 308.164 292, 316.393 292 C 327.683 292, 329.881 292.248, 330.393 293.582 C 330.727 294.452, 330.969 298.164, 330.932 301.832 C 330.894 305.499, 330.107 311.425, 329.182 315 L 327.500 321.500 322.525 321.500 L 317.549 321.500 312.311 331.278 C 309.430 336.656, 305.009 343.739, 302.486 347.018 C 299.963 350.297, 294.884 355.981, 291.199 359.648 C 287.515 363.316, 281.848 368.282, 278.606 370.684 C 275.365 373.085, 268.390 377.492, 263.106 380.477 C 257.823 383.462, 249.247 387.543, 244.048 389.545 C 238.849 391.547, 231.248 394.041, 227.156 395.088 C 223.065 396.134, 213.593 397.490, 206.108 398.101 C 194.980 399.010, 190.222 398.939, 180 397.715 C 168.508 396.338, 167.419 396.349, 166.500 397.855 C 165.950 398.755, 163.647 401.406, 161.382 403.746 C 158.565 406.655, 156.421 408, 154.600 408 C 153.135 408, 149.139 407.059, 145.718 405.909 C 142.298 404.759, 134.604 401.315, 128.620 398.257 C 122.636 395.199, 112.511 389.138, 106.120 384.789 C 99.729 380.440, 92.483 375.281, 90.018 373.324 L 85.536 369.765 81.269 374.479 C 78.921 377.071, 77.237 379.575, 77.527 380.043 C 77.816 380.511, 81.930 383.887, 86.670 387.546 C 91.411 391.205, 98.249 396.010, 101.866 398.224 C 105.484 400.438, 113.557 405.111, 119.807 408.609 C 126.058 412.106, 135.070 416.521, 139.836 418.419 C 144.601 420.317, 152.041 422.791, 156.369 423.917 C 160.697 425.043, 169.472 426.699, 175.869 427.598 C 184.460 428.805, 191.421 429.085, 202.500 428.670 C 210.750 428.361, 221.775 427.360, 227 426.446 C 232.225 425.532, 240.100 423.673, 244.500 422.314 C 248.900 420.955, 255.425 418.698, 259 417.298 C 262.575 415.898, 269.346 412.824, 274.047 410.468 C 278.748 408.112, 286.645 403.474, 291.595 400.163 C 296.545 396.852, 304.399 390.808, 309.048 386.732 C 313.696 382.656, 321.714 374.556, 326.865 368.733 C 332.016 362.909, 339.123 354.174, 342.658 349.322 C 346.192 344.470, 351.598 335.586, 354.670 329.580 C 357.743 323.574, 362.656 312.117, 365.589 304.120 C 368.522 296.124, 371.771 288.438, 372.807 287.041 C 373.844 285.643, 375.774 283.944, 377.096 283.265 C 378.503 282.542, 383.465 282.023, 389.057 282.015 L 398.613 282 403.445 286.500 C 408.072 290.808, 408.536 291, 414.347 291 L 420.416 291 415.958 286.266 C 413.506 283.662, 403.844 273.650, 394.487 264.016 C 385.129 254.382, 374.153 242.787, 370.094 238.250 C 366.036 233.713, 361.992 230.021, 361.108 230.047 C 360.223 230.073, 353.994 236.036, 347.264 243.297 M 187.964 284.836 C 188.623 286.120, 189.436 286.897, 189.771 286.562 C 190.107 286.227, 189.568 285.176, 188.574 284.226 C 186.846 282.576, 186.819 282.603, 187.964 284.836 M 204 287.697 C 204 288.264, 202.814 289.914, 201.364 291.364 C 199.914 292.814, 199.208 294, 199.796 294 C 200.383 294, 201.844 292.624, 203.041 290.942 C 204.238 289.261, 204.944 287.611, 204.609 287.276 C 204.274 286.941, 204 287.130, 204 287.697 M 190.935 290.908 C 192.145 292.609, 193.668 293.986, 194.318 293.970 C 194.968 293.953, 194.703 293.475, 193.729 292.908 C 192.755 292.341, 192.163 291.545, 192.414 291.139 C 192.665 290.733, 191.940 289.819, 190.802 289.108 C 188.794 287.854, 188.798 287.907, 190.935 290.908 M 34.501 297.004 C 34.851 298.106, 35.267 300.222, 35.425 301.706 C 35.583 303.190, 36.299 304.600, 37.016 304.839 C 37.940 305.147, 38.096 304.725, 37.551 303.386 C 37.129 302.349, 36.361 300.038, 35.845 298.250 C 35.328 296.462, 34.672 295, 34.386 295 C 34.099 295, 34.151 295.902, 34.501 297.004 M 34 310.987 C 34 311.529, 32.480 312.608, 30.622 313.385 C 28.764 314.161, 26.938 315.292, 26.563 315.898 C 26.188 316.504, 26.321 317, 26.858 317 C 27.394 317, 27.983 316.663, 28.167 316.250 C 28.350 315.837, 30.188 314.642, 32.250 313.593 C 34.313 312.543, 36 311.306, 36 310.843 C 36 310.379, 35.550 310, 35 310 C 34.450 310, 34 310.444, 34 310.987 M 21.079 317.250 C 21.036 318.212, 21.648 319, 22.441 319 C 23.234 319, 24.207 318.474, 24.605 317.830 C 25.085 317.053, 24.791 316.866, 23.729 317.274 C 22.849 317.611, 21.911 317.350, 21.644 316.694 C 21.376 316.037, 21.122 316.288, 21.079 317.250 M 265 436 C 262.525 437.039, 261.175 437.880, 262 437.870 C 262.825 437.860, 265.300 437.018, 267.500 436 C 269.700 434.982, 271.050 434.140, 270.500 434.130 C 269.950 434.120, 267.475 434.961, 265 436" stroke="none" fill="#eec5a4" fill-rule="evenodd"/></svg>